  0
SECTION
  2
HEADER
  9
$ACADVER
  1
AC1032
  9
$ACADMAINTVER
 90
      155
  9
$DWGCODEPAGE
  3
ANSI_1252
  9
$REQUIREDVERSIONS
160
                 0
  9
$INSBASE
 10
0.0
 20
0.0
 30
0.0
  9
$EXTMIN
 10
1.000000000000000E+20
 20
1.000000000000000E+20
 30
1.000000000000000E+20
  9
$EXTMAX
 10
-1.000000000000000E+20
 20
-1.000000000000000E+20
 30
-1.000000000000000E+20
  9
$LIMMIN
 10
0.0
 20
0.0
  9
$LIMMAX
 10
12.0
 20
9.0
  9
$ORTHOMODE
 70
     0
  9
$REGENMODE
 70
     1
  9
$FILLMODE
 70
     1
  9
$QTEXTMODE
 70
     0
  9
$MIRRTEXT
 70
     0
  9
$LTSCALE
 40
1.0
  9
$ATTMODE
 70
     1
  9
$TEXTSIZE
 40
0.2
  9
$TRACEWID
 40
0.05
  9
$TEXTSTYLE
  7
Standard
  9
$CLAYER
  8
0
  9
$CELTYPE
  6
ByLayer
  9
$CECOLOR
 62
   256
  9
$CELTSCALE
 40
1.0
  9
$DISPSILH
 70
     0
  9
$DIMSCALE
 40
1.0
  9
$DIMASZ
 40
0.18
  9
$DIMEXO
 40
0.0625
  9
$DIMDLI
 40
0.38
  9
$DIMRND
 40
0.0
  9
$DIMDLE
 40
0.0
  9
$DIMEXE
 40
0.18
  9
$DIMTP
 40
0.0
  9
$DIMTM
 40
0.0
  9
$DIMTXT
 40
0.18
  9
$DIMCEN
 40
0.09
  9
$DIMTSZ
 40
0.0
  9
$DIMTOL
 70
     0
  9
$DIMLIM
 70
     0
  9
$DIMTIH
 70
     1
  9
$DIMTOH
 70
     1
  9
$DIMSE1
 70
     0
  9
$DIMSE2
 70
     0
  9
$DIMTAD
 70
     0
  9
$DIMZIN
 70
     0
  9
$DIMBLK
  1

  9
$DIMASO
 70
     1
  9
$DIMSHO
 70
     1
  9
$DIMPOST
  1

  9
$DIMAPOST
  1

  9
$DIMALT
 70
     0
  9
$DIMALTD
 70
     2
  9
$DIMALTF
 40
25.4
  9
$DIMLFAC
 40
1.0
  9
$DIMTOFL
 70
     0
  9
$DIMTVP
 40
0.0
  9
$DIMTIX
 70
     0
  9
$DIMSOXD
 70
     0
  9
$DIMSAH
 70
     0
  9
$DIMBLK1
  1

  9
$DIMBLK2
  1

  9
$DIMSTYLE
  2
Standard
  9
$DIMCLRD
 70
     0
  9
$DIMCLRE
 70
     0
  9
$DIMCLRT
 70
     0
  9
$DIMTFAC
 40
1.0
  9
$DIMGAP
 40
0.09
  9
$DIMJUST
 70
     0
  9
$DIMSD1
 70
     0
  9
$DIMSD2
 70
     0
  9
$DIMTOLJ
 70
     1
  9
$DIMTZIN
 70
     0
  9
$DIMALTZ
 70
     0
  9
$DIMALTTZ
 70
     0
  9
$DIMUPT
 70
     0
  9
$DIMDEC
 70
     4
  9
$DIMTDEC
 70
     4
  9
$DIMALTU
 70
     2
  9
$DIMALTTD
 70
     2
  9
$DIMTXSTY
  7
Standard
  9
$DIMAUNIT
 70
     0
  9
$DIMADEC
 70
     0
  9
$DIMALTRND
 40
0.0
  9
$DIMAZIN
 70
     0
  9
$DIMDSEP
 70
    46
  9
$DIMATFIT
 70
     3
  9
$DIMFRAC
 70
     0
  9
$DIMLDRBLK
  1

  9
$DIMLUNIT
 70
     2
  9
$DIMLWD
 70
    -2
  9
$DIMLWE
 70
    -2
  9
$DIMTMOVE
 70
     0
  9
$DIMFXL
 40
1.0
  9
$DIMFXLON
 70
     0
  9
$DIMJOGANG
 40
0.7853981633974483
  9
$DIMTFILL
 70
     0
  9
$DIMTFILLCLR
 70
     0
  9
$DIMARCSYM
 70
     0
  9
$DIMLTYPE
  6

  9
$DIMLTEX1
  6

  9
$DIMLTEX2
  6

  9
$DIMTXTDIRECTION
 70
     0
  9
$LUNITS
 70
     2
  9
$LUPREC
 70
     4
  9
$SKETCHINC
 40
0.1
  9
$FILLETRAD
 40
0.0
  9
$AUNITS
 70
     0
  9
$AUPREC
 70
     0
  9
$MENU
  1
.
  9
$ELEVATION
 40
0.0
  9
$PELEVATION
 40
0.0
  9
$THICKNESS
 40
0.0
  9
$LIMCHECK
 70
     0
  9
$CHAMFERA
 40
0.0
  9
$CHAMFERB
 40
0.0
  9
$CHAMFERC
 40
0.0
  9
$CHAMFERD
 40
0.0
  9
$SKPOLY
 70
     0
  9
$TDCREATE
 40
2459315.257129630
  9
$TDUCREATE
 40
2459315.548796296
  9
$TDUPDATE
 40
2459315.257129630
  9
$TDUUPDATE
 40
2459315.548796296
  9
$TDINDWG
 40
0.0000000000
  9
$TDUSRTIMER
 40
0.0000000000
  9
$USRTIMER
 70
     1
  9
$ANGBASE
 50
0.0
  9
$ANGDIR
 70
     0
  9
$PDMODE
 70
     0
  9
$PDSIZE
 40
0.0
  9
$PLINEWID
 40
0.0
  9
$SPLFRAME
 70
     0
  9
$SPLINETYPE
 70
     6
  9
$SPLINESEGS
 70
     8
  9
$HANDSEED
  5
9F
  9
$SURFTAB1
 70
     6
  9
$SURFTAB2
 70
     6
  9
$SURFTYPE
 70
     6
  9
$SURFU
 70
     6
  9
$SURFV
 70
     6
  9
$UCSBASE
  2

  9
$UCSNAME
  2

  9
$UCSORG
 10
0.0
 20
0.0
 30
0.0
  9
$UCSXDIR
 10
1.0
 20
0.0
 30
0.0
  9
$UCSYDIR
 10
0.0
 20
1.0
 30
0.0
  9
$UCSORTHOREF
  2

  9
$UCSORTHOVIEW
 70
     0
  9
$UCSORGTOP
 10
0.0
 20
0.0
 30
0.0
  9
$UCSORGBOTTOM
 10
0.0
 20
0.0
 30
0.0
  9
$UCSORGLEFT
 10
0.0
 20
0.0
 30
0.0
  9
$UCSORGRIGHT
 10
0.0
 20
0.0
 30
0.0
  9
$UCSORGFRONT
 10
0.0
 20
0.0
 30
0.0
  9
$UCSORGBACK
 10
0.0
 20
0.0
 30
0.0
  9
$PUCSBASE
  2

  9
$PUCSNAME
  2

  9
$PUCSORG
 10
0.0
 20
0.0
 30
0.0
  9
$PUCSXDIR
 10
1.0
 20
0.0
 30
0.0
  9
$PUCSYDIR
 10
0.0
 20
1.0
 30
0.0
  9
$PUCSORTHOREF
  2

  9
$PUCSORTHOVIEW
 70
     0
  9
$PUCSORGTOP
 10
0.0
 20
0.0
 30
0.0
  9
$PUCSORGBOTTOM
 10
0.0
 20
0.0
 30
0.0
  9
$PUCSORGLEFT
 10
0.0
 20
0.0
 30
0.0
  9
$PUCSORGRIGHT
 10
0.0
 20
0.0
 30
0.0
  9
$PUCSORGFRONT
 10
0.0
 20
0.0
 30
0.0
  9
$PUCSORGBACK
 10
0.0
 20
0.0
 30
0.0
  9
$USERI1
 70
     0
  9
$USERI2
 70
     0
  9
$USERI3
 70
     0
  9
$USERI4
 70
     0
  9
$USERI5
 70
     0
  9
$USERR1
 40
0.0
  9
$USERR2
 40
0.0
  9
$USERR3
 40
0.0
  9
$USERR4
 40
0.0
  9
$USERR5
 40
0.0
  9
$WORLDVIEW
 70
     1
  9
$SHADEDGE
 70
     3
  9
$SHADEDIF
 70
    70
  9
$TILEMODE
 70
     1
  9
$MAXACTVP
 70
    64
  9
$PINSBASE
 10
0.0
 20
0.0
 30
0.0
  9
$PLIMCHECK
 70
     0
  9
$PEXTMIN
 10
1.000000000000000E+20
 20
1.000000000000000E+20
 30
1.000000000000000E+20
  9
$PEXTMAX
 10
-1.000000000000000E+20
 20
-1.000000000000000E+20
 30
-1.000000000000000E+20
  9
$PLIMMIN
 10
0.0
 20
0.0
  9
$PLIMMAX
 10
12.0
 20
9.0
  9
$UNITMODE
 70
     0
  9
$VISRETAIN
 70
     1
  9
$PLINEGEN
 70
     0
  9
$PSLTSCALE
 70
     1
  9
$TREEDEPTH
 70
  3020
  9
$CMLSTYLE
  2
Standard
  9
$CMLJUST
 70
     0
  9
$CMLSCALE
 40
1.0
  9
$PROXYGRAPHICS
 70
     1
  9
$MEASUREMENT
 70
     0
  9
$CELWEIGHT
370
    -1
  9
$ENDCAPS
280
     0
  9
$JOINSTYLE
280
     0
  9
$LWDISPLAY
290
     1
  9
$INSUNITS
 70
     1
  9
$HYPERLINKBASE
  1

  9
$STYLESHEET
  1

  9
$XEDIT
290
     1
  9
$CEPSNTYPE
380
     0
  9
$PSTYLEMODE
290
     1
  9
$FINGERPRINTGUID
  2
{8F798B0B-5BB6-5440-95A5-F520320BB887}
  9
$VERSIONGUID
  2
{1828255F-DDF8-2646-ACF2-EAB7F12AD0B2}
  9
$EXTNAMES
290
     1
  9
$PSVPSCALE
 40
0.0
  9
$OLESTARTUP
290
     0
  9
$SORTENTS
280
   127
  9
$INDEXCTL
280
     0
  9
$HIDETEXT
280
     1
  9
$XCLIPFRAME
280
     2
  9
$HALOGAP
280
     0
  9
$OBSCOLOR
 70
   257
  9
$OBSLTYPE
280
     0
  9
$INTERSECTIONDISPLAY
280
     0
  9
$INTERSECTIONCOLOR
 70
   257
  9
$DIMASSOC
280
     2
  9
$PROJECTNAME
  1

  9
$CAMERADISPLAY
290
     0
  9
$LENSLENGTH
 40
50.0
  9
$CAMERAHEIGHT
 40
0.0
  9
$STEPSPERSEC
 40
2.0
  9
$STEPSIZE
 40
6.0
  9
$3DDWFPREC
 40
2.0
  9
$PSOLWIDTH
 40
0.25
  9
$PSOLHEIGHT
 40
4.0
  9
$LOFTANG1
 40
1.570796326794896
  9
$LOFTANG2
 40
1.570796326794896
  9
$LOFTMAG1
 40
0.0
  9
$LOFTMAG2
 40
0.0
  9
$LOFTPARAM
 70
     7
  9
$LOFTNORMALS
280
     1
  9
$LATITUDE
 40
37.795
  9
$LONGITUDE
 40
-122.394
  9
$NORTHDIRECTION
 40
0.0
  9
$TIMEZONE
 70
 -8000
  9
$LIGHTGLYPHDISPLAY
280
     1
  9
$TILEMODELIGHTSYNCH
280
     1
  9
$CMATERIAL
347
11
  9
$SOLIDHIST
280
     0
  9
$SHOWHIST
280
     1
  9
$DWFFRAME
280
     2
  9
$DGNFRAME
280
     0
  9
$REALWORLDSCALE
290
     1
  9
$INTERFERECOLOR
 62
     1
  9
$INTERFEREOBJVS
345
33
  9
$INTERFEREVPVS
346
30
  9
$CSHADOW
280
     0
  9
$SHADOWPLANELOCATION
 40
0.0
  0
ENDSEC
  0
SECTION
  2
CLASSES
  0
CLASS
  1
ACDBDICTIONARYWDFLT
  2
AcDbDictionaryWithDefault
  3
ObjectDBX Classes
 90
        0
 91
        1
280
     0
281
     0
  0
CLASS
  1
MATERIAL
  2
AcDbMaterial
  3
ObjectDBX Classes
 90
     1153
 91
        3
280
     0
281
     0
  0
CLASS
  1
VISUALSTYLE
  2
AcDbVisualStyle
  3
ObjectDBX Classes
 90
     4095
 91
       24
280
     0
281
     0
  0
CLASS
  1
SCALE
  2
AcDbScale
  3
ObjectDBX Classes
 90
     1153
 91
       17
280
     0
281
     0
  0
CLASS
  1
TABLESTYLE
  2
AcDbTableStyle
  3
ObjectDBX Classes
 90
     4095
 91
        1
280
     0
281
     0
  0
CLASS
  1
MLEADERSTYLE
  2
AcDbMLeaderStyle
  3
ACDB_MLEADERSTYLE_CLASS
 90
     4095
 91
        1
280
     0
281
     0
  0
CLASS
  1
ACDBSECTIONVIEWSTYLE
  2
AcDbSectionViewStyle
  3
ObjectDBX Classes
 90
     1025
 91
        1
280
     0
281
     0
  0
CLASS
  1
ACDBDETAILVIEWSTYLE
  2
AcDbDetailViewStyle
  3
ObjectDBX Classes
 90
     1025
 91
        1
280
     0
281
     0
  0
CLASS
  1
DICTIONARYVAR
  2
AcDbDictionaryVar
  3
ObjectDBX Classes
 90
        0
 91
        5
280
     0
281
     0
  0
CLASS
  1
CELLSTYLEMAP
  2
AcDbCellStyleMap
  3
ObjectDBX Classes
 90
     1152
 91
        1
280
     0
281
     0
  0
ENDSEC
  0
SECTION
  2
TABLES
  0
TABLE
  2
VPORT
  5
8
330
0
100
AcDbSymbolTable
 70
     1
  0
VPORT
  5
57
330
8
100
AcDbSymbolTableRecord
100
AcDbViewportTableRecord
  2
*Active
 70
     0
 10
0.0
 20
0.0
 11
1.0
 21
1.0
 12
0.0
 22
0.0
 13
0.0
 23
0.0
 14
1.0
 24
1.0
 15
0.0
 25
0.0
 16
0.0
 26
0.0
 36
1.0
 17
3.0
 27
-3.0
 37
0.0
 40
6.12
 41
1.0
 42
50.0
 43
0.0
 44
0.0
 50
0.0
 51
0.0
 71
     0
 72
   100
 73
     1
 74
     0
 75
     1
 76
     0
 77
     0
 78
     0
281
     0
 65
     1
110
0.0
120
0.0
130
0.0
111
1.0
121
0.0
131
0.0
112
0.0
122
1.0
132
0.0
 79
     0
146
0.0
 60
     3
 61
     5
292
     1
282
     1
141
0.0
142
0.0
 63
   250
421
  3355443
  0
ENDTAB
  0
TABLE
  2
LTYPE
  5
5
330
0
100
AcDbSymbolTable
 70
     1
  0
LTYPE
  5
5B
330
5
100
AcDbSymbolTableRecord
100
AcDbLinetypeTableRecord
  2
ByBlock
 70
     0
  3

 72
    65
 73
     0
 40
0.0
  0
LTYPE
  5
5C
330
5
100
AcDbSymbolTableRecord
100
AcDbLinetypeTableRecord
  2
ByLayer
 70
     0
  3

 72
    65
 73
     0
 40
0.0
  0
LTYPE
  5
5D
330
5
100
AcDbSymbolTableRecord
100
AcDbLinetypeTableRecord
  2
Continuous
 70
     0
  3
Solid line
 72
    65
 73
     0
 40
0.0
  0
ENDTAB
  0
TABLE
  2
LAYER
  5
2
330
0
100
AcDbSymbolTable
 70
     2
  0
LAYER
  5
54
330
2
100
AcDbSymbolTableRecord
100
AcDbLayerTableRecord
  2
0
 70
     0
 62
     7
  6
Continuous
370
    -3
390
F
347
21
348
0
  0
LAYER
  5
78
330
2
100
AcDbSymbolTableRecord
100
AcDbLayerTableRecord
  2
Layer 1
 70
     0
 62
     7
  6
Continuous
370
     0
390
F
347
21
348
0
  0
ENDTAB
  0
TABLE
  2
STYLE
  5
3
330
0
100
AcDbSymbolTable
 70
     2
  0
STYLE
  5
55
330
3
100
AcDbSymbolTableRecord
100
AcDbTextStyleTableRecord
  2
Standard
 70
     0
 40
0.0
 41
1.0
 50
0.0
 71
     0
 42
0.2
  3
txt
  4

  0
STYLE
  5
5A
330
3
100
AcDbSymbolTableRecord
100
AcDbTextStyleTableRecord
  2
Annotative
 70
     0
 40
0.0
 41
1.0
 50
0.0
 71
     0
 42
0.2
  3
txt
  4

1001
AcadAnnotative
1000
AnnotativeData
1002
{
1070
     1
1070
     1
1002
}
  0
ENDTAB
  0
TABLE
  2
VIEW
  5
6
330
0
100
AcDbSymbolTable
 70
     0
  0
ENDTAB
  0
TABLE
  2
UCS
  5
7
330
0
100
AcDbSymbolTable
 70
     0
  0
ENDTAB
  0
TABLE
  2
APPID
  5
9
330
0
100
AcDbSymbolTable
 70
     2
  0
APPID
  5
56
330
9
100
AcDbSymbolTableRecord
100
AcDbRegAppTableRecord
  2
ACAD
 70
     0
  0
APPID
  5
5E
330
9
100
AcDbSymbolTableRecord
100
AcDbRegAppTableRecord
  2
AcadAnnotative
 70
     0
  0
ENDTAB
  0
TABLE
  2
DIMSTYLE
  5
A
330
0
100
AcDbSymbolTable
 70
     2
100
AcDbDimStyleTable
 71
     0
  0
DIMSTYLE
105
58
330
A
100
AcDbSymbolTableRecord
100
AcDbDimStyleTableRecord
  2
Standard
 70
     0
340
55
  0
DIMSTYLE
105
59
330
A
100
AcDbSymbolTableRecord
100
AcDbDimStyleTableRecord
  2
Annotative
 70
     0
340
55
1001
AcadAnnotative
1000
AnnotativeData
1002
{
1070
     1
1070
     1
1002
}
  0
ENDTAB
  0
TABLE
  2
BLOCK_RECORD
  5
1
330
0
100
AcDbSymbolTable
 70
     1
  0
BLOCK_RECORD
  5
70
330
1
100
AcDbSymbolTableRecord
100
AcDbBlockTableRecord
  2
*Model_Space
340
73
 70
     0
280
     1
281
     0
  0
BLOCK_RECORD
  5
6C
330
1
100
AcDbSymbolTableRecord
100
AcDbBlockTableRecord
  2
*Paper_Space
340
6F
 70
     0
280
     1
281
     0
  0
BLOCK_RECORD
  5
74
330
1
100
AcDbSymbolTableRecord
100
AcDbBlockTableRecord
  2
*Paper_Space0
340
77
 70
     0
280
     1
281
     0
  0
ENDTAB
  0
ENDSEC
  0
SECTION
  2
BLOCKS
  0
BLOCK
  5
71
330
70
100
AcDbEntity
  8
0
100
AcDbBlockBegin
  2
*Model_Space
 70
     0
 10
0.0
 20
0.0
 30
0.0
  3
*Model_Space
  1

  0
ENDBLK
  5
72
330
70
100
AcDbEntity
  8
0
100
AcDbBlockEnd
  0
BLOCK
  5
6D
330
6C
100
AcDbEntity
 67
     1
  8
0
100
AcDbBlockBegin
  2
*Paper_Space
 70
     0
 10
0.0
 20
0.0
 30
0.0
  3
*Paper_Space
  1

  0
ENDBLK
  5
6E
330
6C
100
AcDbEntity
 67
     1
  8
0
100
AcDbBlockEnd
  0
BLOCK
  5
75
330
74
100
AcDbEntity
 67
     1
  8
0
100
AcDbBlockBegin
  2
*Paper_Space0
 70
     0
 10
0.0
 20
0.0
 30
0.0
  3
*Paper_Space0
  1

  0
ENDBLK
  5
76
330
74
100
AcDbEntity
 67
     1
  8
0
100
AcDbBlockEnd
  0
ENDSEC
  0
SECTION
  2
ENTITIES
  0
SPLINE
  5
79
330
70
100
AcDbEntity
  8
Layer 1
100
AcDbSpline
210
0.0
220
0.0
230
1.0
 70
     9
 71
     3
 72
    44
 73
    40
 74
     0
 42
0.0000000001
 43
0.0000000001
 40
0.0
 40
0.0
 40
0.0
 40
0.0
 40
1.0
 40
1.0
 40
1.0
 40
2.0
 40
2.0
 40
2.0
 40
3.0
 40
3.0
 40
3.0
 40
4.0
 40
4.0
 40
4.0
 40
5.0
 40
5.0
 40
5.0
 40
6.0
 40
6.0
 40
6.0
 40
7.0
 40
7.0
 40
7.0
 40
8.0
 40
8.0
 40
8.0
 40
9.0
 40
9.0
 40
9.0
 40
10.0
 40
10.0
 40
10.0
 40
11.0
 40
11.0
 40
11.0
 40
12.0
 40
12.0
 40
12.0
 40
13.0
 40
13.0
 40
13.0
 40
13.0
 10
1.00024423573969
 20
-2.153967622894646
 30
0.0
 10
1.00024423900153
 20
-1.79976508480921
 30
0.0
 10
1.00024423900153
 20
-1.445562581517985
 30
0.0
 10
1.00024423900153
 20
-1.091360078226772
 30
0.0
 10
1.003762888449071
 20
-1.091664597200027
 30
0.0
 10
1.005683301881327
 20
-1.089125602411791
 30
0.0
 10
1.007788681006205
 20
-1.087022648731072
 30
0.0
 10
1.034237233830455
 20
-1.060604697056002
 30
0.0
 10
1.060666547200033
 20
-1.034167467210964
 30
0.0
 10
1.087091000419162
 20
-1.007725395533384
 30
0.0
 10
1.089214479527198
 20
-1.005600499206909
 30
0.0
 10
1.091610953395363
 20
-1.003601868913506
 30
0.0
 10
1.091452062355604
 20
-1.000149130186602
 30
0.0
 10
1.676702239015475
 20
-1.000149130186602
 30
0.0
 10
2.261952415675371
 20
-1.000149130186602
 30
0.0
 10
2.847202661921313
 20
-1.000149130186602
 30
0.0
 10
2.846972749622447
 20
-1.005595784590721
 30
0.0
 10
2.851556939218185
 20
-1.007879648076166
 30
0.0
 10
2.854617890247911
 20
-1.010990275942023
 30
0.0
 10
2.880943961844145
 20
-1.037744823594986
 30
0.0
 10
2.907389860613079
 20
-1.064381613487866
 30
0.0
 10
2.933799992153922
 20
-1.091053523791919
 30
0.0
 10
2.933063075917554
 20
-1.093111244992605
 30
0.0
 10
2.931627515770628
 20
-1.095194331176344
 30
0.0
 10
2.931700998636124
 20
-1.097222703456345
 30
0.0
 10
2.93224891916917
 20
-1.11232969069657
 30
0.0
 10
2.933747663446676
 20
-1.12742558728064
 30
0.0
 10
2.93375336950252
 20
-1.142525398213933
 30
0.0
 10
2.933878763558987
 20
-1.474667664353382
 30
0.0
 10
2.933849259075107
 20
-1.80681000877981
 30
0.0
 10
2.933849119903015
 20
-2.138952318412003
 30
0.0
 10
2.933849119903015
 20
-2.156246087296444
 30
0.0
 10
2.933848563214635
 20
-2.156246365650165
 30
0.0
 10
2.916772843173084
 20
-2.156246644003886
 30
0.0
 10
2.280251875937185
 20
-2.15625673432636
 30
0.0
 10
1.643730978287319
 20
-2.156266894237256
 30
0.0
 10
1.007210058891814
 20
-2.156276914971297
 30
0.0
 10
1.004888114398037
 20
-2.155507197338036
 30
0.0
 10
1.002566173166125
 20
-2.154737410116341
 30
0.0
 10
1.00024423573969
 20
-2.153967622894646
 30
0.0
  0
HATCH
  5
7A
330
70
100
AcDbEntity
  8
Layer 1
 62
   254
420
 13619151
440
 33554687
100
AcDbHatch
 10
0.0
 20
0.0
 30
0.0
210
0.0
220
0.0
230
1.0
  2
SOLID
 70
     1
 71
     1
 91
        1
 92
        1
 93
        1
 72
     4
 94
        3
 73
     0
 74
     0
 95
       44
 96
       40
 40
0.0
 40
0.0
 40
0.0
 40
0.0
 40
1.0
 40
1.0
 40
1.0
 40
2.0
 40
2.0
 40
2.0
 40
3.0
 40
3.0
 40
3.0
 40
4.0
 40
4.0
 40
4.0
 40
5.0
 40
5.0
 40
5.0
 40
6.0
 40
6.0
 40
6.0
 40
7.0
 40
7.0
 40
7.0
 40
8.0
 40
8.0
 40
8.0
 40
9.0
 40
9.0
 40
9.0
 40
10.0
 40
10.0
 40
10.0
 40
11.0
 40
11.0
 40
11.0
 40
12.0
 40
12.0
 40
12.0
 40
13.0
 40
13.0
 40
13.0
 40
13.0
 10
1.00024423573969
 20
-2.153967622894646
 10
1.00024423900153
 20
-1.79976508480921
 10
1.00024423900153
 20
-1.445562581517985
 10
1.00024423900153
 20
-1.091360078226772
 10
1.003762888449071
 20
-1.091664597200027
 10
1.005683301881327
 20
-1.089125602411791
 10
1.007788681006205
 20
-1.087022648731072
 10
1.034237233830455
 20
-1.060604697056002
 10
1.060666547200033
 20
-1.034167467210964
 10
1.087091000419162
 20
-1.007725395533384
 10
1.089214479527198
 20
-1.005600499206909
 10
1.091610953395363
 20
-1.003601868913506
 10
1.091452062355604
 20
-1.000149130186602
 10
1.676702239015475
 20
-1.000149130186602
 10
2.261952415675371
 20
-1.000149130186602
 10
2.847202661921313
 20
-1.000149130186602
 10
2.846972749622447
 20
-1.005595784590721
 10
2.851556939218185
 20
-1.007879648076166
 10
2.854617890247911
 20
-1.010990275942023
 10
2.880943961844145
 20
-1.037744823594986
 10
2.907389860613079
 20
-1.064381613487866
 10
2.933799992153922
 20
-1.091053523791919
 10
2.933063075917554
 20
-1.093111244992605
 10
2.931627515770628
 20
-1.095194331176344
 10
2.931700998636124
 20
-1.097222703456345
 10
2.93224891916917
 20
-1.11232969069657
 10
2.933747663446676
 20
-1.12742558728064
 10
2.93375336950252
 20
-1.142525398213933
 10
2.933878763558987
 20
-1.474667664353382
 10
2.933849259075107
 20
-1.80681000877981
 10
2.933849119903015
 20
-2.138952318412003
 10
2.933849119903015
 20
-2.156246087296444
 10
2.933848563214635
 20
-2.156246365650165
 10
2.916772843173084
 20
-2.156246644003886
 10
2.280251875937185
 20
-2.15625673432636
 10
1.643730978287319
 20
-2.156266894237256
 10
1.007210058891814
 20
-2.156276914971297
 10
1.004888114398037
 20
-2.155507197338036
 10
1.002566173166125
 20
-2.154737410116341
 10
1.00024423573969
 20
-2.153967622894646
 97
        0
 97
        1
330
79
 75
     2
 76
     1
 98
        1
 10
0.0
 20
0.0
450
        0
451
        0
460
0.0
461
0.0
452
        0
462
0.0
453
        0
470

  0
SPLINE
  5
7B
330
70
100
AcDbEntity
  8
Layer 1
100
AcDbSpline
210
0.0
220
0.0
230
1.0
 70
     9
 71
     3
 72
    44
 73
    40
 74
     0
 42
0.0000000001
 43
0.0000000001
 40
0.0
 40
0.0
 40
0.0
 40
0.0
 40
1.0
 40
1.0
 40
1.0
 40
2.0
 40
2.0
 40
2.0
 40
3.0
 40
3.0
 40
3.0
 40
4.0
 40
4.0
 40
4.0
 40
5.0
 40
5.0
 40
5.0
 40
6.0
 40
6.0
 40
6.0
 40
7.0
 40
7.0
 40
7.0
 40
8.0
 40
8.0
 40
8.0
 40
9.0
 40
9.0
 40
9.0
 40
10.0
 40
10.0
 40
10.0
 40
11.0
 40
11.0
 40
11.0
 40
12.0
 40
12.0
 40
12.0
 40
13.0
 40
13.0
 40
13.0
 40
13.0
 10
1.000244253136202
 20
-4.906257980006481
 30
0.0
 10
1.00024423900153
 20
-4.551295466668079
 30
0.0
 10
1.00024423900153
 20
-4.196332674975969
 30
0.0
 10
1.000244249330711
 20
-3.841370161637617
 30
0.0
 10
1.001668136146476
 20
-3.840967383800034
 30
0.0
 10
1.003538317966596
 20
-3.841010250273433
 30
0.0
 10
1.004451084667076
 20
-3.840096414999935
 30
0.0
 10
1.033695984859642
 20
-3.810822510631371
 30
0.0
 10
1.063917868257501
 20
-3.782513101913941
 30
0.0
 10
1.091786936507901
 20
-3.75187804783862
 30
0.0
 10
1.096715089933316
 20
-3.752065379894373
 30
0.0
 10
1.101643243358731
 20
-3.752416662293146
 30
0.0
 10
1.106571414180658
 20
-3.752416940646854
 30
0.0
 10
1.681898298721345
 20
-3.752441435774496
 30
0.0
 10
2.257225296339369
 20
-3.752440322359613
 30
0.0
 10
2.832552154785301
 20
-3.752440044005904
 30
0.0
 10
2.835592230000972
 20
-3.752440044005904
 30
0.0
 10
2.838637872100396
 20
-3.752329537577755
 30
0.0
 10
2.841670432023015
 20
-3.752481240356953
 30
0.0
 10
2.843732544935972
 20
-3.752584787941991
 30
0.0
 10
2.845359745055993
 20
-3.752556117508497
 30
0.0
 10
2.847379967168737
 20
-3.754642100310648
 30
0.0
 10
2.873237446325333
 20
-3.78133872755547
 30
0.0
 10
2.899192902635932
 20
-3.807951848683337
 30
0.0
 10
2.925696696995853
 20
-3.834002695290185
 30
0.0
 10
2.931960832935133
 20
-3.840159879648858
 30
0.0
 10
2.934037837262128
 20
-3.846278094486251
 30
0.0
 10
2.934000121624724
 20
-3.854768996460784
 30
0.0
 10
2.932444038444613
 20
-4.205350778902381
 30
0.0
 10
2.936693936671177
 20
-4.555945087261559
 30
0.0
 10
2.931575187063382
 20
-4.906519354152654
 30
0.0
 10
2.931575187063382
 20
-4.906519354152654
 30
0.0
 10
2.931831959576331
 20
-4.906262990373508
 30
0.0
 10
2.931831959576331
 20
-4.906262990373508
 30
0.0
 10
2.291034651416048
 20
-4.907649191915374
 30
0.0
 10
1.650230662995252
 20
-4.903379524154185
 30
0.0
 10
1.009437959474161
 20
-4.908554119869702
 30
0.0
 10
1.006373404648292
 20
-4.907788647130725
 30
0.0
 10
1.003308836231402
 20
-4.907023174391724
 30
0.0
 10
1.000244253136202
 20
-4.906257980006481
 30
0.0
  0
HATCH
  5
7C
330
70
100
AcDbEntity
  8
Layer 1
 62
   254
420
 13619151
440
 33554687
100
AcDbHatch
 10
0.0
 20
0.0
 30
0.0
210
0.0
220
0.0
230
1.0
  2
SOLID
 70
     1
 71
     1
 91
        1
 92
        1
 93
        1
 72
     4
 94
        3
 73
     0
 74
     0
 95
       44
 96
       40
 40
0.0
 40
0.0
 40
0.0
 40
0.0
 40
1.0
 40
1.0
 40
1.0
 40
2.0
 40
2.0
 40
2.0
 40
3.0
 40
3.0
 40
3.0
 40
4.0
 40
4.0
 40
4.0
 40
5.0
 40
5.0
 40
5.0
 40
6.0
 40
6.0
 40
6.0
 40
7.0
 40
7.0
 40
7.0
 40
8.0
 40
8.0
 40
8.0
 40
9.0
 40
9.0
 40
9.0
 40
10.0
 40
10.0
 40
10.0
 40
11.0
 40
11.0
 40
11.0
 40
12.0
 40
12.0
 40
12.0
 40
13.0
 40
13.0
 40
13.0
 40
13.0
 10
1.000244253136202
 20
-4.906257980006481
 10
1.00024423900153
 20
-4.551295466668079
 10
1.00024423900153
 20
-4.196332674975969
 10
1.000244249330711
 20
-3.841370161637617
 10
1.001668136146476
 20
-3.840967383800034
 10
1.003538317966596
 20
-3.841010250273433
 10
1.004451084667076
 20
-3.840096414999935
 10
1.033695984859642
 20
-3.810822510631371
 10
1.063917868257501
 20
-3.782513101913941
 10
1.091786936507901
 20
-3.75187804783862
 10
1.096715089933316
 20
-3.752065379894373
 10
1.101643243358731
 20
-3.752416662293146
 10
1.106571414180658
 20
-3.752416940646854
 10
1.681898298721345
 20
-3.752441435774496
 10
2.257225296339369
 20
-3.752440322359613
 10
2.832552154785301
 20
-3.752440044005904
 10
2.835592230000972
 20
-3.752440044005904
 10
2.838637872100396
 20
-3.752329537577755
 10
2.841670432023015
 20
-3.752481240356953
 10
2.843732544935972
 20
-3.752584787941991
 10
2.845359745055993
 20
-3.752556117508497
 10
2.847379967168737
 20
-3.754642100310648
 10
2.873237446325333
 20
-3.78133872755547
 10
2.899192902635932
 20
-3.807951848683337
 10
2.925696696995853
 20
-3.834002695290185
 10
2.931960832935133
 20
-3.840159879648858
 10
2.934037837262128
 20
-3.846278094486251
 10
2.934000121624724
 20
-3.854768996460784
 10
2.932444038444613
 20
-4.205350778902381
 10
2.936693936671177
 20
-4.555945087261559
 10
2.931575187063382
 20
-4.906519354152654
 10
2.931575187063382
 20
-4.906519354152654
 10
2.931831959576331
 20
-4.906262990373508
 10
2.931831959576331
 20
-4.906262990373508
 10
2.291034651416048
 20
-4.907649191915374
 10
1.650230662995252
 20
-4.903379524154185
 10
1.009437959474161
 20
-4.908554119869702
 10
1.006373404648292
 20
-4.907788647130725
 10
1.003308836231402
 20
-4.907023174391724
 10
1.000244253136202
 20
-4.906257980006481
 97
        0
 97
        1
330
7B
 75
     2
 76
     1
 98
        1
 10
0.0
 20
0.0
450
        0
451
        0
460
0.0
461
0.0
452
        0
462
0.0
453
        0
470

  0
SPLINE
  5
7D
330
70
100
AcDbEntity
  8
Layer 1
100
AcDbSpline
210
0.0
220
0.0
230
1.0
 70
     9
 71
     3
 72
    41
 73
    37
 74
     0
 42
0.0000000001
 43
0.0000000001
 40
0.0
 40
0.0
 40
0.0
 40
0.0
 40
1.0
 40
1.0
 40
1.0
 40
2.0
 40
2.0
 40
2.0
 40
3.0
 40
3.0
 40
3.0
 40
4.0
 40
4.0
 40
4.0
 40
5.0
 40
5.0
 40
5.0
 40
6.0
 40
6.0
 40
6.0
 40
7.0
 40
7.0
 40
7.0
 40
8.0
 40
8.0
 40
8.0
 40
9.0
 40
9.0
 40
9.0
 40
10.0
 40
10.0
 40
10.0
 40
11.0
 40
11.0
 40
11.0
 40
12.0
 40
12.0
 40
12.0
 40
12.0
 10
3.152748870157438
 20
-1.000149130186602
 30
0.0
 10
3.737998977231275
 20
-1.000149130186602
 30
0.0
 10
4.323249362649296
 20
-1.000149130186602
 30
0.0
 10
4.908499469723134
 20
-1.000149130186602
 30
0.0
 10
4.908581581258456
 20
-1.005476742162954
 30
0.0
 10
4.913033418193031
 20
-1.007833155393137
 30
0.0
 10
4.916131945688094
 20
-1.01095350171829
 30
0.0
 10
4.939956816415588
 20
-1.034947116418089
 30
0.0
 10
4.963787254026859
 20
-1.058937928008908
 30
0.0
 10
4.987901046020952
 20
-1.082639795387144
 30
0.0
 10
4.993146998922434
 20
-1.087795810991666
 30
0.0
 10
4.995482863343795
 20
-1.093036654893328
 30
0.0
 10
4.99547896652517
 20
-1.100558903308006
 30
0.0
 10
4.995299712868422
 20
-1.447814671904514
 30
0.0
 10
4.995329774040682
 20
-1.795070510089443
 30
0.0
 10
4.995249889258881
 20
-2.142326383068595
 30
0.0
 10
4.995248775882095
 20
-2.146262235127159
 30
0.0
 10
4.996948902179256
 20
-2.150803089003248
 30
0.0
 10
4.992818274437038
 20
-2.15397847868985
 30
0.0
 10
4.960312961878697
 20
-2.154530384534647
 30
0.0
 10
4.92774669194331
 20
-2.155704410950963
 30
0.0
 10
4.895316253971436
 20
-2.155741292819294
 30
0.0
 10
4.290108033622573
 20
-2.156429661576933
 30
0.0
 10
3.68489842155279
 20
-2.156204751768528
 30
0.0
 10
3.079689366171351
 20
-2.156555964578867
 30
0.0
 10
3.067884371663972
 20
-2.156562784245086
 30
0.0
 10
3.065836454304568
 20
-2.15338843838496
 30
0.0
 10
3.065846057179062
 20
-2.142339883224167
 30
0.0
 10
3.066150704892252
 20
-1.792043900467938
 30
0.0
 10
3.066087799105894
 20
-1.441747639357964
 30
0.0
 10
3.066080422984896
 20
-1.09145143043933
 30
0.0
 10
3.092564315735444
 20
-1.064637229191362
 30
0.0
 10
3.119082862337311
 20
-1.037856995796182
 30
0.0
 10
3.145484643552536
 20
-1.010962262249336
 30
0.0
 10
3.14851915188443
 20
-1.00787107347671
 30
0.0
 10
3.153103063135985
 20
-1.005603219679629
 30
0.0
 10
3.152748870157438
 20
-1.000149130186602
 30
0.0
  0
HATCH
  5
7E
330
70
100
AcDbEntity
  8
Layer 1
 62
   254
420
 13619151
440
 33554687
100
AcDbHatch
 10
0.0
 20
0.0
 30
0.0
210
0.0
220
0.0
230
1.0
  2
SOLID
 70
     1
 71
     1
 91
        1
 92
        1
 93
        1
 72
     4
 94
        3
 73
     0
 74
     0
 95
       41
 96
       37
 40
0.0
 40
0.0
 40
0.0
 40
0.0
 40
1.0
 40
1.0
 40
1.0
 40
2.0
 40
2.0
 40
2.0
 40
3.0
 40
3.0
 40
3.0
 40
4.0
 40
4.0
 40
4.0
 40
5.0
 40
5.0
 40
5.0
 40
6.0
 40
6.0
 40
6.0
 40
7.0
 40
7.0
 40
7.0
 40
8.0
 40
8.0
 40
8.0
 40
9.0
 40
9.0
 40
9.0
 40
10.0
 40
10.0
 40
10.0
 40
11.0
 40
11.0
 40
11.0
 40
12.0
 40
12.0
 40
12.0
 40
12.0
 10
3.152748870157438
 20
-1.000149130186602
 10
3.737998977231275
 20
-1.000149130186602
 10
4.323249362649296
 20
-1.000149130186602
 10
4.908499469723134
 20
-1.000149130186602
 10
4.908581581258456
 20
-1.005476742162954
 10
4.913033418193031
 20
-1.007833155393137
 10
4.916131945688094
 20
-1.01095350171829
 10
4.939956816415588
 20
-1.034947116418089
 10
4.963787254026859
 20
-1.058937928008908
 10
4.987901046020952
 20
-1.082639795387144
 10
4.993146998922434
 20
-1.087795810991666
 10
4.995482863343795
 20
-1.093036654893328
 10
4.99547896652517
 20
-1.100558903308006
 10
4.995299712868422
 20
-1.447814671904514
 10
4.995329774040682
 20
-1.795070510089443
 10
4.995249889258881
 20
-2.142326383068595
 10
4.995248775882095
 20
-2.146262235127159
 10
4.996948902179256
 20
-2.150803089003248
 10
4.992818274437038
 20
-2.15397847868985
 10
4.960312961878697
 20
-2.154530384534647
 10
4.92774669194331
 20
-2.155704410950963
 10
4.895316253971436
 20
-2.155741292819294
 10
4.290108033622573
 20
-2.156429661576933
 10
3.68489842155279
 20
-2.156204751768528
 10
3.079689366171351
 20
-2.156555964578867
 10
3.067884371663972
 20
-2.156562784245086
 10
3.065836454304568
 20
-2.15338843838496
 10
3.065846057179062
 20
-2.142339883224167
 10
3.066150704892252
 20
-1.792043900467938
 10
3.066087799105894
 20
-1.441747639357964
 10
3.066080422984896
 20
-1.09145143043933
 10
3.092564315735444
 20
-1.064637229191362
 10
3.119082862337311
 20
-1.037856995796182
 10
3.145484643552536
 20
-1.010962262249336
 10
3.14851915188443
 20
-1.00787107347671
 10
3.153103063135985
 20
-1.005603219679629
 10
3.152748870157438
 20
-1.000149130186602
 97
        0
 97
        1
330
7D
 75
     2
 76
     1
 98
        1
 10
0.0
 20
0.0
450
        0
451
        0
460
0.0
461
0.0
452
        0
462
0.0
453
        0
470

  0
SPLINE
  5
7F
330
70
100
AcDbEntity
  8
Layer 1
100
AcDbSpline
210
0.0
220
0.0
230
1.0
 70
     9
 71
     3
 72
    41
 73
    37
 74
     0
 42
0.0000000001
 43
0.0000000001
 40
0.0
 40
0.0
 40
0.0
 40
0.0
 40
1.0
 40
1.0
 40
1.0
 40
2.0
 40
2.0
 40
2.0
 40
3.0
 40
3.0
 40
3.0
 40
4.0
 40
4.0
 40
4.0
 40
5.0
 40
5.0
 40
5.0
 40
6.0
 40
6.0
 40
6.0
 40
7.0
 40
7.0
 40
7.0
 40
8.0
 40
8.0
 40
8.0
 40
9.0
 40
9.0
 40
9.0
 40
10.0
 40
10.0
 40
10.0
 40
11.0
 40
11.0
 40
11.0
 40
12.0
 40
12.0
 40
12.0
 40
12.0
 10
1.000244241719731
 20
-3.528972664600056
 30
0.0
 10
1.00024423900153
 20
-3.174770196103054
 30
0.0
 10
1.00024423900153
 20
-2.820567588429184
 30
0.0
 10
1.000244233293301
 20
-2.466365119932182
 30
0.0
 10
1.00166462694387
 20
-2.465954548190362
 30
0.0
 10
1.003526282298695
 20
-2.465985027923061
 30
0.0
 10
1.00444140948836
 20
-2.46506952252725
 30
0.0
 10
1.033687447521528
 20
-2.435811066790329
 30
0.0
 10
1.063868753555804
 20
-2.407476467060935
 30
0.0
 10
1.091773871727607
 20
-2.376890959948354
 30
0.0
 10
1.096701442369875
 20
-2.377072446575918
 30
0.0
 10
1.101628986917376
 20
-2.377412177295177
 30
0.0
 10
1.106556566257912
 20
-2.377412734002619
 30
0.0
 10
1.350085897682346
 20
-2.377438620898879
 30
0.0
 10
1.593615246503292
 20
-2.377467848039827
 30
0.0
 10
1.837144421359135
 20
-2.377280933514649
 30
0.0
 10
1.844543505722867
 20
-2.377275227263326
 30
0.0
 10
1.849673319512109
 20
-2.379411592089392
 30
0.0
 10
1.854830828548011
 20
-2.384681523955148
 30
0.0
 10
1.8787438647969
 20
-2.409115831314112
 30
0.0
 10
1.902855847553812
 20
-2.433367538630629
 30
0.0
 10
1.927417564931639
 20
-2.457146601325032
 30
0.0
 10
1.933459999725591
 20
-2.46299634399635
 30
0.0
 10
1.935273412107031
 20
-2.46889326762376
 30
0.0
 10
1.935269515288394
 20
-2.476959540993448
 30
0.0
 10
1.935099655748002
 20
-2.823839079738755
 30
0.0
 10
1.935053659371015
 20
-3.170719036014613
 30
0.0
 10
1.935424413828741
 20
-3.5175982964062
 30
0.0
 10
1.935436869731132
 20
-3.529247399724933
 30
0.0
 10
1.932485655897304
 20
-3.531533518854125
 30
0.0
 10
1.921282650281391
 20
-3.531521271290305
 30
0.0
 10
1.616586435607801
 20
-3.531192813896849
 30
0.0
 10
1.31188973383189
 20
-3.531269361170719
 30
0.0
 10
1.007193142958739
 20
-3.531277711782422
 30
0.0
 10
1.00487684580758
 20
-3.530509455506211
 30
0.0
 10
1.002560545394582
 20
-3.529740920876267
 30
0.0
 10
1.000244241719731
 20
-3.528972664600056
 30
0.0
  0
HATCH
  5
80
330
70
100
AcDbEntity
  8
Layer 1
 62
   254
420
 13619151
440
 33554687
100
AcDbHatch
 10
0.0
 20
0.0
 30
0.0
210
0.0
220
0.0
230
1.0
  2
SOLID
 70
     1
 71
     1
 91
        1
 92
        1
 93
        1
 72
     4
 94
        3
 73
     0
 74
     0
 95
       41
 96
       37
 40
0.0
 40
0.0
 40
0.0
 40
0.0
 40
1.0
 40
1.0
 40
1.0
 40
2.0
 40
2.0
 40
2.0
 40
3.0
 40
3.0
 40
3.0
 40
4.0
 40
4.0
 40
4.0
 40
5.0
 40
5.0
 40
5.0
 40
6.0
 40
6.0
 40
6.0
 40
7.0
 40
7.0
 40
7.0
 40
8.0
 40
8.0
 40
8.0
 40
9.0
 40
9.0
 40
9.0
 40
10.0
 40
10.0
 40
10.0
 40
11.0
 40
11.0
 40
11.0
 40
12.0
 40
12.0
 40
12.0
 40
12.0
 10
1.000244241719731
 20
-3.528972664600056
 10
1.00024423900153
 20
-3.174770196103054
 10
1.00024423900153
 20
-2.820567588429184
 10
1.000244233293301
 20
-2.466365119932182
 10
1.00166462694387
 20
-2.465954548190362
 10
1.003526282298695
 20
-2.465985027923061
 10
1.00444140948836
 20
-2.46506952252725
 10
1.033687447521528
 20
-2.435811066790329
 10
1.063868753555804
 20
-2.407476467060935
 10
1.091773871727607
 20
-2.376890959948354
 10
1.096701442369875
 20
-2.377072446575918
 10
1.101628986917376
 20
-2.377412177295177
 10
1.106556566257912
 20
-2.377412734002619
 10
1.350085897682346
 20
-2.377438620898879
 10
1.593615246503292
 20
-2.377467848039827
 10
1.837144421359135
 20
-2.377280933514649
 10
1.844543505722867
 20
-2.377275227263326
 10
1.849673319512109
 20
-2.379411592089392
 10
1.854830828548011
 20
-2.384681523955148
 10
1.8787438647969
 20
-2.409115831314112
 10
1.902855847553812
 20
-2.433367538630629
 10
1.927417564931639
 20
-2.457146601325032
 10
1.933459999725591
 20
-2.46299634399635
 10
1.935273412107031
 20
-2.46889326762376
 10
1.935269515288394
 20
-2.476959540993448
 10
1.935099655748002
 20
-2.823839079738755
 10
1.935053659371015
 20
-3.170719036014613
 10
1.935424413828741
 20
-3.5175982964062
 10
1.935436869731132
 20
-3.529247399724933
 10
1.932485655897304
 20
-3.531533518854125
 10
1.921282650281391
 20
-3.531521271290305
 10
1.616586435607801
 20
-3.531192813896849
 10
1.31188973383189
 20
-3.531269361170719
 10
1.007193142958739
 20
-3.531277711782422
 10
1.00487684580758
 20
-3.530509455506211
 10
1.002560545394582
 20
-3.529740920876267
 10
1.000244241719731
 20
-3.528972664600056
 97
        0
 97
        1
330
7F
 75
     2
 76
     1
 98
        1
 10
0.0
 20
0.0
450
        0
451
        0
460
0.0
461
0.0
452
        0
462
0.0
453
        0
470

  0
SPLINE
  5
81
330
70
100
AcDbEntity
  8
Layer 1
100
AcDbSpline
210
0.0
220
0.0
230
1.0
 70
     9
 71
     3
 72
    29
 73
    25
 74
     0
 42
0.0000000001
 43
0.0000000001
 40
0.0
 40
0.0
 40
0.0
 40
0.0
 40
1.0
 40
1.0
 40
1.0
 40
2.0
 40
2.0
 40
2.0
 40
3.0
 40
3.0
 40
3.0
 40
4.0
 40
4.0
 40
4.0
 40
5.0
 40
5.0
 40
5.0
 40
6.0
 40
6.0
 40
6.0
 40
7.0
 40
7.0
 40
7.0
 40
8.0
 40
8.0
 40
8.0
 40
8.0
 10
1.091773871727607
 20
-2.376890959948354
 30
0.0
 10
1.063868753555804
 20
-2.407476467060935
 30
0.0
 10
1.033687447521528
 20
-2.435811066790329
 30
0.0
 10
1.00444140948836
 20
-2.46506952252725
 30
0.0
 10
1.003526282298695
 20
-2.465985027923061
 30
0.0
 10
1.00166462694387
 20
-2.465954548190362
 30
0.0
 10
1.000244233293301
 20
-2.466365119932182
 30
0.0
 10
1.00024423900153
 20
-2.362232574527385
 30
0.0
 10
1.00024423900153
 20
-2.258100168299443
 30
0.0
 10
1.00024423573969
 20
-2.153967622894646
 30
0.0
 10
1.002566173166125
 20
-2.154737410116341
 30
0.0
 10
1.004888114398037
 20
-2.155507197338036
 30
0.0
 10
1.007210058891814
 20
-2.156276914971297
 30
0.0
 10
1.006761185941867
 20
-2.16139618788433
 30
0.0
 10
1.011185024821757
 20
-2.163346055715818
 30
0.0
 10
1.013965699563931
 20
-2.166152696307512
 30
0.0
 10
1.037752227292344
 20
-2.190161957531055
 30
0.0
 10
1.061595834062965
 20
-2.214116522247978
 30
0.0
 10
1.085649412380904
 20
-2.237857450482288
 30
0.0
 10
1.08999790533763
 20
-2.242149525718205
 30
0.0
 10
1.092105858058971
 20
-2.246423229608391
 30
0.0
 10
1.092057574040697
 20
-2.252714580461669
 30
0.0
 10
1.091739931133234
 20
-2.294104944050319
 30
0.0
 10
1.091822103556346
 20
-2.335498508706791
 30
0.0
 10
1.091773871727607
 20
-2.376890959948354
 30
0.0
  0
HATCH
  5
82
330
70
100
AcDbEntity
  8
Layer 1
 62
     7
420
 16514043
440
 33554687
100
AcDbHatch
 10
0.0
 20
0.0
 30
0.0
210
0.0
220
0.0
230
1.0
  2
SOLID
 70
     1
 71
     1
 91
        1
 92
        1
 93
        1
 72
     4
 94
        3
 73
     0
 74
     0
 95
       29
 96
       25
 40
0.0
 40
0.0
 40
0.0
 40
0.0
 40
1.0
 40
1.0
 40
1.0
 40
2.0
 40
2.0
 40
2.0
 40
3.0
 40
3.0
 40
3.0
 40
4.0
 40
4.0
 40
4.0
 40
5.0
 40
5.0
 40
5.0
 40
6.0
 40
6.0
 40
6.0
 40
7.0
 40
7.0
 40
7.0
 40
8.0
 40
8.0
 40
8.0
 40
8.0
 10
1.091773871727607
 20
-2.376890959948354
 10
1.063868753555804
 20
-2.407476467060935
 10
1.033687447521528
 20
-2.435811066790329
 10
1.00444140948836
 20
-2.46506952252725
 10
1.003526282298695
 20
-2.465985027923061
 10
1.00166462694387
 20
-2.465954548190362
 10
1.000244233293301
 20
-2.466365119932182
 10
1.00024423900153
 20
-2.362232574527385
 10
1.00024423900153
 20
-2.258100168299443
 10
1.00024423573969
 20
-2.153967622894646
 10
1.002566173166125
 20
-2.154737410116341
 10
1.004888114398037
 20
-2.155507197338036
 10
1.007210058891814
 20
-2.156276914971297
 10
1.006761185941867
 20
-2.16139618788433
 10
1.011185024821757
 20
-2.163346055715818
 10
1.013965699563931
 20
-2.166152696307512
 10
1.037752227292344
 20
-2.190161957531055
 10
1.061595834062965
 20
-2.214116522247978
 10
1.085649412380904
 20
-2.237857450482288
 10
1.08999790533763
 20
-2.242149525718205
 10
1.092105858058971
 20
-2.246423229608391
 10
1.092057574040697
 20
-2.252714580461669
 10
1.091739931133234
 20
-2.294104944050319
 10
1.091822103556346
 20
-2.335498508706791
 10
1.091773871727607
 20
-2.376890959948354
 97
        0
 97
        1
330
81
 75
     2
 76
     1
 98
        1
 10
0.0
 20
0.0
450
        0
451
        0
460
0.0
461
0.0
452
        0
462
0.0
453
        0
470

  0
SPLINE
  5
83
330
70
100
AcDbEntity
  8
Layer 1
100
AcDbSpline
210
0.0
220
0.0
230
1.0
 70
     9
 71
     3
 72
    29
 73
    25
 74
     0
 42
0.0000000001
 43
0.0000000001
 40
0.0
 40
0.0
 40
0.0
 40
0.0
 40
1.0
 40
1.0
 40
1.0
 40
2.0
 40
2.0
 40
2.0
 40
3.0
 40
3.0
 40
3.0
 40
4.0
 40
4.0
 40
4.0
 40
5.0
 40
5.0
 40
5.0
 40
6.0
 40
6.0
 40
6.0
 40
7.0
 40
7.0
 40
7.0
 40
8.0
 40
8.0
 40
8.0
 40
8.0
 10
1.000244241719731
 20
-3.528972664600056
 30
0.0
 10
1.002560545394582
 20
-3.529740920876267
 30
0.0
 10
1.00487684580758
 20
-3.530509455506211
 30
0.0
 10
1.007193142958739
 20
-3.531277711782422
 30
0.0
 10
1.006554810036075
 20
-3.536449802314463
 30
0.0
 10
1.011010944452689
 20
-3.538408020757641
 30
0.0
 10
1.013785065059083
 20
-3.541206867445073
 30
0.0
 10
1.037033794849675
 20
-3.564662065582473
 30
0.0
 10
1.060396966505335
 20
-3.588004530461931
 30
0.0
 10
1.083795231274242
 20
-3.611311087711075
 30
0.0
 10
1.088722079961283
 20
-3.616218742206001
 30
0.0
 10
1.092142616888218
 20
-3.621232727823224
 30
0.0
 10
1.092073265694264
 20
-3.628887455213063
 30
0.0
 10
1.09170180667781
 20
-3.669881721453495
 30
0.0
 10
1.091830845303471
 20
-3.71088071970722
 30
0.0
 10
1.091786936507901
 20
-3.75187804783862
 30
0.0
 10
1.063917868257501
 20
-3.782513101913941
 30
0.0
 10
1.033695984859642
 20
-3.810822510631371
 30
0.0
 10
1.004451084667076
 20
-3.840096414999935
 30
0.0
 10
1.003538317966596
 20
-3.841010250273433
 30
0.0
 10
1.001668136146476
 20
-3.840967383800034
 30
0.0
 10
1.000244249330711
 20
-3.841370161637617
 30
0.0
 10
1.00024423900153
 20
-3.737237755409649
 30
0.0
 10
1.00024423900153
 20
-3.633105070827999
 30
0.0
 10
1.000244241719731
 20
-3.528972664600056
 30
0.0
  0
HATCH
  5
84
330
70
100
AcDbEntity
  8
Layer 1
 62
     7
420
 16514043
440
 33554687
100
AcDbHatch
 10
0.0
 20
0.0
 30
0.0
210
0.0
220
0.0
230
1.0
  2
SOLID
 70
     1
 71
     1
 91
        1
 92
        1
 93
        1
 72
     4
 94
        3
 73
     0
 74
     0
 95
       29
 96
       25
 40
0.0
 40
0.0
 40
0.0
 40
0.0
 40
1.0
 40
1.0
 40
1.0
 40
2.0
 40
2.0
 40
2.0
 40
3.0
 40
3.0
 40
3.0
 40
4.0
 40
4.0
 40
4.0
 40
5.0
 40
5.0
 40
5.0
 40
6.0
 40
6.0
 40
6.0
 40
7.0
 40
7.0
 40
7.0
 40
8.0
 40
8.0
 40
8.0
 40
8.0
 10
1.000244241719731
 20
-3.528972664600056
 10
1.002560545394582
 20
-3.529740920876267
 10
1.00487684580758
 20
-3.530509455506211
 10
1.007193142958739
 20
-3.531277711782422
 10
1.006554810036075
 20
-3.536449802314463
 10
1.011010944452689
 20
-3.538408020757641
 10
1.013785065059083
 20
-3.541206867445073
 10
1.037033794849675
 20
-3.564662065582473
 10
1.060396966505335
 20
-3.588004530461931
 10
1.083795231274242
 20
-3.611311087711075
 10
1.088722079961283
 20
-3.616218742206001
 10
1.092142616888218
 20
-3.621232727823224
 10
1.092073265694264
 20
-3.628887455213063
 10
1.09170180667781
 20
-3.669881721453495
 10
1.091830845303471
 20
-3.71088071970722
 10
1.091786936507901
 20
-3.75187804783862
 10
1.063917868257501
 20
-3.782513101913941
 10
1.033695984859642
 20
-3.810822510631371
 10
1.004451084667076
 20
-3.840096414999935
 10
1.003538317966596
 20
-3.841010250273433
 10
1.001668136146476
 20
-3.840967383800034
 10
1.000244249330711
 20
-3.841370161637617
 10
1.00024423900153
 20
-3.737237755409649
 10
1.00024423900153
 20
-3.633105070827999
 10
1.000244241719731
 20
-3.528972664600056
 97
        0
 97
        1
330
83
 75
     2
 76
     1
 98
        1
 10
0.0
 20
0.0
450
        0
451
        0
460
0.0
461
0.0
452
        0
462
0.0
453
        0
470

  0
SPLINE
  5
85
330
70
100
AcDbEntity
  8
Layer 1
100
AcDbSpline
210
0.0
220
0.0
230
1.0
 70
     9
 71
     3
 72
    23
 73
    19
 74
     0
 42
0.0000000001
 43
0.0000000001
 40
0.0
 40
0.0
 40
0.0
 40
0.0
 40
1.0
 40
1.0
 40
1.0
 40
2.0
 40
2.0
 40
2.0
 40
3.0
 40
3.0
 40
3.0
 40
4.0
 40
4.0
 40
4.0
 40
5.0
 40
5.0
 40
5.0
 40
6.0
 40
6.0
 40
6.0
 40
6.0
 10
3.152748870157438
 20
-1.000149130186602
 30
0.0
 10
3.153103063135985
 20
-1.005603219679629
 30
0.0
 10
3.14851915188443
 20
-1.00787107347671
 30
0.0
 10
3.145484643552536
 20
-1.010962262249336
 30
0.0
 10
3.119082862337311
 20
-1.037856995796182
 30
0.0
 10
3.092564315735444
 20
-1.064637229191362
 30
0.0
 10
3.066080422984896
 20
-1.09145143043933
 30
0.0
 10
3.02198694604125
 20
-1.091318777493079
 30
0.0
 10
2.977893469097592
 20
-1.091186150642493
 30
0.0
 10
2.933799992153922
 20
-1.091053532490465
 30
0.0
 10
2.907389860613079
 20
-1.064381613487866
 30
0.0
 10
2.880943961844145
 20
-1.037744823594986
 30
0.0
 10
2.854617890247911
 20
-1.010990275942023
 30
0.0
 10
2.851556939218185
 20
-1.007879648076166
 30
0.0
 10
2.846972749622447
 20
-1.005595784590721
 30
0.0
 10
2.847202661921313
 20
-1.000149130186602
 30
0.0
 10
2.94905144439071
 20
-1.000149130186602
 30
0.0
 10
3.050900087688003
 20
-1.000149130186602
 30
0.0
 10
3.152748870157438
 20
-1.000149130186602
 30
0.0
  0
HATCH
  5
86
330
70
100
AcDbEntity
  8
Layer 1
 62
     7
420
 16514043
440
 33554687
100
AcDbHatch
 10
0.0
 20
0.0
 30
0.0
210
0.0
220
0.0
230
1.0
  2
SOLID
 70
     1
 71
     1
 91
        1
 92
        1
 93
        1
 72
     4
 94
        3
 73
     0
 74
     0
 95
       23
 96
       19
 40
0.0
 40
0.0
 40
0.0
 40
0.0
 40
1.0
 40
1.0
 40
1.0
 40
2.0
 40
2.0
 40
2.0
 40
3.0
 40
3.0
 40
3.0
 40
4.0
 40
4.0
 40
4.0
 40
5.0
 40
5.0
 40
5.0
 40
6.0
 40
6.0
 40
6.0
 40
6.0
 10
3.152748870157438
 20
-1.000149130186602
 10
3.153103063135985
 20
-1.005603219679629
 10
3.14851915188443
 20
-1.00787107347671
 10
3.145484643552536
 20
-1.010962262249336
 10
3.119082862337311
 20
-1.037856995796182
 10
3.092564315735444
 20
-1.064637229191362
 10
3.066080422984896
 20
-1.09145143043933
 10
3.02198694604125
 20
-1.091318777493079
 10
2.977893469097592
 20
-1.091186150642493
 10
2.933799992153922
 20
-1.091053532490465
 10
2.907389860613079
 20
-1.064381613487866
 10
2.880943961844145
 20
-1.037744823594986
 10
2.854617890247911
 20
-1.010990275942023
 10
2.851556939218185
 20
-1.007879648076166
 10
2.846972749622447
 20
-1.005595784590721
 10
2.847202661921313
 20
-1.000149130186602
 10
2.94905144439071
 20
-1.000149130186602
 10
3.050900087688003
 20
-1.000149130186602
 10
3.152748870157438
 20
-1.000149130186602
 97
        0
 97
        1
330
85
 75
     2
 76
     1
 98
        1
 10
0.0
 20
0.0
450
        0
451
        0
460
0.0
461
0.0
452
        0
462
0.0
453
        0
470

  0
SPLINE
  5
87
330
70
100
AcDbEntity
  8
Layer 1
100
AcDbSpline
210
0.0
220
0.0
230
1.0
 70
     9
 71
     3
 72
    23
 73
    19
 74
     0
 42
0.0000000001
 43
0.0000000001
 40
0.0
 40
0.0
 40
0.0
 40
0.0
 40
1.0
 40
1.0
 40
1.0
 40
2.0
 40
2.0
 40
2.0
 40
3.0
 40
3.0
 40
3.0
 40
4.0
 40
4.0
 40
4.0
 40
5.0
 40
5.0
 40
5.0
 40
6.0
 40
6.0
 40
6.0
 40
6.0
 10
1.091452062355604
 20
-1.000149130186602
 30
0.0
 10
1.091610953395363
 20
-1.003601868913506
 30
0.0
 10
1.089214479527198
 20
-1.005600499206909
 30
0.0
 10
1.087091000419162
 20
-1.007725395533384
 30
0.0
 10
1.060666547200033
 20
-1.034167467210964
 30
0.0
 10
1.034237233830455
 20
-1.060604697056002
 30
0.0
 10
1.007788681006205
 20
-1.087022648731072
 30
0.0
 10
1.005683301881327
 20
-1.089125602411791
 30
0.0
 10
1.003762888449071
 20
-1.091664597200027
 30
0.0
 10
1.00024423900153
 20
-1.091360078226772
 30
0.0
 10
1.00024423900153
 20
-1.062856656964211
 30
0.0
 10
1.000397960015473
 20
-1.034351611246734
 30
0.0
 10
1.000096990033587
 20
-1.00585136930561
 30
0.0
 10
1.000045203608225
 20
-1.000947468236682
 30
0.0
 10
1.001042549702308
 20
-0.999950088246376
 30
0.0
 10
1.00594628277439
 20
-1.000001876309978
 30
0.0
 10
1.034445548360016
 20
-1.000302855651385
 30
0.0
 10
1.062949617557453
 20
-1.000149130186602
 30
0.0
 10
1.091452062355604
 20
-1.000149130186602
 30
0.0
  0
HATCH
  5
88
330
70
100
AcDbEntity
  8
Layer 1
 62
     7
420
 16514043
440
 33554687
100
AcDbHatch
 10
0.0
 20
0.0
 30
0.0
210
0.0
220
0.0
230
1.0
  2
SOLID
 70
     1
 71
     1
 91
        1
 92
        1
 93
        1
 72
     4
 94
        3
 73
     0
 74
     0
 95
       23
 96
       19
 40
0.0
 40
0.0
 40
0.0
 40
0.0
 40
1.0
 40
1.0
 40
1.0
 40
2.0
 40
2.0
 40
2.0
 40
3.0
 40
3.0
 40
3.0
 40
4.0
 40
4.0
 40
4.0
 40
5.0
 40
5.0
 40
5.0
 40
6.0
 40
6.0
 40
6.0
 40
6.0
 10
1.091452062355604
 20
-1.000149130186602
 10
1.091610953395363
 20
-1.003601868913506
 10
1.089214479527198
 20
-1.005600499206909
 10
1.087091000419162
 20
-1.007725395533384
 10
1.060666547200033
 20
-1.034167467210964
 10
1.034237233830455
 20
-1.060604697056002
 10
1.007788681006205
 20
-1.087022648731072
 10
1.005683301881327
 20
-1.089125602411791
 10
1.003762888449071
 20
-1.091664597200027
 10
1.00024423900153
 20
-1.091360078226772
 10
1.00024423900153
 20
-1.062856656964211
 10
1.000397960015473
 20
-1.034351611246734
 10
1.000096990033587
 20
-1.00585136930561
 10
1.000045203608225
 20
-1.000947468236682
 10
1.001042549702308
 20
-0.999950088246376
 10
1.00594628277439
 20
-1.000001876309978
 10
1.034445548360016
 20
-1.000302855651385
 10
1.062949617557453
 20
-1.000149130186602
 10
1.091452062355604
 20
-1.000149130186602
 97
        0
 97
        1
330
87
 75
     2
 76
     1
 98
        1
 10
0.0
 20
0.0
450
        0
451
        0
460
0.0
461
0.0
452
        0
462
0.0
453
        0
470

  0
SPLINE
  5
89
330
70
100
AcDbEntity
  8
Layer 1
100
AcDbSpline
210
0.0
220
0.0
230
1.0
 70
     9
 71
     3
 72
    44
 73
    40
 74
     0
 42
0.0000000001
 43
0.0000000001
 40
0.0
 40
0.0
 40
0.0
 40
0.0
 40
1.0
 40
1.0
 40
1.0
 40
2.0
 40
2.0
 40
2.0
 40
3.0
 40
3.0
 40
3.0
 40
4.0
 40
4.0
 40
4.0
 40
5.0
 40
5.0
 40
5.0
 40
6.0
 40
6.0
 40
6.0
 40
7.0
 40
7.0
 40
7.0
 40
8.0
 40
8.0
 40
8.0
 40
9.0
 40
9.0
 40
9.0
 40
10.0
 40
10.0
 40
10.0
 40
11.0
 40
11.0
 40
11.0
 40
12.0
 40
12.0
 40
12.0
 40
13.0
 40
13.0
 40
13.0
 40
13.0
 10
2.998824395307842
 20
-3.531252381593604
 30
0.0
 10
3.305506665345167
 20
-3.531252381593604
 30
0.0
 10
3.6121887962104
 20
-3.531201999569702
 30
0.0
 10
3.918870927075608
 20
-3.531487590489784
 30
0.0
 10
3.928432328259809
 20
-3.531496497808903
 30
0.0
 10
3.930527424958982
 20
-3.529129099392523
 30
0.0
 10
3.930520188010101
 20
-3.519734104524811
 30
0.0
 10
3.930252977590144
 20
-3.171617144302747
 30
0.0
 10
3.930279698632122
 20
-2.82349990572695
 30
0.0
 10
3.930406623581625
 20
-2.475382667151153
 30
0.0
 10
3.930409128679305
 20
-2.468579980508227
 30
0.0
 10
3.928969810885847
 20
-2.463555695803254
 30
0.0
 10
3.923807361240606
 20
-2.458522782132869
 30
0.0
 10
3.898506152942697
 20
-2.433856466945548
 30
0.0
 10
3.873604090209634
 20
-2.408776378948598
 30
0.0
 10
3.848818375346935
 20
-2.383588985591333
 30
0.0
 10
3.844534379957394
 20
-2.379235672536297
 30
0.0
 10
3.840345856624177
 20
-2.377297634738043
 30
0.0
 10
3.834118183773423
 20
-2.377299304860381
 30
0.0
 10
3.277377758446618
 20
-2.377446136449407
 30
0.0
 10
2.720637333119788
 20
-2.377444466327069
 30
0.0
 10
2.163896977379017
 20
-2.377319067974743
 30
0.0
 10
2.157796577408033
 20
-2.377317676206125
 30
0.0
 10
2.153418501683126
 20
-2.378895245932742
 30
0.0
 10
2.149070626302571
 20
-2.383321905193863
 30
0.0
 10
2.125106583481308
 20
-2.407719469861363
 30
0.0
 10
2.101000863468635
 20
-2.431985651571481
 30
0.0
 10
2.076524806514511
 20
-2.455867565966614
 30
0.0
 10
2.069780735609962
 20
-2.462447708807783
 30
0.0
 10
2.067208069871109
 20
-2.469377742279107
 30
0.0
 10
2.067213358410665
 20
-2.47875325238619
 30
0.0
 10
2.067407503481452
 20
-2.824590078084131
 30
0.0
 10
2.067376676862674
 20
-3.17042718213578
 30
0.0
 10
2.06737765106733
 20
-3.516264147010562
 30
0.0
 10
2.06737765106733
 20
-3.531245701104252
 30
0.0
 10
2.067382661262715
 20
-3.531251268178721
 30
0.0
 10
2.082200592427498
 20
-3.531251268178721
 30
0.0
 10
2.387741860054271
 20
-3.531252381593604
 30
0.0
 10
2.693283058095011
 20
-3.531252381593604
 30
0.0
 10
2.998824395307842
 20
-3.531252381593604
 30
0.0
  0
SPLINE
  5
8A
330
70
100
AcDbEntity
  8
Layer 1
100
AcDbSpline
210
0.0
220
0.0
230
1.0
 70
     9
 71
     3
 72
   179
 73
   175
 74
     0
 42
0.0000000001
 43
0.0000000001
 40
0.0
 40
0.0
 40
0.0
 40
0.0
 40
1.0
 40
1.0
 40
1.0
 40
2.0
 40
2.0
 40
2.0
 40
3.0
 40
3.0
 40
3.0
 40
4.0
 40
4.0
 40
4.0
 40
5.0
 40
5.0
 40
5.0
 40
6.0
 40
6.0
 40
6.0
 40
7.0
 40
7.0
 40
7.0
 40
8.0
 40
8.0
 40
8.0
 40
9.0
 40
9.0
 40
9.0
 40
10.0
 40
10.0
 40
10.0
 40
11.0
 40
11.0
 40
11.0
 40
12.0
 40
12.0
 40
12.0
 40
13.0
 40
13.0
 40
13.0
 40
14.0
 40
14.0
 40
14.0
 40
15.0
 40
15.0
 40
15.0
 40
16.0
 40
16.0
 40
16.0
 40
17.0
 40
17.0
 40
17.0
 40
18.0
 40
18.0
 40
18.0
 40
19.0
 40
19.0
 40
19.0
 40
20.0
 40
20.0
 40
20.0
 40
21.0
 40
21.0
 40
21.0
 40
22.0
 40
22.0
 40
22.0
 40
23.0
 40
23.0
 40
23.0
 40
24.0
 40
24.0
 40
24.0
 40
25.0
 40
25.0
 40
25.0
 40
26.0
 40
26.0
 40
26.0
 40
27.0
 40
27.0
 40
27.0
 40
28.0
 40
28.0
 40
28.0
 40
29.0
 40
29.0
 40
29.0
 40
30.0
 40
30.0
 40
30.0
 40
31.0
 40
31.0
 40
31.0
 40
32.0
 40
32.0
 40
32.0
 40
33.0
 40
33.0
 40
33.0
 40
34.0
 40
34.0
 40
34.0
 40
35.0
 40
35.0
 40
35.0
 40
36.0
 40
36.0
 40
36.0
 40
37.0
 40
37.0
 40
37.0
 40
38.0
 40
38.0
 40
38.0
 40
39.0
 40
39.0
 40
39.0
 40
40.0
 40
40.0
 40
40.0
 40
41.0
 40
41.0
 40
41.0
 40
42.0
 40
42.0
 40
42.0
 40
43.0
 40
43.0
 40
43.0
 40
44.0
 40
44.0
 40
44.0
 40
45.0
 40
45.0
 40
45.0
 40
46.0
 40
46.0
 40
46.0
 40
47.0
 40
47.0
 40
47.0
 40
48.0
 40
48.0
 40
48.0
 40
49.0
 40
49.0
 40
49.0
 40
50.0
 40
50.0
 40
50.0
 40
51.0
 40
51.0
 40
51.0
 40
52.0
 40
52.0
 40
52.0
 40
53.0
 40
53.0
 40
53.0
 40
54.0
 40
54.0
 40
54.0
 40
55.0
 40
55.0
 40
55.0
 40
56.0
 40
56.0
 40
56.0
 40
57.0
 40
57.0
 40
57.0
 40
58.0
 40
58.0
 40
58.0
 40
58.0
 10
2.933799992153922
 20
-1.09105351509336
 30
0.0
 10
2.977893469097592
 20
-1.091186150642493
 30
0.0
 10
3.02198694604125
 20
-1.091318777493079
 30
0.0
 10
3.066080422984896
 20
-1.091451404343653
 30
0.0
 10
3.066087799105894
 20
-1.441747639357964
 30
0.0
 10
3.066150704892252
 20
-1.792043900467938
 30
0.0
 10
3.065846057179062
 20
-2.142339883224167
 30
0.0
 10
3.065836454304568
 20
-2.15338843838496
 30
0.0
 10
3.067884371663972
 20
-2.156562784245086
 30
0.0
 10
3.079689366171351
 20
-2.156555964578867
 30
0.0
 10
3.68489842155279
 20
-2.156204751768528
 30
0.0
 10
4.290108033622573
 20
-2.156429661576933
 30
0.0
 10
4.895316253971436
 20
-2.155741292819294
 30
0.0
 10
4.92774669194331
 20
-2.155704410950963
 30
0.0
 10
4.960312961878697
 20
-2.154530384534647
 30
0.0
 10
4.992818274437038
 20
-2.15397847868985
 30
0.0
 10
4.996053747272299
 20
-2.159417997561503
 30
0.0
 10
4.99073570322629
 20
-2.161181855517409
 30
0.0
 10
4.988245914469264
 20
-2.16369956494437
 30
0.0
 10
4.963691225282167
 20
-2.188530804712715
 30
0.0
 10
4.939011837899088
 20
-2.213240125550265
 30
0.0
 10
4.914241153622494
 20
-2.237856337067392
 30
0.0
 10
4.910334314607021
 20
-2.241738675622665
 30
0.0
 10
4.907705632100436
 20
-2.24544314614876
 30
0.0
 10
4.907756290742579
 20
-2.2515097263705
 30
0.0
 10
4.908105056009465
 20
-2.293261671445684
 30
0.0
 10
4.908039088437034
 20
-2.335017095942387
 30
0.0
 10
4.90810644773041
 20
-2.376771407024218
 30
0.0
 10
4.903183374086412
 20
-2.376992698234213
 30
0.0
 10
4.898260300442416
 20
-2.377407027751296
 30
0.0
 10
4.893337226798444
 20
-2.377407584458738
 30
0.0
 10
4.65014345668851
 20
-2.377439177606321
 30
0.0
 10
4.406949408234392
 20
-2.377470492400195
 30
0.0
 10
4.163755638124484
 20
-2.37727536644018
 30
0.0
 10
4.156022123219498
 20
-2.377269103481416
 30
0.0
 10
4.150483073888582
 20
-2.379105820524387
 30
0.0
 10
4.144951261506599
 20
-2.384788690138609
 30
0.0
 10
4.121100783113837
 20
-2.409291194159777
 30
0.0
 10
4.096882612049411
 20
-2.433444085904524
 30
0.0
 10
4.072418663067436
 20
-2.457335325149402
 30
0.0
 10
4.066844820713084
 20
-2.462778532207898
 30
0.0
 10
4.064643118190107
 20
-2.468180821269065
 30
0.0
 10
4.064647850041309
 20
-2.476037633461992
 30
0.0
 10
4.064856051493557
 20
-2.823360728865319
 30
0.0
 10
4.064885277633215
 20
-3.170683963445501
 30
0.0
 10
4.064559614933866
 20
-3.518006919671961
 30
0.0
 10
4.064549316198937
 20
-3.52885714780488
 30
0.0
 10
4.066834243633971
 20
-3.531601993870026
 30
0.0
 10
4.07794407353314
 20
-3.531529343548249
 30
0.0
 10
4.358200207238825
 20
-3.529691095559807
 30
0.0
 10
4.638474711660895
 20
-3.534212395086847
 30
0.0
 10
4.918724721794458
 20
-3.529033067358012
 30
0.0
 10
4.943415521289225
 20
-3.528576845605584
 30
0.0
 10
4.968122186402701
 20
-3.528981015211759
 30
0.0
 10
4.99282161456727
 20
-3.528985468871344
 30
0.0
 10
4.994280416453875
 20
-3.534538347296802
 30
0.0
 10
4.990114717344011
 20
-3.53724088359599
 30
0.0
 10
4.986962747764967
 20
-3.540397414817839
 30
0.0
 10
4.962545003918117
 20
-3.564851067760577
 30
0.0
 10
4.938142847345766
 20
-3.589320586865546
 30
0.0
 10
4.913621559461185
 20
-3.613670413869511
 30
0.0
 10
4.909965230214411
 20
-3.617300703128345
 30
0.0
 10
4.907730961421495
 20
-3.620847764623931
 30
0.0
 10
4.907772713049628
 20
-3.626433210435
 30
0.0
 10
4.908084736883791
 20
-3.668204083563371
 30
0.0
 10
4.908029903078841
 20
-3.709977461875243
 30
0.0
 10
4.908090025423335
 20
-3.751750283479648
 30
0.0
 10
4.903169456877043
 20
-3.751980203655041
 30
0.0
 10
4.898248888330726
 20
-3.752411095218677
 30
0.0
 10
4.893328319784434
 20
-3.752411373572385
 30
0.0
 10
4.317373238507343
 20
-3.752441714128255
 30
0.0
 10
3.741418157230277
 20
-3.752455910168135
 30
0.0
 10
3.165463215125302
 20
-3.752279155553853
 30
0.0
 10
3.157321230125186
 20
-3.752276650370327
 30
0.0
 10
3.151515387890589
 20
-3.754288034374667
 30
0.0
 10
3.145712468269973
 20
-3.760273196132351
 30
0.0
 10
3.121651144155192
 20
-3.785089822330241
 30
0.0
 10
3.097149340363734
 20
-3.80948613440599
 30
0.0
 10
3.072466612850398
 20
-3.833687598875434
 30
0.0
 10
3.067729055607363
 20
-3.838332765809304
 30
0.0
 10
3.065962126705219
 20
-3.842877725402836
 30
0.0
 10
3.065965049319174
 20
-3.849441584551186
 30
0.0
 10
3.0661205045479
 20
-4.197458059079179
 30
0.0
 10
3.066101437971054
 20
-4.545474255253414
 30
0.0
 10
3.066116051040883
 20
-4.893490729781407
 30
0.0
 10
3.066116329385093
 20
-4.897942440877588
 30
0.0
 10
3.065382474934797
 20
-4.90256311268384
 30
0.0
 10
3.068445096029664
 20
-4.906482054753723
 30
0.0
 10
3.022821839431597
 20
-4.906494302317544
 30
0.0
 10
2.977198443661437
 20
-4.906506828235074
 30
0.0
 10
2.931575187063382
 20
-4.906519354152654
 30
0.0
 10
2.936693936671177
 20
-4.555945087261559
 30
0.0
 10
2.932444038444613
 20
-4.205350778902381
 30
0.0
 10
2.934000121624724
 20
-3.854768996460784
 30
0.0
 10
2.934037837262128
 20
-3.846278094486251
 30
0.0
 10
2.931960832935133
 20
-3.840159879648858
 30
0.0
 10
2.925696696995853
 20
-3.834002695290185
 30
0.0
 10
2.899192902635932
 20
-3.807951848683337
 30
0.0
 10
2.873237446325333
 20
-3.78133872755547
 30
0.0
 10
2.847379967168737
 20
-3.754642100310648
 30
0.0
 10
2.845359745055993
 20
-3.752556117508497
 30
0.0
 10
2.843732544935972
 20
-3.752584787941991
 30
0.0
 10
2.841670432023015
 20
-3.752481240356953
 30
0.0
 10
2.838637872100396
 20
-3.752329537577755
 30
0.0
 10
2.835592230000972
 20
-3.752440044005904
 30
0.0
 10
2.832552154785301
 20
-3.752440044005904
 30
0.0
 10
2.257225296339369
 20
-3.752440322359613
 30
0.0
 10
1.681898298721345
 20
-3.752441435774496
 30
0.0
 10
1.106571414180658
 20
-3.752416940646854
 30
0.0
 10
1.101643243358731
 20
-3.752416662293146
 30
0.0
 10
1.096715089933316
 20
-3.752065379894373
 30
0.0
 10
1.091786936507901
 20
-3.75187804783862
 30
0.0
 10
1.091830845303471
 20
-3.71088071970722
 30
0.0
 10
1.09170180667781
 20
-3.669881721453495
 30
0.0
 10
1.092073265694264
 20
-3.628887455213063
 30
0.0
 10
1.092142616888218
 20
-3.621232727823224
 30
0.0
 10
1.088722079961283
 20
-3.616218742206001
 30
0.0
 10
1.083795231274242
 20
-3.611311087711075
 30
0.0
 10
1.060396966505335
 20
-3.588004530461931
 30
0.0
 10
1.037033794849675
 20
-3.564662065582473
 30
0.0
 10
1.013785065059083
 20
-3.541206867445073
 30
0.0
 10
1.011010944452689
 20
-3.538408020757641
 30
0.0
 10
1.006554810036075
 20
-3.536449802314463
 30
0.0
 10
1.007193140784162
 20
-3.531277711782422
 30
0.0
 10
1.31188973383189
 20
-3.531269361170719
 30
0.0
 10
1.616586435607801
 20
-3.531192813896849
 30
0.0
 10
1.921282650281391
 20
-3.531521271290305
 30
0.0
 10
1.932485655897304
 20
-3.531533518854125
 30
0.0
 10
1.935436869731132
 20
-3.529247399724933
 30
0.0
 10
1.935424413828741
 20
-3.5175982964062
 30
0.0
 10
1.935053659371015
 20
-3.170719036014613
 30
0.0
 10
1.935099655748002
 20
-2.823839079738755
 30
0.0
 10
1.935269515288394
 20
-2.476959540993448
 30
0.0
 10
1.935273412107031
 20
-2.46889326762376
 30
0.0
 10
1.933459999725591
 20
-2.46299634399635
 30
0.0
 10
1.927417564931639
 20
-2.457146601325032
 30
0.0
 10
1.902855847553812
 20
-2.433367538630629
 30
0.0
 10
1.8787438647969
 20
-2.409115831314112
 30
0.0
 10
1.854830828548011
 20
-2.384681523955148
 30
0.0
 10
1.849673319512109
 20
-2.379411592089392
 30
0.0
 10
1.844543505722867
 20
-2.377275227263326
 30
0.0
 10
1.837144421359135
 20
-2.377280933514649
 30
0.0
 10
1.593615246503292
 20
-2.377467848039827
 30
0.0
 10
1.350085897682346
 20
-2.377438620898879
 30
0.0
 10
1.106556566257912
 20
-2.377412734002619
 30
0.0
 10
1.101628986917376
 20
-2.377412177295177
 30
0.0
 10
1.096701442369875
 20
-2.377072446575918
 30
0.0
 10
1.091773871727607
 20
-2.376890959948354
 30
0.0
 10
1.091822103556346
 20
-2.335498508706791
 30
0.0
 10
1.091739931133234
 20
-2.294104944050319
 30
0.0
 10
1.092057574040697
 20
-2.252714580461669
 30
0.0
 10
1.092105858058971
 20
-2.246423229608391
 30
0.0
 10
1.08999790533763
 20
-2.242149525718205
 30
0.0
 10
1.085649412380904
 20
-2.237857450482288
 30
0.0
 10
1.061595834062965
 20
-2.214116522247978
 30
0.0
 10
1.037752227292344
 20
-2.190161957531055
 30
0.0
 10
1.013965699563931
 20
-2.166152696307512
 30
0.0
 10
1.011185024821757
 20
-2.163346055715818
 30
0.0
 10
1.006761185941867
 20
-2.16139618788433
 30
0.0
 10
1.007210062153666
 20
-2.156276914971297
 30
0.0
 10
1.643730978287319
 20
-2.156266894237256
 30
0.0
 10
2.280251875937185
 20
-2.15625673432636
 30
0.0
 10
2.916772843173084
 20
-2.156246644003886
 30
0.0
 10
2.933848563214635
 20
-2.156246365650165
 30
0.0
 10
2.933849119903015
 20
-2.156246087296444
 30
0.0
 10
2.933849119903015
 20
-2.138952318412003
 30
0.0
 10
2.933849259075107
 20
-1.80681000877981
 30
0.0
 10
2.933878763558987
 20
-1.474667664353382
 30
0.0
 10
2.93375336950252
 20
-1.142525398213933
 30
0.0
 10
2.933747663446676
 20
-1.12742558728064
 30
0.0
 10
2.93224891916917
 20
-1.11232969069657
 30
0.0
 10
2.931700998636124
 20
-1.097222703456345
 30
0.0
 10
2.931627515770628
 20
-1.095194331176344
 30
0.0
 10
2.933063075917554
 20
-1.093111244992605
 30
0.0
 10
2.933799992153922
 20
-1.09105351509336
 30
0.0
  0
HATCH
  5
8B
330
70
100
AcDbEntity
  8
Layer 1
 62
    18
420
    65793
440
 33554687
100
AcDbHatch
 10
0.0
 20
0.0
 30
0.0
210
0.0
220
0.0
230
1.0
  2
SOLID
 70
     1
 71
     1
 91
        2
 92
        1
 93
        1
 72
     4
 94
        3
 73
     0
 74
     0
 95
       44
 96
       40
 40
0.0
 40
0.0
 40
0.0
 40
0.0
 40
1.0
 40
1.0
 40
1.0
 40
2.0
 40
2.0
 40
2.0
 40
3.0
 40
3.0
 40
3.0
 40
4.0
 40
4.0
 40
4.0
 40
5.0
 40
5.0
 40
5.0
 40
6.0
 40
6.0
 40
6.0
 40
7.0
 40
7.0
 40
7.0
 40
8.0
 40
8.0
 40
8.0
 40
9.0
 40
9.0
 40
9.0
 40
10.0
 40
10.0
 40
10.0
 40
11.0
 40
11.0
 40
11.0
 40
12.0
 40
12.0
 40
12.0
 40
13.0
 40
13.0
 40
13.0
 40
13.0
 10
2.998824395307842
 20
-3.531252381593604
 10
3.305506665345167
 20
-3.531252381593604
 10
3.6121887962104
 20
-3.531201999569702
 10
3.918870927075608
 20
-3.531487590489784
 10
3.928432328259809
 20
-3.531496497808903
 10
3.930527424958982
 20
-3.529129099392523
 10
3.930520188010101
 20
-3.519734104524811
 10
3.930252977590144
 20
-3.171617144302747
 10
3.930279698632122
 20
-2.82349990572695
 10
3.930406623581625
 20
-2.475382667151153
 10
3.930409128679305
 20
-2.468579980508227
 10
3.928969810885847
 20
-2.463555695803254
 10
3.923807361240606
 20
-2.458522782132869
 10
3.898506152942697
 20
-2.433856466945548
 10
3.873604090209634
 20
-2.408776378948598
 10
3.848818375346935
 20
-2.383588985591333
 10
3.844534379957394
 20
-2.379235672536297
 10
3.840345856624177
 20
-2.377297634738043
 10
3.834118183773423
 20
-2.377299304860381
 10
3.277377758446618
 20
-2.377446136449407
 10
2.720637333119788
 20
-2.377444466327069
 10
2.163896977379017
 20
-2.377319067974743
 10
2.157796577408033
 20
-2.377317676206125
 10
2.153418501683126
 20
-2.378895245932742
 10
2.149070626302571
 20
-2.383321905193863
 10
2.125106583481308
 20
-2.407719469861363
 10
2.101000863468635
 20
-2.431985651571481
 10
2.076524806514511
 20
-2.455867565966614
 10
2.069780735609962
 20
-2.462447708807783
 10
2.067208069871109
 20
-2.469377742279107
 10
2.067213358410665
 20
-2.47875325238619
 10
2.067407503481452
 20
-2.824590078084131
 10
2.067376676862674
 20
-3.17042718213578
 10
2.06737765106733
 20
-3.516264147010562
 10
2.06737765106733
 20
-3.531245701104252
 10
2.067382661262715
 20
-3.531251268178721
 10
2.082200592427498
 20
-3.531251268178721
 10
2.387741860054271
 20
-3.531252381593604
 10
2.693283058095011
 20
-3.531252381593604
 10
2.998824395307842
 20
-3.531252381593604
 97
        0
 97
        1
330
89
 92
        1
 93
        1
 72
     4
 94
        3
 73
     0
 74
     0
 95
      179
 96
      175
 40
0.0
 40
0.0
 40
0.0
 40
0.0
 40
1.0
 40
1.0
 40
1.0
 40
2.0
 40
2.0
 40
2.0
 40
3.0
 40
3.0
 40
3.0
 40
4.0
 40
4.0
 40
4.0
 40
5.0
 40
5.0
 40
5.0
 40
6.0
 40
6.0
 40
6.0
 40
7.0
 40
7.0
 40
7.0
 40
8.0
 40
8.0
 40
8.0
 40
9.0
 40
9.0
 40
9.0
 40
10.0
 40
10.0
 40
10.0
 40
11.0
 40
11.0
 40
11.0
 40
12.0
 40
12.0
 40
12.0
 40
13.0
 40
13.0
 40
13.0
 40
14.0
 40
14.0
 40
14.0
 40
15.0
 40
15.0
 40
15.0
 40
16.0
 40
16.0
 40
16.0
 40
17.0
 40
17.0
 40
17.0
 40
18.0
 40
18.0
 40
18.0
 40
19.0
 40
19.0
 40
19.0
 40
20.0
 40
20.0
 40
20.0
 40
21.0
 40
21.0
 40
21.0
 40
22.0
 40
22.0
 40
22.0
 40
23.0
 40
23.0
 40
23.0
 40
24.0
 40
24.0
 40
24.0
 40
25.0
 40
25.0
 40
25.0
 40
26.0
 40
26.0
 40
26.0
 40
27.0
 40
27.0
 40
27.0
 40
28.0
 40
28.0
 40
28.0
 40
29.0
 40
29.0
 40
29.0
 40
30.0
 40
30.0
 40
30.0
 40
31.0
 40
31.0
 40
31.0
 40
32.0
 40
32.0
 40
32.0
 40
33.0
 40
33.0
 40
33.0
 40
34.0
 40
34.0
 40
34.0
 40
35.0
 40
35.0
 40
35.0
 40
36.0
 40
36.0
 40
36.0
 40
37.0
 40
37.0
 40
37.0
 40
38.0
 40
38.0
 40
38.0
 40
39.0
 40
39.0
 40
39.0
 40
40.0
 40
40.0
 40
40.0
 40
41.0
 40
41.0
 40
41.0
 40
42.0
 40
42.0
 40
42.0
 40
43.0
 40
43.0
 40
43.0
 40
44.0
 40
44.0
 40
44.0
 40
45.0
 40
45.0
 40
45.0
 40
46.0
 40
46.0
 40
46.0
 40
47.0
 40
47.0
 40
47.0
 40
48.0
 40
48.0
 40
48.0
 40
49.0
 40
49.0
 40
49.0
 40
50.0
 40
50.0
 40
50.0
 40
51.0
 40
51.0
 40
51.0
 40
52.0
 40
52.0
 40
52.0
 40
53.0
 40
53.0
 40
53.0
 40
54.0
 40
54.0
 40
54.0
 40
55.0
 40
55.0
 40
55.0
 40
56.0
 40
56.0
 40
56.0
 40
57.0
 40
57.0
 40
57.0
 40
58.0
 40
58.0
 40
58.0
 40
58.0
 10
2.933799992153922
 20
-1.09105351509336
 10
2.977893469097592
 20
-1.091186150642493
 10
3.02198694604125
 20
-1.091318777493079
 10
3.066080422984896
 20
-1.091451404343653
 10
3.066087799105894
 20
-1.441747639357964
 10
3.066150704892252
 20
-1.792043900467938
 10
3.065846057179062
 20
-2.142339883224167
 10
3.065836454304568
 20
-2.15338843838496
 10
3.067884371663972
 20
-2.156562784245086
 10
3.079689366171351
 20
-2.156555964578867
 10
3.68489842155279
 20
-2.156204751768528
 10
4.290108033622573
 20
-2.156429661576933
 10
4.895316253971436
 20
-2.155741292819294
 10
4.92774669194331
 20
-2.155704410950963
 10
4.960312961878697
 20
-2.154530384534647
 10
4.992818274437038
 20
-2.15397847868985
 10
4.996053747272299
 20
-2.159417997561503
 10
4.99073570322629
 20
-2.161181855517409
 10
4.988245914469264
 20
-2.16369956494437
 10
4.963691225282167
 20
-2.188530804712715
 10
4.939011837899088
 20
-2.213240125550265
 10
4.914241153622494
 20
-2.237856337067392
 10
4.910334314607021
 20
-2.241738675622665
 10
4.907705632100436
 20
-2.24544314614876
 10
4.907756290742579
 20
-2.2515097263705
 10
4.908105056009465
 20
-2.293261671445684
 10
4.908039088437034
 20
-2.335017095942387
 10
4.90810644773041
 20
-2.376771407024218
 10
4.903183374086412
 20
-2.376992698234213
 10
4.898260300442416
 20
-2.377407027751296
 10
4.893337226798444
 20
-2.377407584458738
 10
4.65014345668851
 20
-2.377439177606321
 10
4.406949408234392
 20
-2.377470492400195
 10
4.163755638124484
 20
-2.37727536644018
 10
4.156022123219498
 20
-2.377269103481416
 10
4.150483073888582
 20
-2.379105820524387
 10
4.144951261506599
 20
-2.384788690138609
 10
4.121100783113837
 20
-2.409291194159777
 10
4.096882612049411
 20
-2.433444085904524
 10
4.072418663067436
 20
-2.457335325149402
 10
4.066844820713084
 20
-2.462778532207898
 10
4.064643118190107
 20
-2.468180821269065
 10
4.064647850041309
 20
-2.476037633461992
 10
4.064856051493557
 20
-2.823360728865319
 10
4.064885277633215
 20
-3.170683963445501
 10
4.064559614933866
 20
-3.518006919671961
 10
4.064549316198937
 20
-3.52885714780488
 10
4.066834243633971
 20
-3.531601993870026
 10
4.07794407353314
 20
-3.531529343548249
 10
4.358200207238825
 20
-3.529691095559807
 10
4.638474711660895
 20
-3.534212395086847
 10
4.918724721794458
 20
-3.529033067358012
 10
4.943415521289225
 20
-3.528576845605584
 10
4.968122186402701
 20
-3.528981015211759
 10
4.99282161456727
 20
-3.528985468871344
 10
4.994280416453875
 20
-3.534538347296802
 10
4.990114717344011
 20
-3.53724088359599
 10
4.986962747764967
 20
-3.540397414817839
 10
4.962545003918117
 20
-3.564851067760577
 10
4.938142847345766
 20
-3.589320586865546
 10
4.913621559461185
 20
-3.613670413869511
 10
4.909965230214411
 20
-3.617300703128345
 10
4.907730961421495
 20
-3.620847764623931
 10
4.907772713049628
 20
-3.626433210435
 10
4.908084736883791
 20
-3.668204083563371
 10
4.908029903078841
 20
-3.709977461875243
 10
4.908090025423335
 20
-3.751750283479648
 10
4.903169456877043
 20
-3.751980203655041
 10
4.898248888330726
 20
-3.752411095218677
 10
4.893328319784434
 20
-3.752411373572385
 10
4.317373238507343
 20
-3.752441714128255
 10
3.741418157230277
 20
-3.752455910168135
 10
3.165463215125302
 20
-3.752279155553853
 10
3.157321230125186
 20
-3.752276650370327
 10
3.151515387890589
 20
-3.754288034374667
 10
3.145712468269973
 20
-3.760273196132351
 10
3.121651144155192
 20
-3.785089822330241
 10
3.097149340363734
 20
-3.80948613440599
 10
3.072466612850398
 20
-3.833687598875434
 10
3.067729055607363
 20
-3.838332765809304
 10
3.065962126705219
 20
-3.842877725402836
 10
3.065965049319174
 20
-3.849441584551186
 10
3.0661205045479
 20
-4.197458059079179
 10
3.066101437971054
 20
-4.545474255253414
 10
3.066116051040883
 20
-4.893490729781407
 10
3.066116329385093
 20
-4.897942440877588
 10
3.065382474934797
 20
-4.90256311268384
 10
3.068445096029664
 20
-4.906482054753723
 10
3.022821839431597
 20
-4.906494302317544
 10
2.977198443661437
 20
-4.906506828235074
 10
2.931575187063382
 20
-4.906519354152654
 10
2.936693936671177
 20
-4.555945087261559
 10
2.932444038444613
 20
-4.205350778902381
 10
2.934000121624724
 20
-3.854768996460784
 10
2.934037837262128
 20
-3.846278094486251
 10
2.931960832935133
 20
-3.840159879648858
 10
2.925696696995853
 20
-3.834002695290185
 10
2.899192902635932
 20
-3.807951848683337
 10
2.873237446325333
 20
-3.78133872755547
 10
2.847379967168737
 20
-3.754642100310648
 10
2.845359745055993
 20
-3.752556117508497
 10
2.843732544935972
 20
-3.752584787941991
 10
2.841670432023015
 20
-3.752481240356953
 10
2.838637872100396
 20
-3.752329537577755
 10
2.835592230000972
 20
-3.752440044005904
 10
2.832552154785301
 20
-3.752440044005904
 10
2.257225296339369
 20
-3.752440322359613
 10
1.681898298721345
 20
-3.752441435774496
 10
1.106571414180658
 20
-3.752416940646854
 10
1.101643243358731
 20
-3.752416662293146
 10
1.096715089933316
 20
-3.752065379894373
 10
1.091786936507901
 20
-3.75187804783862
 10
1.091830845303471
 20
-3.71088071970722
 10
1.09170180667781
 20
-3.669881721453495
 10
1.092073265694264
 20
-3.628887455213063
 10
1.092142616888218
 20
-3.621232727823224
 10
1.088722079961283
 20
-3.616218742206001
 10
1.083795231274242
 20
-3.611311087711075
 10
1.060396966505335
 20
-3.588004530461931
 10
1.037033794849675
 20
-3.564662065582473
 10
1.013785065059083
 20
-3.541206867445073
 10
1.011010944452689
 20
-3.538408020757641
 10
1.006554810036075
 20
-3.536449802314463
 10
1.007193140784162
 20
-3.531277711782422
 10
1.31188973383189
 20
-3.531269361170719
 10
1.616586435607801
 20
-3.531192813896849
 10
1.921282650281391
 20
-3.531521271290305
 10
1.932485655897304
 20
-3.531533518854125
 10
1.935436869731132
 20
-3.529247399724933
 10
1.935424413828741
 20
-3.5175982964062
 10
1.935053659371015
 20
-3.170719036014613
 10
1.935099655748002
 20
-2.823839079738755
 10
1.935269515288394
 20
-2.476959540993448
 10
1.935273412107031
 20
-2.46889326762376
 10
1.933459999725591
 20
-2.46299634399635
 10
1.927417564931639
 20
-2.457146601325032
 10
1.902855847553812
 20
-2.433367538630629
 10
1.8787438647969
 20
-2.409115831314112
 10
1.854830828548011
 20
-2.384681523955148
 10
1.849673319512109
 20
-2.379411592089392
 10
1.844543505722867
 20
-2.377275227263326
 10
1.837144421359135
 20
-2.377280933514649
 10
1.593615246503292
 20
-2.377467848039827
 10
1.350085897682346
 20
-2.377438620898879
 10
1.106556566257912
 20
-2.377412734002619
 10
1.101628986917376
 20
-2.377412177295177
 10
1.096701442369875
 20
-2.377072446575918
 10
1.091773871727607
 20
-2.376890959948354
 10
1.091822103556346
 20
-2.335498508706791
 10
1.091739931133234
 20
-2.294104944050319
 10
1.092057574040697
 20
-2.252714580461669
 10
1.092105858058971
 20
-2.246423229608391
 10
1.08999790533763
 20
-2.242149525718205
 10
1.085649412380904
 20
-2.237857450482288
 10
1.061595834062965
 20
-2.214116522247978
 10
1.037752227292344
 20
-2.190161957531055
 10
1.013965699563931
 20
-2.166152696307512
 10
1.011185024821757
 20
-2.163346055715818
 10
1.006761185941867
 20
-2.16139618788433
 10
1.007210062153666
 20
-2.156276914971297
 10
1.643730978287319
 20
-2.156266894237256
 10
2.280251875937185
 20
-2.15625673432636
 10
2.916772843173084
 20
-2.156246644003886
 10
2.933848563214635
 20
-2.156246365650165
 10
2.933849119903015
 20
-2.156246087296444
 10
2.933849119903015
 20
-2.138952318412003
 10
2.933849259075107
 20
-1.80681000877981
 10
2.933878763558987
 20
-1.474667664353382
 10
2.93375336950252
 20
-1.142525398213933
 10
2.933747663446676
 20
-1.12742558728064
 10
2.93224891916917
 20
-1.11232969069657
 10
2.931700998636124
 20
-1.097222703456345
 10
2.931627515770628
 20
-1.095194331176344
 10
2.933063075917554
 20
-1.093111244992605
 10
2.933799992153922
 20
-1.09105351509336
 97
        0
 97
        1
330
8A
 75
     2
 76
     1
 98
        1
 10
0.0
 20
0.0
450
        0
451
        0
460
0.0
461
0.0
452
        0
462
0.0
453
        0
470

  0
SPLINE
  5
8C
330
70
100
AcDbEntity
  8
Layer 1
100
AcDbSpline
210
0.0
220
0.0
230
1.0
 70
     9
 71
     3
 72
    32
 73
    28
 74
     0
 42
0.0000000001
 43
0.0000000001
 40
0.0
 40
0.0
 40
0.0
 40
0.0
 40
1.0
 40
1.0
 40
1.0
 40
2.0
 40
2.0
 40
2.0
 40
3.0
 40
3.0
 40
3.0
 40
4.0
 40
4.0
 40
4.0
 40
5.0
 40
5.0
 40
5.0
 40
6.0
 40
6.0
 40
6.0
 40
7.0
 40
7.0
 40
7.0
 40
8.0
 40
8.0
 40
8.0
 40
9.0
 40
9.0
 40
9.0
 40
9.0
 10
2.931831959576331
 20
-4.906262990373508
 30
0.0
 10
2.934250353049264
 20
-4.91015882908434
 30
0.0
 10
2.930243449298371
 20
-4.911383863820447
 30
0.0
 10
2.928580621122351
 20
-4.913076811165359
 30
0.0
 10
2.903564854788694
 20
-4.938550908857601
 30
0.0
 10
2.878188911076449
 20
-4.963674837565955
 30
0.0
 10
2.853419340176616
 20
-4.989383587446909
 30
0.0
 10
2.847773545849829
 20
-4.995243768382831
 30
0.0
 10
2.841629237083262
 20
-4.995152190007906
 30
0.0
 10
2.834803541745739
 20
-4.995151911654172
 30
0.0
 10
2.388882097018293
 20
-4.995132983600998
 30
0.0
 10
1.942960513118754
 20
-4.99513437536959
 30
0.0
 10
1.497039033598298
 20
-4.995134653723324
 30
0.0
 10
1.365617538136853
 20
-4.995134653723324
 30
0.0
 10
1.234195973089375
 20
-4.995087333590364
 30
0.0
 10
1.102774721179103
 20
-4.995262418082297
 30
0.0
 10
1.095471987395512
 20
-4.995272160462617
 30
0.0
 10
1.090071092462418
 20
-4.993549985976742
 30
0.0
 10
1.084787171674141
 20
-4.988122923434224
 30
0.0
 10
1.062000777015353
 20
-4.96472116921172
 30
0.0
 10
1.03868966442101
 20
-4.941830750778838
 30
0.0
 10
1.015670992625056
 20
-4.918653628011017
 30
0.0
 10
1.01287956357679
 20
-4.91584309046718
 30
0.0
 10
1.008513456651952
 20
-4.913757942726205
 30
0.0
 10
1.009437945339502
 20
-4.908554119869702
 30
0.0
 10
1.650230662995252
 20
-4.903379524154185
 30
0.0
 10
2.291034651416048
 20
-4.907649191915374
 30
0.0
 10
2.931831959576331
 20
-4.906262990373508
 30
0.0
  0
HATCH
  5
8D
330
70
100
AcDbEntity
  8
Layer 1
 62
    18
420
    65793
440
 33554687
100
AcDbHatch
 10
0.0
 20
0.0
 30
0.0
210
0.0
220
0.0
230
1.0
  2
SOLID
 70
     1
 71
     1
 91
        1
 92
        1
 93
        1
 72
     4
 94
        3
 73
     0
 74
     0
 95
       32
 96
       28
 40
0.0
 40
0.0
 40
0.0
 40
0.0
 40
1.0
 40
1.0
 40
1.0
 40
2.0
 40
2.0
 40
2.0
 40
3.0
 40
3.0
 40
3.0
 40
4.0
 40
4.0
 40
4.0
 40
5.0
 40
5.0
 40
5.0
 40
6.0
 40
6.0
 40
6.0
 40
7.0
 40
7.0
 40
7.0
 40
8.0
 40
8.0
 40
8.0
 40
9.0
 40
9.0
 40
9.0
 40
9.0
 10
2.931831959576331
 20
-4.906262990373508
 10
2.934250353049264
 20
-4.91015882908434
 10
2.930243449298371
 20
-4.911383863820447
 10
2.928580621122351
 20
-4.913076811165359
 10
2.903564854788694
 20
-4.938550908857601
 10
2.878188911076449
 20
-4.963674837565955
 10
2.853419340176616
 20
-4.989383587446909
 10
2.847773545849829
 20
-4.995243768382831
 10
2.841629237083262
 20
-4.995152190007906
 10
2.834803541745739
 20
-4.995151911654172
 10
2.388882097018293
 20
-4.995132983600998
 10
1.942960513118754
 20
-4.99513437536959
 10
1.497039033598298
 20
-4.995134653723324
 10
1.365617538136853
 20
-4.995134653723324
 10
1.234195973089375
 20
-4.995087333590364
 10
1.102774721179103
 20
-4.995262418082297
 10
1.095471987395512
 20
-4.995272160462617
 10
1.090071092462418
 20
-4.993549985976742
 10
1.084787171674141
 20
-4.988122923434224
 10
1.062000777015353
 20
-4.96472116921172
 10
1.03868966442101
 20
-4.941830750778838
 10
1.015670992625056
 20
-4.918653628011017
 10
1.01287956357679
 20
-4.91584309046718
 10
1.008513456651952
 20
-4.913757942726205
 10
1.009437945339502
 20
-4.908554119869702
 10
1.650230662995252
 20
-4.903379524154185
 10
2.291034651416048
 20
-4.907649191915374
 10
2.931831959576331
 20
-4.906262990373508
 97
        0
 97
        1
330
8C
 75
     2
 76
     1
 98
        1
 10
0.0
 20
0.0
450
        0
451
        0
460
0.0
461
0.0
452
        0
462
0.0
453
        0
470

  0
SPLINE
  5
8E
330
70
100
AcDbEntity
  8
Layer 1
100
AcDbSpline
210
0.0
220
0.0
230
1.0
 70
     9
 71
     3
 72
    47
 73
    43
 74
     0
 42
0.0000000001
 43
0.0000000001
 40
0.0
 40
0.0
 40
0.0
 40
0.0
 40
1.0
 40
1.0
 40
1.0
 40
2.0
 40
2.0
 40
2.0
 40
3.0
 40
3.0
 40
3.0
 40
4.0
 40
4.0
 40
4.0
 40
5.0
 40
5.0
 40
5.0
 40
6.0
 40
6.0
 40
6.0
 40
7.0
 40
7.0
 40
7.0
 40
8.0
 40
8.0
 40
8.0
 40
9.0
 40
9.0
 40
9.0
 40
10.0
 40
10.0
 40
10.0
 40
11.0
 40
11.0
 40
11.0
 40
12.0
 40
12.0
 40
12.0
 40
13.0
 40
13.0
 40
13.0
 40
14.0
 40
14.0
 40
14.0
 40
14.0
 10
3.068445096029664
 20
-4.906482054753723
 30
0.0
 10
3.065382474934797
 20
-4.90256311268384
 30
0.0
 10
3.066116329385093
 20
-4.897942440877588
 30
0.0
 10
3.066116051040883
 20
-4.893490729781407
 30
0.0
 10
3.066101437971054
 20
-4.545474255253414
 30
0.0
 10
3.0661205045479
 20
-4.197458059079179
 30
0.0
 10
3.065965049319174
 20
-3.849441584551186
 30
0.0
 10
3.065962126705219
 20
-3.842877725402836
 30
0.0
 10
3.067729055607363
 20
-3.838332765809304
 30
0.0
 10
3.072466612850398
 20
-3.833687598875434
 30
0.0
 10
3.097149340363734
 20
-3.80948613440599
 30
0.0
 10
3.121651144155192
 20
-3.785089822330241
 30
0.0
 10
3.145712468269973
 20
-3.760273196132351
 30
0.0
 10
3.151515387890589
 20
-3.754288034374667
 30
0.0
 10
3.157321230125186
 20
-3.752276650370327
 30
0.0
 10
3.165463215125302
 20
-3.752279155553853
 30
0.0
 10
3.741418157230277
 20
-3.752455910168135
 30
0.0
 10
4.317373238507343
 20
-3.752441714128255
 30
0.0
 10
4.893328319784434
 20
-3.752411373572385
 30
0.0
 10
4.898248888330726
 20
-3.752411095218677
 30
0.0
 10
4.903169456877043
 20
-3.751980203655041
 30
0.0
 10
4.908090025423335
 20
-3.751750283479648
 30
0.0
 10
4.929036538908095
 20
-3.775844581765643
 30
0.0
 10
4.951894441928313
 20
-3.798176900983359
 30
0.0
 10
4.975333527611963
 20
-3.819682509642966
 30
0.0
 10
4.990639396137415
 20
-3.833725733335541
 30
0.0
 10
4.995839978936348
 20
-3.848359345275108
 30
0.0
 10
4.99579934068495
 20
-3.869049934233013
 30
0.0
 10
4.995129366225683
 20
-4.209022264512289
 30
0.0
 10
4.995324207156929
 20
-4.548995708206474
 30
0.0
 10
4.995319753649911
 20
-4.888969151900659
 30
0.0
 10
4.995319753649911
 20
-4.89390686859767
 30
0.0
 10
4.995259631305416
 20
-4.898844306940999
 30
0.0
 10
4.995227343379686
 20
-4.903782023638036
 30
0.0
 10
4.937238228736456
 20
-4.902695052348664
 30
0.0
 10
4.879335957479725
 20
-4.906473425788286
 30
0.0
 10
4.821341554296926
 20
-4.906443363586175
 30
0.0
 10
4.236932603357646
 20
-4.906141906503888
 30
0.0
 10
3.652523652418393
 20
-4.906264382142126
 30
0.0
 10
3.068114562307022
 20
-4.906268000740535
 30
0.0
 10
3.068114562307022
 20
-4.906268000740535
 30
0.0
 10
3.068445096029664
 20
-4.906482054753723
 30
0.0
 10
3.068445096029664
 20
-4.906482054753723
 30
0.0
  0
HATCH
  5
8F
330
70
100
AcDbEntity
  8
Layer 1
 62
   254
420
 13619151
440
 33554687
100
AcDbHatch
 10
0.0
 20
0.0
 30
0.0
210
0.0
220
0.0
230
1.0
  2
SOLID
 70
     1
 71
     1
 91
        1
 92
        1
 93
        1
 72
     4
 94
        3
 73
     0
 74
     0
 95
       47
 96
       43
 40
0.0
 40
0.0
 40
0.0
 40
0.0
 40
1.0
 40
1.0
 40
1.0
 40
2.0
 40
2.0
 40
2.0
 40
3.0
 40
3.0
 40
3.0
 40
4.0
 40
4.0
 40
4.0
 40
5.0
 40
5.0
 40
5.0
 40
6.0
 40
6.0
 40
6.0
 40
7.0
 40
7.0
 40
7.0
 40
8.0
 40
8.0
 40
8.0
 40
9.0
 40
9.0
 40
9.0
 40
10.0
 40
10.0
 40
10.0
 40
11.0
 40
11.0
 40
11.0
 40
12.0
 40
12.0
 40
12.0
 40
13.0
 40
13.0
 40
13.0
 40
14.0
 40
14.0
 40
14.0
 40
14.0
 10
3.068445096029664
 20
-4.906482054753723
 10
3.065382474934797
 20
-4.90256311268384
 10
3.066116329385093
 20
-4.897942440877588
 10
3.066116051040883
 20
-4.893490729781407
 10
3.066101437971054
 20
-4.545474255253414
 10
3.0661205045479
 20
-4.197458059079179
 10
3.065965049319174
 20
-3.849441584551186
 10
3.065962126705219
 20
-3.842877725402836
 10
3.067729055607363
 20
-3.838332765809304
 10
3.072466612850398
 20
-3.833687598875434
 10
3.097149340363734
 20
-3.80948613440599
 10
3.121651144155192
 20
-3.785089822330241
 10
3.145712468269973
 20
-3.760273196132351
 10
3.151515387890589
 20
-3.754288034374667
 10
3.157321230125186
 20
-3.752276650370327
 10
3.165463215125302
 20
-3.752279155553853
 10
3.741418157230277
 20
-3.752455910168135
 10
4.317373238507343
 20
-3.752441714128255
 10
4.893328319784434
 20
-3.752411373572385
 10
4.898248888330726
 20
-3.752411095218677
 10
4.903169456877043
 20
-3.751980203655041
 10
4.908090025423335
 20
-3.751750283479648
 10
4.929036538908095
 20
-3.775844581765643
 10
4.951894441928313
 20
-3.798176900983359
 10
4.975333527611963
 20
-3.819682509642966
 10
4.990639396137415
 20
-3.833725733335541
 10
4.995839978936348
 20
-3.848359345275108
 10
4.99579934068495
 20
-3.869049934233013
 10
4.995129366225683
 20
-4.209022264512289
 10
4.995324207156929
 20
-4.548995708206474
 10
4.995319753649911
 20
-4.888969151900659
 10
4.995319753649911
 20
-4.89390686859767
 10
4.995259631305416
 20
-4.898844306940999
 10
4.995227343379686
 20
-4.903782023638036
 10
4.937238228736456
 20
-4.902695052348664
 10
4.879335957479725
 20
-4.906473425788286
 10
4.821341554296926
 20
-4.906443363586175
 10
4.236932603357646
 20
-4.906141906503888
 10
3.652523652418393
 20
-4.906264382142126
 10
3.068114562307022
 20
-4.906268000740535
 10
3.068114562307022
 20
-4.906268000740535
 10
3.068445096029664
 20
-4.906482054753723
 10
3.068445096029664
 20
-4.906482054753723
 97
        0
 97
        1
330
8E
 75
     2
 76
     1
 98
        1
 10
0.0
 20
0.0
450
        0
451
        0
460
0.0
461
0.0
452
        0
462
0.0
453
        0
470

  0
SPLINE
  5
90
330
70
100
AcDbEntity
  8
Layer 1
100
AcDbSpline
210
0.0
220
0.0
230
1.0
 70
     9
 71
     3
 72
    44
 73
    40
 74
     0
 42
0.0000000001
 43
0.0000000001
 40
0.0
 40
0.0
 40
0.0
 40
0.0
 40
1.0
 40
1.0
 40
1.0
 40
2.0
 40
2.0
 40
2.0
 40
3.0
 40
3.0
 40
3.0
 40
4.0
 40
4.0
 40
4.0
 40
5.0
 40
5.0
 40
5.0
 40
6.0
 40
6.0
 40
6.0
 40
7.0
 40
7.0
 40
7.0
 40
8.0
 40
8.0
 40
8.0
 40
9.0
 40
9.0
 40
9.0
 40
10.0
 40
10.0
 40
10.0
 40
11.0
 40
11.0
 40
11.0
 40
12.0
 40
12.0
 40
12.0
 40
13.0
 40
13.0
 40
13.0
 40
13.0
 10
4.99282161456727
 20
-3.528985468871344
 30
0.0
 10
4.968122186402701
 20
-3.528981015211759
 30
0.0
 10
4.943415521289225
 20
-3.528576845605584
 30
0.0
 10
4.918724721794458
 20
-3.529033067358012
 30
0.0
 10
4.638474711660895
 20
-3.534212395086847
 30
0.0
 10
4.358200207238825
 20
-3.529691095559807
 30
0.0
 10
4.07794407353314
 20
-3.531529343548249
 30
0.0
 10
4.066834243633971
 20
-3.531601993870026
 30
0.0
 10
4.064549316198937
 20
-3.52885714780488
 30
0.0
 10
4.064559614933866
 20
-3.518006919671961
 30
0.0
 10
4.064885277633215
 20
-3.170683963445501
 30
0.0
 10
4.064856051493557
 20
-2.823360728865319
 30
0.0
 10
4.064647850041309
 20
-2.476037633461992
 30
0.0
 10
4.064643118190107
 20
-2.468180821269065
 30
0.0
 10
4.066844820713084
 20
-2.462778532207898
 30
0.0
 10
4.072418663067436
 20
-2.457335325149402
 30
0.0
 10
4.096882612049411
 20
-2.433444085904524
 30
0.0
 10
4.121100783113837
 20
-2.409291194159777
 30
0.0
 10
4.144951261506599
 20
-2.384788690138609
 30
0.0
 10
4.150483073888582
 20
-2.379105820524387
 30
0.0
 10
4.156022123219498
 20
-2.377269103481416
 30
0.0
 10
4.163755638124484
 20
-2.37727536644018
 30
0.0
 10
4.406949408234392
 20
-2.377470492400195
 30
0.0
 10
4.65014345668851
 20
-2.377439177606321
 30
0.0
 10
4.893337226798444
 20
-2.377407584458738
 30
0.0
 10
4.898260300442416
 20
-2.377407027751296
 30
0.0
 10
4.903183374086412
 20
-2.376992698234213
 30
0.0
 10
4.90810644773041
 20
-2.376771407024218
 30
0.0
 10
4.93072079958655
 20
-2.402427408874599
 30
0.0
 10
4.955537688998244
 20
-2.42595748416353
 30
0.0
 10
4.980152778874045
 20
-2.449596534935128
 30
0.0
 10
4.991494191137158
 20
-2.460488376949721
 30
0.0
 10
4.99567659089828
 20
-2.47155627769425
 30
0.0
 10
4.995656550116765
 20
-2.48721715404958
 30
0.0
 10
4.995220106430805
 20
-2.829449438208067
 30
0.0
 10
4.995334784236042
 20
-3.17168255742773
 30
0.0
 10
4.99521008604006
 20
-3.513915398293647
 30
0.0
 10
4.995208415974931
 20
-3.518926878727345
 30
0.0
 10
4.997508930684463
 20
-3.524601954437331
 30
0.0
 10
4.99282161456727
 20
-3.528985468871344
 30
0.0
  0
HATCH
  5
91
330
70
100
AcDbEntity
  8
Layer 1
 62
   254
420
 13619151
440
 33554687
100
AcDbHatch
 10
0.0
 20
0.0
 30
0.0
210
0.0
220
0.0
230
1.0
  2
SOLID
 70
     1
 71
     1
 91
        1
 92
        1
 93
        1
 72
     4
 94
        3
 73
     0
 74
     0
 95
       44
 96
       40
 40
0.0
 40
0.0
 40
0.0
 40
0.0
 40
1.0
 40
1.0
 40
1.0
 40
2.0
 40
2.0
 40
2.0
 40
3.0
 40
3.0
 40
3.0
 40
4.0
 40
4.0
 40
4.0
 40
5.0
 40
5.0
 40
5.0
 40
6.0
 40
6.0
 40
6.0
 40
7.0
 40
7.0
 40
7.0
 40
8.0
 40
8.0
 40
8.0
 40
9.0
 40
9.0
 40
9.0
 40
10.0
 40
10.0
 40
10.0
 40
11.0
 40
11.0
 40
11.0
 40
12.0
 40
12.0
 40
12.0
 40
13.0
 40
13.0
 40
13.0
 40
13.0
 10
4.99282161456727
 20
-3.528985468871344
 10
4.968122186402701
 20
-3.528981015211759
 10
4.943415521289225
 20
-3.528576845605584
 10
4.918724721794458
 20
-3.529033067358012
 10
4.638474711660895
 20
-3.534212395086847
 10
4.358200207238825
 20
-3.529691095559807
 10
4.07794407353314
 20
-3.531529343548249
 10
4.066834243633971
 20
-3.531601993870026
 10
4.064549316198937
 20
-3.52885714780488
 10
4.064559614933866
 20
-3.518006919671961
 10
4.064885277633215
 20
-3.170683963445501
 10
4.064856051493557
 20
-2.823360728865319
 10
4.064647850041309
 20
-2.476037633461992
 10
4.064643118190107
 20
-2.468180821269065
 10
4.066844820713084
 20
-2.462778532207898
 10
4.072418663067436
 20
-2.457335325149402
 10
4.096882612049411
 20
-2.433444085904524
 10
4.121100783113837
 20
-2.409291194159777
 10
4.144951261506599
 20
-2.384788690138609
 10
4.150483073888582
 20
-2.379105820524387
 10
4.156022123219498
 20
-2.377269103481416
 10
4.163755638124484
 20
-2.37727536644018
 10
4.406949408234392
 20
-2.377470492400195
 10
4.65014345668851
 20
-2.377439177606321
 10
4.893337226798444
 20
-2.377407584458738
 10
4.898260300442416
 20
-2.377407027751296
 10
4.903183374086412
 20
-2.376992698234213
 10
4.90810644773041
 20
-2.376771407024218
 10
4.93072079958655
 20
-2.402427408874599
 10
4.955537688998244
 20
-2.42595748416353
 10
4.980152778874045
 20
-2.449596534935128
 10
4.991494191137158
 20
-2.460488376949721
 10
4.99567659089828
 20
-2.47155627769425
 10
4.995656550116765
 20
-2.48721715404958
 10
4.995220106430805
 20
-2.829449438208067
 10
4.995334784236042
 20
-3.17168255742773
 10
4.99521008604006
 20
-3.513915398293647
 10
4.995208415974931
 20
-3.518926878727345
 10
4.997508930684463
 20
-3.524601954437331
 10
4.99282161456727
 20
-3.528985468871344
 97
        0
 97
        1
330
90
 75
     2
 76
     1
 98
        1
 10
0.0
 20
0.0
450
        0
451
        0
460
0.0
461
0.0
452
        0
462
0.0
453
        0
470

  0
SPLINE
  5
92
330
70
100
AcDbEntity
  8
Layer 1
100
AcDbSpline
210
0.0
220
0.0
230
1.0
 70
     9
 71
     3
 72
    32
 73
    28
 74
     0
 42
0.0000000001
 43
0.0000000001
 40
0.0
 40
0.0
 40
0.0
 40
0.0
 40
1.0
 40
1.0
 40
1.0
 40
2.0
 40
2.0
 40
2.0
 40
3.0
 40
3.0
 40
3.0
 40
4.0
 40
4.0
 40
4.0
 40
5.0
 40
5.0
 40
5.0
 40
6.0
 40
6.0
 40
6.0
 40
7.0
 40
7.0
 40
7.0
 40
8.0
 40
8.0
 40
8.0
 40
9.0
 40
9.0
 40
9.0
 40
9.0
 10
3.068114562307022
 20
-4.906268000740535
 30
0.0
 10
3.652523652418393
 20
-4.906264382142126
 30
0.0
 10
4.236932603357646
 20
-4.906141906503888
 30
0.0
 10
4.821341554296926
 20
-4.906443363586175
 30
0.0
 10
4.879335957479725
 20
-4.906473425788286
 30
0.0
 10
4.937238228736456
 20
-4.902695052348664
 30
0.0
 10
4.995227343379686
 20
-4.903782023638036
 30
0.0
 10
4.997190226589787
 20
-4.908826349811053
 30
0.0
 10
4.992415788741911
 20
-4.910284644967254
 30
0.0
 10
4.990086882925248
 20
-4.912637290636338
 30
0.0
 10
4.964963258218959
 20
-4.938016469708903
 30
0.0
 10
4.939552103966989
 20
-4.963111727983787
 30
0.0
 10
4.914496673586604
 20
-4.988557155242511
 30
0.0
 10
4.909889798939628
 20
-4.993236281330634
 30
0.0
 10
4.905281532571633
 20
-4.995270211986558
 30
0.0
 10
4.898633559997834
 20
-4.995268541864207
 30
0.0
 10
4.320405241741607
 20
-4.995124911343004
 30
0.0
 10
3.74217692348538
 20
-4.995129086648855
 30
0.0
 10
3.163948605229127
 20
-4.995215933010538
 30
0.0
 10
3.15796197844477
 20
-4.995216768071713
 30
0.0
 10
3.153160402038615
 20
-4.994139539162662
 30
0.0
 10
3.148651922061869
 20
-4.989663889646231
 30
0.0
 10
3.122770226960962
 20
-4.963971840988683
 30
0.0
 10
3.096581935737529
 20
-4.938588764963949
 30
0.0
 10
3.070612144701297
 20
-4.912984954436675
 30
0.0
 10
3.068965878004443
 20
-4.911361317168838
 30
0.0
 10
3.064595595916772
 20
-4.910080611688095
 30
0.0
 10
3.068114562307022
 20
-4.906268000740535
 30
0.0
  0
HATCH
  5
93
330
70
100
AcDbEntity
  8
Layer 1
 62
    18
420
    65793
440
 33554687
100
AcDbHatch
 10
0.0
 20
0.0
 30
0.0
210
0.0
220
0.0
230
1.0
  2
SOLID
 70
     1
 71
     1
 91
        1
 92
        1
 93
        1
 72
     4
 94
        3
 73
     0
 74
     0
 95
       32
 96
       28
 40
0.0
 40
0.0
 40
0.0
 40
0.0
 40
1.0
 40
1.0
 40
1.0
 40
2.0
 40
2.0
 40
2.0
 40
3.0
 40
3.0
 40
3.0
 40
4.0
 40
4.0
 40
4.0
 40
5.0
 40
5.0
 40
5.0
 40
6.0
 40
6.0
 40
6.0
 40
7.0
 40
7.0
 40
7.0
 40
8.0
 40
8.0
 40
8.0
 40
9.0
 40
9.0
 40
9.0
 40
9.0
 10
3.068114562307022
 20
-4.906268000740535
 10
3.652523652418393
 20
-4.906264382142126
 10
4.236932603357646
 20
-4.906141906503888
 10
4.821341554296926
 20
-4.906443363586175
 10
4.879335957479725
 20
-4.906473425788286
 10
4.937238228736456
 20
-4.902695052348664
 10
4.995227343379686
 20
-4.903782023638036
 10
4.997190226589787
 20
-4.908826349811053
 10
4.992415788741911
 20
-4.910284644967254
 10
4.990086882925248
 20
-4.912637290636338
 10
4.964963258218959
 20
-4.938016469708903
 10
4.939552103966989
 20
-4.963111727983787
 10
4.914496673586604
 20
-4.988557155242511
 10
4.909889798939628
 20
-4.993236281330634
 10
4.905281532571633
 20
-4.995270211986558
 10
4.898633559997834
 20
-4.995268541864207
 10
4.320405241741607
 20
-4.995124911343004
 10
3.74217692348538
 20
-4.995129086648855
 10
3.163948605229127
 20
-4.995215933010538
 10
3.15796197844477
 20
-4.995216768071713
 10
3.153160402038615
 20
-4.994139539162662
 10
3.148651922061869
 20
-4.989663889646231
 10
3.122770226960962
 20
-4.963971840988683
 10
3.096581935737529
 20
-4.938588764963949
 10
3.070612144701297
 20
-4.912984954436675
 10
3.068965878004443
 20
-4.911361317168838
 10
3.064595595916772
 20
-4.910080611688095
 10
3.068114562307022
 20
-4.906268000740535
 97
        0
 97
        1
330
92
 75
     2
 76
     1
 98
        1
 10
0.0
 20
0.0
450
        0
451
        0
460
0.0
461
0.0
452
        0
462
0.0
453
        0
470

  0
SPLINE
  5
94
330
70
100
AcDbEntity
  8
Layer 1
100
AcDbSpline
210
0.0
220
0.0
230
1.0
 70
     9
 71
     3
 72
    44
 73
    40
 74
     0
 42
0.0000000001
 43
0.0000000001
 40
0.0
 40
0.0
 40
0.0
 40
0.0
 40
1.0
 40
1.0
 40
1.0
 40
2.0
 40
2.0
 40
2.0
 40
3.0
 40
3.0
 40
3.0
 40
4.0
 40
4.0
 40
4.0
 40
5.0
 40
5.0
 40
5.0
 40
6.0
 40
6.0
 40
6.0
 40
7.0
 40
7.0
 40
7.0
 40
8.0
 40
8.0
 40
8.0
 40
9.0
 40
9.0
 40
9.0
 40
10.0
 40
10.0
 40
10.0
 40
11.0
 40
11.0
 40
11.0
 40
12.0
 40
12.0
 40
12.0
 40
13.0
 40
13.0
 40
13.0
 40
13.0
 10
2.998824395307842
 20
-3.531252381593604
 30
0.0
 10
2.693283058095011
 20
-3.531252381593604
 30
0.0
 10
2.387741860054271
 20
-3.531252381593604
 30
0.0
 10
2.082200592427498
 20
-3.531251268178721
 30
0.0
 10
2.067382661262715
 20
-3.531251268178721
 30
0.0
 10
2.06737765106733
 20
-3.531245701104252
 30
0.0
 10
2.06737765106733
 20
-3.516264147010562
 30
0.0
 10
2.067376676862674
 20
-3.17042718213578
 30
0.0
 10
2.067407503481452
 20
-2.824590078084131
 30
0.0
 10
2.067213358410665
 20
-2.47875325238619
 30
0.0
 10
2.067208069871109
 20
-2.469377742279107
 30
0.0
 10
2.069780735609962
 20
-2.462447708807783
 30
0.0
 10
2.076524806514511
 20
-2.455867565966614
 30
0.0
 10
2.101000863468635
 20
-2.431985651571481
 30
0.0
 10
2.125106583481308
 20
-2.407719469861363
 30
0.0
 10
2.149070626302571
 20
-2.383321905193863
 30
0.0
 10
2.153418501683126
 20
-2.378895245932742
 30
0.0
 10
2.157796577408033
 20
-2.377317676206125
 30
0.0
 10
2.163896977379017
 20
-2.377319067974743
 30
0.0
 10
2.720637333119788
 20
-2.377444466327069
 30
0.0
 10
3.277377758446618
 20
-2.377446136449407
 30
0.0
 10
3.834118183773423
 20
-2.377299304860381
 30
0.0
 10
3.840345856624177
 20
-2.377297634738043
 30
0.0
 10
3.844534379957394
 20
-2.379235672536297
 30
0.0
 10
3.848818375346935
 20
-2.383588985591333
 30
0.0
 10
3.873604090209634
 20
-2.408776378948598
 30
0.0
 10
3.898506152942697
 20
-2.433856466945548
 30
0.0
 10
3.923807361240606
 20
-2.458522782132869
 30
0.0
 10
3.928969810885847
 20
-2.463555695803254
 30
0.0
 10
3.930409128679305
 20
-2.468579980508227
 30
0.0
 10
3.930406623581625
 20
-2.475382667151153
 30
0.0
 10
3.930279698632122
 20
-2.82349990572695
 30
0.0
 10
3.930252977590144
 20
-3.171617144302747
 30
0.0
 10
3.930520188010101
 20
-3.519734104524811
 30
0.0
 10
3.930527424958982
 20
-3.529129099392523
 30
0.0
 10
3.928432328259809
 20
-3.531496497808903
 30
0.0
 10
3.918870927075608
 20
-3.531487590489784
 30
0.0
 10
3.6121887962104
 20
-3.531201999569702
 30
0.0
 10
3.305506665345167
 20
-3.531252381593604
 30
0.0
 10
2.998824395307842
 20
-3.531252381593604
 30
0.0
  0
HATCH
  5
95
330
70
100
AcDbEntity
  8
Layer 1
 62
   254
420
 13619151
440
 33554687
100
AcDbHatch
 10
0.0
 20
0.0
 30
0.0
210
0.0
220
0.0
230
1.0
  2
SOLID
 70
     1
 71
     1
 91
        1
 92
        1
 93
        1
 72
     4
 94
        3
 73
     0
 74
     0
 95
       44
 96
       40
 40
0.0
 40
0.0
 40
0.0
 40
0.0
 40
1.0
 40
1.0
 40
1.0
 40
2.0
 40
2.0
 40
2.0
 40
3.0
 40
3.0
 40
3.0
 40
4.0
 40
4.0
 40
4.0
 40
5.0
 40
5.0
 40
5.0
 40
6.0
 40
6.0
 40
6.0
 40
7.0
 40
7.0
 40
7.0
 40
8.0
 40
8.0
 40
8.0
 40
9.0
 40
9.0
 40
9.0
 40
10.0
 40
10.0
 40
10.0
 40
11.0
 40
11.0
 40
11.0
 40
12.0
 40
12.0
 40
12.0
 40
13.0
 40
13.0
 40
13.0
 40
13.0
 10
2.998824395307842
 20
-3.531252381593604
 10
2.693283058095011
 20
-3.531252381593604
 10
2.387741860054271
 20
-3.531252381593604
 10
2.082200592427498
 20
-3.531251268178721
 10
2.067382661262715
 20
-3.531251268178721
 10
2.06737765106733
 20
-3.531245701104252
 10
2.06737765106733
 20
-3.516264147010562
 10
2.067376676862674
 20
-3.17042718213578
 10
2.067407503481452
 20
-2.824590078084131
 10
2.067213358410665
 20
-2.47875325238619
 10
2.067208069871109
 20
-2.469377742279107
 10
2.069780735609962
 20
-2.462447708807783
 10
2.076524806514511
 20
-2.455867565966614
 10
2.101000863468635
 20
-2.431985651571481
 10
2.125106583481308
 20
-2.407719469861363
 10
2.149070626302571
 20
-2.383321905193863
 10
2.153418501683126
 20
-2.378895245932742
 10
2.157796577408033
 20
-2.377317676206125
 10
2.163896977379017
 20
-2.377319067974743
 10
2.720637333119788
 20
-2.377444466327069
 10
3.277377758446618
 20
-2.377446136449407
 10
3.834118183773423
 20
-2.377299304860381
 10
3.840345856624177
 20
-2.377297634738043
 10
3.844534379957394
 20
-2.379235672536297
 10
3.848818375346935
 20
-2.383588985591333
 10
3.873604090209634
 20
-2.408776378948598
 10
3.898506152942697
 20
-2.433856466945548
 10
3.923807361240606
 20
-2.458522782132869
 10
3.928969810885847
 20
-2.463555695803254
 10
3.930409128679305
 20
-2.468579980508227
 10
3.930406623581625
 20
-2.475382667151153
 10
3.930279698632122
 20
-2.82349990572695
 10
3.930252977590144
 20
-3.171617144302747
 10
3.930520188010101
 20
-3.519734104524811
 10
3.930527424958982
 20
-3.529129099392523
 10
3.928432328259809
 20
-3.531496497808903
 10
3.918870927075608
 20
-3.531487590489784
 10
3.6121887962104
 20
-3.531201999569702
 10
3.305506665345167
 20
-3.531252381593604
 10
2.998824395307842
 20
-3.531252381593604
 97
        0
 97
        1
330
94
 75
     2
 76
     1
 98
        1
 10
0.0
 20
0.0
450
        0
451
        0
460
0.0
461
0.0
452
        0
462
0.0
453
        0
470

  0
ENDSEC
  0
SECTION
  2
OBJECTS
  0
DICTIONARY
  5
C
330
0
100
AcDbDictionary
281
     1
  3
ACAD_COLOR
350
63
  3
ACAD_DETAILVIEWSTYLE
350
6A
  3
ACAD_GROUP
350
D
  3
ACAD_LAYOUT
350
62
  3
ACAD_MATERIAL
350
10
  3
ACAD_MLEADERSTYLE
350
66
  3
ACAD_MLINESTYLE
350
5F
  3
ACAD_PLOTSETTINGS
350
61
  3
ACAD_PLOTSTYLENAME
350
E
  3
ACAD_SCALELIST
350
42
  3
ACAD_SECTIONVIEWSTYLE
350
68
  3
ACAD_TABLESTYLE
350
64
  3
ACAD_VISUALSTYLE
350
29
  3
ACDB_RECOMPOSE_DATA
350
9E
  3
AcDbVariableDictionary
350
96
  0
DICTIONARY
  5
63
102
{ACAD_REACTORS
330
C
102
}
330
C
100
AcDbDictionary
281
     1
  0
DICTIONARY
  5
6A
102
{ACAD_REACTORS
330
C
102
}
330
C
100
AcDbDictionary
281
     1
  3
Imperial24
350
6B
  0
DICTIONARY
  5
D
102
{ACAD_REACTORS
330
C
102
}
330
C
100
AcDbDictionary
281
     1
  0
DICTIONARY
  5
62
102
{ACAD_REACTORS
330
C
102
}
330
C
100
AcDbDictionary
281
     1
  3
Layout1
350
6F
  3
Layout2
350
77
  3
Model
350
73
  0
DICTIONARY
  5
10
102
{ACAD_REACTORS
330
C
102
}
330
C
100
AcDbDictionary
281
     1
  3
ByBlock
350
19
  3
ByLayer
350
11
  3
Global
350
21
  0
DICTIONARY
  5
66
102
{ACAD_REACTORS
330
C
102
}
330
C
100
AcDbDictionary
281
     1
  3
Standard
350
67
  0
DICTIONARY
  5
5F
102
{ACAD_REACTORS
330
C
102
}
330
C
100
AcDbDictionary
281
     1
  3
Standard
350
60
  0
DICTIONARY
  5
61
102
{ACAD_REACTORS
330
C
102
}
330
C
100
AcDbDictionary
281
     1
  0
ACDBDICTIONARYWDFLT
  5
E
102
{ACAD_REACTORS
330
C
102
}
330
C
100
AcDbDictionary
281
     1
  3
Normal
350
F
100
AcDbDictionaryWithDefault
340
F
  0
DICTIONARY
  5
42
102
{ACAD_REACTORS
330
C
102
}
330
C
100
AcDbDictionary
281
     1
  3
A0
350
43
  3
A1
350
44
  3
A2
350
45
  3
A3
350
46
  3
A4
350
47
  3
A5
350
48
  3
A6
350
49
  3
A7
350
4A
  3
A8
350
4B
  3
A9
350
4C
  3
B0
350
4D
  3
B1
350
4E
  3
B2
350
4F
  3
B3
350
50
  3
B4
350
51
  3
B5
350
52
  3
B6
350
53
  0
DICTIONARY
  5
68
102
{ACAD_REACTORS
330
C
102
}
330
C
100
AcDbDictionary
281
     1
  3
Imperial24
350
69
  0
DICTIONARY
  5
64
102
{ACAD_REACTORS
330
C
102
}
330
C
100
AcDbDictionary
281
     1
  3
Standard
350
65
  0
DICTIONARY
  5
29
102
{ACAD_REACTORS
330
C
102
}
330
C
100
AcDbDictionary
281
     1
  3
2dWireframe
350
2F
  3
Basic
350
2E
  3
Brighten
350
35
  3
ColorChange
350
39
  3
Conceptual
350
32
  3
Dim
350
34
  3
EdgeColorOff
350
41
  3
Facepattern
350
38
  3
Flat
350
2A
  3
FlatWithEdges
350
2B
  3
Gouraud
350
2C
  3
GouraudWithEdges
350
2D
  3
Hidden
350
31
  3
JitterOff
350
3F
  3
Linepattern
350
37
  3
OverhangOff
350
40
  3
Realistic
350
33
  3
Shaded
350
3E
  3
Shaded with edges
350
3D
  3
Shades of Gray
350
3A
  3
Sketchy
350
3B
  3
Thicken
350
36
  3
Wireframe
350
30
  3
X-Ray
350
3C
  0
XRECORD
  5
9E
102
{ACAD_REACTORS
330
C
102
}
330
C
100
AcDbXrecord
280
     1
 90
        1
330
65
  0
DICTIONARY
  5
96
102
{ACAD_REACTORS
330
C
102
}
330
C
100
AcDbDictionary
281
     1
  3
CANNOSCALE
350
9B
  3
CMLEADERSTYLE
350
98
  3
CTABLESTYLE
350
97
  3
CVIEWDETAILSTYLE
350
99
  3
CVIEWSECTIONSTYLE
350
9A
  0
ACDBDETAILVIEWSTYLE
  5
6B
102
{ACAD_REACTORS
330
6A
102
}
330
6A
100
AcDbModelDocViewStyle
 70
     0
  3
Imperial24
290
     1
300
Imperial24
 90
        0
100
AcDbDetailViewStyle
 70
     0
 71
     0
 90
        3
 71
     1
340
55
 62
   256
 40
0.24
340
0
 62
   256
 40
0.24
300

 40
0.36
280
     3
 71
     2
340
5D
 90
       25
 62
   256
 71
     3
340
55
 62
   256
 40
0.24
 90
        1
 40
0.75
 90
        1
300
%<\AcVar ViewType \f "%tc1">% %<\AcVar ViewDetailId>%\PSCALE %<\AcVar ViewScale \f "%sn">%
 71
     4
340
5D
 90
       25
 62
   256
340
5D
 90
       25
 62
   256
280
     0
  0
LAYOUT
  5
6F
102
{ACAD_REACTORS
330
62
102
}
330
62
100
AcDbPlotSettings
  1

  2

  4

  6

 40
0.0
 41
0.0
 42
0.0
 43
0.0
 44
0.0
 45
0.0
 46
0.0
 47
0.0
 48
0.0
 49
0.0
140
0.0
141
0.0
142
1.0
143
1.0
 70
   688
 72
     0
 73
     0
 74
     5
  7

 75
    16
147
1.0
 76
     0
 77
     2
 78
   300
148
0.0
149
0.0
100
AcDbLayout
  1
Layout1
 70
     1
 71
     1
 10
0.0
 20
0.0
 11
12.0
 21
9.0
 12
0.0
 22
0.0
 32
0.0
 14
0.0
 24
0.0
 34
0.0
 15
0.0
 25
0.0
 35
0.0
146
0.0
 13
0.0
 23
0.0
 33
0.0
 16
1.0
 26
0.0
 36
0.0
 17
0.0
 27
1.0
 37
0.0
 76
     0
330
6C
  0
LAYOUT
  5
77
102
{ACAD_REACTORS
330
62
102
}
330
62
100
AcDbPlotSettings
  1

  2

  4

  6

 40
0.0
 41
0.0
 42
0.0
 43
0.0
 44
0.0
 45
0.0
 46
0.0
 47
0.0
 48
0.0
 49
0.0
140
0.0
141
0.0
142
1.0
143
1.0
 70
   688
 72
     0
 73
     0
 74
     5
  7

 75
    16
147
1.0
 76
     0
 77
     2
 78
   300
148
0.0
149
0.0
100
AcDbLayout
  1
Layout2
 70
     1
 71
     2
 10
0.0
 20
0.0
 11
12.0
 21
9.0
 12
0.0
 22
0.0
 32
0.0
 14
0.0
 24
0.0
 34
0.0
 15
0.0
 25
0.0
 35
0.0
146
0.0
 13
0.0
 23
0.0
 33
0.0
 16
1.0
 26
0.0
 36
0.0
 17
0.0
 27
1.0
 37
0.0
 76
     0
330
74
  0
LAYOUT
  5
73
102
{ACAD_REACTORS
330
62
102
}
330
62
100
AcDbPlotSettings
  1

  2

  4

  6

 40
0.0
 41
0.0
 42
0.0
 43
0.0
 44
0.0
 45
0.0
 46
0.0
 47
0.0
 48
0.0
 49
0.0
140
0.0
141
0.0
142
1.0
143
1.0
 70
  1712
 72
     0
 73
     0
 74
     0
  7

 75
     0
147
1.0
 76
     0
 77
     2
 78
   300
148
0.0
149
0.0
100
AcDbLayout
  1
Model
 70
     1
 71
     0
 10
0.0
 20
0.0
 11
12.0
 21
9.0
 12
0.0
 22
0.0
 32
0.0
 14
0.0
 24
0.0
 34
0.0
 15
0.0
 25
0.0
 35
0.0
146
0.0
 13
0.0
 23
0.0
 33
0.0
 16
1.0
 26
0.0
 36
0.0
 17
0.0
 27
1.0
 37
0.0
 76
     0
330
70
  0
MATERIAL
  5
19
102
{ACAD_XDICTIONARY
360
1A
102
}
102
{ACAD_REACTORS
330
10
102
}
330
10
100
AcDbMaterial
  1
ByBlock
 72
     0
 43
0.0208333333333333
 43
0.0
 43
0.0
 43
0.0
 43
0.0
 43
0.0208333333333333
 43
0.0
 43
0.0
 43
0.0
 43
0.0
 43
1.0
 43
0.0
 43
0.0
 43
0.0
 43
0.0
 43
1.0
 77
     0
 47
0.0208333333333333
 47
0.0
 47
0.0
 47
0.0
 47
0.0
 47
0.0208333333333333
 47
0.0
 47
0.0
 47
0.0
 47
0.0
 47
1.0
 47
0.0
 47
0.0
 47
0.0
 47
0.0
 47
1.0
171
     0
 49
0.0208333333333333
 49
0.0
 49
0.0
 49
0.0
 49
0.0
 49
0.0208333333333333
 49
0.0
 49
0.0
 49
0.0
 49
0.0
 49
1.0
 49
0.0
 49
0.0
 49
0.0
 49
0.0
 49
1.0
175
     0
142
0.0208333333333333
142
0.0
142
0.0
142
0.0
142
0.0
142
0.0208333333333333
142
0.0
142
0.0
142
0.0
142
0.0
142
1.0
142
0.0
142
0.0
142
0.0
142
0.0
142
1.0
179
     0
144
0.0208333333333333
144
0.0
144
0.0
144
0.0
144
0.0
144
0.0208333333333333
144
0.0
144
0.0
144
0.0
144
0.0
144
1.0
144
0.0
144
0.0
144
0.0
144
0.0
144
1.0
147
0.0208333333333333
147
0.0
147
0.0
147
0.0
147
0.0
147
0.0208333333333333
147
0.0
147
0.0
147
0.0
147
0.0
147
1.0
147
0.0
147
0.0
147
0.0
147
0.0
147
1.0
  0
MATERIAL
  5
11
102
{ACAD_XDICTIONARY
360
12
102
}
102
{ACAD_REACTORS
330
10
102
}
330
10
100
AcDbMaterial
  1
ByLayer
 72
     0
 43
0.0208333333333333
 43
0.0
 43
0.0
 43
0.0
 43
0.0
 43
0.0208333333333333
 43
0.0
 43
0.0
 43
0.0
 43
0.0
 43
1.0
 43
0.0
 43
0.0
 43
0.0
 43
0.0
 43
1.0
 77
     0
 47
0.0208333333333333
 47
0.0
 47
0.0
 47
0.0
 47
0.0
 47
0.0208333333333333
 47
0.0
 47
0.0
 47
0.0
 47
0.0
 47
1.0
 47
0.0
 47
0.0
 47
0.0
 47
0.0
 47
1.0
171
     0
 49
0.0208333333333333
 49
0.0
 49
0.0
 49
0.0
 49
0.0
 49
0.0208333333333333
 49
0.0
 49
0.0
 49
0.0
 49
0.0
 49
1.0
 49
0.0
 49
0.0
 49
0.0
 49
0.0
 49
1.0
175
     0
142
0.0208333333333333
142
0.0
142
0.0
142
0.0
142
0.0
142
0.0208333333333333
142
0.0
142
0.0
142
0.0
142
0.0
142
1.0
142
0.0
142
0.0
142
0.0
142
0.0
142
1.0
179
     0
144
0.0208333333333333
144
0.0
144
0.0
144
0.0
144
0.0
144
0.0208333333333333
144
0.0
144
0.0
144
0.0
144
0.0
144
1.0
144
0.0
144
0.0
144
0.0
144
0.0
144
1.0
147
0.0208333333333333
147
0.0
147
0.0
147
0.0
147
0.0
147
0.0208333333333333
147
0.0
147
0.0
147
0.0
147
0.0
147
1.0
147
0.0
147
0.0
147
0.0
147
0.0
147
1.0
  0
MATERIAL
  5
21
102
{ACAD_XDICTIONARY
360
22
102
}
102
{ACAD_REACTORS
330
10
102
}
330
10
100
AcDbMaterial
  1
Global
 72
     0
 43
0.0208333333333333
 43
0.0
 43
0.0
 43
0.0
 43
0.0
 43
0.0208333333333333
 43
0.0
 43
0.0
 43
0.0
 43
0.0
 43
1.0
 43
0.0
 43
0.0
 43
0.0
 43
0.0
 43
1.0
 77
     0
 47
0.0208333333333333
 47
0.0
 47
0.0
 47
0.0
 47
0.0
 47
0.0208333333333333
 47
0.0
 47
0.0
 47
0.0
 47
0.0
 47
1.0
 47
0.0
 47
0.0
 47
0.0
 47
0.0
 47
1.0
171
     0
 49
0.0208333333333333
 49
0.0
 49
0.0
 49
0.0
 49
0.0
 49
0.0208333333333333
 49
0.0
 49
0.0
 49
0.0
 49
0.0
 49
1.0
 49
0.0
 49
0.0
 49
0.0
 49
0.0
 49
1.0
175
     0
142
0.0208333333333333
142
0.0
142
0.0
142
0.0
142
0.0
142
0.0208333333333333
142
0.0
142
0.0
142
0.0
142
0.0
142
1.0
142
0.0
142
0.0
142
0.0
142
0.0
142
1.0
179
     0
144
0.0208333333333333
144
0.0
144
0.0
144
0.0
144
0.0
144
0.0208333333333333
144
0.0
144
0.0
144
0.0
144
0.0
144
1.0
144
0.0
144
0.0
144
0.0
144
0.0
144
1.0
147
0.0208333333333333
147
0.0
147
0.0
147
0.0
147
0.0
147
0.0208333333333333
147
0.0
147
0.0
147
0.0
147
0.0
147
1.0
147
0.0
147
0.0
147
0.0
147
0.0
147
1.0
  0
MLEADERSTYLE
  5
67
102
{ACAD_REACTORS
330
66
102
}
330
66
100
AcDbMLeaderStyle
179
     2
170
     2
171
     1
172
     0
 90
        2
 40
0.0
 41
0.0
173
     1
 91
-1056964608
340
5B
 92
       -2
290
     1
 42
0.09
291
     1
 43
0.36
  3
Standard
 44
0.18
300

342
55
174
     1
178
     6
175
     1
176
     0
 93
-1056964608
 45
0.18
292
     0
297
     0
 46
0.18
 94
-1056964608
 47
1.0
 49
1.0
140
1.0
293
     1
141
0.0
294
     1
177
     0
142
1.0
295
     1
296
     0
143
0.125
271
     0
272
     9
273
     9
298
     1
  0
MLINESTYLE
  5
60
102
{ACAD_REACTORS
330
5F
102
}
330
5F
100
AcDbMlineStyle
  2
STANDARD
 70
     0
  3

 62
   256
 51
90.0
 52
90.0
 71
     2
 49
0.5
 62
   256
  6
BYLAYER
 49
-0.5
 62
   256
  6
BYLAYER
  0
ACDBPLACEHOLDER
  5
F
102
{ACAD_REACTORS
330
E
102
}
330
E
  0
SCALE
  5
43
102
{ACAD_REACTORS
330
42
102
}
330
42
100
AcDbScale
 70
     0
300
1:1
140
1.0
141
1.0
290
     1
  0
SCALE
  5
44
102
{ACAD_REACTORS
330
42
102
}
330
42
100
AcDbScale
 70
     0
300
1/128" = 1'-0"
140
0.0078125
141
12.0
290
     0
  0
SCALE
  5
45
102
{ACAD_REACTORS
330
42
102
}
330
42
100
AcDbScale
 70
     0
300
1/64" = 1'-0"
140
0.015625
141
12.0
290
     0
  0
SCALE
  5
46
102
{ACAD_REACTORS
330
42
102
}
330
42
100
AcDbScale
 70
     0
300
1/32" = 1'-0"
140
0.03125
141
12.0
290
     0
  0
SCALE
  5
47
102
{ACAD_REACTORS
330
42
102
}
330
42
100
AcDbScale
 70
     0
300
1/16" = 1'-0"
140
0.0625
141
12.0
290
     0
  0
SCALE
  5
48
102
{ACAD_REACTORS
330
42
102
}
330
42
100
AcDbScale
 70
     0
300
3/32" = 1'-0"
140
0.09375
141
12.0
290
     0
  0
SCALE
  5
49
102
{ACAD_REACTORS
330
42
102
}
330
42
100
AcDbScale
 70
     0
300
1/8" = 1'-0"
140
0.125
141
12.0
290
     0
  0
SCALE
  5
4A
102
{ACAD_REACTORS
330
42
102
}
330
42
100
AcDbScale
 70
     0
300
3/16" = 1'-0"
140
0.1875
141
12.0
290
     0
  0
SCALE
  5
4B
102
{ACAD_REACTORS
330
42
102
}
330
42
100
AcDbScale
 70
     0
300
1/4" = 1'-0"
140
0.25
141
12.0
290
     0
  0
SCALE
  5
4C
102
{ACAD_REACTORS
330
42
102
}
330
42
100
AcDbScale
 70
     0
300
3/8" = 1'-0"
140
0.375
141
12.0
290
     0
  0
SCALE
  5
4D
102
{ACAD_REACTORS
330
42
102
}
330
42
100
AcDbScale
 70
     0
300
1/2" = 1'-0"
140
0.5
141
12.0
290
     0
  0
SCALE
  5
4E
102
{ACAD_REACTORS
330
42
102
}
330
42
100
AcDbScale
 70
     0
300
3/4" = 1'-0"
140
0.75
141
12.0
290
     0
  0
SCALE
  5
4F
102
{ACAD_REACTORS
330
42
102
}
330
42
100
AcDbScale
 70
     0
300
1" = 1'-0"
140
1.0
141
12.0
290
     0
  0
SCALE
  5
50
102
{ACAD_REACTORS
330
42
102
}
330
42
100
AcDbScale
 70
     0
300
1-1/2" = 1'-0"
140
1.5
141
12.0
290
     0
  0
SCALE
  5
51
102
{ACAD_REACTORS
330
42
102
}
330
42
100
AcDbScale
 70
     0
300
3" = 1'-0"
140
3.0
141
12.0
290
     0
  0
SCALE
  5
52
102
{ACAD_REACTORS
330
42
102
}
330
42
100
AcDbScale
 70
     0
300
6" = 1'-0"
140
6.0
141
12.0
290
     0
  0
SCALE
  5
53
102
{ACAD_REACTORS
330
42
102
}
330
42
100
AcDbScale
 70
     0
300
1'-0" = 1'-0"
140
12.0
141
12.0
290
     0
  0
ACDBSECTIONVIEWSTYLE
  5
69
102
{ACAD_REACTORS
330
68
102
}
330
68
100
AcDbModelDocViewStyle
 70
     0
  3
Imperial24
290
     1
300
Imperial24
 90
        0
100
AcDbSectionViewStyle
 70
     0
 71
     0
 90
       78
 71
     1
340
55
 62
   256
 40
0.24
340
0
340
0
 62
   256
 40
0.24
300
I, O, Q, S, X, Z
 40
0.48
 90
        3
 40
0.18
 90
        1
 71
     2
340
5D
 90
       25
 62
   256
340
5D
 90
       50
 62
   256
 40
0.24
 40
0.0
 40
0.24
 71
     3
340
55
 62
   256
 40
0.24
 90
        1
 40
0.75
 90
        1
300
%<\AcVar ViewType \f "%tc1">% %<\AcVar ViewSectionStartId>%-%<\AcVar ViewSectionEndId>%\PSCALE %<\AcVar ViewScale \f "%sn">%
 71
     4
 62
   256
 62
   257
300
ANSI31
 40
1.0
 90
        0
290
     0
290
     0
 90
        6
 40
0.0
 40
1.570796326794896
 40
0.2617993877991494
 40
1.308996938995747
 40
-0.2617993877991494
 40
1.832595714594046
  0
TABLESTYLE
  5
65
102
{ACAD_XDICTIONARY
360
9C
102
}
102
{ACAD_REACTORS
330
64
102
}
330
64
100
AcDbTableStyle
280
     0
  3
Standard
 70
     0
 71
     0
 40
0.06
 41
0.06
280
     0
281
     0
  7
Standard
140
0.18
170
     2
 62
     0
 63
     7
283
     0
 90
      512
 91
        0
  1

274
    -2
284
     1
 64
     0
275
    -2
285
     1
 65
     0
276
    -2
286
     1
 66
     0
277
    -2
287
     1
 67
     0
278
    -2
288
     1
 68
     0
279
    -2
289
     1
 69
     0
  7
Standard
140
0.25
170
     5
 62
     0
 63
     7
283
     0
 90
      512
 91
        0
  1

274
    -2
284
     1
 64
     0
275
    -2
285
     1
 65
     0
276
    -2
286
     1
 66
     0
277
    -2
287
     1
 67
     0
278
    -2
288
     1
 68
     0
279
    -2
289
     1
 69
     0
  7
Standard
140
0.18
170
     5
 62
     0
 63
     7
283
     0
 90
      512
 91
        0
  1

274
    -2
284
     1
 64
     0
275
    -2
285
     1
 65
     0
276
    -2
286
     1
 66
     0
277
    -2
287
     1
 67
     0
278
    -2
288
     1
 68
     0
279
    -2
289
     1
 69
     0
  0
VISUALSTYLE
  5
2F
102
{ACAD_REACTORS
330
29
102
}
330
29
100
AcDbVisualStyle
  2
2dWireframe
 70
     4
177
     3
291
     0
 70
    58
 90
        0
176
     1
 90
        2
176
     1
 90
        0
176
     1
 90
        0
176
     1
 40
0.6
176
     1
 40
30.0
176
     1
 62
     7
420
 16777215
176
     1
 90
        1
176
     1
 90
        4
176
     1
 62
     7
176
     1
 62
   257
176
     1
 90
        1
176
     1
 90
        1
176
     1
 40
1.0
176
     1
 90
        0
176
     1
 62
   257
176
     1
 40
1.0
176
     1
 90
        1
176
     1
 90
        6
176
     1
 90
        2
176
     1
 62
     7
176
     1
 90
        5
176
     1
 90
        0
176
     1
 90
        0
176
     1
290
     0
176
     1
 90
        1
176
     1
 40
0.0
176
     1
 90
        0
176
     1
290
     1
176
     1
290
     1
176
     1
290
     0
176
     1
290
     0
176
     1
290
     0
176
     1
290
     0
176
     1
290
     0
176
     1
290
     0
176
     1
290
     0
176
     1
 90
       50
176
     1
 40
0.0
176
     1
 40
1.0
176
     1
 90
        0
176
     1
 62
    18
420
        0
176
     1
 90
       50
176
     1
 90
        3
176
     1
 62
     5
420
      255
176
     1
290
     0
176
     1
 90
       50
176
     1
 90
       50
176
     1
 90
       50
176
     1
290
     0
176
     1
 90
       50
176
     1
 62
   256
176
     0
 40
1.0
176
     0
 90
        2
176
     1
  1
strokes_ogs.tif
176
     1
290
     0
176
     1
 40
1.0
176
     1
 40
1.0
176
     1
  0
VISUALSTYLE
  5
2E
102
{ACAD_REACTORS
330
29
102
}
330
29
100
AcDbVisualStyle
  2
Basic
 70
     7
177
     3
291
     1
 70
    58
 90
        1
176
     1
 90
        0
176
     1
 90
        1
176
     1
 90
        0
176
     1
 40
0.6
176
     1
 40
30.0
176
     1
 62
     7
420
 16777215
176
     1
 90
        0
176
     1
 90
        4
176
     1
 62
     7
176
     1
 62
   257
176
     1
 90
        1
176
     1
 90
        1
176
     1
 40
1.0
176
     1
 90
        8
176
     1
 62
     7
176
     1
 40
1.0
176
     1
 90
        1
176
     1
 90
        6
176
     1
 90
        2
176
     1
 62
     7
176
     1
 90
        5
176
     1
 90
        0
176
     1
 90
        0
176
     1
290
     0
176
     1
 90
        1
176
     1
 40
0.0
176
     1
 90
        0
176
     1
290
     0
176
     1
290
     1
176
     1
290
     1
176
     1
290
     0
176
     1
290
     0
176
     1
290
     0
176
     1
290
     0
176
     1
290
     0
176
     1
290
     0
176
     1
 90
       50
176
     1
 40
0.0
176
     1
 40
1.0
176
     1
 90
        0
176
     1
 62
    18
420
        0
176
     1
 90
       50
176
     1
 90
        3
176
     1
 62
     5
420
      255
176
     1
290
     0
176
     1
 90
       50
176
     1
 90
       50
176
     1
 90
       50
176
     1
290
     0
176
     1
 90
       50
176
     1
 62
   256
176
     0
 40
1.0
176
     0
 90
        2
176
     1
  1
strokes_ogs.tif
176
     1
290
     0
176
     1
 40
1.0
176
     1
 40
1.0
176
     1
  0
VISUALSTYLE
  5
35
102
{ACAD_REACTORS
330
29
102
}
330
29
100
AcDbVisualStyle
  2
Brighten
 70
    12
177
     3
291
     1
 70
    58
 90
        2
176
     1
 90
        2
176
     1
 90
        0
176
     1
 90
        0
176
     1
 40
0.6
176
     1
 40
30.0
176
     1
 62
     7
420
 16777215
176
     1
 90
        1
176
     1
 90
        4
176
     1
 62
     7
176
     1
 62
   257
176
     1
 90
        1
176
     1
 90
        1
176
     1
 40
1.0
176
     1
 90
        8
176
     1
 62
     7
176
     1
 40
1.0
176
     1
 90
        1
176
     1
 90
        6
176
     1
 90
        2
176
     1
 62
     7
176
     1
 90
        5
176
     1
 90
        0
176
     1
 90
        0
176
     1
290
     0
176
     1
 90
        1
176
     1
 40
50.0
176
     1
 90
        0
176
     1
290
     0
176
     1
290
     1
176
     1
290
     1
176
     1
290
     0
176
     1
290
     0
176
     1
290
     0
176
     1
290
     0
176
     1
290
     0
176
     1
290
     0
176
     1
 90
       50
176
     1
 40
0.0
176
     1
 40
1.0
176
     1
 90
        0
176
     1
 62
    18
420
        0
176
     1
 90
       50
176
     1
 90
        3
176
     1
 62
     5
420
      255
176
     1
290
     0
176
     1
 90
       50
176
     1
 90
       50
176
     1
 90
       50
176
     1
290
     0
176
     1
 90
       50
176
     1
 62
   256
176
     0
 40
1.0
176
     0
 90
        2
176
     1
  1
strokes_ogs.tif
176
     1
290
     0
176
     1
 40
1.0
176
     1
 40
1.0
176
     1
  0
VISUALSTYLE
  5
39
102
{ACAD_REACTORS
330
29
102
}
330
29
100
AcDbVisualStyle
  2
ColorChange
 70
    16
177
     3
291
     1
 70
    58
 90
        2
176
     1
 90
        2
176
     1
 90
        3
176
     1
 90
        0
176
     1
 40
0.6
176
     1
 40
30.0
176
     1
 62
     8
420
  8421504
176
     1
 90
        1
176
     1
 90
        4
176
     1
 62
     7
176
     1
 62
   257
176
     1
 90
        1
176
     1
 90
        1
176
     1
 40
1.0
176
     1
 90
        8
176
     1
 62
     8
420
  8421504
176
     1
 40
1.0
176
     1
 90
        1
176
     1
 90
        6
176
     1
 90
        2
176
     1
 62
     7
176
     1
 90
        5
176
     1
 90
        0
176
     1
 90
        0
176
     1
290
     0
176
     1
 90
        1
176
     1
 40
0.0
176
     1
 90
        0
176
     1
290
     0
176
     1
290
     1
176
     1
290
     1
176
     1
290
     0
176
     1
290
     0
176
     1
290
     0
176
     1
290
     0
176
     1
290
     0
176
     1
290
     0
176
     1
 90
       50
176
     1
 40
0.0
176
     1
 40
1.0
176
     1
 90
        0
176
     1
 62
    18
420
        0
176
     1
 90
       50
176
     1
 90
        3
176
     1
 62
     5
420
      255
176
     1
290
     0
176
     1
 90
       50
176
     1
 90
       50
176
     1
 90
       50
176
     1
290
     0
176
     1
 90
       50
176
     1
 62
   256
176
     0
 40
1.0
176
     0
 90
        2
176
     1
  1
strokes_ogs.tif
176
     1
290
     0
176
     1
 40
1.0
176
     1
 40
1.0
176
     1
  0
VISUALSTYLE
  5
32
102
{ACAD_REACTORS
330
29
102
}
330
29
100
AcDbVisualStyle
  2
Conceptual
 70
     9
177
     3
291
     0
 70
    58
 90
        3
176
     1
 90
        2
176
     1
 90
        0
176
     1
 90
        0
176
     1
 40
0.6
176
     1
 40
30.0
176
     1
 62
     7
420
 16777215
176
     1
 90
        2
176
     1
 90
        2
176
     1
 62
     7
176
     1
 62
   257
176
     1
 90
        1
176
     1
 90
        1
176
     1
 40
179.0
176
     1
 90
        8
176
     1
 62
     7
176
     1
 40
1.0
176
     1
 90
        1
176
     1
 90
        6
176
     1
 90
        2
176
     1
 62
     7
176
     1
 90
        3
176
     1
 90
        0
176
     1
 90
        0
176
     1
290
     0
176
     1
 90
        1
176
     1
 40
0.0
176
     1
 90
        0
176
     1
290
     0
176
     1
290
     1
176
     1
290
     1
176
     1
290
     0
176
     1
290
     0
176
     1
290
     0
176
     1
290
     0
176
     1
290
     0
176
     1
290
     0
176
     1
 90
       50
176
     1
 40
0.0
176
     1
 40
1.0
176
     1
 90
        0
176
     1
 62
    18
420
        0
176
     1
 90
       50
176
     1
 90
        3
176
     1
 62
     5
420
      255
176
     1
290
     0
176
     1
 90
       50
176
     1
 90
       50
176
     1
 90
       50
176
     1
290
     0
176
     1
 90
       50
176
     1
 62
   256
176
     0
 40
1.0
176
     0
 90
        2
176
     1
  1
strokes_ogs.tif
176
     1
290
     0
176
     1
 40
1.0
176
     1
 40
1.0
176
     1
  0
VISUALSTYLE
  5
34
102
{ACAD_REACTORS
330
29
102
}
330
29
100
AcDbVisualStyle
  2
Dim
 70
    11
177
     3
291
     1
 70
    58
 90
        2
176
     1
 90
        2
176
     1
 90
        0
176
     1
 90
        0
176
     1
 40
0.6
176
     1
 40
30.0
176
     1
 62
     7
420
 16777215
176
     1
 90
        1
176
     1
 90
        4
176
     1
 62
     7
176
     1
 62
   257
176
     1
 90
        1
176
     1
 90
        1
176
     1
 40
1.0
176
     1
 90
        8
176
     1
 62
     7
176
     1
 40
1.0
176
     1
 90
        1
176
     1
 90
        6
176
     1
 90
        2
176
     1
 62
     7
176
     1
 90
        5
176
     1
 90
        0
176
     1
 90
        0
176
     1
290
     0
176
     1
 90
        1
176
     1
 40
-50.0
176
     1
 90
        0
176
     1
290
     0
176
     1
290
     1
176
     1
290
     1
176
     1
290
     0
176
     1
290
     0
176
     1
290
     0
176
     1
290
     0
176
     1
290
     0
176
     1
290
     0
176
     1
 90
       50
176
     1
 40
0.0
176
     1
 40
1.0
176
     1
 90
        0
176
     1
 62
    18
420
        0
176
     1
 90
       50
176
     1
 90
        3
176
     1
 62
     5
420
      255
176
     1
290
     0
176
     1
 90
       50
176
     1
 90
       50
176
     1
 90
       50
176
     1
290
     0
176
     1
 90
       50
176
     1
 62
   256
176
     0
 40
1.0
176
     0
 90
        2
176
     1
  1
strokes_ogs.tif
176
     1
290
     0
176
     1
 40
1.0
176
     1
 40
1.0
176
     1
  0
VISUALSTYLE
  5
41
102
{ACAD_REACTORS
330
29
102
}
330
29
100
AcDbVisualStyle
  2
EdgeColorOff
 70
    22
177
     3
291
     1
 70
    58
 90
        2
176
     0
 90
        2
176
     0
 90
        0
176
     0
 90
        0
176
     0
 40
0.6
176
     0
 40
30.0
176
     0
 62
     7
420
 16777215
176
     0
 90
        1
176
     0
 90
        4
176
     0
 62
     7
176
     0
 62
   257
176
     0
 90
        1
176
     0
 90
        1
176
     0
 40
1.0
176
     0
 90
        8
176
     2
 62
     7
176
     0
 40
1.0
176
     0
 90
        1
176
     0
 90
        6
176
     0
 90
        2
176
     0
 62
     7
176
     0
 90
        5
176
     0
 90
        0
176
     0
 90
        0
176
     0
290
     0
176
     0
 90
        1
176
     0
 40
0.0
176
     0
 90
        0
176
     0
290
     0
176
     0
290
     1
176
     0
290
     1
176
     0
290
     0
176
     0
290
     0
176
     0
290
     0
176
     0
290
     0
176
     0
290
     0
176
     0
290
     0
176
     0
 90
       50
176
     0
 40
0.0
176
     0
 40
1.0
176
     0
 90
        0
176
     0
 62
    18
420
        0
176
     0
 90
       50
176
     0
 90
        3
176
     0
 62
     5
420
      255
176
     0
290
     0
176
     0
 90
       50
176
     0
 90
       50
176
     0
 90
       50
176
     0
290
     0
176
     0
 90
       50
176
     0
 62
   256
176
     0
 40
1.0
176
     0
 90
        2
176
     0
  1
strokes_ogs.tif
176
     0
290
     0
176
     0
 40
1.0
176
     0
 40
1.0
176
     0
  0
VISUALSTYLE
  5
38
102
{ACAD_REACTORS
330
29
102
}
330
29
100
AcDbVisualStyle
  2
Facepattern
 70
    15
177
     3
291
     1
 70
    58
 90
        2
176
     1
 90
        2
176
     1
 90
        0
176
     1
 90
        0
176
     1
 40
0.6
176
     1
 40
30.0
176
     1
 62
     7
420
 16777215
176
     1
 90
        1
176
     1
 90
        4
176
     1
 62
     7
176
     1
 62
   257
176
     1
 90
        1
176
     1
 90
        1
176
     1
 40
1.0
176
     1
 90
        8
176
     1
 62
     7
176
     1
 40
1.0
176
     1
 90
        1
176
     1
 90
        6
176
     1
 90
        2
176
     1
 62
     7
176
     1
 90
        5
176
     1
 90
        0
176
     1
 90
        0
176
     1
290
     0
176
     1
 90
        1
176
     1
 40
0.0
176
     1
 90
        0
176
     1
290
     0
176
     1
290
     1
176
     1
290
     1
176
     1
290
     0
176
     1
290
     0
176
     1
290
     0
176
     1
290
     0
176
     1
290
     0
176
     1
290
     0
176
     1
 90
       50
176
     1
 40
0.0
176
     1
 40
1.0
176
     1
 90
        0
176
     1
 62
    18
420
        0
176
     1
 90
       50
176
     1
 90
        3
176
     1
 62
     5
420
      255
176
     1
290
     0
176
     1
 90
       50
176
     1
 90
       50
176
     1
 90
       50
176
     1
290
     0
176
     1
 90
       50
176
     1
 62
   256
176
     0
 40
1.0
176
     0
 90
        2
176
     1
  1
strokes_ogs.tif
176
     1
290
     0
176
     1
 40
1.0
176
     1
 40
1.0
176
     1
  0
VISUALSTYLE
  5
2A
102
{ACAD_REACTORS
330
29
102
}
330
29
100
AcDbVisualStyle
  2
Flat
 70
     0
177
     3
291
     1
 70
    58
 90
        2
176
     1
 90
        1
176
     1
 90
        1
176
     1
 90
        2
176
     1
 40
0.6
176
     1
 40
30.0
176
     1
 62
     7
420
 16777215
176
     1
 90
        0
176
     1
 90
        0
176
     1
 62
     7
176
     1
 62
   257
176
     1
 90
        1
176
     1
 90
        1
176
     1
 40
1.0
176
     1
 90
        8
176
     1
 62
     7
176
     1
 40
1.0
176
     1
 90
        1
176
     1
 90
        6
176
     1
 90
        2
176
     1
 62
     7
176
     1
 90
        5
176
     1
 90
        0
176
     1
 90
        0
176
     1
290
     0
176
     1
 90
       13
176
     1
 40
0.0
176
     1
 90
        0
176
     1
290
     0
176
     1
290
     1
176
     1
290
     1
176
     1
290
     0
176
     1
290
     0
176
     1
290
     0
176
     1
290
     0
176
     1
290
     0
176
     1
290
     0
176
     1
 90
       50
176
     1
 40
0.0
176
     1
 40
1.0
176
     1
 90
        0
176
     1
 62
    18
420
        0
176
     1
 90
       50
176
     1
 90
        3
176
     1
 62
     5
420
      255
176
     1
290
     0
176
     1
 90
       50
176
     1
 90
       50
176
     1
 90
       50
176
     1
290
     0
176
     1
 90
       50
176
     1
 62
   256
176
     0
 40
1.0
176
     0
 90
        2
176
     1
  1
strokes_ogs.tif
176
     1
290
     0
176
     1
 40
1.0
176
     1
 40
1.0
176
     1
  0
VISUALSTYLE
  5
2B
102
{ACAD_REACTORS
330
29
102
}
330
29
100
AcDbVisualStyle
  2
FlatWithEdges
 70
     1
177
     3
291
     1
 70
    58
 90
        2
176
     1
 90
        1
176
     1
 90
        1
176
     1
 90
        2
176
     1
 40
0.6
176
     1
 40
30.0
176
     1
 62
     7
420
 16777215
176
     1
 90
        1
176
     1
 90
        0
176
     1
 62
     7
176
     1
 62
   257
176
     1
 90
        1
176
     1
 90
        1
176
     1
 40
1.0
176
     1
 90
        0
176
     1
 62
   257
176
     1
 40
1.0
176
     1
 90
        1
176
     1
 90
        6
176
     1
 90
        2
176
     1
 62
     7
176
     1
 90
        5
176
     1
 90
        0
176
     1
 90
        0
176
     1
290
     0
176
     1
 90
       13
176
     1
 40
0.0
176
     1
 90
        0
176
     1
290
     0
176
     1
290
     1
176
     1
290
     1
176
     1
290
     0
176
     1
290
     0
176
     1
290
     0
176
     1
290
     0
176
     1
290
     0
176
     1
290
     0
176
     1
 90
       50
176
     1
 40
0.0
176
     1
 40
1.0
176
     1
 90
        0
176
     1
 62
    18
420
        0
176
     1
 90
       50
176
     1
 90
        3
176
     1
 62
     5
420
      255
176
     1
290
     0
176
     1
 90
       50
176
     1
 90
       50
176
     1
 90
       50
176
     1
290
     0
176
     1
 90
       50
176
     1
 62
   256
176
     0
 40
1.0
176
     0
 90
        2
176
     1
  1
strokes_ogs.tif
176
     1
290
     0
176
     1
 40
1.0
176
     1
 40
1.0
176
     1
  0
VISUALSTYLE
  5
2C
102
{ACAD_REACTORS
330
29
102
}
330
29
100
AcDbVisualStyle
  2
Gouraud
 70
     2
177
     3
291
     1
 70
    58
 90
        2
176
     1
 90
        2
176
     1
 90
        1
176
     1
 90
        2
176
     1
 40
0.6
176
     1
 40
30.0
176
     1
 62
     7
420
 16777215
176
     1
 90
        0
176
     1
 90
        0
176
     1
 62
     7
176
     1
 62
   257
176
     1
 90
        1
176
     1
 90
        1
176
     1
 40
1.0
176
     1
 90
        0
176
     1
 62
     7
176
     1
 40
1.0
176
     1
 90
        1
176
     1
 90
        6
176
     1
 90
        2
176
     1
 62
     7
176
     1
 90
        5
176
     1
 90
        0
176
     1
 90
        0
176
     1
290
     0
176
     1
 90
       13
176
     1
 40
0.0
176
     1
 90
        0
176
     1
290
     0
176
     1
290
     1
176
     1
290
     1
176
     1
290
     0
176
     1
290
     0
176
     1
290
     0
176
     1
290
     0
176
     1
290
     0
176
     1
290
     0
176
     1
 90
       50
176
     1
 40
0.0
176
     1
 40
1.0
176
     1
 90
        0
176
     1
 62
    18
420
        0
176
     1
 90
       50
176
     1
 90
        3
176
     1
 62
     5
420
      255
176
     1
290
     0
176
     1
 90
       50
176
     1
 90
       50
176
     1
 90
       50
176
     1
290
     0
176
     1
 90
       50
176
     1
 62
   256
176
     0
 40
1.0
176
     0
 90
        2
176
     1
  1
strokes_ogs.tif
176
     1
290
     0
176
     1
 40
1.0
176
     1
 40
1.0
176
     1
  0
VISUALSTYLE
  5
2D
102
{ACAD_REACTORS
330
29
102
}
330
29
100
AcDbVisualStyle
  2
GouraudWithEdges
 70
     3
177
     3
291
     1
 70
    58
 90
        2
176
     1
 90
        2
176
     1
 90
        1
176
     1
 90
        2
176
     1
 40
0.6
176
     1
 40
30.0
176
     1
 62
     7
420
 16777215
176
     1
 90
        1
176
     1
 90
        0
176
     1
 62
     7
176
     1
 62
   257
176
     1
 90
        1
176
     1
 90
        1
176
     1
 40
1.0
176
     1
 90
        0
176
     1
 62
   257
176
     1
 40
1.0
176
     1
 90
        1
176
     1
 90
        6
176
     1
 90
        2
176
     1
 62
     7
176
     1
 90
        5
176
     1
 90
        0
176
     1
 90
        0
176
     1
290
     0
176
     1
 90
       13
176
     1
 40
0.0
176
     1
 90
        0
176
     1
290
     0
176
     1
290
     1
176
     1
290
     1
176
     1
290
     0
176
     1
290
     0
176
     1
290
     0
176
     1
290
     0
176
     1
290
     0
176
     1
290
     0
176
     1
 90
       50
176
     1
 40
0.0
176
     1
 40
1.0
176
     1
 90
        0
176
     1
 62
    18
420
        0
176
     1
 90
       50
176
     1
 90
        3
176
     1
 62
     5
420
      255
176
     1
290
     0
176
     1
 90
       50
176
     1
 90
       50
176
     1
 90
       50
176
     1
290
     0
176
     1
 90
       50
176
     1
 62
   256
176
     0
 40
1.0
176
     0
 90
        2
176
     1
  1
strokes_ogs.tif
176
     1
290
     0
176
     1
 40
1.0
176
     1
 40
1.0
176
     1
  0
VISUALSTYLE
  5
31
102
{ACAD_REACTORS
330
29
102
}
330
29
100
AcDbVisualStyle
  2
Hidden
 70
     6
177
     3
291
     0
 70
    58
 90
        1
176
     1
 90
        2
176
     1
 90
        2
176
     1
 90
        0
176
     1
 40
0.6
176
     1
 40
30.0
176
     1
 62
     7
420
 16777215
176
     1
 90
        2
176
     1
 90
        2
176
     1
 62
     7
176
     1
 62
   257
176
     1
 90
        2
176
     1
 90
        1
176
     1
 40
40.0
176
     1
 90
        0
176
     1
 62
   257
176
     1
 40
1.0
176
     1
 90
        1
176
     1
 90
        6
176
     1
 90
        2
176
     1
 62
     7
176
     1
 90
        3
176
     1
 90
        0
176
     1
 90
        0
176
     1
290
     0
176
     1
 90
        1
176
     1
 40
0.0
176
     1
 90
        0
176
     1
290
     0
176
     1
290
     1
176
     1
290
     1
176
     1
290
     0
176
     1
290
     0
176
     1
290
     0
176
     1
290
     0
176
     1
290
     0
176
     1
290
     0
176
     1
 90
       50
176
     1
 40
0.0
176
     1
 40
1.0
176
     1
 90
        0
176
     1
 62
    18
420
        0
176
     1
 90
       50
176
     1
 90
        3
176
     1
 62
     5
420
      255
176
     1
290
     0
176
     1
 90
       50
176
     1
 90
       50
176
     1
 90
       50
176
     1
290
     0
176
     1
 90
       50
176
     1
 62
   256
176
     0
 40
1.0
176
     0
 90
        2
176
     1
  1
strokes_ogs.tif
176
     1
290
     0
176
     1
 40
1.0
176
     1
 40
1.0
176
     1
  0
VISUALSTYLE
  5
3F
102
{ACAD_REACTORS
330
29
102
}
330
29
100
AcDbVisualStyle
  2
JitterOff
 70
    20
177
     3
291
     1
 70
    58
 90
        2
176
     0
 90
        2
176
     0
 90
        0
176
     0
 90
        0
176
     0
 40
0.6
176
     0
 40
30.0
176
     0
 62
     7
420
 16777215
176
     0
 90
        1
176
     0
 90
        4
176
     0
 62
     7
176
     0
 62
   257
176
     0
 90
        1
176
     0
 90
        1
176
     0
 40
1.0
176
     0
 90
       10
176
     2
 62
     7
176
     0
 40
1.0
176
     0
 90
        1
176
     0
 90
        6
176
     0
 90
        2
176
     0
 62
     7
176
     0
 90
        5
176
     0
 90
        0
176
     0
 90
        0
176
     0
290
     0
176
     0
 90
        1
176
     0
 40
0.0
176
     0
 90
        0
176
     0
290
     0
176
     0
290
     1
176
     0
290
     1
176
     0
290
     0
176
     0
290
     0
176
     0
290
     0
176
     0
290
     0
176
     0
290
     0
176
     0
290
     0
176
     0
 90
       50
176
     0
 40
0.0
176
     0
 40
1.0
176
     0
 90
        0
176
     0
 62
    18
420
        0
176
     0
 90
       50
176
     0
 90
        3
176
     0
 62
     5
420
      255
176
     0
290
     0
176
     0
 90
       50
176
     0
 90
       50
176
     0
 90
       50
176
     0
290
     0
176
     0
 90
       50
176
     0
 62
   256
176
     0
 40
1.0
176
     0
 90
        2
176
     0
  1
strokes_ogs.tif
176
     0
290
     0
176
     0
 40
1.0
176
     0
 40
1.0
176
     0
  0
VISUALSTYLE
  5
37
102
{ACAD_REACTORS
330
29
102
}
330
29
100
AcDbVisualStyle
  2
Linepattern
 70
    14
177
     3
291
     1
 70
    58
 90
        2
176
     1
 90
        2
176
     1
 90
        0
176
     1
 90
        0
176
     1
 40
0.6
176
     1
 40
30.0
176
     1
 62
     7
420
 16777215
176
     1
 90
        1
176
     1
 90
        4
176
     1
 62
     7
176
     1
 62
   257
176
     1
 90
        7
176
     1
 90
        7
176
     1
 40
1.0
176
     1
 90
        8
176
     1
 62
     7
176
     1
 40
1.0
176
     1
 90
        1
176
     1
 90
        6
176
     1
 90
        2
176
     1
 62
     7
176
     1
 90
        5
176
     1
 90
        0
176
     1
 90
        0
176
     1
290
     0
176
     1
 90
        1
176
     1
 40
0.0
176
     1
 90
        0
176
     1
290
     0
176
     1
290
     1
176
     1
290
     1
176
     1
290
     0
176
     1
290
     0
176
     1
290
     0
176
     1
290
     0
176
     1
290
     0
176
     1
290
     0
176
     1
 90
       50
176
     1
 40
0.0
176
     1
 40
1.0
176
     1
 90
        0
176
     1
 62
    18
420
        0
176
     1
 90
       50
176
     1
 90
        3
176
     1
 62
     5
420
      255
176
     1
290
     0
176
     1
 90
       50
176
     1
 90
       50
176
     1
 90
       50
176
     1
290
     0
176
     1
 90
       50
176
     1
 62
   256
176
     0
 40
1.0
176
     0
 90
        2
176
     1
  1
strokes_ogs.tif
176
     1
290
     0
176
     1
 40
1.0
176
     1
 40
1.0
176
     1
  0
VISUALSTYLE
  5
40
102
{ACAD_REACTORS
330
29
102
}
330
29
100
AcDbVisualStyle
  2
OverhangOff
 70
    21
177
     3
291
     1
 70
    58
 90
        2
176
     0
 90
        2
176
     0
 90
        0
176
     0
 90
        0
176
     0
 40
0.6
176
     0
 40
30.0
176
     0
 62
     7
420
 16777215
176
     0
 90
        1
176
     0
 90
        4
176
     0
 62
     7
176
     0
 62
   257
176
     0
 90
        1
176
     0
 90
        1
176
     0
 40
1.0
176
     0
 90
        9
176
     2
 62
     7
176
     0
 40
1.0
176
     0
 90
        1
176
     0
 90
        6
176
     0
 90
        2
176
     0
 62
     7
176
     0
 90
        5
176
     0
 90
        0
176
     0
 90
        0
176
     0
290
     0
176
     0
 90
        1
176
     0
 40
0.0
176
     0
 90
        0
176
     0
290
     0
176
     0
290
     1
176
     0
290
     1
176
     0
290
     0
176
     0
290
     0
176
     0
290
     0
176
     0
290
     0
176
     0
290
     0
176
     0
290
     0
176
     0
 90
       50
176
     0
 40
0.0
176
     0
 40
1.0
176
     0
 90
        0
176
     0
 62
    18
420
        0
176
     0
 90
       50
176
     0
 90
        3
176
     0
 62
     5
420
      255
176
     0
290
     0
176
     0
 90
       50
176
     0
 90
       50
176
     0
 90
       50
176
     0
290
     0
176
     0
 90
       50
176
     0
 62
   256
176
     0
 40
1.0
176
     0
 90
        2
176
     0
  1
strokes_ogs.tif
176
     0
290
     0
176
     0
 40
1.0
176
     0
 40
1.0
176
     0
  0
VISUALSTYLE
  5
33
102
{ACAD_REACTORS
330
29
102
}
330
29
100
AcDbVisualStyle
  2
Realistic
 70
     8
177
     3
291
     0
 70
    58
 90
        2
176
     1
 90
        3
176
     1
 90
        0
176
     1
 90
        2
176
     1
 40
0.6
176
     1
 40
30.0
176
     1
 62
     7
420
 16777215
176
     1
 90
        0
176
     1
 90
        0
176
     1
 62
     7
176
     1
 62
   257
176
     1
 90
        1
176
     1
 90
        1
176
     1
 40
1.0
176
     1
 90
        8
176
     1
 62
   257
176
     1
 40
1.0
176
     1
 90
        1
176
     1
 90
        6
176
     1
 90
        2
176
     1
 62
     7
176
     1
 90
        3
176
     1
 90
        0
176
     1
 90
        0
176
     1
290
     0
176
     1
 90
       13
176
     1
 40
0.0
176
     1
 90
        0
176
     1
290
     0
176
     1
290
     1
176
     1
290
     1
176
     1
290
     0
176
     1
290
     0
176
     1
290
     0
176
     1
290
     0
176
     1
290
     0
176
     1
290
     0
176
     1
 90
       50
176
     1
 40
0.0
176
     1
 40
1.0
176
     1
 90
        0
176
     1
 62
    18
420
        0
176
     1
 90
       50
176
     1
 90
        3
176
     1
 62
     5
420
      255
176
     1
290
     0
176
     1
 90
       50
176
     1
 90
       50
176
     1
 90
       50
176
     1
290
     0
176
     1
 90
       50
176
     1
 62
   256
176
     0
 40
1.0
176
     0
 90
        2
176
     1
  1
strokes_ogs.tif
176
     1
290
     0
176
     1
 40
1.0
176
     1
 40
1.0
176
     1
  0
VISUALSTYLE
  5
3E
102
{ACAD_REACTORS
330
29
102
}
330
29
100
AcDbVisualStyle
  2
Shaded
 70
    27
177
     3
291
     0
 70
    58
 90
        2
176
     1
 90
        2
176
     1
 90
        1
176
     1
 90
        2
176
     1
 40
0.6
176
     1
 40
30.0
176
     1
 62
     7
420
 16777215
176
     1
 90
        0
176
     1
 90
        4
176
     1
 62
     7
176
     1
 62
   257
176
     1
 90
        1
176
     1
 90
        1
176
     1
 40
1.0
176
     1
 90
        8
176
     1
 62
   257
176
     1
 40
1.0
176
     1
 90
        1
176
     1
 90
        6
176
     1
 90
        2
176
     1
 62
     8
420
  7895160
176
     1
 90
        3
176
     1
 90
        0
176
     1
 90
        0
176
     1
290
     0
176
     1
 90
        5
176
     1
 40
0.0
176
     1
 90
        0
176
     1
290
     0
176
     1
290
     1
176
     1
290
     1
176
     1
290
     0
176
     1
290
     0
176
     1
290
     0
176
     1
290
     0
176
     1
290
     0
176
     1
290
     0
176
     1
 90
       50
176
     1
 40
0.0
176
     1
 40
1.0
176
     1
 90
        0
176
     1
 62
    18
420
        0
176
     1
 90
       50
176
     1
 90
        3
176
     1
 62
     5
420
      255
176
     1
290
     0
176
     1
 90
       50
176
     1
 90
       50
176
     1
 90
       50
176
     1
290
     0
176
     1
 90
       50
176
     1
 62
   256
176
     0
 40
1.0
176
     0
 90
        2
176
     1
  1
strokes_ogs.tif
176
     1
290
     0
176
     1
 40
1.0
176
     1
 40
1.0
176
     1
  0
VISUALSTYLE
  5
3D
102
{ACAD_REACTORS
330
29
102
}
330
29
100
AcDbVisualStyle
  2
Shaded with edges
 70
    26
177
     3
291
     0
 70
    58
 90
        2
176
     1
 90
        2
176
     1
 90
        1
176
     1
 90
        2
176
     1
 40
0.6
176
     1
 40
30.0
176
     1
 62
     7
420
 16777215
176
     1
 90
        1
176
     1
 90
        2
176
     1
 62
     7
176
     1
 62
   257
176
     1
 90
        2
176
     1
 90
        1
176
     1
 40
1.0
176
     1
 90
        8
176
     1
 62
   257
176
     1
 40
1.0
176
     1
 90
        1
176
     1
 90
        6
176
     1
 90
        2
176
     1
 62
     7
176
     1
 90
        3
176
     1
 90
        0
176
     1
 90
        0
176
     1
290
     0
176
     1
 90
        5
176
     1
 40
0.0
176
     1
 90
        0
176
     1
290
     0
176
     1
290
     1
176
     1
290
     1
176
     1
290
     0
176
     1
290
     0
176
     1
290
     0
176
     1
290
     0
176
     1
290
     0
176
     1
290
     0
176
     1
 90
       50
176
     1
 40
0.0
176
     1
 40
1.0
176
     1
 90
        0
176
     1
 62
    18
420
        0
176
     1
 90
       50
176
     1
 90
        3
176
     1
 62
     5
420
      255
176
     1
290
     0
176
     1
 90
       50
176
     1
 90
       50
176
     1
 90
       50
176
     1
290
     0
176
     1
 90
       50
176
     1
 62
   256
176
     0
 40
1.0
176
     0
 90
        2
176
     1
  1
strokes_ogs.tif
176
     1
290
     0
176
     1
 40
1.0
176
     1
 40
1.0
176
     1
  0
VISUALSTYLE
  5
3A
102
{ACAD_REACTORS
330
29
102
}
330
29
100
AcDbVisualStyle
  2
Shades of Gray
 70
    23
177
     3
291
     0
 70
    58
 90
        2
176
     1
 90
        2
176
     1
 90
        3
176
     1
 90
        0
176
     1
 40
0.6
176
     1
 40
30.0
176
     1
 62
     7
420
 16777215
176
     1
 90
        2
176
     1
 90
        2
176
     1
 62
     7
176
     1
 62
     7
176
     1
 90
        1
176
     1
 90
        1
176
     1
 40
40.0
176
     1
 90
        8
176
     1
 62
     7
176
     1
 40
1.0
176
     1
 90
        1
176
     1
 90
        6
176
     1
 90
        2
176
     1
 62
     7
176
     1
 90
        3
176
     1
 90
        0
176
     1
 90
        0
176
     1
290
     0
176
     1
 90
        1
176
     1
 40
0.0
176
     1
 90
        0
176
     1
290
     0
176
     1
290
     1
176
     1
290
     1
176
     1
290
     0
176
     1
290
     0
176
     1
290
     0
176
     1
290
     0
176
     1
290
     0
176
     1
290
     0
176
     1
 90
       50
176
     1
 40
0.0
176
     1
 40
1.0
176
     1
 90
        0
176
     1
 62
    18
420
        0
176
     1
 90
       50
176
     1
 90
        3
176
     1
 62
     5
420
      255
176
     1
290
     0
176
     1
 90
       50
176
     1
 90
       50
176
     1
 90
       50
176
     1
290
     0
176
     1
 90
       50
176
     1
 62
   256
176
     0
 40
1.0
176
     0
 90
        2
176
     1
  1
strokes_ogs.tif
176
     1
290
     0
176
     1
 40
1.0
176
     1
 40
1.0
176
     1
  0
VISUALSTYLE
  5
3B
102
{ACAD_REACTORS
330
29
102
}
330
29
100
AcDbVisualStyle
  2
Sketchy
 70
    24
177
     3
291
     0
 70
    58
 90
        1
176
     1
 90
        2
176
     1
 90
        2
176
     1
 90
        0
176
     1
 40
0.6
176
     1
 40
30.0
176
     1
 62
     7
420
 16777215
176
     1
 90
        2
176
     1
 90
        2
176
     1
 62
     7
176
     1
 62
     7
176
     1
 90
        1
176
     1
 90
        1
176
     1
 40
40.0
176
     1
 90
       11
176
     1
 62
     7
176
     1
 40
1.0
176
     1
 90
        1
176
     1
 90
        6
176
     1
 90
        2
176
     1
 62
     7
176
     1
 90
        6
176
     1
 90
        0
176
     1
 90
        0
176
     1
290
     0
176
     1
 90
        1
176
     1
 40
0.0
176
     1
 90
        0
176
     1
290
     0
176
     1
290
     1
176
     1
290
     1
176
     1
290
     0
176
     1
290
     0
176
     1
290
     0
176
     1
290
     0
176
     1
290
     0
176
     1
290
     0
176
     1
 90
       50
176
     1
 40
0.0
176
     1
 40
1.0
176
     1
 90
        0
176
     1
 62
    18
420
        0
176
     1
 90
       50
176
     1
 90
        3
176
     1
 62
     5
420
      255
176
     1
290
     0
176
     1
 90
       50
176
     1
 90
       50
176
     1
 90
       50
176
     1
290
     0
176
     1
 90
       50
176
     1
 62
   256
176
     0
 40
1.0
176
     0
 90
        2
176
     1
  1
strokes_ogs.tif
176
     1
290
     0
176
     1
 40
1.0
176
     1
 40
1.0
176
     1
  0
VISUALSTYLE
  5
36
102
{ACAD_REACTORS
330
29
102
}
330
29
100
AcDbVisualStyle
  2
Thicken
 70
    13
177
     3
291
     1
 70
    58
 90
        2
176
     1
 90
        2
176
     1
 90
        0
176
     1
 90
        0
176
     1
 40
0.6
176
     1
 40
30.0
176
     1
 62
     7
420
 16777215
176
     1
 90
        1
176
     1
 90
        4
176
     1
 62
     7
176
     1
 62
   257
176
     1
 90
        1
176
     1
 90
        1
176
     1
 40
1.0
176
     1
 90
       12
176
     1
 62
     7
176
     1
 40
1.0
176
     1
 90
        1
176
     1
 90
        6
176
     1
 90
        2
176
     1
 62
     7
176
     1
 90
        5
176
     1
 90
        0
176
     1
 90
        0
176
     1
290
     0
176
     1
 90
        1
176
     1
 40
0.0
176
     1
 90
        0
176
     1
290
     0
176
     1
290
     1
176
     1
290
     1
176
     1
290
     0
176
     1
290
     0
176
     1
290
     0
176
     1
290
     0
176
     1
290
     0
176
     1
290
     0
176
     1
 90
       50
176
     1
 40
0.0
176
     1
 40
1.0
176
     1
 90
        0
176
     1
 62
    18
420
        0
176
     1
 90
       50
176
     1
 90
        3
176
     1
 62
     5
420
      255
176
     1
290
     0
176
     1
 90
       50
176
     1
 90
       50
176
     1
 90
       50
176
     1
290
     0
176
     1
 90
       50
176
     1
 62
   256
176
     0
 40
1.0
176
     0
 90
        2
176
     1
  1
strokes_ogs.tif
176
     1
290
     0
176
     1
 40
1.0
176
     1
 40
1.0
176
     1
  0
VISUALSTYLE
  5
30
102
{ACAD_REACTORS
330
29
102
}
330
29
100
AcDbVisualStyle
  2
Wireframe
 70
     5
177
     3
291
     0
 70
    58
 90
        0
176
     1
 90
        2
176
     1
 90
        0
176
     1
 90
        0
176
     1
 40
0.6
176
     1
 40
30.0
176
     1
 62
     7
420
 16777215
176
     1
 90
        1
176
     1
 90
        4
176
     1
 62
     7
176
     1
 62
   257
176
     1
 90
        1
176
     1
 90
        1
176
     1
 40
1.0
176
     1
 90
        0
176
     1
 62
   257
176
     1
 40
1.0
176
     1
 90
        1
176
     1
 90
        6
176
     1
 90
        2
176
     1
 62
     7
176
     1
 90
        3
176
     1
 90
        0
176
     1
 90
        0
176
     1
290
     0
176
     1
 90
        1
176
     1
 40
0.0
176
     1
 90
        0
176
     1
290
     0
176
     1
290
     1
176
     1
290
     1
176
     1
290
     0
176
     1
290
     0
176
     1
290
     0
176
     1
290
     0
176
     1
290
     0
176
     1
290
     0
176
     1
 90
       50
176
     1
 40
0.0
176
     1
 40
1.0
176
     1
 90
        0
176
     1
 62
    18
420
        0
176
     1
 90
       50
176
     1
 90
        3
176
     1
 62
     5
420
      255
176
     1
290
     0
176
     1
 90
       50
176
     1
 90
       50
176
     1
 90
       50
176
     1
290
     0
176
     1
 90
       50
176
     1
 62
   256
176
     0
 40
1.0
176
     0
 90
        2
176
     1
  1
strokes_ogs.tif
176
     1
290
     0
176
     1
 40
1.0
176
     1
 40
1.0
176
     1
  0
VISUALSTYLE
  5
3C
102
{ACAD_REACTORS
330
29
102
}
330
29
100
AcDbVisualStyle
  2
X-Ray
 70
    25
177
     3
291
     0
 70
    58
 90
        2
176
     1
 90
        2
176
     1
 90
        1
176
     1
 90
        1
176
     1
 40
0.5
176
     1
 40
30.0
176
     1
 62
     7
420
 16777215
176
     1
 90
        1
176
     1
 90
        0
176
     1
 62
     7
176
     1
 62
   257
176
     1
 90
        1
176
     1
 90
        1
176
     1
 40
1.0
176
     1
 90
        8
176
     1
 62
     7
176
     1
 40
1.0
176
     1
 90
        1
176
     1
 90
        6
176
     1
 90
        2
176
     1
 62
     7
176
     1
 90
        3
176
     1
 90
        0
176
     1
 90
        0
176
     1
290
     0
176
     1
 90
       13
176
     1
 40
0.0
176
     1
 90
        0
176
     1
290
     0
176
     1
290
     1
176
     1
290
     1
176
     1
290
     0
176
     1
290
     0
176
     1
290
     0
176
     1
290
     0
176
     1
290
     0
176
     1
290
     0
176
     1
 90
       50
176
     1
 40
0.0
176
     1
 40
1.0
176
     1
 90
        0
176
     1
 62
    18
420
        0
176
     1
 90
       50
176
     1
 90
        3
176
     1
 62
     5
420
      255
176
     1
290
     0
176
     1
 90
       50
176
     1
 90
       50
176
     1
 90
       50
176
     1
290
     0
176
     1
 90
       50
176
     1
 62
   256
176
     0
 40
1.0
176
     0
 90
        2
176
     1
  1
strokes_ogs.tif
176
     1
290
     0
176
     1
 40
1.0
176
     1
 40
1.0
176
     1
  0
DICTIONARYVAR
  5
9B
102
{ACAD_REACTORS
330
96
102
}
330
96
100
DictionaryVariables
280
     0
  1
1:1
  0
DICTIONARYVAR
  5
98
102
{ACAD_REACTORS
330
96
102
}
330
96
100
DictionaryVariables
280
     0
  1
STANDARD
  0
DICTIONARYVAR
  5
97
102
{ACAD_REACTORS
330
96
102
}
330
96
100
DictionaryVariables
280
     0
  1
STANDARD
  0
DICTIONARYVAR
  5
99
102
{ACAD_REACTORS
330
96
102
}
330
96
100
DictionaryVariables
280
     0
  1
Imperial24
  0
DICTIONARYVAR
  5
9A
102
{ACAD_REACTORS
330
96
102
}
330
96
100
DictionaryVariables
280
     0
  1
Imperial24
  0
DICTIONARY
  5
1A
330
19
100
AcDbDictionary
280
     1
281
     1
  3
BUMPTILE
360
1C
  3
DIFFUSETILE
360
1B
  3
OPACITYTILE
360
1F
  3
REFLECTIONTILE
360
1E
  3
REFRACTIONTILE
360
20
  3
SPECULARTILE
360
1D
  0
DICTIONARY
  5
12
330
11
100
AcDbDictionary
280
     1
281
     1
  3
BUMPTILE
360
14
  3
DIFFUSETILE
360
13
  3
OPACITYTILE
360
17
  3
REFLECTIONTILE
360
16
  3
REFRACTIONTILE
360
18
  3
SPECULARTILE
360
15
  0
DICTIONARY
  5
22
330
21
100
AcDbDictionary
280
     1
281
     1
  3
BUMPTILE
360
24
  3
DIFFUSETILE
360
23
  3
OPACITYTILE
360
27
  3
REFLECTIONTILE
360
26
  3
REFRACTIONTILE
360
28
  3
SPECULARTILE
360
25
  0
DICTIONARY
  5
9C
330
65
100
AcDbDictionary
280
     1
281
     1
  3
ACAD_ROUNDTRIP_2008_TABLESTYLE_CELLSTYLEMAP
360
9D
  0
XRECORD
  5
1C
102
{ACAD_REACTORS
330
1A
102
}
330
1A
100
AcDbXrecord
280
     1
270
     1
271
     1
  0
XRECORD
  5
1B
102
{ACAD_REACTORS
330
1A
102
}
330
1A
100
AcDbXrecord
280
     1
270
     1
271
     1
  0
XRECORD
  5
1F
102
{ACAD_REACTORS
330
1A
102
}
330
1A
100
AcDbXrecord
280
     1
270
     1
271
     1
  0
XRECORD
  5
1E
102
{ACAD_REACTORS
330
1A
102
}
330
1A
100
AcDbXrecord
280
     1
270
     1
271
     1
  0
XRECORD
  5
20
102
{ACAD_REACTORS
330
1A
102
}
330
1A
100
AcDbXrecord
280
     1
270
     1
271
     1
  0
XRECORD
  5
1D
102
{ACAD_REACTORS
330
1A
102
}
330
1A
100
AcDbXrecord
280
     1
270
     1
271
     1
  0
XRECORD
  5
14
102
{ACAD_REACTORS
330
12
102
}
330
12
100
AcDbXrecord
280
     1
270
     1
271
     1
  0
XRECORD
  5
13
102
{ACAD_REACTORS
330
12
102
}
330
12
100
AcDbXrecord
280
     1
270
     1
271
     1
  0
XRECORD
  5
17
102
{ACAD_REACTORS
330
12
102
}
330
12
100
AcDbXrecord
280
     1
270
     1
271
     1
  0
XRECORD
  5
16
102
{ACAD_REACTORS
330
12
102
}
330
12
100
AcDbXrecord
280
     1
270
     1
271
     1
  0
XRECORD
  5
18
102
{ACAD_REACTORS
330
12
102
}
330
12
100
AcDbXrecord
280
     1
270
     1
271
     1
  0
XRECORD
  5
15
102
{ACAD_REACTORS
330
12
102
}
330
12
100
AcDbXrecord
280
     1
270
     1
271
     1
  0
XRECORD
  5
24
102
{ACAD_REACTORS
330
22
102
}
330
22
100
AcDbXrecord
280
     1
270
     1
271
     1
  0
XRECORD
  5
23
102
{ACAD_REACTORS
330
22
102
}
330
22
100
AcDbXrecord
280
     1
270
     1
271
     1
  0
XRECORD
  5
27
102
{ACAD_REACTORS
330
22
102
}
330
22
100
AcDbXrecord
280
     1
270
     1
271
     1
  0
XRECORD
  5
26
102
{ACAD_REACTORS
330
22
102
}
330
22
100
AcDbXrecord
280
     1
270
     1
271
     1
  0
XRECORD
  5
28
102
{ACAD_REACTORS
330
22
102
}
330
22
100
AcDbXrecord
280
     1
270
     1
271
     1
  0
XRECORD
  5
25
102
{ACAD_REACTORS
330
22
102
}
330
22
100
AcDbXrecord
280
     1
270
     1
271
     1
  0
CELLSTYLEMAP
  5
9D
102
{ACAD_REACTORS
330
9C
102
}
330
9C
100
AcDbCellStyleMap
 90
        3
300
CELLSTYLE
  1
TABLEFORMAT_BEGIN
 90
        5
170
     1
 91
        0
 92
    32768
 62
   257
 93
        1
300
CONTENTFORMAT
  1
CONTENTFORMAT_BEGIN
 90
        0
 91
        0
 92
      512
 93
        0
300

 40
0.0
140
1.0
 94
        5
 62
     0
340
55
144
0.25
309
CONTENTFORMAT_END
171
     0
 94
        0
309
TABLEFORMAT_END
  1
CELLSTYLE_BEGIN
 90
        1
 91
        1
300
_TITLE
309
CELLSTYLE_END
300
CELLSTYLE
  1
TABLEFORMAT_BEGIN
 90
        5
170
     1
 91
        0
 92
        0
 62
   257
 93
        1
300
CONTENTFORMAT
  1
CONTENTFORMAT_BEGIN
 90
        0
 91
        0
 92
      512
 93
        0
300

 40
0.0
140
1.0
 94
        5
 62
     0
340
55
144
0.18
309
CONTENTFORMAT_END
171
     0
 94
        0
309
TABLEFORMAT_END
  1
CELLSTYLE_BEGIN
 90
        2
 91
        1
300
_HEADER
309
CELLSTYLE_END
300
CELLSTYLE
  1
TABLEFORMAT_BEGIN
 90
        5
170
     1
 91
        0
 92
        0
 62
   257
 93
        1
300
CONTENTFORMAT
  1
CONTENTFORMAT_BEGIN
 90
        0
 91
        0
 92
      512
 93
        0
300

 40
0.0
140
1.0
 94
        2
 62
     0
340
55
144
0.18
309
CONTENTFORMAT_END
171
     0
 94
        0
309
TABLEFORMAT_END
  1
CELLSTYLE_BEGIN
 90
        3
 91
        2
300
_DATA
309
CELLSTYLE_END
  0
ENDSEC
  0
EOF
