  0
SECTION
  2
HEADER
  9
$ACADVER
  1
AC1032
  9
$ACADMAINTVER
 90
      155
  9
$DWGCODEPAGE
  3
ANSI_1252
  9
$REQUIREDVERSIONS
160
                 0
  9
$INSBASE
 10
0.0
 20
0.0
 30
0.0
  9
$EXTMIN
 10
1.000000000000000E+20
 20
1.000000000000000E+20
 30
1.000000000000000E+20
  9
$EXTMAX
 10
-1.000000000000000E+20
 20
-1.000000000000000E+20
 30
-1.000000000000000E+20
  9
$LIMMIN
 10
0.0
 20
0.0
  9
$LIMMAX
 10
12.0
 20
9.0
  9
$ORTHOMODE
 70
     0
  9
$REGENMODE
 70
     1
  9
$FILLMODE
 70
     1
  9
$QTEXTMODE
 70
     0
  9
$MIRRTEXT
 70
     0
  9
$LTSCALE
 40
1.0
  9
$ATTMODE
 70
     1
  9
$TEXTSIZE
 40
0.2
  9
$TRACEWID
 40
0.05
  9
$TEXTSTYLE
  7
Standard
  9
$CLAYER
  8
0
  9
$CELTYPE
  6
ByLayer
  9
$CECOLOR
 62
   256
  9
$CELTSCALE
 40
1.0
  9
$DISPSILH
 70
     0
  9
$DIMSCALE
 40
1.0
  9
$DIMASZ
 40
0.18
  9
$DIMEXO
 40
0.0625
  9
$DIMDLI
 40
0.38
  9
$DIMRND
 40
0.0
  9
$DIMDLE
 40
0.0
  9
$DIMEXE
 40
0.18
  9
$DIMTP
 40
0.0
  9
$DIMTM
 40
0.0
  9
$DIMTXT
 40
0.18
  9
$DIMCEN
 40
0.09
  9
$DIMTSZ
 40
0.0
  9
$DIMTOL
 70
     0
  9
$DIMLIM
 70
     0
  9
$DIMTIH
 70
     1
  9
$DIMTOH
 70
     1
  9
$DIMSE1
 70
     0
  9
$DIMSE2
 70
     0
  9
$DIMTAD
 70
     0
  9
$DIMZIN
 70
     0
  9
$DIMBLK
  1

  9
$DIMASO
 70
     1
  9
$DIMSHO
 70
     1
  9
$DIMPOST
  1

  9
$DIMAPOST
  1

  9
$DIMALT
 70
     0
  9
$DIMALTD
 70
     2
  9
$DIMALTF
 40
25.4
  9
$DIMLFAC
 40
1.0
  9
$DIMTOFL
 70
     0
  9
$DIMTVP
 40
0.0
  9
$DIMTIX
 70
     0
  9
$DIMSOXD
 70
     0
  9
$DIMSAH
 70
     0
  9
$DIMBLK1
  1

  9
$DIMBLK2
  1

  9
$DIMSTYLE
  2
Standard
  9
$DIMCLRD
 70
     0
  9
$DIMCLRE
 70
     0
  9
$DIMCLRT
 70
     0
  9
$DIMTFAC
 40
1.0
  9
$DIMGAP
 40
0.09
  9
$DIMJUST
 70
     0
  9
$DIMSD1
 70
     0
  9
$DIMSD2
 70
     0
  9
$DIMTOLJ
 70
     1
  9
$DIMTZIN
 70
     0
  9
$DIMALTZ
 70
     0
  9
$DIMALTTZ
 70
     0
  9
$DIMUPT
 70
     0
  9
$DIMDEC
 70
     4
  9
$DIMTDEC
 70
     4
  9
$DIMALTU
 70
     2
  9
$DIMALTTD
 70
     2
  9
$DIMTXSTY
  7
Standard
  9
$DIMAUNIT
 70
     0
  9
$DIMADEC
 70
     0
  9
$DIMALTRND
 40
0.0
  9
$DIMAZIN
 70
     0
  9
$DIMDSEP
 70
    46
  9
$DIMATFIT
 70
     3
  9
$DIMFRAC
 70
     0
  9
$DIMLDRBLK
  1

  9
$DIMLUNIT
 70
     2
  9
$DIMLWD
 70
    -2
  9
$DIMLWE
 70
    -2
  9
$DIMTMOVE
 70
     0
  9
$DIMFXL
 40
1.0
  9
$DIMFXLON
 70
     0
  9
$DIMJOGANG
 40
0.7853981633974483
  9
$DIMTFILL
 70
     0
  9
$DIMTFILLCLR
 70
     0
  9
$DIMARCSYM
 70
     0
  9
$DIMLTYPE
  6

  9
$DIMLTEX1
  6

  9
$DIMLTEX2
  6

  9
$DIMTXTDIRECTION
 70
     0
  9
$LUNITS
 70
     2
  9
$LUPREC
 70
     4
  9
$SKETCHINC
 40
0.1
  9
$FILLETRAD
 40
0.0
  9
$AUNITS
 70
     0
  9
$AUPREC
 70
     0
  9
$MENU
  1
.
  9
$ELEVATION
 40
0.0
  9
$PELEVATION
 40
0.0
  9
$THICKNESS
 40
0.0
  9
$LIMCHECK
 70
     0
  9
$CHAMFERA
 40
0.0
  9
$CHAMFERB
 40
0.0
  9
$CHAMFERC
 40
0.0
  9
$CHAMFERD
 40
0.0
  9
$SKPOLY
 70
     0
  9
$TDCREATE
 40
2459315.185821759
  9
$TDUCREATE
 40
2459315.477488426
  9
$TDUPDATE
 40
2459315.185821759
  9
$TDUUPDATE
 40
2459315.477488426
  9
$TDINDWG
 40
0.0000000000
  9
$TDUSRTIMER
 40
0.0000000000
  9
$USRTIMER
 70
     1
  9
$ANGBASE
 50
0.0
  9
$ANGDIR
 70
     0
  9
$PDMODE
 70
     0
  9
$PDSIZE
 40
0.0
  9
$PLINEWID
 40
0.0
  9
$SPLFRAME
 70
     0
  9
$SPLINETYPE
 70
     6
  9
$SPLINESEGS
 70
     8
  9
$HANDSEED
  5
95
  9
$SURFTAB1
 70
     6
  9
$SURFTAB2
 70
     6
  9
$SURFTYPE
 70
     6
  9
$SURFU
 70
     6
  9
$SURFV
 70
     6
  9
$UCSBASE
  2

  9
$UCSNAME
  2

  9
$UCSORG
 10
0.0
 20
0.0
 30
0.0
  9
$UCSXDIR
 10
1.0
 20
0.0
 30
0.0
  9
$UCSYDIR
 10
0.0
 20
1.0
 30
0.0
  9
$UCSORTHOREF
  2

  9
$UCSORTHOVIEW
 70
     0
  9
$UCSORGTOP
 10
0.0
 20
0.0
 30
0.0
  9
$UCSORGBOTTOM
 10
0.0
 20
0.0
 30
0.0
  9
$UCSORGLEFT
 10
0.0
 20
0.0
 30
0.0
  9
$UCSORGRIGHT
 10
0.0
 20
0.0
 30
0.0
  9
$UCSORGFRONT
 10
0.0
 20
0.0
 30
0.0
  9
$UCSORGBACK
 10
0.0
 20
0.0
 30
0.0
  9
$PUCSBASE
  2

  9
$PUCSNAME
  2

  9
$PUCSORG
 10
0.0
 20
0.0
 30
0.0
  9
$PUCSXDIR
 10
1.0
 20
0.0
 30
0.0
  9
$PUCSYDIR
 10
0.0
 20
1.0
 30
0.0
  9
$PUCSORTHOREF
  2

  9
$PUCSORTHOVIEW
 70
     0
  9
$PUCSORGTOP
 10
0.0
 20
0.0
 30
0.0
  9
$PUCSORGBOTTOM
 10
0.0
 20
0.0
 30
0.0
  9
$PUCSORGLEFT
 10
0.0
 20
0.0
 30
0.0
  9
$PUCSORGRIGHT
 10
0.0
 20
0.0
 30
0.0
  9
$PUCSORGFRONT
 10
0.0
 20
0.0
 30
0.0
  9
$PUCSORGBACK
 10
0.0
 20
0.0
 30
0.0
  9
$USERI1
 70
     0
  9
$USERI2
 70
     0
  9
$USERI3
 70
     0
  9
$USERI4
 70
     0
  9
$USERI5
 70
     0
  9
$USERR1
 40
0.0
  9
$USERR2
 40
0.0
  9
$USERR3
 40
0.0
  9
$USERR4
 40
0.0
  9
$USERR5
 40
0.0
  9
$WORLDVIEW
 70
     1
  9
$SHADEDGE
 70
     3
  9
$SHADEDIF
 70
    70
  9
$TILEMODE
 70
     1
  9
$MAXACTVP
 70
    64
  9
$PINSBASE
 10
0.0
 20
0.0
 30
0.0
  9
$PLIMCHECK
 70
     0
  9
$PEXTMIN
 10
1.000000000000000E+20
 20
1.000000000000000E+20
 30
1.000000000000000E+20
  9
$PEXTMAX
 10
-1.000000000000000E+20
 20
-1.000000000000000E+20
 30
-1.000000000000000E+20
  9
$PLIMMIN
 10
0.0
 20
0.0
  9
$PLIMMAX
 10
12.0
 20
9.0
  9
$UNITMODE
 70
     0
  9
$VISRETAIN
 70
     1
  9
$PLINEGEN
 70
     0
  9
$PSLTSCALE
 70
     1
  9
$TREEDEPTH
 70
  3020
  9
$CMLSTYLE
  2
Standard
  9
$CMLJUST
 70
     0
  9
$CMLSCALE
 40
1.0
  9
$PROXYGRAPHICS
 70
     1
  9
$MEASUREMENT
 70
     0
  9
$CELWEIGHT
370
    -1
  9
$ENDCAPS
280
     0
  9
$JOINSTYLE
280
     0
  9
$LWDISPLAY
290
     1
  9
$INSUNITS
 70
     1
  9
$HYPERLINKBASE
  1

  9
$STYLESHEET
  1

  9
$XEDIT
290
     1
  9
$CEPSNTYPE
380
     0
  9
$PSTYLEMODE
290
     1
  9
$FINGERPRINTGUID
  2
{B9F78675-0413-2547-81A5-F39D9D16F46B}
  9
$VERSIONGUID
  2
{7DDBA065-B55A-BC45-89FB-D59356D7F295}
  9
$EXTNAMES
290
     1
  9
$PSVPSCALE
 40
0.0
  9
$OLESTARTUP
290
     0
  9
$SORTENTS
280
   127
  9
$INDEXCTL
280
     0
  9
$HIDETEXT
280
     1
  9
$XCLIPFRAME
280
     2
  9
$HALOGAP
280
     0
  9
$OBSCOLOR
 70
   257
  9
$OBSLTYPE
280
     0
  9
$INTERSECTIONDISPLAY
280
     0
  9
$INTERSECTIONCOLOR
 70
   257
  9
$DIMASSOC
280
     2
  9
$PROJECTNAME
  1

  9
$CAMERADISPLAY
290
     0
  9
$LENSLENGTH
 40
50.0
  9
$CAMERAHEIGHT
 40
0.0
  9
$STEPSPERSEC
 40
2.0
  9
$STEPSIZE
 40
6.0
  9
$3DDWFPREC
 40
2.0
  9
$PSOLWIDTH
 40
0.25
  9
$PSOLHEIGHT
 40
4.0
  9
$LOFTANG1
 40
1.570796326794896
  9
$LOFTANG2
 40
1.570796326794896
  9
$LOFTMAG1
 40
0.0
  9
$LOFTMAG2
 40
0.0
  9
$LOFTPARAM
 70
     7
  9
$LOFTNORMALS
280
     1
  9
$LATITUDE
 40
37.795
  9
$LONGITUDE
 40
-122.394
  9
$NORTHDIRECTION
 40
0.0
  9
$TIMEZONE
 70
 -8000
  9
$LIGHTGLYPHDISPLAY
280
     1
  9
$TILEMODELIGHTSYNCH
280
     1
  9
$CMATERIAL
347
11
  9
$SOLIDHIST
280
     0
  9
$SHOWHIST
280
     1
  9
$DWFFRAME
280
     2
  9
$DGNFRAME
280
     0
  9
$REALWORLDSCALE
290
     1
  9
$INTERFERECOLOR
 62
     1
  9
$INTERFEREOBJVS
345
33
  9
$INTERFEREVPVS
346
30
  9
$CSHADOW
280
     0
  9
$SHADOWPLANELOCATION
 40
0.0
  0
ENDSEC
  0
SECTION
  2
CLASSES
  0
CLASS
  1
ACDBDICTIONARYWDFLT
  2
AcDbDictionaryWithDefault
  3
ObjectDBX Classes
 90
        0
 91
        1
280
     0
281
     0
  0
CLASS
  1
MATERIAL
  2
AcDbMaterial
  3
ObjectDBX Classes
 90
     1153
 91
        3
280
     0
281
     0
  0
CLASS
  1
VISUALSTYLE
  2
AcDbVisualStyle
  3
ObjectDBX Classes
 90
     4095
 91
       24
280
     0
281
     0
  0
CLASS
  1
SCALE
  2
AcDbScale
  3
ObjectDBX Classes
 90
     1153
 91
       17
280
     0
281
     0
  0
CLASS
  1
TABLESTYLE
  2
AcDbTableStyle
  3
ObjectDBX Classes
 90
     4095
 91
        1
280
     0
281
     0
  0
CLASS
  1
MLEADERSTYLE
  2
AcDbMLeaderStyle
  3
ACDB_MLEADERSTYLE_CLASS
 90
     4095
 91
        1
280
     0
281
     0
  0
CLASS
  1
ACDBSECTIONVIEWSTYLE
  2
AcDbSectionViewStyle
  3
ObjectDBX Classes
 90
     1025
 91
        1
280
     0
281
     0
  0
CLASS
  1
ACDBDETAILVIEWSTYLE
  2
AcDbDetailViewStyle
  3
ObjectDBX Classes
 90
     1025
 91
        1
280
     0
281
     0
  0
CLASS
  1
DICTIONARYVAR
  2
AcDbDictionaryVar
  3
ObjectDBX Classes
 90
        0
 91
        5
280
     0
281
     0
  0
CLASS
  1
CELLSTYLEMAP
  2
AcDbCellStyleMap
  3
ObjectDBX Classes
 90
     1152
 91
        1
280
     0
281
     0
  0
ENDSEC
  0
SECTION
  2
TABLES
  0
TABLE
  2
VPORT
  5
8
330
0
100
AcDbSymbolTable
 70
     1
  0
VPORT
  5
57
330
8
100
AcDbSymbolTableRecord
100
AcDbViewportTableRecord
  2
*Active
 70
     0
 10
0.0
 20
0.0
 11
1.0
 21
1.0
 12
0.0
 22
0.0
 13
0.0
 23
0.0
 14
1.0
 24
1.0
 15
0.0
 25
0.0
 16
0.0
 26
0.0
 36
1.0
 17
3.0
 27
-3.0
 37
0.0
 40
6.12
 41
1.0
 42
50.0
 43
0.0
 44
0.0
 50
0.0
 51
0.0
 71
     0
 72
   100
 73
     1
 74
     0
 75
     1
 76
     0
 77
     0
 78
     0
281
     0
 65
     1
110
0.0
120
0.0
130
0.0
111
1.0
121
0.0
131
0.0
112
0.0
122
1.0
132
0.0
 79
     0
146
0.0
 60
     3
 61
     5
292
     1
282
     1
141
0.0
142
0.0
 63
   250
421
  3355443
  0
ENDTAB
  0
TABLE
  2
LTYPE
  5
5
330
0
100
AcDbSymbolTable
 70
     1
  0
LTYPE
  5
5B
330
5
100
AcDbSymbolTableRecord
100
AcDbLinetypeTableRecord
  2
ByBlock
 70
     0
  3

 72
    65
 73
     0
 40
0.0
  0
LTYPE
  5
5C
330
5
100
AcDbSymbolTableRecord
100
AcDbLinetypeTableRecord
  2
ByLayer
 70
     0
  3

 72
    65
 73
     0
 40
0.0
  0
LTYPE
  5
5D
330
5
100
AcDbSymbolTableRecord
100
AcDbLinetypeTableRecord
  2
Continuous
 70
     0
  3
Solid line
 72
    65
 73
     0
 40
0.0
  0
ENDTAB
  0
TABLE
  2
LAYER
  5
2
330
0
100
AcDbSymbolTable
 70
     2
  0
LAYER
  5
54
330
2
100
AcDbSymbolTableRecord
100
AcDbLayerTableRecord
  2
0
 70
     0
 62
     7
  6
Continuous
370
    -3
390
F
347
21
348
0
  0
LAYER
  5
78
330
2
100
AcDbSymbolTableRecord
100
AcDbLayerTableRecord
  2
Layer 1
 70
     0
 62
     7
  6
Continuous
370
     0
390
F
347
21
348
0
  0
ENDTAB
  0
TABLE
  2
STYLE
  5
3
330
0
100
AcDbSymbolTable
 70
     2
  0
STYLE
  5
55
330
3
100
AcDbSymbolTableRecord
100
AcDbTextStyleTableRecord
  2
Standard
 70
     0
 40
0.0
 41
1.0
 50
0.0
 71
     0
 42
0.2
  3
txt
  4

  0
STYLE
  5
5A
330
3
100
AcDbSymbolTableRecord
100
AcDbTextStyleTableRecord
  2
Annotative
 70
     0
 40
0.0
 41
1.0
 50
0.0
 71
     0
 42
0.2
  3
txt
  4

1001
AcadAnnotative
1000
AnnotativeData
1002
{
1070
     1
1070
     1
1002
}
  0
ENDTAB
  0
TABLE
  2
VIEW
  5
6
330
0
100
AcDbSymbolTable
 70
     0
  0
ENDTAB
  0
TABLE
  2
UCS
  5
7
330
0
100
AcDbSymbolTable
 70
     0
  0
ENDTAB
  0
TABLE
  2
APPID
  5
9
330
0
100
AcDbSymbolTable
 70
     2
  0
APPID
  5
56
330
9
100
AcDbSymbolTableRecord
100
AcDbRegAppTableRecord
  2
ACAD
 70
     0
  0
APPID
  5
5E
330
9
100
AcDbSymbolTableRecord
100
AcDbRegAppTableRecord
  2
AcadAnnotative
 70
     0
  0
ENDTAB
  0
TABLE
  2
DIMSTYLE
  5
A
330
0
100
AcDbSymbolTable
 70
     2
100
AcDbDimStyleTable
 71
     0
  0
DIMSTYLE
105
58
330
A
100
AcDbSymbolTableRecord
100
AcDbDimStyleTableRecord
  2
Standard
 70
     0
340
55
  0
DIMSTYLE
105
59
330
A
100
AcDbSymbolTableRecord
100
AcDbDimStyleTableRecord
  2
Annotative
 70
     0
340
55
1001
AcadAnnotative
1000
AnnotativeData
1002
{
1070
     1
1070
     1
1002
}
  0
ENDTAB
  0
TABLE
  2
BLOCK_RECORD
  5
1
330
0
100
AcDbSymbolTable
 70
     1
  0
BLOCK_RECORD
  5
70
330
1
100
AcDbSymbolTableRecord
100
AcDbBlockTableRecord
  2
*Model_Space
340
73
 70
     0
280
     1
281
     0
  0
BLOCK_RECORD
  5
6C
330
1
100
AcDbSymbolTableRecord
100
AcDbBlockTableRecord
  2
*Paper_Space
340
6F
 70
     0
280
     1
281
     0
  0
BLOCK_RECORD
  5
74
330
1
100
AcDbSymbolTableRecord
100
AcDbBlockTableRecord
  2
*Paper_Space0
340
77
 70
     0
280
     1
281
     0
  0
ENDTAB
  0
ENDSEC
  0
SECTION
  2
BLOCKS
  0
BLOCK
  5
71
330
70
100
AcDbEntity
  8
0
100
AcDbBlockBegin
  2
*Model_Space
 70
     0
 10
0.0
 20
0.0
 30
0.0
  3
*Model_Space
  1

  0
ENDBLK
  5
72
330
70
100
AcDbEntity
  8
0
100
AcDbBlockEnd
  0
BLOCK
  5
6D
330
6C
100
AcDbEntity
 67
     1
  8
0
100
AcDbBlockBegin
  2
*Paper_Space
 70
     0
 10
0.0
 20
0.0
 30
0.0
  3
*Paper_Space
  1

  0
ENDBLK
  5
6E
330
6C
100
AcDbEntity
 67
     1
  8
0
100
AcDbBlockEnd
  0
BLOCK
  5
75
330
74
100
AcDbEntity
 67
     1
  8
0
100
AcDbBlockBegin
  2
*Paper_Space0
 70
     0
 10
0.0
 20
0.0
 30
0.0
  3
*Paper_Space0
  1

  0
ENDBLK
  5
76
330
74
100
AcDbEntity
 67
     1
  8
0
100
AcDbBlockEnd
  0
ENDSEC
  0
SECTION
  2
ENTITIES
  0
SPLINE
  5
79
330
70
100
AcDbEntity
  8
Layer 1
100
AcDbSpline
210
0.0
220
0.0
230
1.0
 70
     9
 71
     3
 72
    17
 73
    13
 74
     0
 42
0.0000000001
 43
0.0000000001
 40
0.0
 40
0.0
 40
0.0
 40
0.0
 40
1.0
 40
1.0
 40
1.0
 40
2.0
 40
2.0
 40
2.0
 40
3.0
 40
3.0
 40
3.0
 40
4.0
 40
4.0
 40
4.0
 40
4.0
 10
3.033265133631402
 20
-5.125149457029338
 30
0.0
 10
3.035482186045833
 20
-5.121418999988135
 30
0.0
 10
3.039241226838207
 20
-5.122379828842869
 30
0.0
 10
3.042482509537825
 20
-5.122372583613696
 30
0.0
 10
3.077428115492643
 20
-5.122294836731295
 30
0.0
 10
3.112373860779573
 20
-5.122300688647151
 30
0.0
 10
3.147319327402328
 20
-5.122385959421408
 30
0.0
 10
3.150561724758745
 20
-5.122393761975924
 30
0.0
 10
3.154318675569584
 20
-5.121413705397596
 30
0.0
 10
3.156537260637125
 20
-5.125149457029338
 30
0.0
 10
3.115446551635234
 20
-5.125149457029338
 30
0.0
 10
3.074355842633318
 20
-5.125149457029338
 30
0.0
 10
3.033265133631402
 20
-5.125149457029338
 30
0.0
  0
HATCH
  5
7A
330
70
100
AcDbEntity
  8
Layer 1
 62
     7
420
 16711422
440
 33554687
100
AcDbHatch
 10
0.0
 20
0.0
 30
0.0
210
0.0
220
0.0
230
1.0
  2
SOLID
 70
     1
 71
     1
 91
        1
 92
        1
 93
        1
 72
     4
 94
        3
 73
     0
 74
     0
 95
       17
 96
       13
 40
0.0
 40
0.0
 40
0.0
 40
0.0
 40
1.0
 40
1.0
 40
1.0
 40
2.0
 40
2.0
 40
2.0
 40
3.0
 40
3.0
 40
3.0
 40
4.0
 40
4.0
 40
4.0
 40
4.0
 10
3.033265133631402
 20
-5.125149457029338
 10
3.035482186045833
 20
-5.121418999988135
 10
3.039241226838207
 20
-5.122379828842869
 10
3.042482509537825
 20
-5.122372583613696
 10
3.077428115492643
 20
-5.122294836731295
 10
3.112373860779573
 20
-5.122300688647151
 10
3.147319327402328
 20
-5.122385959421408
 10
3.150561724758745
 20
-5.122393761975924
 10
3.154318675569584
 20
-5.121413705397596
 10
3.156537260637125
 20
-5.125149457029338
 10
3.115446551635234
 20
-5.125149457029338
 10
3.074355842633318
 20
-5.125149457029338
 10
3.033265133631402
 20
-5.125149457029338
 97
        0
 97
        1
330
79
 75
     2
 76
     1
 98
        1
 10
0.0
 20
0.0
450
        0
451
        0
460
0.0
461
0.0
452
        0
462
0.0
453
        0
470

  0
SPLINE
  5
7B
330
70
100
AcDbEntity
  8
Layer 1
100
AcDbSpline
210
0.0
220
0.0
230
1.0
 70
     9
 71
     3
 72
   155
 73
   151
 74
     0
 42
0.0000000001
 43
0.0000000001
 40
0.0
 40
0.0
 40
0.0
 40
0.0
 40
1.0
 40
1.0
 40
1.0
 40
2.0
 40
2.0
 40
2.0
 40
3.0
 40
3.0
 40
3.0
 40
4.0
 40
4.0
 40
4.0
 40
5.0
 40
5.0
 40
5.0
 40
6.0
 40
6.0
 40
6.0
 40
7.0
 40
7.0
 40
7.0
 40
8.0
 40
8.0
 40
8.0
 40
9.0
 40
9.0
 40
9.0
 40
10.0
 40
10.0
 40
10.0
 40
11.0
 40
11.0
 40
11.0
 40
12.0
 40
12.0
 40
12.0
 40
13.0
 40
13.0
 40
13.0
 40
14.0
 40
14.0
 40
14.0
 40
15.0
 40
15.0
 40
15.0
 40
16.0
 40
16.0
 40
16.0
 40
17.0
 40
17.0
 40
17.0
 40
18.0
 40
18.0
 40
18.0
 40
19.0
 40
19.0
 40
19.0
 40
20.0
 40
20.0
 40
20.0
 40
21.0
 40
21.0
 40
21.0
 40
22.0
 40
22.0
 40
22.0
 40
23.0
 40
23.0
 40
23.0
 40
24.0
 40
24.0
 40
24.0
 40
25.0
 40
25.0
 40
25.0
 40
26.0
 40
26.0
 40
26.0
 40
27.0
 40
27.0
 40
27.0
 40
28.0
 40
28.0
 40
28.0
 40
29.0
 40
29.0
 40
29.0
 40
30.0
 40
30.0
 40
30.0
 40
31.0
 40
31.0
 40
31.0
 40
32.0
 40
32.0
 40
32.0
 40
33.0
 40
33.0
 40
33.0
 40
34.0
 40
34.0
 40
34.0
 40
35.0
 40
35.0
 40
35.0
 40
36.0
 40
36.0
 40
36.0
 40
37.0
 40
37.0
 40
37.0
 40
38.0
 40
38.0
 40
38.0
 40
39.0
 40
39.0
 40
39.0
 40
40.0
 40
40.0
 40
40.0
 40
41.0
 40
41.0
 40
41.0
 40
42.0
 40
42.0
 40
42.0
 40
43.0
 40
43.0
 40
43.0
 40
44.0
 40
44.0
 40
44.0
 40
45.0
 40
45.0
 40
45.0
 40
46.0
 40
46.0
 40
46.0
 40
47.0
 40
47.0
 40
47.0
 40
48.0
 40
48.0
 40
48.0
 40
49.0
 40
49.0
 40
49.0
 40
50.0
 40
50.0
 40
50.0
 40
50.0
 10
2.059359789413065
 20
-2.116678227235272
 30
0.0
 10
2.061829500477566
 20
-2.16360807281535
 30
0.0
 10
2.063818436476998
 20
-2.208516736619142
 30
0.0
 10
2.070933642703443
 20
-2.253147150043256
 30
0.0
 10
2.080789496703257
 20
-2.314969033969608
 30
0.0
 10
2.093630600889633
 20
-2.375844978072475
 30
0.0
 10
2.11492466565677
 20
-2.434958344657755
 30
0.0
 10
2.140156125634954
 20
-2.505001781864987
 30
0.0
 10
2.173256802639318
 20
-2.570920230344275
 30
0.0
 10
2.2139111727937
 20
-2.633119152591764
 30
0.0
 10
2.241328100644762
 20
-2.675065432158274
 30
0.0
 10
2.271972024730138
 20
-2.714588829475486
 30
0.0
 10
2.305469109518917
 20
-2.751876888364664
 30
0.0
 10
2.319157091214454
 20
-2.76711391816813
 30
0.0
 10
2.331828485495242
 20
-2.783479415585436
 30
0.0
 10
2.346881531185065
 20
-2.797231142911628
 30
0.0
 10
2.38043003055116
 20
-2.827879648925835
 30
0.0
 10
2.414428581637316
 20
-2.857931107931133
 30
0.0
 10
2.45117593158837
 20
-2.885050557552795
 30
0.0
 10
2.481729148655252
 20
-2.907598731032408
 30
0.0
 10
2.51365342111703
 20
-2.927948628978798
 30
0.0
 10
2.54470225241558
 20
-2.949652576594442
 30
0.0
 10
2.577701075609638
 20
-2.97271963060176
 30
0.0
 10
2.616214774060797
 20
-2.98458505164865
 30
0.0
 10
2.65262326154027
 20
-3.000617261680809
 30
0.0
 10
2.695371068867479
 20
-3.019440892897743
 30
0.0
 10
2.740635403784848
 20
-3.031326935404927
 30
0.0
 10
2.784715531405355
 20
-3.046492765436722
 30
0.0
 10
2.828075436938838
 20
-3.061410998610931
 30
0.0
 10
2.873348967959461
 20
-3.065405291867591
 30
0.0
 10
2.918270121023434
 20
-3.071487089975511
 30
0.0
 10
2.941933088056455
 20
-3.074690661697609
 30
0.0
 10
2.965812442185842
 20
-3.075367825866426
 30
0.0
 10
2.989660027958532
 20
-3.076679378607397
 30
0.0
 10
3.042291556265126
 20
-3.079573767759383
 30
0.0
 10
3.094826943492206
 20
-3.081081363707248
 30
0.0
 10
3.14736901879438
 20
-3.075857585548192
 30
0.0
 10
3.208109977491075
 20
-3.069818841705303
 30
0.0
 10
3.267398787882307
 20
-3.055754727122651
 30
0.0
 10
3.326882109790934
 20
-3.042889025917752
 30
0.0
 10
3.361165600743207
 20
-3.035473799600847
 30
0.0
 10
3.392664065757141
 20
-3.020654075699768
 30
0.0
 10
3.424602689713411
 20
-3.006374829126015
 30
0.0
 10
3.488182875623679
 20
-2.977949121462655
 30
0.0
 10
3.549777539239534
 20
-2.94643381744552
 30
0.0
 10
3.607338457562491
 20
-2.906996946660973
 30
0.0
 10
3.658207678080998
 20
-2.872145146103434
 30
0.0
 10
3.705523858704206
 20
-2.833266448088491
 30
0.0
 10
3.749331865269191
 20
-2.789874994291759
 30
0.0
 10
3.775030793829677
 20
-2.764420727588104
 30
0.0
 10
3.798145060034963
 20
-2.736793683508191
 30
0.0
 10
3.820556799685239
 20
-2.708602196620088
 30
0.0
 10
3.844610183102026
 20
-2.678346195022249
 30
0.0
 10
3.86689401331609
 20
-2.64683730037791
 30
0.0
 10
3.886643899077752
 20
-2.613392635816428
 30
0.0
 10
3.898794180840518
 20
-2.5928171558146
 30
0.0
 10
3.910652416657436
 20
-2.572159886642604
 30
0.0
 10
3.921431085685753
 20
-2.550882858988542
 30
0.0
 10
3.938412387027028
 20
-2.517362535961284
 30
0.0
 10
3.956415849178938
 20
-2.484411950441476
 30
0.0
 10
3.971820436816061
 20
-2.45001981338041
 30
0.0
 10
3.987537970633765
 20
-2.414929472687693
 30
0.0
 10
3.98818086185247
 20
-2.376067494775687
 30
0.0
 10
4.00266472448455
 20
-2.340903028293281
 30
0.0
 10
4.006404473142993
 20
-2.331823037060947
 30
0.0
 10
4.009404910833432
 20
-2.32236893352548
 30
0.0
 10
4.011931609871149
 20
-2.312870243048855
 30
0.0
 10
4.026164948356886
 20
-2.259362012303704
 30
0.0
 10
4.025640491801368
 20
-2.204135233645363
 30
0.0
 10
4.029675630443256
 20
-2.149531696823866
 30
0.0
 10
4.032214033612389
 20
-2.115181847689819
 30
0.0
 10
4.026701387713627
 20
-2.080773756863866
 30
0.0
 10
4.024346627939873
 20
-2.046396598228334
 30
0.0
 10
4.022162971420685
 20
-2.014525643688393
 30
0.0
 10
4.016832575568312
 20
-1.983290819397982
 30
0.0
 10
4.012340418461437
 20
-1.951906628854695
 30
0.0
 10
4.007408799086761
 20
-1.917453881420492
 30
0.0
 10
3.997948238192141
 20
-1.883864100298966
 30
0.0
 10
3.988254709348337
 20
-1.850369623764145
 30
0.0
 10
3.979489986933609
 20
-1.820083665315223
 30
0.0
 10
3.968961006042263
 20
-1.790394544873922
 30
0.0
 10
3.956656062542833
 20
-1.761558219349341
 30
0.0
 10
3.948826555962543
 20
-1.743208881718967
 30
0.0
 10
3.94071782224695
 20
-1.724771624213985
 30
0.0
 10
3.931681675451196
 20
-1.706798349565423
 30
0.0
 10
3.918452662909203
 20
-1.680484878572251
 30
0.0
 10
3.906633998203283
 20
-1.653531584973481
 30
0.0
 10
3.890888597406021
 20
-1.62847414204609
 30
0.0
 10
3.853342579820441
 20
-1.568722520364872
 30
0.0
 10
3.811061126396351
 20
-1.512691330587687
 30
0.0
 10
3.763056631377771
 20
-1.460900498248659
 30
0.0
 10
3.729928087393823
 20
-1.425159292715685
 30
0.0
 10
3.691855105224552
 20
-1.394822442453447
 30
0.0
 10
3.656353966599908
 20
-1.361685323285289
 30
0.0
 10
3.642358333449919
 20
-1.348621697861921
 30
0.0
 10
3.627076639192712
 20
-1.336664751668245
 30
0.0
 10
3.60968652926115
 20
-1.327796008486416
 30
0.0
 10
3.598246019468029
 20
-1.321961476317382
 30
0.0
 10
3.587151617561175
 20
-1.315365744045518
 30
0.0
 10
3.576283774198221
 20
-1.308506391484077
 30
0.0
 10
3.538743051338769
 20
-1.28481188078063
 30
0.0
 10
3.49956597943891
 20
-1.264235477689794
 30
0.0
 10
3.459387368293265
 20
-1.245405541600727
 30
0.0
 10
3.400487720271737
 20
-1.217801888248156
 30
0.0
 10
3.337897648145624
 20
-1.200409689426856
 30
0.0
 10
3.27677937054553
 20
-1.178984279567619
 30
0.0
 10
3.250643209075582
 20
-1.169822142121258
 30
0.0
 10
3.222931727250447
 20
-1.167503455721758
 30
0.0
 10
3.195387168632957
 20
-1.164845690859806
 30
0.0
 10
3.158101149966796
 20
-1.161247986252988
 30
0.0
 10
3.121050467943101
 20
-1.155092410690864
 30
0.0
 10
3.083394515123144
 20
-1.156069648457004
 30
0.0
 10
3.046944505844117
 20
-1.157015596988862
 30
0.0
 10
3.010481817089372
 20
-1.158419676341104
 30
0.0
 10
2.97403403716871
 20
-1.158184950479405
 30
0.0
 10
2.948055045463547
 20
-1.158017627532659
 30
0.0
 10
2.922919865899769
 20
-1.163902772846603
 30
0.0
 10
2.897324323833484
 20
-1.16632045618889
 30
0.0
 10
2.863758546940074
 20
-1.16949095345736
 30
0.0
 10
2.831485101224264
 20
-1.1802086352301
 30
0.0
 10
2.798689428311301
 20
-1.187727082057462
 30
0.0
 10
2.74607949691387
 20
-1.199787997682872
 30
0.0
 10
2.695912524280541
 20
-1.219018415070763
 30
0.0
 10
2.646201316098098
 20
-1.240221386602254
 30
0.0
 10
2.596054268355171
 20
-1.261610160277604
 30
0.0
 10
2.54920708899816
 20
-1.288563697711197
 30
0.0
 10
2.502666167746636
 20
-1.316322116516554
 30
0.0
 10
2.487092984883095
 20
-1.325610534282014
 30
0.0
 10
2.47299382590399
 20
-1.337340679246103
 30
0.0
 10
2.457981466004336
 20
-1.347604662767429
 30
0.0
 10
2.42326478285463
 20
-1.371340764726925
 30
0.0
 10
2.386816027589677
 20
-1.392640538687689
 30
0.0
 10
2.358411354647728
 20
-1.424740628304928
 30
0.0
 10
2.344107094698971
 20
-1.440905937323148
 30
0.0
 10
2.326147244370089
 20
-1.453526131683297
 30
0.0
 10
2.311836714350925
 20
-1.469920958947833
 30
0.0
 10
2.282853244243281
 20
-1.50312569003222
 30
0.0
 10
2.258994929683454
 20
-1.540064786439756
 30
0.0
 10
2.233720972561425
 20
-1.575965459954456
 30
0.0
 10
2.198017937669811
 20
-1.626680075001306
 30
0.0
 10
2.166771877823331
 20
-1.679999368583316
 30
0.0
 10
2.141858101412266
 20
-1.736881089096603
 30
0.0
 10
2.127861074913274
 20
-1.768838500502144
 30
0.0
 10
2.115327482846471
 20
-1.801361121053938
 30
0.0
 10
2.105101067685798
 20
-1.834754719634373
 30
0.0
 10
2.093222628308707
 20
-1.873542502089612
 30
0.0
 10
2.085182726032649
 20
-1.91310916267317
 30
0.0
 10
2.077187410923897
 20
-1.952889492238808
 30
0.0
 10
2.066149718320464
 20
-2.007806112987736
 30
0.0
 10
2.063246745391097
 20
-2.063134048268819
 30
0.0
 10
2.059359789413065
 20
-2.116678227235272
 30
0.0
  0
SPLINE
  5
7C
330
70
100
AcDbEntity
  8
Layer 1
100
AcDbSpline
210
0.0
220
0.0
230
1.0
 70
     9
 71
     3
 72
   257
 73
   253
 74
     0
 42
0.0000000001
 43
0.0000000001
 40
0.0
 40
0.0
 40
0.0
 40
0.0
 40
1.0
 40
1.0
 40
1.0
 40
2.0
 40
2.0
 40
2.0
 40
3.0
 40
3.0
 40
3.0
 40
4.0
 40
4.0
 40
4.0
 40
5.0
 40
5.0
 40
5.0
 40
6.0
 40
6.0
 40
6.0
 40
7.0
 40
7.0
 40
7.0
 40
8.0
 40
8.0
 40
8.0
 40
9.0
 40
9.0
 40
9.0
 40
10.0
 40
10.0
 40
10.0
 40
11.0
 40
11.0
 40
11.0
 40
12.0
 40
12.0
 40
12.0
 40
13.0
 40
13.0
 40
13.0
 40
14.0
 40
14.0
 40
14.0
 40
15.0
 40
15.0
 40
15.0
 40
16.0
 40
16.0
 40
16.0
 40
17.0
 40
17.0
 40
17.0
 40
18.0
 40
18.0
 40
18.0
 40
19.0
 40
19.0
 40
19.0
 40
20.0
 40
20.0
 40
20.0
 40
21.0
 40
21.0
 40
21.0
 40
22.0
 40
22.0
 40
22.0
 40
23.0
 40
23.0
 40
23.0
 40
24.0
 40
24.0
 40
24.0
 40
25.0
 40
25.0
 40
25.0
 40
26.0
 40
26.0
 40
26.0
 40
27.0
 40
27.0
 40
27.0
 40
28.0
 40
28.0
 40
28.0
 40
29.0
 40
29.0
 40
29.0
 40
30.0
 40
30.0
 40
30.0
 40
31.0
 40
31.0
 40
31.0
 40
32.0
 40
32.0
 40
32.0
 40
33.0
 40
33.0
 40
33.0
 40
34.0
 40
34.0
 40
34.0
 40
35.0
 40
35.0
 40
35.0
 40
36.0
 40
36.0
 40
36.0
 40
37.0
 40
37.0
 40
37.0
 40
38.0
 40
38.0
 40
38.0
 40
39.0
 40
39.0
 40
39.0
 40
40.0
 40
40.0
 40
40.0
 40
41.0
 40
41.0
 40
41.0
 40
42.0
 40
42.0
 40
42.0
 40
43.0
 40
43.0
 40
43.0
 40
44.0
 40
44.0
 40
44.0
 40
45.0
 40
45.0
 40
45.0
 40
46.0
 40
46.0
 40
46.0
 40
47.0
 40
47.0
 40
47.0
 40
48.0
 40
48.0
 40
48.0
 40
49.0
 40
49.0
 40
49.0
 40
50.0
 40
50.0
 40
50.0
 40
51.0
 40
51.0
 40
51.0
 40
52.0
 40
52.0
 40
52.0
 40
53.0
 40
53.0
 40
53.0
 40
54.0
 40
54.0
 40
54.0
 40
55.0
 40
55.0
 40
55.0
 40
56.0
 40
56.0
 40
56.0
 40
57.0
 40
57.0
 40
57.0
 40
58.0
 40
58.0
 40
58.0
 40
59.0
 40
59.0
 40
59.0
 40
60.0
 40
60.0
 40
60.0
 40
61.0
 40
61.0
 40
61.0
 40
62.0
 40
62.0
 40
62.0
 40
63.0
 40
63.0
 40
63.0
 40
64.0
 40
64.0
 40
64.0
 40
65.0
 40
65.0
 40
65.0
 40
66.0
 40
66.0
 40
66.0
 40
67.0
 40
67.0
 40
67.0
 40
68.0
 40
68.0
 40
68.0
 40
69.0
 40
69.0
 40
69.0
 40
70.0
 40
70.0
 40
70.0
 40
71.0
 40
71.0
 40
71.0
 40
72.0
 40
72.0
 40
72.0
 40
73.0
 40
73.0
 40
73.0
 40
74.0
 40
74.0
 40
74.0
 40
75.0
 40
75.0
 40
75.0
 40
76.0
 40
76.0
 40
76.0
 40
77.0
 40
77.0
 40
77.0
 40
78.0
 40
78.0
 40
78.0
 40
79.0
 40
79.0
 40
79.0
 40
80.0
 40
80.0
 40
80.0
 40
81.0
 40
81.0
 40
81.0
 40
82.0
 40
82.0
 40
82.0
 40
83.0
 40
83.0
 40
83.0
 40
84.0
 40
84.0
 40
84.0
 40
84.0
 10
4.993483821899543
 20
-3.498418198284247
 30
0.0
 10
4.98501030942134
 20
-3.543999428228541
 30
0.0
 10
4.970732662438093
 20
-3.587876879683865
 30
0.0
 10
4.954859352204569
 20
-3.631323788488669
 30
0.0
 10
4.899149079994938
 20
-3.783809733901989
 30
0.0
 10
4.814809387653162
 20
-3.918679936201113
 30
0.0
 10
4.702008313065966
 20
-4.035036804526927
 30
0.0
 10
4.627001272182547
 20
-4.112407966179008
 30
0.0
 10
4.540554557515355
 20
-4.175373087143472
 30
0.0
 10
4.445569678977386
 20
-4.226797435726313
 30
0.0
 10
4.388606507366249
 20
-4.257637108250744
 30
0.0
 10
4.329107440614153
 20
-4.282419366150634
 30
0.0
 10
4.269295985021067
 20
-4.306736526520631
 30
0.0
 10
4.267918241551064
 20
-4.307296092632163
 30
0.0
 10
4.266672587564244
 20
-4.308180307408949
 30
0.0
 10
4.265365068882752
 20
-4.308912926585839
 30
0.0
 10
4.259006381484242
 20
-4.300541449715334
 30
0.0
 10
4.265640673310725
 20
-4.292112845826472
 30
0.0
 10
4.265478487489644
 20
-4.283679225906704
 30
0.0
 10
4.264467194800974
 20
-4.230944299922258
 30
0.0
 10
4.266435996907678
 20
-4.178195997855431
 30
0.0
 10
4.261171088457305
 20
-4.125496462755513
 30
0.0
 10
4.258105442034699
 20
-4.094808664499421
 30
0.0
 10
4.253483424803031
 20
-4.066225091197489
 30
0.0
 10
4.236282252992952
 20
-4.038777648889966
 30
0.0
 10
4.211283342959303
 20
-3.998886827310773
 30
0.0
 10
4.176912767695865
 20
-3.969174089724093
 30
0.0
 10
4.142160972151891
 20
-3.93932090327275
 30
0.0
 10
4.123745357372095
 20
-3.923501177882043
 30
0.0
 10
4.10192997108465
 20
-3.912265268710598
 30
0.0
 10
4.082362892708993
 20
-3.898078261371362
 30
0.0
 10
4.047863014660353
 20
-3.873064987382576
 30
0.0
 10
4.011439479011894
 20
-3.851269775871767
 30
0.0
 10
3.974451915696944
 20
-3.830460771765653
 30
0.0
 10
3.931127679897321
 20
-3.806086484377273
 30
0.0
 10
3.886164587029093
 20
-3.785048414860966
 30
0.0
 10
3.840165399860426
 20
-3.765893864940153
 30
0.0
 10
3.744758893921571
 20
-3.726165785696189
 30
0.0
 10
3.647182386283475
 20
-3.69296523463754
 30
0.0
 10
3.547044067213416
 20
-3.667983171507532
 30
0.0
 10
3.493170507627332
 20
-3.654543274101064
 30
0.0
 10
3.437751724024034
 20
-3.647593005979918
 30
0.0
 10
3.383134952092809
 20
-3.637258310356603
 30
0.0
 10
3.331605144823545
 20
-3.627507703662457
 30
0.0
 10
3.279384654465628
 20
-3.625771878309528
 30
0.0
 10
3.227543015694966
 20
-3.620189871945133
 30
0.0
 10
3.188047563553507
 20
-3.615937392432341
 30
0.0
 10
3.147881771218483
 20
-3.617378386636851
 30
0.0
 10
3.108011090197098
 20
-3.617251871191304
 30
0.0
 10
3.02446588544285
 20
-3.616986578891429
 30
0.0
 10
2.940852267253792
 20
-3.614824112245337
 30
0.0
 10
2.857459912882505
 20
-3.621838474094399
 30
0.0
 10
2.812244066509593
 20
-3.62564146150665
 30
0.0
 10
2.767166161685546
 20
-3.631063233551281
 30
0.0
 10
2.721965502816475
 20
-3.635073828908313
 30
0.0
 10
2.667145998608866
 20
-3.639938264188483
 30
0.0
 10
2.613609350805808
 20
-3.652359907326298
 30
0.0
 10
2.559953432330176
 20
-3.663369816439752
 30
0.0
 10
2.518559820875225
 20
-3.671863628730079
 30
0.0
 10
2.478211081819293
 20
-3.685498872672471
 30
0.0
 10
2.437466770988344
 20
-3.697090084031262
 30
0.0
 10
2.402502629060045
 20
-3.707037151934905
 30
0.0
 10
2.367026710051934
 20
-3.715620974112677
 30
0.0
 10
2.332855662362236
 20
-3.727827206591023
 30
0.0
 10
2.26599218891887
 20
-3.751712152300165
 30
0.0
 10
2.201524300374343
 20
-3.781446347352306
 30
0.0
 10
2.138080592996491
 20
-3.813303716808604
 30
0.0
 10
2.073899734341542
 20
-3.845531715213306
 30
0.0
 10
2.011588819683272
 20
-3.88092092774597
 30
0.0
 10
1.954972800970153
 20
-3.925449905878975
 30
0.0
 10
1.924165576384476
 20
-3.94967984304531
 30
0.0
 10
1.888402975824015
 20
-3.968256156073013
 30
0.0
 10
1.865804597078055
 20
-4.002027141310084
 30
0.0
 10
1.849069918506011
 20
-4.027034841931254
 30
0.0
 10
1.834369529442647
 20
-4.05310510509384
 30
0.0
 10
1.827174832656977
 20
-4.082648969640887
 30
0.0
 10
1.818609916485785
 20
-4.117819427493511
 30
0.0
 10
1.818421814373689
 20
-4.154034613111106
 30
0.0
 10
1.816355686840829
 20
-4.189794733260517
 30
0.0
 10
1.814369467871907
 20
-4.224172379565717
 30
0.0
 10
1.813744063182879
 20
-4.258899754690623
 30
0.0
 10
1.817695182881367
 20
-4.293399179078834
 30
0.0
 10
1.818224934163014
 20
-4.298024238218658
 30
0.0
 10
1.819623368865348
 20
-4.30337745784128
 30
0.0
 10
1.81517698327242
 20
-4.307359629023317
 30
0.0
 10
1.758375440142811
 20
-4.284618338354801
 30
0.0
 10
1.701010984025856
 20
-4.26270079142417
 30
0.0
 10
1.647300446270264
 20
-4.233466806118157
 30
0.0
 10
1.585505906743441
 20
-4.199833204393522
 30
0.0
 10
1.526249665884582
 20
-4.161428242628391
 30
0.0
 10
1.471613839906063
 20
-4.116971439606382
 30
0.0
 10
1.416414021094738
 20
-4.072055669758886
 30
0.0
 10
1.365847610142989
 20
-4.022105755586405
 30
0.0
 10
1.320542293348782
 20
-3.966881484943491
 30
0.0
 10
1.257962584255677
 20
-3.890600474002667
 30
0.0
 10
1.205143964014988
 20
-3.808481639122545
 30
0.0
 10
1.164756176353926
 20
-3.718276405126946
 30
0.0
 10
1.14345981256099
 20
-3.670711334969559
 30
0.0
 10
1.123070954374636
 20
-3.623078827063712
 30
0.0
 10
1.108690417277734
 20
-3.572749366554615
 30
0.0
 10
1.102535759711801
 20
-3.551209136613553
 30
0.0
 10
1.097752331709405
 20
-3.529527343134279
 30
0.0
 10
1.092719254757993
 20
-3.50781378145944
 30
0.0
 10
1.097617882241416
 20
-3.508194721137947
 30
0.0
 10
1.101278040193682
 20
-3.506191095469754
 30
0.0
 10
1.10479602429954
 20
-3.502743688913192
 30
0.0
 10
1.128324977286107
 20
-3.479688896314705
 30
0.0
 10
1.154615330237422
 20
-3.459570711128132
 30
0.0
 10
1.175973001385411
 20
-3.434163678715246
 30
0.0
 10
1.196917527144415
 20
-3.409247938660225
 30
0.0
 10
1.219193084348906
 20
-3.385519743916094
 30
0.0
 10
1.239589884624441
 20
-3.360048478441083
 30
0.0
 10
1.259893661438771
 20
-3.33469341768149
 30
0.0
 10
1.272608615292003
 20
-3.304830338502597
 30
0.0
 10
1.29173598756376
 20
-3.278937308431093
 30
0.0
 10
1.296679572322811
 20
-3.272245226566079
 30
0.0
 10
1.301363245246786
 20
-3.265332439342374
 30
0.0
 10
1.305751737189641
 20
-3.258263597824578
 30
0.0
 10
1.336041611299568
 20
-3.209474337464093
 30
0.0
 10
1.35933875455828
 20
-3.157062109466222
 30
0.0
 10
1.384181052166758
 20
-3.105483378599627
 30
0.0
 10
1.401318791764575
 20
-3.069901048878086
 30
0.0
 10
1.415132836708949
 20
-3.032709548583347
 30
0.0
 10
1.426395346170074
 20
-2.995013519182571
 30
0.0
 10
1.442306172324833
 20
-2.941759712670407
 30
0.0
 10
1.457473437797173
 20
-2.888148235289652
 30
0.0
 10
1.468706652096013
 20
-2.833632618342739
 30
0.0
 10
1.483281570083868
 20
-2.762898780218556
 30
0.0
 10
1.49511758198456
 20
-2.691776617703718
 30
0.0
 10
1.501198470430495
 20
-2.61965152768126
 30
0.0
 10
1.504921115730225
 20
-2.575498055193318
 30
0.0
 10
1.507895776464541
 20
-2.531299438427456
 30
0.0
 10
1.509401533871949
 20
-2.48710096099579
 30
0.0
 10
1.511285794529372
 20
-2.431793229172411
 30
0.0
 10
1.508705590890877
 20
-2.376523117580619
 30
0.0
 10
1.503557131581399
 20
-2.321256489343618
 30
0.0
 10
1.499451698483527
 20
-2.277186199367785
 30
0.0
 10
1.495832091340755
 20
-2.23313903886766
 30
0.0
 10
1.489582154829993
 20
-2.189283462880325
 30
0.0
 10
1.481626445665963
 20
-2.133458383205341
 30
0.0
 10
1.472023902510449
 20
-2.077979479328178
 30
0.0
 10
1.4582864917599
 20
-2.023286768624365
 30
0.0
 10
1.452309094309334
 20
-1.999488976451756
 30
0.0
 10
1.445161318550516
 20
-1.975985109755293
 30
0.0
 10
1.438545070593287
 20
-1.95234776090375
 30
0.0
 10
1.458750790473269
 20
-1.918397452562721
 30
0.0
 10
1.483918121564708
 20
-1.887971323917529
 30
0.0
 10
1.507421480472253
 20
-1.856409203612176
 30
0.0
 10
1.565121280854605
 20
-1.778925459933652
 30
0.0
 10
1.628973309150625
 20
-1.706549498700092
 30
0.0
 10
1.69456723267217
 20
-1.635741465119129
 30
0.0
 10
1.715922813796699
 20
-1.612688344530927
 30
0.0
 10
1.740465193037544
 20
-1.592516062844651
 30
0.0
 10
1.761102363428739
 20
-1.568888397719395
 30
0.0
 10
1.782237098740172
 20
-1.54469113442086
 30
0.0
 10
1.807191351939069
 20
-1.52479330625753
 30
0.0
 10
1.830004654764984
 20
-1.50255940104599
 30
0.0
 10
1.850575850082021
 20
-1.482510708787231
 30
0.0
 10
1.874357600115482
 20
-1.465755981307046
 30
0.0
 10
1.896725797610176
 20
-1.447551342234141
 30
0.0
 10
2.062711629715876
 20
-1.312461340248521
 30
0.0
 10
2.249335119884929
 20
-1.215292444632634
 30
0.0
 10
2.451207142605489
 20
-1.146321602028605
 30
0.0
 10
2.526083208684932
 20
-1.120739722622652
 30
0.0
 10
2.602918880767826
 20
-1.103074228493874
 30
0.0
 10
2.680926777346371
 20
-1.089772559313372
 30
0.0
 10
2.778924633715582
 20
-1.073062257669183
 30
0.0
 10
2.877629893361194
 20
-1.063394186889392
 30
0.0
 10
2.976785483396674
 20
-1.05883198325369
 30
0.0
 10
3.044768930748988
 20
-1.05570402808827
 30
0.0
 10
3.113251893710134
 20
-1.054187554756329
 30
0.0
 10
3.180806468246878
 20
-1.060962309964944
 30
0.0
 10
3.231918688827236
 20
-1.066088136187646
 30
0.0
 10
3.283695118865681
 20
-1.069997967887881
 30
0.0
 10
3.334093666099255
 20
-1.082449885732911
 30
0.0
 10
3.358343372387151
 20
-1.088441249419537
 30
0.0
 10
3.383928882340771
 20
-1.086734122555804
 30
0.0
 10
3.408379370216481
 20
-1.092555842510541
 30
0.0
 10
3.436468449614797
 20
-1.099243892392413
 30
0.0
 10
3.465678896271052
 20
-1.101798149367141
 30
0.0
 10
3.493105577564922
 20
-1.109972407398509
 30
0.0
 10
3.540967672317947
 20
-1.124237206758316
 30
0.0
 10
3.588850667305627
 20
-1.1386697862552
 30
0.0
 10
3.636137587600261
 20
-1.154983216226949
 30
0.0
 10
3.701894741954649
 20
-1.177668686135133
 30
0.0
 10
3.765897391275226
 20
-1.204566672768414
 30
0.0
 10
3.829441071442285
 20
-1.232616805119631
 30
0.0
 10
3.887132685899409
 20
-1.258083577066953
 30
0.0
 10
3.939870108728377
 20
-1.292724390825608
 30
0.0
 10
3.994477963226169
 20
-1.323856717401693
 30
0.0
 10
4.032083616148004
 20
-1.345296260972923
 30
0.0
 10
4.069001233344225
 20
-1.367992111278327
 30
0.0
 10
4.105612313765176
 20
-1.391099432866869
 30
0.0
 10
4.11770128817294
 20
-1.398729338338739
 30
0.0
 10
4.1275664776109
 20
-1.409795817133777
 30
0.0
 10
4.138989431206886
 20
-1.418587769759521
 30
0.0
 10
4.156448093908212
 20
-1.432025159150561
 30
0.0
 10
4.174890739658167
 20
-1.444216448036917
 30
0.0
 10
4.192009425208703
 20
-1.458057558246713
 30
0.0
 10
4.24225693341302
 20
-1.498684482357551
 30
0.0
 10
4.291773212073343
 20
-1.540143405757084
 30
0.0
 10
4.338999939692105
 20
-1.584357105449132
 30
0.0
 10
4.444678492970701
 20
-1.683293507529621
 30
0.0
 10
4.53377340670651
 20
-1.796066003789026
 30
0.0
 10
4.61692234301126
 20
-1.913948790508824
 30
0.0
 10
4.627408966093677
 20
-1.928816445371643
 30
0.0
 10
4.63735023238587
 20
-1.943971477003653
 30
0.0
 10
4.646742797850316
 20
-1.959520685062304
 30
0.0
 10
4.643905939329973
 20
-1.968919403256816
 30
0.0
 10
4.640957055551754
 20
-1.97828593525316
 30
0.0
 10
4.638256466561515
 20
-1.987723388352795
 30
0.0
 10
4.632535375655581
 20
-2.007715824431897
 30
0.0
 10
4.625445458713076
 20
-2.027460384984995
 30
0.0
 10
4.62157529259025
 20
-2.04781209427588
 30
0.0
 10
4.609359244755649
 20
-2.11205177475353
 30
0.0
 10
4.597212864369971
 20
-2.176263658060052
 30
0.0
 10
4.590989889161972
 20
-2.241562626725655
 30
0.0
 10
4.586029566798313
 20
-2.293610635147918
 30
0.0
 10
4.582240214916206
 20
-2.345683584390397
 30
0.0
 10
4.580560393387687
 20
-2.397865771638723
 30
0.0
 10
4.579153946928727
 20
-2.441558883959209
 30
0.0
 10
4.580224038944252
 20
-2.485332392107983
 30
0.0
 10
4.580241037801796
 20
-2.529070230703837
 30
0.0
 10
4.580242709820569
 20
-2.533246076411513
 30
0.0
 10
4.580337736220902
 20
-2.537443379584639
 30
0.0
 10
4.580752954216525
 20
-2.541594423806309
 30
0.0
 10
4.583497294364684
 20
-2.569045906805399
 30
0.0
 10
4.58534626845921
 20
-2.596549361457782
 30
0.0
 10
4.588796200530118
 20
-2.623980780333365
 30
0.0
 10
4.592565488186917
 20
-2.653953933523237
 30
0.0
 10
4.595158231966201
 20
-2.684184018961534
 30
0.0
 10
4.599681321420399
 20
-2.71403079604008
 30
0.0
 10
4.606825021633438
 20
-2.761173683598372
 30
0.0
 10
4.619174273630404
 20
-2.807334822446073
 30
0.0
 10
4.629928698386493
 20
-2.853777277025629
 30
0.0
 10
4.644058650378029
 20
-2.914794645332487
 30
0.0
 10
4.665434574397648
 20
-2.973570962509458
 30
0.0
 10
4.684731343071462
 20
-3.033023886518498
 30
0.0
 10
4.702054014912492
 20
-3.086395151753777
 30
0.0
 10
4.726336464901375
 20
-3.136468376685393
 30
0.0
 10
4.751635223635199
 20
-3.186215420275604
 30
0.0
 10
4.777273402180222
 20
-3.236630292643818
 30
0.0
 10
4.803205577359752
 20
-3.286892176070194
 30
0.0
 10
4.838234649350422
 20
-3.331705535287255
 30
0.0
 10
4.872330734865095
 20
-3.375326054494179
 30
0.0
 10
4.906215310004805
 20
-3.419109455370517
 30
0.0
 10
4.946511798474046
 20
-3.457440570014366
 30
0.0
 10
4.958034794526686
 20
-3.468401154824176
 30
0.0
 10
4.970073887041002
 20
-3.478983307970894
 30
0.0
 10
4.979562314915179
 20
-3.491994056068733
 30
0.0
 10
4.982824980883378
 20
-3.496468634282185
 30
0.0
 10
4.987723159882585
 20
-3.498701046692202
 30
0.0
 10
4.993483821899543
 20
-3.498418198284247
 30
0.0
  0
HATCH
  5
7D
330
70
100
AcDbEntity
  8
Layer 1
 62
    18
420
        0
440
 33554687
100
AcDbHatch
 10
0.0
 20
0.0
 30
0.0
210
0.0
220
0.0
230
1.0
  2
SOLID
 70
     1
 71
     1
 91
        2
 92
        1
 93
        1
 72
     4
 94
        3
 73
     0
 74
     0
 95
      155
 96
      151
 40
0.0
 40
0.0
 40
0.0
 40
0.0
 40
1.0
 40
1.0
 40
1.0
 40
2.0
 40
2.0
 40
2.0
 40
3.0
 40
3.0
 40
3.0
 40
4.0
 40
4.0
 40
4.0
 40
5.0
 40
5.0
 40
5.0
 40
6.0
 40
6.0
 40
6.0
 40
7.0
 40
7.0
 40
7.0
 40
8.0
 40
8.0
 40
8.0
 40
9.0
 40
9.0
 40
9.0
 40
10.0
 40
10.0
 40
10.0
 40
11.0
 40
11.0
 40
11.0
 40
12.0
 40
12.0
 40
12.0
 40
13.0
 40
13.0
 40
13.0
 40
14.0
 40
14.0
 40
14.0
 40
15.0
 40
15.0
 40
15.0
 40
16.0
 40
16.0
 40
16.0
 40
17.0
 40
17.0
 40
17.0
 40
18.0
 40
18.0
 40
18.0
 40
19.0
 40
19.0
 40
19.0
 40
20.0
 40
20.0
 40
20.0
 40
21.0
 40
21.0
 40
21.0
 40
22.0
 40
22.0
 40
22.0
 40
23.0
 40
23.0
 40
23.0
 40
24.0
 40
24.0
 40
24.0
 40
25.0
 40
25.0
 40
25.0
 40
26.0
 40
26.0
 40
26.0
 40
27.0
 40
27.0
 40
27.0
 40
28.0
 40
28.0
 40
28.0
 40
29.0
 40
29.0
 40
29.0
 40
30.0
 40
30.0
 40
30.0
 40
31.0
 40
31.0
 40
31.0
 40
32.0
 40
32.0
 40
32.0
 40
33.0
 40
33.0
 40
33.0
 40
34.0
 40
34.0
 40
34.0
 40
35.0
 40
35.0
 40
35.0
 40
36.0
 40
36.0
 40
36.0
 40
37.0
 40
37.0
 40
37.0
 40
38.0
 40
38.0
 40
38.0
 40
39.0
 40
39.0
 40
39.0
 40
40.0
 40
40.0
 40
40.0
 40
41.0
 40
41.0
 40
41.0
 40
42.0
 40
42.0
 40
42.0
 40
43.0
 40
43.0
 40
43.0
 40
44.0
 40
44.0
 40
44.0
 40
45.0
 40
45.0
 40
45.0
 40
46.0
 40
46.0
 40
46.0
 40
47.0
 40
47.0
 40
47.0
 40
48.0
 40
48.0
 40
48.0
 40
49.0
 40
49.0
 40
49.0
 40
50.0
 40
50.0
 40
50.0
 40
50.0
 10
2.059359789413065
 20
-2.116678227235272
 10
2.061829500477566
 20
-2.16360807281535
 10
2.063818436476998
 20
-2.208516736619142
 10
2.070933642703443
 20
-2.253147150043256
 10
2.080789496703257
 20
-2.314969033969608
 10
2.093630600889633
 20
-2.375844978072475
 10
2.11492466565677
 20
-2.434958344657755
 10
2.140156125634954
 20
-2.505001781864987
 10
2.173256802639318
 20
-2.570920230344275
 10
2.2139111727937
 20
-2.633119152591764
 10
2.241328100644762
 20
-2.675065432158274
 10
2.271972024730138
 20
-2.714588829475486
 10
2.305469109518917
 20
-2.751876888364664
 10
2.319157091214454
 20
-2.76711391816813
 10
2.331828485495242
 20
-2.783479415585436
 10
2.346881531185065
 20
-2.797231142911628
 10
2.38043003055116
 20
-2.827879648925835
 10
2.414428581637316
 20
-2.857931107931133
 10
2.45117593158837
 20
-2.885050557552795
 10
2.481729148655252
 20
-2.907598731032408
 10
2.51365342111703
 20
-2.927948628978798
 10
2.54470225241558
 20
-2.949652576594442
 10
2.577701075609638
 20
-2.97271963060176
 10
2.616214774060797
 20
-2.98458505164865
 10
2.65262326154027
 20
-3.000617261680809
 10
2.695371068867479
 20
-3.019440892897743
 10
2.740635403784848
 20
-3.031326935404927
 10
2.784715531405355
 20
-3.046492765436722
 10
2.828075436938838
 20
-3.061410998610931
 10
2.873348967959461
 20
-3.065405291867591
 10
2.918270121023434
 20
-3.071487089975511
 10
2.941933088056455
 20
-3.074690661697609
 10
2.965812442185842
 20
-3.075367825866426
 10
2.989660027958532
 20
-3.076679378607397
 10
3.042291556265126
 20
-3.079573767759383
 10
3.094826943492206
 20
-3.081081363707248
 10
3.14736901879438
 20
-3.075857585548192
 10
3.208109977491075
 20
-3.069818841705303
 10
3.267398787882307
 20
-3.055754727122651
 10
3.326882109790934
 20
-3.042889025917752
 10
3.361165600743207
 20
-3.035473799600847
 10
3.392664065757141
 20
-3.020654075699768
 10
3.424602689713411
 20
-3.006374829126015
 10
3.488182875623679
 20
-2.977949121462655
 10
3.549777539239534
 20
-2.94643381744552
 10
3.607338457562491
 20
-2.906996946660973
 10
3.658207678080998
 20
-2.872145146103434
 10
3.705523858704206
 20
-2.833266448088491
 10
3.749331865269191
 20
-2.789874994291759
 10
3.775030793829677
 20
-2.764420727588104
 10
3.798145060034963
 20
-2.736793683508191
 10
3.820556799685239
 20
-2.708602196620088
 10
3.844610183102026
 20
-2.678346195022249
 10
3.86689401331609
 20
-2.64683730037791
 10
3.886643899077752
 20
-2.613392635816428
 10
3.898794180840518
 20
-2.5928171558146
 10
3.910652416657436
 20
-2.572159886642604
 10
3.921431085685753
 20
-2.550882858988542
 10
3.938412387027028
 20
-2.517362535961284
 10
3.956415849178938
 20
-2.484411950441476
 10
3.971820436816061
 20
-2.45001981338041
 10
3.987537970633765
 20
-2.414929472687693
 10
3.98818086185247
 20
-2.376067494775687
 10
4.00266472448455
 20
-2.340903028293281
 10
4.006404473142993
 20
-2.331823037060947
 10
4.009404910833432
 20
-2.32236893352548
 10
4.011931609871149
 20
-2.312870243048855
 10
4.026164948356886
 20
-2.259362012303704
 10
4.025640491801368
 20
-2.204135233645363
 10
4.029675630443256
 20
-2.149531696823866
 10
4.032214033612389
 20
-2.115181847689819
 10
4.026701387713627
 20
-2.080773756863866
 10
4.024346627939873
 20
-2.046396598228334
 10
4.022162971420685
 20
-2.014525643688393
 10
4.016832575568312
 20
-1.983290819397982
 10
4.012340418461437
 20
-1.951906628854695
 10
4.007408799086761
 20
-1.917453881420492
 10
3.997948238192141
 20
-1.883864100298966
 10
3.988254709348337
 20
-1.850369623764145
 10
3.979489986933609
 20
-1.820083665315223
 10
3.968961006042263
 20
-1.790394544873922
 10
3.956656062542833
 20
-1.761558219349341
 10
3.948826555962543
 20
-1.743208881718967
 10
3.94071782224695
 20
-1.724771624213985
 10
3.931681675451196
 20
-1.706798349565423
 10
3.918452662909203
 20
-1.680484878572251
 10
3.906633998203283
 20
-1.653531584973481
 10
3.890888597406021
 20
-1.62847414204609
 10
3.853342579820441
 20
-1.568722520364872
 10
3.811061126396351
 20
-1.512691330587687
 10
3.763056631377771
 20
-1.460900498248659
 10
3.729928087393823
 20
-1.425159292715685
 10
3.691855105224552
 20
-1.394822442453447
 10
3.656353966599908
 20
-1.361685323285289
 10
3.642358333449919
 20
-1.348621697861921
 10
3.627076639192712
 20
-1.336664751668245
 10
3.60968652926115
 20
-1.327796008486416
 10
3.598246019468029
 20
-1.321961476317382
 10
3.587151617561175
 20
-1.315365744045518
 10
3.576283774198221
 20
-1.308506391484077
 10
3.538743051338769
 20
-1.28481188078063
 10
3.49956597943891
 20
-1.264235477689794
 10
3.459387368293265
 20
-1.245405541600727
 10
3.400487720271737
 20
-1.217801888248156
 10
3.337897648145624
 20
-1.200409689426856
 10
3.27677937054553
 20
-1.178984279567619
 10
3.250643209075582
 20
-1.169822142121258
 10
3.222931727250447
 20
-1.167503455721758
 10
3.195387168632957
 20
-1.164845690859806
 10
3.158101149966796
 20
-1.161247986252988
 10
3.121050467943101
 20
-1.155092410690864
 10
3.083394515123144
 20
-1.156069648457004
 10
3.046944505844117
 20
-1.157015596988862
 10
3.010481817089372
 20
-1.158419676341104
 10
2.97403403716871
 20
-1.158184950479405
 10
2.948055045463547
 20
-1.158017627532659
 10
2.922919865899769
 20
-1.163902772846603
 10
2.897324323833484
 20
-1.16632045618889
 10
2.863758546940074
 20
-1.16949095345736
 10
2.831485101224264
 20
-1.1802086352301
 10
2.798689428311301
 20
-1.187727082057462
 10
2.74607949691387
 20
-1.199787997682872
 10
2.695912524280541
 20
-1.219018415070763
 10
2.646201316098098
 20
-1.240221386602254
 10
2.596054268355171
 20
-1.261610160277604
 10
2.54920708899816
 20
-1.288563697711197
 10
2.502666167746636
 20
-1.316322116516554
 10
2.487092984883095
 20
-1.325610534282014
 10
2.47299382590399
 20
-1.337340679246103
 10
2.457981466004336
 20
-1.347604662767429
 10
2.42326478285463
 20
-1.371340764726925
 10
2.386816027589677
 20
-1.392640538687689
 10
2.358411354647728
 20
-1.424740628304928
 10
2.344107094698971
 20
-1.440905937323148
 10
2.326147244370089
 20
-1.453526131683297
 10
2.311836714350925
 20
-1.469920958947833
 10
2.282853244243281
 20
-1.50312569003222
 10
2.258994929683454
 20
-1.540064786439756
 10
2.233720972561425
 20
-1.575965459954456
 10
2.198017937669811
 20
-1.626680075001306
 10
2.166771877823331
 20
-1.679999368583316
 10
2.141858101412266
 20
-1.736881089096603
 10
2.127861074913274
 20
-1.768838500502144
 10
2.115327482846471
 20
-1.801361121053938
 10
2.105101067685798
 20
-1.834754719634373
 10
2.093222628308707
 20
-1.873542502089612
 10
2.085182726032649
 20
-1.91310916267317
 10
2.077187410923897
 20
-1.952889492238808
 10
2.066149718320464
 20
-2.007806112987736
 10
2.063246745391097
 20
-2.063134048268819
 10
2.059359789413065
 20
-2.116678227235272
 97
        0
 97
        1
330
7B
 92
        1
 93
        1
 72
     4
 94
        3
 73
     0
 74
     0
 95
      257
 96
      253
 40
0.0
 40
0.0
 40
0.0
 40
0.0
 40
1.0
 40
1.0
 40
1.0
 40
2.0
 40
2.0
 40
2.0
 40
3.0
 40
3.0
 40
3.0
 40
4.0
 40
4.0
 40
4.0
 40
5.0
 40
5.0
 40
5.0
 40
6.0
 40
6.0
 40
6.0
 40
7.0
 40
7.0
 40
7.0
 40
8.0
 40
8.0
 40
8.0
 40
9.0
 40
9.0
 40
9.0
 40
10.0
 40
10.0
 40
10.0
 40
11.0
 40
11.0
 40
11.0
 40
12.0
 40
12.0
 40
12.0
 40
13.0
 40
13.0
 40
13.0
 40
14.0
 40
14.0
 40
14.0
 40
15.0
 40
15.0
 40
15.0
 40
16.0
 40
16.0
 40
16.0
 40
17.0
 40
17.0
 40
17.0
 40
18.0
 40
18.0
 40
18.0
 40
19.0
 40
19.0
 40
19.0
 40
20.0
 40
20.0
 40
20.0
 40
21.0
 40
21.0
 40
21.0
 40
22.0
 40
22.0
 40
22.0
 40
23.0
 40
23.0
 40
23.0
 40
24.0
 40
24.0
 40
24.0
 40
25.0
 40
25.0
 40
25.0
 40
26.0
 40
26.0
 40
26.0
 40
27.0
 40
27.0
 40
27.0
 40
28.0
 40
28.0
 40
28.0
 40
29.0
 40
29.0
 40
29.0
 40
30.0
 40
30.0
 40
30.0
 40
31.0
 40
31.0
 40
31.0
 40
32.0
 40
32.0
 40
32.0
 40
33.0
 40
33.0
 40
33.0
 40
34.0
 40
34.0
 40
34.0
 40
35.0
 40
35.0
 40
35.0
 40
36.0
 40
36.0
 40
36.0
 40
37.0
 40
37.0
 40
37.0
 40
38.0
 40
38.0
 40
38.0
 40
39.0
 40
39.0
 40
39.0
 40
40.0
 40
40.0
 40
40.0
 40
41.0
 40
41.0
 40
41.0
 40
42.0
 40
42.0
 40
42.0
 40
43.0
 40
43.0
 40
43.0
 40
44.0
 40
44.0
 40
44.0
 40
45.0
 40
45.0
 40
45.0
 40
46.0
 40
46.0
 40
46.0
 40
47.0
 40
47.0
 40
47.0
 40
48.0
 40
48.0
 40
48.0
 40
49.0
 40
49.0
 40
49.0
 40
50.0
 40
50.0
 40
50.0
 40
51.0
 40
51.0
 40
51.0
 40
52.0
 40
52.0
 40
52.0
 40
53.0
 40
53.0
 40
53.0
 40
54.0
 40
54.0
 40
54.0
 40
55.0
 40
55.0
 40
55.0
 40
56.0
 40
56.0
 40
56.0
 40
57.0
 40
57.0
 40
57.0
 40
58.0
 40
58.0
 40
58.0
 40
59.0
 40
59.0
 40
59.0
 40
60.0
 40
60.0
 40
60.0
 40
61.0
 40
61.0
 40
61.0
 40
62.0
 40
62.0
 40
62.0
 40
63.0
 40
63.0
 40
63.0
 40
64.0
 40
64.0
 40
64.0
 40
65.0
 40
65.0
 40
65.0
 40
66.0
 40
66.0
 40
66.0
 40
67.0
 40
67.0
 40
67.0
 40
68.0
 40
68.0
 40
68.0
 40
69.0
 40
69.0
 40
69.0
 40
70.0
 40
70.0
 40
70.0
 40
71.0
 40
71.0
 40
71.0
 40
72.0
 40
72.0
 40
72.0
 40
73.0
 40
73.0
 40
73.0
 40
74.0
 40
74.0
 40
74.0
 40
75.0
 40
75.0
 40
75.0
 40
76.0
 40
76.0
 40
76.0
 40
77.0
 40
77.0
 40
77.0
 40
78.0
 40
78.0
 40
78.0
 40
79.0
 40
79.0
 40
79.0
 40
80.0
 40
80.0
 40
80.0
 40
81.0
 40
81.0
 40
81.0
 40
82.0
 40
82.0
 40
82.0
 40
83.0
 40
83.0
 40
83.0
 40
84.0
 40
84.0
 40
84.0
 40
84.0
 10
4.993483821899543
 20
-3.498418198284247
 10
4.98501030942134
 20
-3.543999428228541
 10
4.970732662438093
 20
-3.587876879683865
 10
4.954859352204569
 20
-3.631323788488669
 10
4.899149079994938
 20
-3.783809733901989
 10
4.814809387653162
 20
-3.918679936201113
 10
4.702008313065966
 20
-4.035036804526927
 10
4.627001272182547
 20
-4.112407966179008
 10
4.540554557515355
 20
-4.175373087143472
 10
4.445569678977386
 20
-4.226797435726313
 10
4.388606507366249
 20
-4.257637108250744
 10
4.329107440614153
 20
-4.282419366150634
 10
4.269295985021067
 20
-4.306736526520631
 10
4.267918241551064
 20
-4.307296092632163
 10
4.266672587564244
 20
-4.308180307408949
 10
4.265365068882752
 20
-4.308912926585839
 10
4.259006381484242
 20
-4.300541449715334
 10
4.265640673310725
 20
-4.292112845826472
 10
4.265478487489644
 20
-4.283679225906704
 10
4.264467194800974
 20
-4.230944299922258
 10
4.266435996907678
 20
-4.178195997855431
 10
4.261171088457305
 20
-4.125496462755513
 10
4.258105442034699
 20
-4.094808664499421
 10
4.253483424803031
 20
-4.066225091197489
 10
4.236282252992952
 20
-4.038777648889966
 10
4.211283342959303
 20
-3.998886827310773
 10
4.176912767695865
 20
-3.969174089724093
 10
4.142160972151891
 20
-3.93932090327275
 10
4.123745357372095
 20
-3.923501177882043
 10
4.10192997108465
 20
-3.912265268710598
 10
4.082362892708993
 20
-3.898078261371362
 10
4.047863014660353
 20
-3.873064987382576
 10
4.011439479011894
 20
-3.851269775871767
 10
3.974451915696944
 20
-3.830460771765653
 10
3.931127679897321
 20
-3.806086484377273
 10
3.886164587029093
 20
-3.785048414860966
 10
3.840165399860426
 20
-3.765893864940153
 10
3.744758893921571
 20
-3.726165785696189
 10
3.647182386283475
 20
-3.69296523463754
 10
3.547044067213416
 20
-3.667983171507532
 10
3.493170507627332
 20
-3.654543274101064
 10
3.437751724024034
 20
-3.647593005979918
 10
3.383134952092809
 20
-3.637258310356603
 10
3.331605144823545
 20
-3.627507703662457
 10
3.279384654465628
 20
-3.625771878309528
 10
3.227543015694966
 20
-3.620189871945133
 10
3.188047563553507
 20
-3.615937392432341
 10
3.147881771218483
 20
-3.617378386636851
 10
3.108011090197098
 20
-3.617251871191304
 10
3.02446588544285
 20
-3.616986578891429
 10
2.940852267253792
 20
-3.614824112245337
 10
2.857459912882505
 20
-3.621838474094399
 10
2.812244066509593
 20
-3.62564146150665
 10
2.767166161685546
 20
-3.631063233551281
 10
2.721965502816475
 20
-3.635073828908313
 10
2.667145998608866
 20
-3.639938264188483
 10
2.613609350805808
 20
-3.652359907326298
 10
2.559953432330176
 20
-3.663369816439752
 10
2.518559820875225
 20
-3.671863628730079
 10
2.478211081819293
 20
-3.685498872672471
 10
2.437466770988344
 20
-3.697090084031262
 10
2.402502629060045
 20
-3.707037151934905
 10
2.367026710051934
 20
-3.715620974112677
 10
2.332855662362236
 20
-3.727827206591023
 10
2.26599218891887
 20
-3.751712152300165
 10
2.201524300374343
 20
-3.781446347352306
 10
2.138080592996491
 20
-3.813303716808604
 10
2.073899734341542
 20
-3.845531715213306
 10
2.011588819683272
 20
-3.88092092774597
 10
1.954972800970153
 20
-3.925449905878975
 10
1.924165576384476
 20
-3.94967984304531
 10
1.888402975824015
 20
-3.968256156073013
 10
1.865804597078055
 20
-4.002027141310084
 10
1.849069918506011
 20
-4.027034841931254
 10
1.834369529442647
 20
-4.05310510509384
 10
1.827174832656977
 20
-4.082648969640887
 10
1.818609916485785
 20
-4.117819427493511
 10
1.818421814373689
 20
-4.154034613111106
 10
1.816355686840829
 20
-4.189794733260517
 10
1.814369467871907
 20
-4.224172379565717
 10
1.813744063182879
 20
-4.258899754690623
 10
1.817695182881367
 20
-4.293399179078834
 10
1.818224934163014
 20
-4.298024238218658
 10
1.819623368865348
 20
-4.30337745784128
 10
1.81517698327242
 20
-4.307359629023317
 10
1.758375440142811
 20
-4.284618338354801
 10
1.701010984025856
 20
-4.26270079142417
 10
1.647300446270264
 20
-4.233466806118157
 10
1.585505906743441
 20
-4.199833204393522
 10
1.526249665884582
 20
-4.161428242628391
 10
1.471613839906063
 20
-4.116971439606382
 10
1.416414021094738
 20
-4.072055669758886
 10
1.365847610142989
 20
-4.022105755586405
 10
1.320542293348782
 20
-3.966881484943491
 10
1.257962584255677
 20
-3.890600474002667
 10
1.205143964014988
 20
-3.808481639122545
 10
1.164756176353926
 20
-3.718276405126946
 10
1.14345981256099
 20
-3.670711334969559
 10
1.123070954374636
 20
-3.623078827063712
 10
1.108690417277734
 20
-3.572749366554615
 10
1.102535759711801
 20
-3.551209136613553
 10
1.097752331709405
 20
-3.529527343134279
 10
1.092719254757993
 20
-3.50781378145944
 10
1.097617882241416
 20
-3.508194721137947
 10
1.101278040193682
 20
-3.506191095469754
 10
1.10479602429954
 20
-3.502743688913192
 10
1.128324977286107
 20
-3.479688896314705
 10
1.154615330237422
 20
-3.459570711128132
 10
1.175973001385411
 20
-3.434163678715246
 10
1.196917527144415
 20
-3.409247938660225
 10
1.219193084348906
 20
-3.385519743916094
 10
1.239589884624441
 20
-3.360048478441083
 10
1.259893661438771
 20
-3.33469341768149
 10
1.272608615292003
 20
-3.304830338502597
 10
1.29173598756376
 20
-3.278937308431093
 10
1.296679572322811
 20
-3.272245226566079
 10
1.301363245246786
 20
-3.265332439342374
 10
1.305751737189641
 20
-3.258263597824578
 10
1.336041611299568
 20
-3.209474337464093
 10
1.35933875455828
 20
-3.157062109466222
 10
1.384181052166758
 20
-3.105483378599627
 10
1.401318791764575
 20
-3.069901048878086
 10
1.415132836708949
 20
-3.032709548583347
 10
1.426395346170074
 20
-2.995013519182571
 10
1.442306172324833
 20
-2.941759712670407
 10
1.457473437797173
 20
-2.888148235289652
 10
1.468706652096013
 20
-2.833632618342739
 10
1.483281570083868
 20
-2.762898780218556
 10
1.49511758198456
 20
-2.691776617703718
 10
1.501198470430495
 20
-2.61965152768126
 10
1.504921115730225
 20
-2.575498055193318
 10
1.507895776464541
 20
-2.531299438427456
 10
1.509401533871949
 20
-2.48710096099579
 10
1.511285794529372
 20
-2.431793229172411
 10
1.508705590890877
 20
-2.376523117580619
 10
1.503557131581399
 20
-2.321256489343618
 10
1.499451698483527
 20
-2.277186199367785
 10
1.495832091340755
 20
-2.23313903886766
 10
1.489582154829993
 20
-2.189283462880325
 10
1.481626445665963
 20
-2.133458383205341
 10
1.472023902510449
 20
-2.077979479328178
 10
1.4582864917599
 20
-2.023286768624365
 10
1.452309094309334
 20
-1.999488976451756
 10
1.445161318550516
 20
-1.975985109755293
 10
1.438545070593287
 20
-1.95234776090375
 10
1.458750790473269
 20
-1.918397452562721
 10
1.483918121564708
 20
-1.887971323917529
 10
1.507421480472253
 20
-1.856409203612176
 10
1.565121280854605
 20
-1.778925459933652
 10
1.628973309150625
 20
-1.706549498700092
 10
1.69456723267217
 20
-1.635741465119129
 10
1.715922813796699
 20
-1.612688344530927
 10
1.740465193037544
 20
-1.592516062844651
 10
1.761102363428739
 20
-1.568888397719395
 10
1.782237098740172
 20
-1.54469113442086
 10
1.807191351939069
 20
-1.52479330625753
 10
1.830004654764984
 20
-1.50255940104599
 10
1.850575850082021
 20
-1.482510708787231
 10
1.874357600115482
 20
-1.465755981307046
 10
1.896725797610176
 20
-1.447551342234141
 10
2.062711629715876
 20
-1.312461340248521
 10
2.249335119884929
 20
-1.215292444632634
 10
2.451207142605489
 20
-1.146321602028605
 10
2.526083208684932
 20
-1.120739722622652
 10
2.602918880767826
 20
-1.103074228493874
 10
2.680926777346371
 20
-1.089772559313372
 10
2.778924633715582
 20
-1.073062257669183
 10
2.877629893361194
 20
-1.063394186889392
 10
2.976785483396674
 20
-1.05883198325369
 10
3.044768930748988
 20
-1.05570402808827
 10
3.113251893710134
 20
-1.054187554756329
 10
3.180806468246878
 20
-1.060962309964944
 10
3.231918688827236
 20
-1.066088136187646
 10
3.283695118865681
 20
-1.069997967887881
 10
3.334093666099255
 20
-1.082449885732911
 10
3.358343372387151
 20
-1.088441249419537
 10
3.383928882340771
 20
-1.086734122555804
 10
3.408379370216481
 20
-1.092555842510541
 10
3.436468449614797
 20
-1.099243892392413
 10
3.465678896271052
 20
-1.101798149367141
 10
3.493105577564922
 20
-1.109972407398509
 10
3.540967672317947
 20
-1.124237206758316
 10
3.588850667305627
 20
-1.1386697862552
 10
3.636137587600261
 20
-1.154983216226949
 10
3.701894741954649
 20
-1.177668686135133
 10
3.765897391275226
 20
-1.204566672768414
 10
3.829441071442285
 20
-1.232616805119631
 10
3.887132685899409
 20
-1.258083577066953
 10
3.939870108728377
 20
-1.292724390825608
 10
3.994477963226169
 20
-1.323856717401693
 10
4.032083616148004
 20
-1.345296260972923
 10
4.069001233344225
 20
-1.367992111278327
 10
4.105612313765176
 20
-1.391099432866869
 10
4.11770128817294
 20
-1.398729338338739
 10
4.1275664776109
 20
-1.409795817133777
 10
4.138989431206886
 20
-1.418587769759521
 10
4.156448093908212
 20
-1.432025159150561
 10
4.174890739658167
 20
-1.444216448036917
 10
4.192009425208703
 20
-1.458057558246713
 10
4.24225693341302
 20
-1.498684482357551
 10
4.291773212073343
 20
-1.540143405757084
 10
4.338999939692105
 20
-1.584357105449132
 10
4.444678492970701
 20
-1.683293507529621
 10
4.53377340670651
 20
-1.796066003789026
 10
4.61692234301126
 20
-1.913948790508824
 10
4.627408966093677
 20
-1.928816445371643
 10
4.63735023238587
 20
-1.943971477003653
 10
4.646742797850316
 20
-1.959520685062304
 10
4.643905939329973
 20
-1.968919403256816
 10
4.640957055551754
 20
-1.97828593525316
 10
4.638256466561515
 20
-1.987723388352795
 10
4.632535375655581
 20
-2.007715824431897
 10
4.625445458713076
 20
-2.027460384984995
 10
4.62157529259025
 20
-2.04781209427588
 10
4.609359244755649
 20
-2.11205177475353
 10
4.597212864369971
 20
-2.176263658060052
 10
4.590989889161972
 20
-2.241562626725655
 10
4.586029566798313
 20
-2.293610635147918
 10
4.582240214916206
 20
-2.345683584390397
 10
4.580560393387687
 20
-2.397865771638723
 10
4.579153946928727
 20
-2.441558883959209
 10
4.580224038944252
 20
-2.485332392107983
 10
4.580241037801796
 20
-2.529070230703837
 10
4.580242709820569
 20
-2.533246076411513
 10
4.580337736220902
 20
-2.537443379584639
 10
4.580752954216525
 20
-2.541594423806309
 10
4.583497294364684
 20
-2.569045906805399
 10
4.58534626845921
 20
-2.596549361457782
 10
4.588796200530118
 20
-2.623980780333365
 10
4.592565488186917
 20
-2.653953933523237
 10
4.595158231966201
 20
-2.684184018961534
 10
4.599681321420399
 20
-2.71403079604008
 10
4.606825021633438
 20
-2.761173683598372
 10
4.619174273630404
 20
-2.807334822446073
 10
4.629928698386493
 20
-2.853777277025629
 10
4.644058650378029
 20
-2.914794645332487
 10
4.665434574397648
 20
-2.973570962509458
 10
4.684731343071462
 20
-3.033023886518498
 10
4.702054014912492
 20
-3.086395151753777
 10
4.726336464901375
 20
-3.136468376685393
 10
4.751635223635199
 20
-3.186215420275604
 10
4.777273402180222
 20
-3.236630292643818
 10
4.803205577359752
 20
-3.286892176070194
 10
4.838234649350422
 20
-3.331705535287255
 10
4.872330734865095
 20
-3.375326054494179
 10
4.906215310004805
 20
-3.419109455370517
 10
4.946511798474046
 20
-3.457440570014366
 10
4.958034794526686
 20
-3.468401154824176
 10
4.970073887041002
 20
-3.478983307970894
 10
4.979562314915179
 20
-3.491994056068733
 10
4.982824980883378
 20
-3.496468634282185
 10
4.987723159882585
 20
-3.498701046692202
 10
4.993483821899543
 20
-3.498418198284247
 97
        0
 97
        1
330
7C
 75
     2
 76
     1
 98
        1
 10
0.0
 20
0.0
450
        0
451
        0
460
0.0
461
0.0
452
        0
462
0.0
453
        0
470

  0
SPLINE
  5
7E
330
70
100
AcDbEntity
  8
Layer 1
100
AcDbSpline
210
0.0
220
0.0
230
1.0
 70
     9
 71
     3
 72
    41
 73
    37
 74
     0
 42
0.0000000001
 43
0.0000000001
 40
0.0
 40
0.0
 40
0.0
 40
0.0
 40
1.0
 40
1.0
 40
1.0
 40
2.0
 40
2.0
 40
2.0
 40
3.0
 40
3.0
 40
3.0
 40
4.0
 40
4.0
 40
4.0
 40
5.0
 40
5.0
 40
5.0
 40
6.0
 40
6.0
 40
6.0
 40
7.0
 40
7.0
 40
7.0
 40
8.0
 40
8.0
 40
8.0
 40
9.0
 40
9.0
 40
9.0
 40
10.0
 40
10.0
 40
10.0
 40
11.0
 40
11.0
 40
11.0
 40
12.0
 40
12.0
 40
12.0
 40
12.0
 10
3.569161810229236
 20
-4.040504278186264
 30
0.0
 10
3.569388926112752
 20
-3.991721705866918
 30
0.0
 10
3.567218088404135
 20
-3.954953363510614
 30
0.0
 10
3.561727457419237
 20
-3.918627825213636
 30
0.0
 10
3.556981989468062
 20
-3.887232487935054
 30
0.0
 10
3.549449266220183
 20
-3.856475301251798
 30
0.0
 10
3.534314430945338
 20
-3.827718117547748
 30
0.0
 10
3.511155856242541
 20
-3.783715822657161
 30
0.0
 10
3.451652888113307
 20
-3.774873674889072
 30
0.0
 10
3.421902100723173
 20
-3.798438151958659
 30
0.0
 10
3.404138851935133
 20
-3.812507839908978
 30
0.0
 10
3.391203000018246
 20
-3.830787371109611
 30
0.0
 10
3.384067938568831
 20
-3.852848710925475
 30
0.0
 10
3.371185451917805
 20
-3.892680454807633
 30
0.0
 10
3.369098075813023
 20
-3.934103673820673
 30
0.0
 10
3.368642729366835
 20
-3.975194162785353
 30
0.0
 10
3.367372552437978
 20
-4.089838056565617
 30
0.0
 10
3.36557764028382
 20
-4.204546880078901
 30
0.0
 10
3.377055073824875
 20
-4.318940250983536
 30
0.0
 10
3.380556420473087
 20
-4.353835663142945
 30
0.0
 10
3.385452091444145
 20
-4.388235602918686
 30
0.0
 10
3.399832010242435
 20
-4.420446045215284
 30
0.0
 10
3.408205201594177
 20
-4.439202099349535
 30
0.0
 10
3.420595696720864
 20
-4.455929168992775
 30
0.0
 10
3.440463181136313
 20
-4.463002887207241
 30
0.0
 10
3.466421551276602
 20
-4.472245481440621
 30
0.0
 10
3.489750114554782
 20
-4.463615121643012
 30
0.0
 10
3.51016295576043
 20
-4.446553092604315
 30
0.0
 10
3.533170770103727
 20
-4.42732218754678
 30
0.0
 10
3.543523353014405
 20
-4.400669228796939
 30
0.0
 10
3.550499572680235
 20
-4.372871779001317
 30
0.0
 10
3.567783788089425
 20
-4.304001117680702
 30
0.0
 10
3.568797310136435
 20
-4.233364256153511
 30
0.0
 10
3.571060666217211
 20
-4.162973458807856
 30
0.0
 10
3.572501389061041
 20
-4.118168041639667
 30
0.0
 10
3.571041995340894
 20
-4.073337822985497
 30
0.0
 10
3.569161810229236
 20
-4.040504278186264
 30
0.0
  0
SPLINE
  5
7F
330
70
100
AcDbEntity
  8
Layer 1
100
AcDbSpline
210
0.0
220
0.0
230
1.0
 70
     9
 71
     3
 72
    50
 73
    46
 74
     0
 42
0.0000000001
 43
0.0000000001
 40
0.0
 40
0.0
 40
0.0
 40
0.0
 40
1.0
 40
1.0
 40
1.0
 40
2.0
 40
2.0
 40
2.0
 40
3.0
 40
3.0
 40
3.0
 40
4.0
 40
4.0
 40
4.0
 40
5.0
 40
5.0
 40
5.0
 40
6.0
 40
6.0
 40
6.0
 40
7.0
 40
7.0
 40
7.0
 40
8.0
 40
8.0
 40
8.0
 40
9.0
 40
9.0
 40
9.0
 40
10.0
 40
10.0
 40
10.0
 40
11.0
 40
11.0
 40
11.0
 40
12.0
 40
12.0
 40
12.0
 40
13.0
 40
13.0
 40
13.0
 40
14.0
 40
14.0
 40
14.0
 40
15.0
 40
15.0
 40
15.0
 40
15.0
 10
2.512203362835053
 20
-4.134504975547795
 30
0.0
 10
2.511509614378622
 20
-4.175167151208976
 30
0.0
 10
2.514361660402831
 20
-4.211857466418298
 30
0.0
 10
2.516106969333375
 20
-4.24860881000331
 30
0.0
 10
2.517384670346713
 20
-4.275513127633908
 30
0.0
 10
2.520488773201135
 20
-4.302131252835932
 30
0.0
 10
2.523480293458103
 20
-4.328826847848227
 30
0.0
 10
2.528059674211021
 20
-4.369691336754941
 30
0.0
 10
2.542500343024774
 20
-4.406617126747227
 30
0.0
 10
2.566134328399054
 20
-4.440162669263068
 30
0.0
 10
2.585507591931786
 20
-4.467660550547811
 30
0.0
 10
2.626105879789772
 20
-4.475517884253122
 30
0.0
 10
2.654481849742763
 20
-4.45761121134789
 30
0.0
 10
2.676512787117202
 20
-4.443708445758551
 30
0.0
 10
2.685368495220207
 20
-4.421313539889171
 30
0.0
 10
2.692026055974654
 20
-4.398456044505286
 30
0.0
 10
2.70338324349887
 20
-4.35946337112202
 30
0.0
 10
2.706059727551784
 20
-4.318865010520362
 30
0.0
 10
2.710604553250037
 20
-4.278660965679541
 30
0.0
 10
2.714704761289226
 20
-4.242390046385505
 30
0.0
 10
2.713135989674267
 20
-4.205905388442285
 30
0.0
 10
2.714653625381717
 20
-4.169540836571816
 30
0.0
 10
2.717228952298771
 20
-4.107827215311949
 30
0.0
 10
2.717350452329709
 20
-4.04598039056542
 30
0.0
 10
2.717112746993974
 20
-3.984194594194554
 30
0.0
 10
2.717008245820579
 20
-3.957029164289805
 30
0.0
 10
2.714561525014232
 20
-3.929857325012284
 30
0.0
 10
2.711243821761399
 20
-3.902723105966338
 30
0.0
 10
2.7070850930651
 20
-3.868712465920553
 30
0.0
 10
2.701364141494043
 20
-3.836189915035877
 30
0.0
 10
2.676998229901338
 20
-3.809739548199912
 30
0.0
 10
2.658923149611925
 20
-3.790118228738846
 30
0.0
 10
2.637263400405357
 20
-3.780265350748423
 30
0.0
 10
2.611033884553825
 20
-3.785699941538647
 30
0.0
 10
2.583624759457064
 20
-3.791378924500071
 30
0.0
 10
2.563609580049892
 20
-3.80776490404345
 30
0.0
 10
2.550198874801101
 20
-3.832808274217515
 30
0.0
 10
2.53871029446821
 20
-3.85426211696012
 30
0.0
 10
2.533534142347762
 20
-3.877564088413666
 30
0.0
 10
2.528119588217097
 20
-3.900767689928266
 30
0.0
 10
2.518351375868026
 20
-3.942627303627887
 30
0.0
 10
2.517202977639903
 20
-3.985621654979947
 30
0.0
 10
2.514876781520203
 20
-4.028226706602026
 30
0.0
 10
2.512878719084963
 20
-4.064825061245175
 30
0.0
 10
2.510836069482391
 20
-4.101581420861091
 30
0.0
 10
2.512203362835053
 20
-4.134504975547795
 30
0.0
  0
SPLINE
  5
80
330
70
100
AcDbEntity
  8
Layer 1
100
AcDbSpline
210
0.0
220
0.0
230
1.0
 70
     9
 71
     3
 72
   119
 73
   115
 74
     0
 42
0.0000000001
 43
0.0000000001
 40
0.0
 40
0.0
 40
0.0
 40
0.0
 40
1.0
 40
1.0
 40
1.0
 40
2.0
 40
2.0
 40
2.0
 40
3.0
 40
3.0
 40
3.0
 40
4.0
 40
4.0
 40
4.0
 40
5.0
 40
5.0
 40
5.0
 40
6.0
 40
6.0
 40
6.0
 40
7.0
 40
7.0
 40
7.0
 40
8.0
 40
8.0
 40
8.0
 40
9.0
 40
9.0
 40
9.0
 40
10.0
 40
10.0
 40
10.0
 40
11.0
 40
11.0
 40
11.0
 40
12.0
 40
12.0
 40
12.0
 40
13.0
 40
13.0
 40
13.0
 40
14.0
 40
14.0
 40
14.0
 40
15.0
 40
15.0
 40
15.0
 40
16.0
 40
16.0
 40
16.0
 40
17.0
 40
17.0
 40
17.0
 40
18.0
 40
18.0
 40
18.0
 40
19.0
 40
19.0
 40
19.0
 40
20.0
 40
20.0
 40
20.0
 40
21.0
 40
21.0
 40
21.0
 40
22.0
 40
22.0
 40
22.0
 40
23.0
 40
23.0
 40
23.0
 40
24.0
 40
24.0
 40
24.0
 40
25.0
 40
25.0
 40
25.0
 40
26.0
 40
26.0
 40
26.0
 40
27.0
 40
27.0
 40
27.0
 40
28.0
 40
28.0
 40
28.0
 40
29.0
 40
29.0
 40
29.0
 40
30.0
 40
30.0
 40
30.0
 40
31.0
 40
31.0
 40
31.0
 40
32.0
 40
32.0
 40
32.0
 40
33.0
 40
33.0
 40
33.0
 40
34.0
 40
34.0
 40
34.0
 40
35.0
 40
35.0
 40
35.0
 40
36.0
 40
36.0
 40
36.0
 40
37.0
 40
37.0
 40
37.0
 40
38.0
 40
38.0
 40
38.0
 40
38.0
 10
1.81517698327242
 20
-4.307359629023317
 30
0.0
 10
1.819623368865348
 20
-4.30337745784128
 30
0.0
 10
1.818224934163014
 20
-4.298024238218658
 30
0.0
 10
1.817695182881367
 20
-4.293399179078834
 30
0.0
 10
1.813744063182879
 20
-4.258899754690623
 30
0.0
 10
1.814369467871907
 20
-4.224172379565717
 30
0.0
 10
1.816355686840829
 20
-4.189794733260517
 30
0.0
 10
1.818421814373689
 20
-4.154034613111106
 30
0.0
 10
1.818609916485785
 20
-4.117819427493511
 30
0.0
 10
1.827174832656977
 20
-4.082648969640887
 30
0.0
 10
1.834369529442647
 20
-4.05310510509384
 30
0.0
 10
1.849069918506011
 20
-4.027034841931254
 30
0.0
 10
1.865804597078055
 20
-4.002027141310084
 30
0.0
 10
1.888402975824015
 20
-3.968256156073013
 30
0.0
 10
1.924165576384476
 20
-3.94967984304531
 30
0.0
 10
1.954972800970153
 20
-3.925449905878975
 30
0.0
 10
2.011588819683272
 20
-3.88092092774597
 30
0.0
 10
2.073899734341542
 20
-3.845531715213306
 30
0.0
 10
2.138080592996491
 20
-3.813303716808604
 30
0.0
 10
2.201524300374343
 20
-3.781446347352306
 30
0.0
 10
2.26599218891887
 20
-3.751712152300165
 30
0.0
 10
2.332855662362236
 20
-3.727827206591023
 30
0.0
 10
2.367026710051934
 20
-3.715620974112677
 30
0.0
 10
2.402502629060045
 20
-3.707037151934905
 30
0.0
 10
2.437466770988344
 20
-3.697090084031262
 30
0.0
 10
2.478211081819293
 20
-3.685498872672471
 30
0.0
 10
2.518559820875225
 20
-3.671863628730079
 30
0.0
 10
2.559953432330176
 20
-3.663369816439752
 30
0.0
 10
2.613609350805808
 20
-3.652359907326298
 30
0.0
 10
2.667145998608866
 20
-3.639938264188483
 30
0.0
 10
2.721965502816475
 20
-3.635073828908313
 30
0.0
 10
2.767166161685546
 20
-3.631063233551281
 30
0.0
 10
2.812244066509593
 20
-3.62564146150665
 30
0.0
 10
2.857459912882505
 20
-3.621838474094399
 30
0.0
 10
2.940852267253792
 20
-3.614824112245337
 30
0.0
 10
3.02446588544285
 20
-3.616986578891429
 30
0.0
 10
3.108011090197098
 20
-3.617251871191304
 30
0.0
 10
3.147881771218483
 20
-3.617378386636851
 30
0.0
 10
3.188047563553507
 20
-3.615937392432341
 30
0.0
 10
3.227543015694966
 20
-3.620189871945133
 30
0.0
 10
3.279384654465628
 20
-3.625771878309528
 30
0.0
 10
3.331605144823545
 20
-3.627507703662457
 30
0.0
 10
3.383134952092809
 20
-3.637258310356603
 30
0.0
 10
3.437751724024034
 20
-3.647593005979918
 30
0.0
 10
3.493170507627332
 20
-3.654543274101064
 30
0.0
 10
3.547044067213416
 20
-3.667983171507532
 30
0.0
 10
3.647182386283475
 20
-3.69296523463754
 30
0.0
 10
3.744758893921571
 20
-3.726165785696189
 30
0.0
 10
3.840165399860426
 20
-3.765893864940153
 30
0.0
 10
3.886164587029093
 20
-3.785048414860966
 30
0.0
 10
3.931127679897321
 20
-3.806086484377273
 30
0.0
 10
3.974451915696944
 20
-3.830460771765653
 30
0.0
 10
4.011439479011894
 20
-3.851269775871767
 30
0.0
 10
4.047863014660353
 20
-3.873064987382576
 30
0.0
 10
4.082362892708993
 20
-3.898078261371362
 30
0.0
 10
4.10192997108465
 20
-3.912265268710598
 30
0.0
 10
4.123745357372095
 20
-3.923501177882043
 30
0.0
 10
4.142160972151891
 20
-3.93932090327275
 30
0.0
 10
4.176912767695865
 20
-3.969174089724093
 30
0.0
 10
4.211283342959303
 20
-3.998886827310773
 30
0.0
 10
4.236282252992952
 20
-4.038777648889966
 30
0.0
 10
4.253483424803031
 20
-4.066225091197489
 30
0.0
 10
4.258105442034699
 20
-4.094808664499421
 30
0.0
 10
4.261171088457305
 20
-4.125496462755513
 30
0.0
 10
4.266435996907678
 20
-4.178195997855431
 30
0.0
 10
4.264467194800974
 20
-4.230944299922258
 30
0.0
 10
4.265478487489644
 20
-4.283679225906704
 30
0.0
 10
4.265640673310725
 20
-4.292112845826472
 30
0.0
 10
4.259006381484242
 20
-4.300541449715334
 30
0.0
 10
4.265365068882752
 20
-4.308912926585839
 30
0.0
 10
4.261632844308804
 20
-4.339028897321617
 30
0.0
 10
4.258082312441652
 20
-4.369212027137513
 30
0.0
 10
4.251529113525697
 20
-4.398850638934517
 30
0.0
 10
4.22654023560469
 20
-4.511872125393438
 30
0.0
 10
4.187435896521492
 20
-4.619399107359968
 30
0.0
 10
4.118707843475046
 20
-4.713578431154549
 30
0.0
 10
4.081512392492489
 20
-4.764547992937574
 30
0.0
 10
4.033801615438556
 20
-4.805356469499454
 30
0.0
 10
3.979896008825966
 20
-4.839004561979966
 30
0.0
 10
3.913868823439543
 20
-4.880219058374753
 30
0.0
 10
3.842543846566842
 20
-4.909005780927271
 30
0.0
 10
3.768639780734828
 20
-4.931664028417874
 30
0.0
 10
3.705123967547352
 20
-4.951136817631195
 30
0.0
 10
3.64027304736861
 20
-4.965972564964279
 30
0.0
 10
3.574992697034682
 20
-4.978010203071385
 30
0.0
 10
3.505247220564064
 20
-4.990871027579562
 30
0.0
 10
3.435124982529663
 20
-5.001756929262935
 30
0.0
 10
3.36433658434862
 20
-5.008011362433661
 30
0.0
 10
3.287530172594263
 20
-5.014797494877686
 30
0.0
 10
3.210726965542587
 20
-5.020264411200236
 30
0.0
 10
3.133587264712584
 20
-5.022049003520022
 30
0.0
 10
3.078066209294244
 20
-5.023333386093705
 30
0.0
 10
3.022560062709999
 20
-5.024055973208811
 30
0.0
 10
2.967095298590404
 20
-5.022631420438882
 30
0.0
 10
2.893067364034209
 20
-5.020730344735309
 30
0.0
 10
2.819127767803239
 20
-5.016570383125402
 30
0.0
 10
2.745291558066494
 20
-5.010309261913536
 30
0.0
 10
2.611786989676753
 20
-4.9989883588855
 30
0.0
 10
2.480311555404467
 20
-4.976230069445692
 30
0.0
 10
2.351020752995673
 20
-4.941347197363534
 30
0.0
 10
2.25483647965695
 20
-4.915396482936911
 30
0.0
 10
2.162112797508838
 20
-4.881015771279534
 30
0.0
 10
2.079813734413581
 20
-4.822939051076142
 30
0.0
 10
2.017127242538132
 20
-4.778702396076091
 30
0.0
 10
1.964497734587553
 20
-4.725186362616264
 30
0.0
 10
1.927458129688248
 20
-4.657477469781142
 30
0.0
 10
1.887321737016653
 20
-4.584108264766225
 30
0.0
 10
1.857872749015288
 20
-4.50649326827968
 30
0.0
 10
1.83772520145515
 20
-4.425386556963783
 30
0.0
 10
1.82875746809427
 20
-4.389285904051322
 30
0.0
 10
1.823345630994115
 20
-4.352479105458238
 30
0.0
 10
1.818139382535731
 20
-4.315673978875464
 30
0.0
 10
1.817702428296064
 20
-4.312584661190081
 30
0.0
 10
1.817417558097392
 20
-4.309692362050933
 30
0.0
 10
1.81517698327242
 20
-4.307359629023317
 30
0.0
  0
HATCH
  5
81
330
70
100
AcDbEntity
  8
Layer 1
 62
   254
420
 13421772
440
 33554687
100
AcDbHatch
 10
0.0
 20
0.0
 30
0.0
210
0.0
220
0.0
230
1.0
  2
SOLID
 70
     1
 71
     1
 91
        3
 92
        1
 93
        1
 72
     4
 94
        3
 73
     0
 74
     0
 95
       41
 96
       37
 40
0.0
 40
0.0
 40
0.0
 40
0.0
 40
1.0
 40
1.0
 40
1.0
 40
2.0
 40
2.0
 40
2.0
 40
3.0
 40
3.0
 40
3.0
 40
4.0
 40
4.0
 40
4.0
 40
5.0
 40
5.0
 40
5.0
 40
6.0
 40
6.0
 40
6.0
 40
7.0
 40
7.0
 40
7.0
 40
8.0
 40
8.0
 40
8.0
 40
9.0
 40
9.0
 40
9.0
 40
10.0
 40
10.0
 40
10.0
 40
11.0
 40
11.0
 40
11.0
 40
12.0
 40
12.0
 40
12.0
 40
12.0
 10
3.569161810229236
 20
-4.040504278186264
 10
3.569388926112752
 20
-3.991721705866918
 10
3.567218088404135
 20
-3.954953363510614
 10
3.561727457419237
 20
-3.918627825213636
 10
3.556981989468062
 20
-3.887232487935054
 10
3.549449266220183
 20
-3.856475301251798
 10
3.534314430945338
 20
-3.827718117547748
 10
3.511155856242541
 20
-3.783715822657161
 10
3.451652888113307
 20
-3.774873674889072
 10
3.421902100723173
 20
-3.798438151958659
 10
3.404138851935133
 20
-3.812507839908978
 10
3.391203000018246
 20
-3.830787371109611
 10
3.384067938568831
 20
-3.852848710925475
 10
3.371185451917805
 20
-3.892680454807633
 10
3.369098075813023
 20
-3.934103673820673
 10
3.368642729366835
 20
-3.975194162785353
 10
3.367372552437978
 20
-4.089838056565617
 10
3.36557764028382
 20
-4.204546880078901
 10
3.377055073824875
 20
-4.318940250983536
 10
3.380556420473087
 20
-4.353835663142945
 10
3.385452091444145
 20
-4.388235602918686
 10
3.399832010242435
 20
-4.420446045215284
 10
3.408205201594177
 20
-4.439202099349535
 10
3.420595696720864
 20
-4.455929168992775
 10
3.440463181136313
 20
-4.463002887207241
 10
3.466421551276602
 20
-4.472245481440621
 10
3.489750114554782
 20
-4.463615121643012
 10
3.51016295576043
 20
-4.446553092604315
 10
3.533170770103727
 20
-4.42732218754678
 10
3.543523353014405
 20
-4.400669228796939
 10
3.550499572680235
 20
-4.372871779001317
 10
3.567783788089425
 20
-4.304001117680702
 10
3.568797310136435
 20
-4.233364256153511
 10
3.571060666217211
 20
-4.162973458807856
 10
3.572501389061041
 20
-4.118168041639667
 10
3.571041995340894
 20
-4.073337822985497
 10
3.569161810229236
 20
-4.040504278186264
 97
        0
 97
        1
330
7E
 92
        1
 93
        1
 72
     4
 94
        3
 73
     0
 74
     0
 95
       50
 96
       46
 40
0.0
 40
0.0
 40
0.0
 40
0.0
 40
1.0
 40
1.0
 40
1.0
 40
2.0
 40
2.0
 40
2.0
 40
3.0
 40
3.0
 40
3.0
 40
4.0
 40
4.0
 40
4.0
 40
5.0
 40
5.0
 40
5.0
 40
6.0
 40
6.0
 40
6.0
 40
7.0
 40
7.0
 40
7.0
 40
8.0
 40
8.0
 40
8.0
 40
9.0
 40
9.0
 40
9.0
 40
10.0
 40
10.0
 40
10.0
 40
11.0
 40
11.0
 40
11.0
 40
12.0
 40
12.0
 40
12.0
 40
13.0
 40
13.0
 40
13.0
 40
14.0
 40
14.0
 40
14.0
 40
15.0
 40
15.0
 40
15.0
 40
15.0
 10
2.512203362835053
 20
-4.134504975547795
 10
2.511509614378622
 20
-4.175167151208976
 10
2.514361660402831
 20
-4.211857466418298
 10
2.516106969333375
 20
-4.24860881000331
 10
2.517384670346713
 20
-4.275513127633908
 10
2.520488773201135
 20
-4.302131252835932
 10
2.523480293458103
 20
-4.328826847848227
 10
2.528059674211021
 20
-4.369691336754941
 10
2.542500343024774
 20
-4.406617126747227
 10
2.566134328399054
 20
-4.440162669263068
 10
2.585507591931786
 20
-4.467660550547811
 10
2.626105879789772
 20
-4.475517884253122
 10
2.654481849742763
 20
-4.45761121134789
 10
2.676512787117202
 20
-4.443708445758551
 10
2.685368495220207
 20
-4.421313539889171
 10
2.692026055974654
 20
-4.398456044505286
 10
2.70338324349887
 20
-4.35946337112202
 10
2.706059727551784
 20
-4.318865010520362
 10
2.710604553250037
 20
-4.278660965679541
 10
2.714704761289226
 20
-4.242390046385505
 10
2.713135989674267
 20
-4.205905388442285
 10
2.714653625381717
 20
-4.169540836571816
 10
2.717228952298771
 20
-4.107827215311949
 10
2.717350452329709
 20
-4.04598039056542
 10
2.717112746993974
 20
-3.984194594194554
 10
2.717008245820579
 20
-3.957029164289805
 10
2.714561525014232
 20
-3.929857325012284
 10
2.711243821761399
 20
-3.902723105966338
 10
2.7070850930651
 20
-3.868712465920553
 10
2.701364141494043
 20
-3.836189915035877
 10
2.676998229901338
 20
-3.809739548199912
 10
2.658923149611925
 20
-3.790118228738846
 10
2.637263400405357
 20
-3.780265350748423
 10
2.611033884553825
 20
-3.785699941538647
 10
2.583624759457064
 20
-3.791378924500071
 10
2.563609580049892
 20
-3.80776490404345
 10
2.550198874801101
 20
-3.832808274217515
 10
2.53871029446821
 20
-3.85426211696012
 10
2.533534142347762
 20
-3.877564088413666
 10
2.528119588217097
 20
-3.900767689928266
 10
2.518351375868026
 20
-3.942627303627887
 10
2.517202977639903
 20
-3.985621654979947
 10
2.514876781520203
 20
-4.028226706602026
 10
2.512878719084963
 20
-4.064825061245175
 10
2.510836069482391
 20
-4.101581420861091
 10
2.512203362835053
 20
-4.134504975547795
 97
        0
 97
        1
330
7F
 92
        1
 93
        1
 72
     4
 94
        3
 73
     0
 74
     0
 95
      119
 96
      115
 40
0.0
 40
0.0
 40
0.0
 40
0.0
 40
1.0
 40
1.0
 40
1.0
 40
2.0
 40
2.0
 40
2.0
 40
3.0
 40
3.0
 40
3.0
 40
4.0
 40
4.0
 40
4.0
 40
5.0
 40
5.0
 40
5.0
 40
6.0
 40
6.0
 40
6.0
 40
7.0
 40
7.0
 40
7.0
 40
8.0
 40
8.0
 40
8.0
 40
9.0
 40
9.0
 40
9.0
 40
10.0
 40
10.0
 40
10.0
 40
11.0
 40
11.0
 40
11.0
 40
12.0
 40
12.0
 40
12.0
 40
13.0
 40
13.0
 40
13.0
 40
14.0
 40
14.0
 40
14.0
 40
15.0
 40
15.0
 40
15.0
 40
16.0
 40
16.0
 40
16.0
 40
17.0
 40
17.0
 40
17.0
 40
18.0
 40
18.0
 40
18.0
 40
19.0
 40
19.0
 40
19.0
 40
20.0
 40
20.0
 40
20.0
 40
21.0
 40
21.0
 40
21.0
 40
22.0
 40
22.0
 40
22.0
 40
23.0
 40
23.0
 40
23.0
 40
24.0
 40
24.0
 40
24.0
 40
25.0
 40
25.0
 40
25.0
 40
26.0
 40
26.0
 40
26.0
 40
27.0
 40
27.0
 40
27.0
 40
28.0
 40
28.0
 40
28.0
 40
29.0
 40
29.0
 40
29.0
 40
30.0
 40
30.0
 40
30.0
 40
31.0
 40
31.0
 40
31.0
 40
32.0
 40
32.0
 40
32.0
 40
33.0
 40
33.0
 40
33.0
 40
34.0
 40
34.0
 40
34.0
 40
35.0
 40
35.0
 40
35.0
 40
36.0
 40
36.0
 40
36.0
 40
37.0
 40
37.0
 40
37.0
 40
38.0
 40
38.0
 40
38.0
 40
38.0
 10
1.81517698327242
 20
-4.307359629023317
 10
1.819623368865348
 20
-4.30337745784128
 10
1.818224934163014
 20
-4.298024238218658
 10
1.817695182881367
 20
-4.293399179078834
 10
1.813744063182879
 20
-4.258899754690623
 10
1.814369467871907
 20
-4.224172379565717
 10
1.816355686840829
 20
-4.189794733260517
 10
1.818421814373689
 20
-4.154034613111106
 10
1.818609916485785
 20
-4.117819427493511
 10
1.827174832656977
 20
-4.082648969640887
 10
1.834369529442647
 20
-4.05310510509384
 10
1.849069918506011
 20
-4.027034841931254
 10
1.865804597078055
 20
-4.002027141310084
 10
1.888402975824015
 20
-3.968256156073013
 10
1.924165576384476
 20
-3.94967984304531
 10
1.954972800970153
 20
-3.925449905878975
 10
2.011588819683272
 20
-3.88092092774597
 10
2.073899734341542
 20
-3.845531715213306
 10
2.138080592996491
 20
-3.813303716808604
 10
2.201524300374343
 20
-3.781446347352306
 10
2.26599218891887
 20
-3.751712152300165
 10
2.332855662362236
 20
-3.727827206591023
 10
2.367026710051934
 20
-3.715620974112677
 10
2.402502629060045
 20
-3.707037151934905
 10
2.437466770988344
 20
-3.697090084031262
 10
2.478211081819293
 20
-3.685498872672471
 10
2.518559820875225
 20
-3.671863628730079
 10
2.559953432330176
 20
-3.663369816439752
 10
2.613609350805808
 20
-3.652359907326298
 10
2.667145998608866
 20
-3.639938264188483
 10
2.721965502816475
 20
-3.635073828908313
 10
2.767166161685546
 20
-3.631063233551281
 10
2.812244066509593
 20
-3.62564146150665
 10
2.857459912882505
 20
-3.621838474094399
 10
2.940852267253792
 20
-3.614824112245337
 10
3.02446588544285
 20
-3.616986578891429
 10
3.108011090197098
 20
-3.617251871191304
 10
3.147881771218483
 20
-3.617378386636851
 10
3.188047563553507
 20
-3.615937392432341
 10
3.227543015694966
 20
-3.620189871945133
 10
3.279384654465628
 20
-3.625771878309528
 10
3.331605144823545
 20
-3.627507703662457
 10
3.383134952092809
 20
-3.637258310356603
 10
3.437751724024034
 20
-3.647593005979918
 10
3.493170507627332
 20
-3.654543274101064
 10
3.547044067213416
 20
-3.667983171507532
 10
3.647182386283475
 20
-3.69296523463754
 10
3.744758893921571
 20
-3.726165785696189
 10
3.840165399860426
 20
-3.765893864940153
 10
3.886164587029093
 20
-3.785048414860966
 10
3.931127679897321
 20
-3.806086484377273
 10
3.974451915696944
 20
-3.830460771765653
 10
4.011439479011894
 20
-3.851269775871767
 10
4.047863014660353
 20
-3.873064987382576
 10
4.082362892708993
 20
-3.898078261371362
 10
4.10192997108465
 20
-3.912265268710598
 10
4.123745357372095
 20
-3.923501177882043
 10
4.142160972151891
 20
-3.93932090327275
 10
4.176912767695865
 20
-3.969174089724093
 10
4.211283342959303
 20
-3.998886827310773
 10
4.236282252992952
 20
-4.038777648889966
 10
4.253483424803031
 20
-4.066225091197489
 10
4.258105442034699
 20
-4.094808664499421
 10
4.261171088457305
 20
-4.125496462755513
 10
4.266435996907678
 20
-4.178195997855431
 10
4.264467194800974
 20
-4.230944299922258
 10
4.265478487489644
 20
-4.283679225906704
 10
4.265640673310725
 20
-4.292112845826472
 10
4.259006381484242
 20
-4.300541449715334
 10
4.265365068882752
 20
-4.308912926585839
 10
4.261632844308804
 20
-4.339028897321617
 10
4.258082312441652
 20
-4.369212027137513
 10
4.251529113525697
 20
-4.398850638934517
 10
4.22654023560469
 20
-4.511872125393438
 10
4.187435896521492
 20
-4.619399107359968
 10
4.118707843475046
 20
-4.713578431154549
 10
4.081512392492489
 20
-4.764547992937574
 10
4.033801615438556
 20
-4.805356469499454
 10
3.979896008825966
 20
-4.839004561979966
 10
3.913868823439543
 20
-4.880219058374753
 10
3.842543846566842
 20
-4.909005780927271
 10
3.768639780734828
 20
-4.931664028417874
 10
3.705123967547352
 20
-4.951136817631195
 10
3.64027304736861
 20
-4.965972564964279
 10
3.574992697034682
 20
-4.978010203071385
 10
3.505247220564064
 20
-4.990871027579562
 10
3.435124982529663
 20
-5.001756929262935
 10
3.36433658434862
 20
-5.008011362433661
 10
3.287530172594263
 20
-5.014797494877686
 10
3.210726965542587
 20
-5.020264411200236
 10
3.133587264712584
 20
-5.022049003520022
 10
3.078066209294244
 20
-5.023333386093705
 10
3.022560062709999
 20
-5.024055973208811
 10
2.967095298590404
 20
-5.022631420438882
 10
2.893067364034209
 20
-5.020730344735309
 10
2.819127767803239
 20
-5.016570383125402
 10
2.745291558066494
 20
-5.010309261913536
 10
2.611786989676753
 20
-4.9989883588855
 10
2.480311555404467
 20
-4.976230069445692
 10
2.351020752995673
 20
-4.941347197363534
 10
2.25483647965695
 20
-4.915396482936911
 10
2.162112797508838
 20
-4.881015771279534
 10
2.079813734413581
 20
-4.822939051076142
 10
2.017127242538132
 20
-4.778702396076091
 10
1.964497734587553
 20
-4.725186362616264
 10
1.927458129688248
 20
-4.657477469781142
 10
1.887321737016653
 20
-4.584108264766225
 10
1.857872749015288
 20
-4.50649326827968
 10
1.83772520145515
 20
-4.425386556963783
 10
1.82875746809427
 20
-4.389285904051322
 10
1.823345630994115
 20
-4.352479105458238
 10
1.818139382535731
 20
-4.315673978875464
 10
1.817702428296064
 20
-4.312584661190081
 10
1.817417558097392
 20
-4.309692362050933
 10
1.81517698327242
 20
-4.307359629023317
 97
        0
 97
        1
330
80
 75
     2
 76
     1
 98
        1
 10
0.0
 20
0.0
450
        0
451
        0
460
0.0
461
0.0
452
        0
462
0.0
453
        0
470

  0
SPLINE
  5
82
330
70
100
AcDbEntity
  8
Layer 1
100
AcDbSpline
210
0.0
220
0.0
230
1.0
 70
     9
 71
     3
 72
    68
 73
    64
 74
     0
 42
0.0000000001
 43
0.0000000001
 40
0.0
 40
0.0
 40
0.0
 40
0.0
 40
1.0
 40
1.0
 40
1.0
 40
2.0
 40
2.0
 40
2.0
 40
3.0
 40
3.0
 40
3.0
 40
4.0
 40
4.0
 40
4.0
 40
5.0
 40
5.0
 40
5.0
 40
6.0
 40
6.0
 40
6.0
 40
7.0
 40
7.0
 40
7.0
 40
8.0
 40
8.0
 40
8.0
 40
9.0
 40
9.0
 40
9.0
 40
10.0
 40
10.0
 40
10.0
 40
11.0
 40
11.0
 40
11.0
 40
12.0
 40
12.0
 40
12.0
 40
13.0
 40
13.0
 40
13.0
 40
14.0
 40
14.0
 40
14.0
 40
15.0
 40
15.0
 40
15.0
 40
16.0
 40
16.0
 40
16.0
 40
17.0
 40
17.0
 40
17.0
 40
18.0
 40
18.0
 40
18.0
 40
19.0
 40
19.0
 40
19.0
 40
20.0
 40
20.0
 40
20.0
 40
21.0
 40
21.0
 40
21.0
 40
21.0
 10
1.438545070593287
 20
-1.95234776090375
 30
0.0
 10
1.445161318550516
 20
-1.975985109755293
 30
0.0
 10
1.452309094309334
 20
-1.999488976451756
 30
0.0
 10
1.4582864917599
 20
-2.023286768624365
 30
0.0
 10
1.472023902510449
 20
-2.077979479328178
 30
0.0
 10
1.481626445665963
 20
-2.133458383205341
 30
0.0
 10
1.489582154829993
 20
-2.189283462880325
 30
0.0
 10
1.495832091340755
 20
-2.23313903886766
 30
0.0
 10
1.499451698483527
 20
-2.277186199367785
 30
0.0
 10
1.503557131581399
 20
-2.321256489343618
 30
0.0
 10
1.508705590890877
 20
-2.376523117580619
 30
0.0
 10
1.511285794529372
 20
-2.431793229172411
 30
0.0
 10
1.509401533871949
 20
-2.48710096099579
 30
0.0
 10
1.507895776464541
 20
-2.531299438427456
 30
0.0
 10
1.504921115730225
 20
-2.575498055193318
 30
0.0
 10
1.501198470430495
 20
-2.61965152768126
 30
0.0
 10
1.49511758198456
 20
-2.691776617703718
 30
0.0
 10
1.483281570083868
 20
-2.762898780218556
 30
0.0
 10
1.468706652096013
 20
-2.833632618342739
 30
0.0
 10
1.457473437797173
 20
-2.888148235289652
 30
0.0
 10
1.442306172324833
 20
-2.941759712670407
 30
0.0
 10
1.426395346170074
 20
-2.995013519182571
 30
0.0
 10
1.415132836708949
 20
-3.032709548583347
 30
0.0
 10
1.401318791764575
 20
-3.069901048878086
 30
0.0
 10
1.384181052166758
 20
-3.105483378599627
 30
0.0
 10
1.35933875455828
 20
-3.157062109466222
 30
0.0
 10
1.336041611299568
 20
-3.209474337464093
 30
0.0
 10
1.305751737189641
 20
-3.258263597824578
 30
0.0
 10
1.301363245246786
 20
-3.265332439342374
 30
0.0
 10
1.296679572322811
 20
-3.272245226566079
 30
0.0
 10
1.29173598756376
 20
-3.278937308431093
 30
0.0
 10
1.272608615292003
 20
-3.304830338502597
 30
0.0
 10
1.259893661438771
 20
-3.33469341768149
 30
0.0
 10
1.239589884624441
 20
-3.360048478441083
 30
0.0
 10
1.219193084348906
 20
-3.385519743916094
 30
0.0
 10
1.196917527144415
 20
-3.409247938660225
 30
0.0
 10
1.175973001385411
 20
-3.434163678715246
 30
0.0
 10
1.154615330237422
 20
-3.459570711128132
 30
0.0
 10
1.128324977286107
 20
-3.479688896314705
 30
0.0
 10
1.10479602429954
 20
-3.502743688913192
 30
0.0
 10
1.101278040193682
 20
-3.506191095469754
 30
0.0
 10
1.097617882241416
 20
-3.508194721137947
 30
0.0
 10
1.092719254757993
 20
-3.50781378145944
 30
0.0
 10
1.070462910529651
 20
-3.425560071082322
 30
0.0
 10
1.057977358523102
 20
-3.341683953383885
 30
0.0
 10
1.050827785561801
 20
-3.256899794761945
 30
0.0
 10
1.045227932889575
 20
-3.190492840608587
 30
0.0
 10
1.044925631133196
 20
-3.123927045477405
 30
0.0
 10
1.047235413493075
 20
-3.057461849632166
 30
0.0
 10
1.049868862112235
 20
-2.981683138450307
 30
0.0
 10
1.060062013243143
 20
-2.906615170977324
 30
0.0
 10
1.073206205666085
 20
-2.831899161671092
 30
0.0
 10
1.091476391823334
 20
-2.72804516831651
 30
0.0
 10
1.120707364251719
 20
-2.627073720707711
 30
0.0
 10
1.151703187330074
 20
-2.526553158541358
 30
0.0
 10
1.183339036553295
 20
-2.423957074264156
 30
0.0
 10
1.22434342467952
 20
-2.325080794887134
 30
0.0
 10
1.272786127951879
 20
-2.229326298062018
 30
0.0
 10
1.313244314570068
 20
-2.149354533399875
 30
0.0
 10
1.358636959511512
 20
-2.072196762061467
 30
0.0
 10
1.407727395890282
 20
-1.997218595474653
 30
0.0
 10
1.417667477835847
 20
-1.982036672343762
 30
0.0
 10
1.426853374813049
 20
-1.966329459312381
 30
0.0
 10
1.438545070593287
 20
-1.95234776090375
 30
0.0
  0
HATCH
  5
83
330
70
100
AcDbEntity
  8
Layer 1
 62
   254
420
 13421772
440
 33554687
100
AcDbHatch
 10
0.0
 20
0.0
 30
0.0
210
0.0
220
0.0
230
1.0
  2
SOLID
 70
     1
 71
     1
 91
        1
 92
        1
 93
        1
 72
     4
 94
        3
 73
     0
 74
     0
 95
       68
 96
       64
 40
0.0
 40
0.0
 40
0.0
 40
0.0
 40
1.0
 40
1.0
 40
1.0
 40
2.0
 40
2.0
 40
2.0
 40
3.0
 40
3.0
 40
3.0
 40
4.0
 40
4.0
 40
4.0
 40
5.0
 40
5.0
 40
5.0
 40
6.0
 40
6.0
 40
6.0
 40
7.0
 40
7.0
 40
7.0
 40
8.0
 40
8.0
 40
8.0
 40
9.0
 40
9.0
 40
9.0
 40
10.0
 40
10.0
 40
10.0
 40
11.0
 40
11.0
 40
11.0
 40
12.0
 40
12.0
 40
12.0
 40
13.0
 40
13.0
 40
13.0
 40
14.0
 40
14.0
 40
14.0
 40
15.0
 40
15.0
 40
15.0
 40
16.0
 40
16.0
 40
16.0
 40
17.0
 40
17.0
 40
17.0
 40
18.0
 40
18.0
 40
18.0
 40
19.0
 40
19.0
 40
19.0
 40
20.0
 40
20.0
 40
20.0
 40
21.0
 40
21.0
 40
21.0
 40
21.0
 10
1.438545070593287
 20
-1.95234776090375
 10
1.445161318550516
 20
-1.975985109755293
 10
1.452309094309334
 20
-1.999488976451756
 10
1.4582864917599
 20
-2.023286768624365
 10
1.472023902510449
 20
-2.077979479328178
 10
1.481626445665963
 20
-2.133458383205341
 10
1.489582154829993
 20
-2.189283462880325
 10
1.495832091340755
 20
-2.23313903886766
 10
1.499451698483527
 20
-2.277186199367785
 10
1.503557131581399
 20
-2.321256489343618
 10
1.508705590890877
 20
-2.376523117580619
 10
1.511285794529372
 20
-2.431793229172411
 10
1.509401533871949
 20
-2.48710096099579
 10
1.507895776464541
 20
-2.531299438427456
 10
1.504921115730225
 20
-2.575498055193318
 10
1.501198470430495
 20
-2.61965152768126
 10
1.49511758198456
 20
-2.691776617703718
 10
1.483281570083868
 20
-2.762898780218556
 10
1.468706652096013
 20
-2.833632618342739
 10
1.457473437797173
 20
-2.888148235289652
 10
1.442306172324833
 20
-2.941759712670407
 10
1.426395346170074
 20
-2.995013519182571
 10
1.415132836708949
 20
-3.032709548583347
 10
1.401318791764575
 20
-3.069901048878086
 10
1.384181052166758
 20
-3.105483378599627
 10
1.35933875455828
 20
-3.157062109466222
 10
1.336041611299568
 20
-3.209474337464093
 10
1.305751737189641
 20
-3.258263597824578
 10
1.301363245246786
 20
-3.265332439342374
 10
1.296679572322811
 20
-3.272245226566079
 10
1.29173598756376
 20
-3.278937308431093
 10
1.272608615292003
 20
-3.304830338502597
 10
1.259893661438771
 20
-3.33469341768149
 10
1.239589884624441
 20
-3.360048478441083
 10
1.219193084348906
 20
-3.385519743916094
 10
1.196917527144415
 20
-3.409247938660225
 10
1.175973001385411
 20
-3.434163678715246
 10
1.154615330237422
 20
-3.459570711128132
 10
1.128324977286107
 20
-3.479688896314705
 10
1.10479602429954
 20
-3.502743688913192
 10
1.101278040193682
 20
-3.506191095469754
 10
1.097617882241416
 20
-3.508194721137947
 10
1.092719254757993
 20
-3.50781378145944
 10
1.070462910529651
 20
-3.425560071082322
 10
1.057977358523102
 20
-3.341683953383885
 10
1.050827785561801
 20
-3.256899794761945
 10
1.045227932889575
 20
-3.190492840608587
 10
1.044925631133196
 20
-3.123927045477405
 10
1.047235413493075
 20
-3.057461849632166
 10
1.049868862112235
 20
-2.981683138450307
 10
1.060062013243143
 20
-2.906615170977324
 10
1.073206205666085
 20
-2.831899161671092
 10
1.091476391823334
 20
-2.72804516831651
 10
1.120707364251719
 20
-2.627073720707711
 10
1.151703187330074
 20
-2.526553158541358
 10
1.183339036553295
 20
-2.423957074264156
 10
1.22434342467952
 20
-2.325080794887134
 10
1.272786127951879
 20
-2.229326298062018
 10
1.313244314570068
 20
-2.149354533399875
 10
1.358636959511512
 20
-2.072196762061467
 10
1.407727395890282
 20
-1.997218595474653
 10
1.417667477835847
 20
-1.982036672343762
 10
1.426853374813049
 20
-1.966329459312381
 10
1.438545070593287
 20
-1.95234776090375
 97
        0
 97
        1
330
82
 75
     2
 76
     1
 98
        1
 10
0.0
 20
0.0
450
        0
451
        0
460
0.0
461
0.0
452
        0
462
0.0
453
        0
470

  0
SPLINE
  5
84
330
70
100
AcDbEntity
  8
Layer 1
100
AcDbSpline
210
0.0
220
0.0
230
1.0
 70
     9
 71
     3
 72
    80
 73
    76
 74
     0
 42
0.0000000001
 43
0.0000000001
 40
0.0
 40
0.0
 40
0.0
 40
0.0
 40
1.0
 40
1.0
 40
1.0
 40
2.0
 40
2.0
 40
2.0
 40
3.0
 40
3.0
 40
3.0
 40
4.0
 40
4.0
 40
4.0
 40
5.0
 40
5.0
 40
5.0
 40
6.0
 40
6.0
 40
6.0
 40
7.0
 40
7.0
 40
7.0
 40
8.0
 40
8.0
 40
8.0
 40
9.0
 40
9.0
 40
9.0
 40
10.0
 40
10.0
 40
10.0
 40
11.0
 40
11.0
 40
11.0
 40
12.0
 40
12.0
 40
12.0
 40
13.0
 40
13.0
 40
13.0
 40
14.0
 40
14.0
 40
14.0
 40
15.0
 40
15.0
 40
15.0
 40
16.0
 40
16.0
 40
16.0
 40
17.0
 40
17.0
 40
17.0
 40
18.0
 40
18.0
 40
18.0
 40
19.0
 40
19.0
 40
19.0
 40
20.0
 40
20.0
 40
20.0
 40
21.0
 40
21.0
 40
21.0
 40
22.0
 40
22.0
 40
22.0
 40
23.0
 40
23.0
 40
23.0
 40
24.0
 40
24.0
 40
24.0
 40
25.0
 40
25.0
 40
25.0
 40
25.0
 10
4.993483821899543
 20
-3.498418198284247
 30
0.0
 10
4.987723159882585
 20
-3.498701046692202
 30
0.0
 10
4.982824980883378
 20
-3.496468634282185
 30
0.0
 10
4.979562314915179
 20
-3.491994056068733
 30
0.0
 10
4.970073887041002
 20
-3.478983307970894
 30
0.0
 10
4.958034794526686
 20
-3.468401154824176
 30
0.0
 10
4.946511798474046
 20
-3.457440570014366
 30
0.0
 10
4.906215310004805
 20
-3.419109455370517
 30
0.0
 10
4.872330734865095
 20
-3.375326054494179
 30
0.0
 10
4.838234649350422
 20
-3.331705535287255
 30
0.0
 10
4.803205577359752
 20
-3.286892176070194
 30
0.0
 10
4.777273402180222
 20
-3.236630292643818
 30
0.0
 10
4.751635223635199
 20
-3.186215420275604
 30
0.0
 10
4.726336464901375
 20
-3.136468376685393
 30
0.0
 10
4.702054014912492
 20
-3.086395151753777
 30
0.0
 10
4.684731343071462
 20
-3.033023886518498
 30
0.0
 10
4.665434574397648
 20
-2.973570962509458
 30
0.0
 10
4.644058650378029
 20
-2.914794645332487
 30
0.0
 10
4.629928698386493
 20
-2.853777277025629
 30
0.0
 10
4.619174273630404
 20
-2.807334822446073
 30
0.0
 10
4.606825021633438
 20
-2.761173683598372
 30
0.0
 10
4.599681321420399
 20
-2.71403079604008
 30
0.0
 10
4.595158231966201
 20
-2.684184018961534
 30
0.0
 10
4.592565488186917
 20
-2.653953933523237
 30
0.0
 10
4.588796200530118
 20
-2.623980780333365
 30
0.0
 10
4.58534626845921
 20
-2.596549361457782
 30
0.0
 10
4.583497294364684
 20
-2.569045906805399
 30
0.0
 10
4.580752954216525
 20
-2.541594423806309
 30
0.0
 10
4.580337736220902
 20
-2.537443379584639
 30
0.0
 10
4.580242709820569
 20
-2.533246076411513
 30
0.0
 10
4.580241037801796
 20
-2.529070230703837
 30
0.0
 10
4.580224038944252
 20
-2.485332392107983
 30
0.0
 10
4.579153946928727
 20
-2.441558883959209
 30
0.0
 10
4.580560393387687
 20
-2.397865771638723
 30
0.0
 10
4.582240214916206
 20
-2.345683584390397
 30
0.0
 10
4.586029566798313
 20
-2.293610635147918
 30
0.0
 10
4.590989889161972
 20
-2.241562626725655
 30
0.0
 10
4.597212864369971
 20
-2.176263658060052
 30
0.0
 10
4.609359244755649
 20
-2.11205177475353
 30
0.0
 10
4.62157529259025
 20
-2.04781209427588
 30
0.0
 10
4.625445458713076
 20
-2.027460384984995
 30
0.0
 10
4.632535375655581
 20
-2.007715824431897
 30
0.0
 10
4.638256466561515
 20
-1.987723388352795
 30
0.0
 10
4.640957055551754
 20
-1.97828593525316
 30
0.0
 10
4.643905939329973
 20
-1.968919403256816
 30
0.0
 10
4.646742797850316
 20
-1.959520685062304
 30
0.0
 10
4.659615391723617
 20
-1.972670697684167
 30
0.0
 10
4.667698487818015
 20
-1.989187163697554
 30
0.0
 10
4.677517418069909
 20
-2.004389986957094
 30
0.0
 10
4.72382983008894
 20
-2.076095263061739
 30
0.0
 10
4.766787057767613
 20
-2.149841924400385
 30
0.0
 10
4.807493190836541
 20
-2.224841827121015
 30
0.0
 10
4.847532188414535
 20
-2.298612732608919
 30
0.0
 10
4.882335259200923
 20
-2.37463681130133
 30
0.0
 10
4.910339622981331
 20
-2.454090461773817
 30
0.0
 10
4.939948288775641
 20
-2.538096020935805
 30
0.0
 10
4.967256814076159
 20
-2.622710749181363
 30
0.0
 10
4.988878246185802
 20
-2.708997905722842
 30
0.0
 10
5.004696658469558
 20
-2.772125908356694
 30
0.0
 10
5.017612446161162
 20
-2.83610231688024
 30
0.0
 10
5.025039832226284
 20
-2.900874184300858
 30
0.0
 10
5.031787821329417
 20
-2.959725881275226
 30
0.0
 10
5.036181607998387
 20
-3.018765958075972
 30
0.0
 10
5.03773797880745
 20
-3.078090415960787
 30
0.0
 10
5.039015958490582
 20
-3.126786043744863
 30
0.0
 10
5.039601165061589
 20
-3.175410332423072
 30
0.0
 10
5.036664542754376
 20
-3.223984600126691
 30
0.0
 10
5.033803439961805
 20
-3.271308482799238
 30
0.0
 10
5.028763418036557
 20
-3.318441895632506
 30
0.0
 10
5.021821196085814
 20
-3.365403230739805
 30
0.0
 10
5.015436035056684
 20
-3.408596690650963
 30
0.0
 10
5.00688923242223
 20
-3.451266114669326
 30
0.0
 10
4.995889578245901
 20
-3.493479637214401
 30
0.0
 10
4.995436739827886
 20
-3.495216855909221
 30
0.0
 10
4.994301160410359
 20
-3.496776005507778
 30
0.0
 10
4.993483821899543
 20
-3.498418198284247
 30
0.0
  0
HATCH
  5
85
330
70
100
AcDbEntity
  8
Layer 1
 62
   254
420
 13421772
440
 33554687
100
AcDbHatch
 10
0.0
 20
0.0
 30
0.0
210
0.0
220
0.0
230
1.0
  2
SOLID
 70
     1
 71
     1
 91
        1
 92
        1
 93
        1
 72
     4
 94
        3
 73
     0
 74
     0
 95
       80
 96
       76
 40
0.0
 40
0.0
 40
0.0
 40
0.0
 40
1.0
 40
1.0
 40
1.0
 40
2.0
 40
2.0
 40
2.0
 40
3.0
 40
3.0
 40
3.0
 40
4.0
 40
4.0
 40
4.0
 40
5.0
 40
5.0
 40
5.0
 40
6.0
 40
6.0
 40
6.0
 40
7.0
 40
7.0
 40
7.0
 40
8.0
 40
8.0
 40
8.0
 40
9.0
 40
9.0
 40
9.0
 40
10.0
 40
10.0
 40
10.0
 40
11.0
 40
11.0
 40
11.0
 40
12.0
 40
12.0
 40
12.0
 40
13.0
 40
13.0
 40
13.0
 40
14.0
 40
14.0
 40
14.0
 40
15.0
 40
15.0
 40
15.0
 40
16.0
 40
16.0
 40
16.0
 40
17.0
 40
17.0
 40
17.0
 40
18.0
 40
18.0
 40
18.0
 40
19.0
 40
19.0
 40
19.0
 40
20.0
 40
20.0
 40
20.0
 40
21.0
 40
21.0
 40
21.0
 40
22.0
 40
22.0
 40
22.0
 40
23.0
 40
23.0
 40
23.0
 40
24.0
 40
24.0
 40
24.0
 40
25.0
 40
25.0
 40
25.0
 40
25.0
 10
4.993483821899543
 20
-3.498418198284247
 10
4.987723159882585
 20
-3.498701046692202
 10
4.982824980883378
 20
-3.496468634282185
 10
4.979562314915179
 20
-3.491994056068733
 10
4.970073887041002
 20
-3.478983307970894
 10
4.958034794526686
 20
-3.468401154824176
 10
4.946511798474046
 20
-3.457440570014366
 10
4.906215310004805
 20
-3.419109455370517
 10
4.872330734865095
 20
-3.375326054494179
 10
4.838234649350422
 20
-3.331705535287255
 10
4.803205577359752
 20
-3.286892176070194
 10
4.777273402180222
 20
-3.236630292643818
 10
4.751635223635199
 20
-3.186215420275604
 10
4.726336464901375
 20
-3.136468376685393
 10
4.702054014912492
 20
-3.086395151753777
 10
4.684731343071462
 20
-3.033023886518498
 10
4.665434574397648
 20
-2.973570962509458
 10
4.644058650378029
 20
-2.914794645332487
 10
4.629928698386493
 20
-2.853777277025629
 10
4.619174273630404
 20
-2.807334822446073
 10
4.606825021633438
 20
-2.761173683598372
 10
4.599681321420399
 20
-2.71403079604008
 10
4.595158231966201
 20
-2.684184018961534
 10
4.592565488186917
 20
-2.653953933523237
 10
4.588796200530118
 20
-2.623980780333365
 10
4.58534626845921
 20
-2.596549361457782
 10
4.583497294364684
 20
-2.569045906805399
 10
4.580752954216525
 20
-2.541594423806309
 10
4.580337736220902
 20
-2.537443379584639
 10
4.580242709820569
 20
-2.533246076411513
 10
4.580241037801796
 20
-2.529070230703837
 10
4.580224038944252
 20
-2.485332392107983
 10
4.579153946928727
 20
-2.441558883959209
 10
4.580560393387687
 20
-2.397865771638723
 10
4.582240214916206
 20
-2.345683584390397
 10
4.586029566798313
 20
-2.293610635147918
 10
4.590989889161972
 20
-2.241562626725655
 10
4.597212864369971
 20
-2.176263658060052
 10
4.609359244755649
 20
-2.11205177475353
 10
4.62157529259025
 20
-2.04781209427588
 10
4.625445458713076
 20
-2.027460384984995
 10
4.632535375655581
 20
-2.007715824431897
 10
4.638256466561515
 20
-1.987723388352795
 10
4.640957055551754
 20
-1.97828593525316
 10
4.643905939329973
 20
-1.968919403256816
 10
4.646742797850316
 20
-1.959520685062304
 10
4.659615391723617
 20
-1.972670697684167
 10
4.667698487818015
 20
-1.989187163697554
 10
4.677517418069909
 20
-2.004389986957094
 10
4.72382983008894
 20
-2.076095263061739
 10
4.766787057767613
 20
-2.149841924400385
 10
4.807493190836541
 20
-2.224841827121015
 10
4.847532188414535
 20
-2.298612732608919
 10
4.882335259200923
 20
-2.37463681130133
 10
4.910339622981331
 20
-2.454090461773817
 10
4.939948288775641
 20
-2.538096020935805
 10
4.967256814076159
 20
-2.622710749181363
 10
4.988878246185802
 20
-2.708997905722842
 10
5.004696658469558
 20
-2.772125908356694
 10
5.017612446161162
 20
-2.83610231688024
 10
5.025039832226284
 20
-2.900874184300858
 10
5.031787821329417
 20
-2.959725881275226
 10
5.036181607998387
 20
-3.018765958075972
 10
5.03773797880745
 20
-3.078090415960787
 10
5.039015958490582
 20
-3.126786043744863
 10
5.039601165061589
 20
-3.175410332423072
 10
5.036664542754376
 20
-3.223984600126691
 10
5.033803439961805
 20
-3.271308482799238
 10
5.028763418036557
 20
-3.318441895632506
 10
5.021821196085814
 20
-3.365403230739805
 10
5.015436035056684
 20
-3.408596690650963
 10
5.00688923242223
 20
-3.451266114669326
 10
4.995889578245901
 20
-3.493479637214401
 10
4.995436739827886
 20
-3.495216855909221
 10
4.994301160410359
 20
-3.496776005507778
 10
4.993483821899543
 20
-3.498418198284247
 97
        0
 97
        1
330
84
 75
     2
 76
     1
 98
        1
 10
0.0
 20
0.0
450
        0
451
        0
460
0.0
461
0.0
452
        0
462
0.0
453
        0
470

  0
SPLINE
  5
86
330
70
100
AcDbEntity
  8
Layer 1
100
AcDbSpline
210
0.0
220
0.0
230
1.0
 70
     9
 71
     3
 72
   155
 73
   151
 74
     0
 42
0.0000000001
 43
0.0000000001
 40
0.0
 40
0.0
 40
0.0
 40
0.0
 40
1.0
 40
1.0
 40
1.0
 40
2.0
 40
2.0
 40
2.0
 40
3.0
 40
3.0
 40
3.0
 40
4.0
 40
4.0
 40
4.0
 40
5.0
 40
5.0
 40
5.0
 40
6.0
 40
6.0
 40
6.0
 40
7.0
 40
7.0
 40
7.0
 40
8.0
 40
8.0
 40
8.0
 40
9.0
 40
9.0
 40
9.0
 40
10.0
 40
10.0
 40
10.0
 40
11.0
 40
11.0
 40
11.0
 40
12.0
 40
12.0
 40
12.0
 40
13.0
 40
13.0
 40
13.0
 40
14.0
 40
14.0
 40
14.0
 40
15.0
 40
15.0
 40
15.0
 40
16.0
 40
16.0
 40
16.0
 40
17.0
 40
17.0
 40
17.0
 40
18.0
 40
18.0
 40
18.0
 40
19.0
 40
19.0
 40
19.0
 40
20.0
 40
20.0
 40
20.0
 40
21.0
 40
21.0
 40
21.0
 40
22.0
 40
22.0
 40
22.0
 40
23.0
 40
23.0
 40
23.0
 40
24.0
 40
24.0
 40
24.0
 40
25.0
 40
25.0
 40
25.0
 40
26.0
 40
26.0
 40
26.0
 40
27.0
 40
27.0
 40
27.0
 40
28.0
 40
28.0
 40
28.0
 40
29.0
 40
29.0
 40
29.0
 40
30.0
 40
30.0
 40
30.0
 40
31.0
 40
31.0
 40
31.0
 40
32.0
 40
32.0
 40
32.0
 40
33.0
 40
33.0
 40
33.0
 40
34.0
 40
34.0
 40
34.0
 40
35.0
 40
35.0
 40
35.0
 40
36.0
 40
36.0
 40
36.0
 40
37.0
 40
37.0
 40
37.0
 40
38.0
 40
38.0
 40
38.0
 40
39.0
 40
39.0
 40
39.0
 40
40.0
 40
40.0
 40
40.0
 40
41.0
 40
41.0
 40
41.0
 40
42.0
 40
42.0
 40
42.0
 40
43.0
 40
43.0
 40
43.0
 40
44.0
 40
44.0
 40
44.0
 40
45.0
 40
45.0
 40
45.0
 40
46.0
 40
46.0
 40
46.0
 40
47.0
 40
47.0
 40
47.0
 40
48.0
 40
48.0
 40
48.0
 40
49.0
 40
49.0
 40
49.0
 40
50.0
 40
50.0
 40
50.0
 40
50.0
 10
2.059359789413065
 20
-2.116678227235272
 30
0.0
 10
2.063246745391097
 20
-2.063134048268819
 30
0.0
 10
2.066149718320464
 20
-2.007806112987736
 30
0.0
 10
2.077187410923897
 20
-1.952889492238808
 30
0.0
 10
2.085182726032649
 20
-1.91310916267317
 30
0.0
 10
2.093222628308707
 20
-1.873542502089612
 30
0.0
 10
2.105101067685798
 20
-1.834754719634373
 30
0.0
 10
2.115327482846471
 20
-1.801361121053938
 30
0.0
 10
2.127861074913274
 20
-1.768838500502144
 30
0.0
 10
2.141858101412266
 20
-1.736881089096603
 30
0.0
 10
2.166771877823331
 20
-1.679999368583316
 30
0.0
 10
2.198017937669811
 20
-1.626680075001306
 30
0.0
 10
2.233720972561425
 20
-1.575965459954456
 30
0.0
 10
2.258994929683454
 20
-1.540064786439756
 30
0.0
 10
2.282853244243281
 20
-1.50312569003222
 30
0.0
 10
2.311836714350925
 20
-1.469920958947833
 30
0.0
 10
2.326147244370089
 20
-1.453526131683297
 30
0.0
 10
2.344107094698971
 20
-1.440905937323148
 30
0.0
 10
2.358411354647728
 20
-1.424740628304928
 30
0.0
 10
2.386816027589677
 20
-1.392640538687689
 30
0.0
 10
2.42326478285463
 20
-1.371340764726925
 30
0.0
 10
2.457981466004336
 20
-1.347604662767429
 30
0.0
 10
2.47299382590399
 20
-1.337340679246103
 30
0.0
 10
2.487092984883095
 20
-1.325610534282014
 30
0.0
 10
2.502666167746636
 20
-1.316322116516554
 30
0.0
 10
2.54920708899816
 20
-1.288563697711197
 30
0.0
 10
2.596054268355171
 20
-1.261610160277604
 30
0.0
 10
2.646201316098098
 20
-1.240221386602254
 30
0.0
 10
2.695912524280541
 20
-1.219018415070763
 30
0.0
 10
2.74607949691387
 20
-1.199787997682872
 30
0.0
 10
2.798689428311301
 20
-1.187727082057462
 30
0.0
 10
2.831485101224264
 20
-1.1802086352301
 30
0.0
 10
2.863758546940074
 20
-1.16949095345736
 30
0.0
 10
2.897324323833484
 20
-1.16632045618889
 30
0.0
 10
2.922919865899769
 20
-1.163902772846603
 30
0.0
 10
2.948055045463547
 20
-1.158017627532659
 30
0.0
 10
2.97403403716871
 20
-1.158184950479405
 30
0.0
 10
3.010481817089372
 20
-1.158419676341104
 30
0.0
 10
3.046944505844117
 20
-1.157015596988862
 30
0.0
 10
3.083394515123144
 20
-1.156069648457004
 30
0.0
 10
3.121050467943101
 20
-1.155092410690864
 30
0.0
 10
3.158101149966796
 20
-1.161247986252988
 30
0.0
 10
3.195387168632957
 20
-1.164845690859806
 30
0.0
 10
3.222931727250447
 20
-1.167503455721758
 30
0.0
 10
3.250643209075582
 20
-1.169822142121258
 30
0.0
 10
3.27677937054553
 20
-1.178984279567619
 30
0.0
 10
3.337897648145624
 20
-1.200409689426856
 30
0.0
 10
3.400487720271737
 20
-1.217801888248156
 30
0.0
 10
3.459387368293265
 20
-1.245405541600727
 30
0.0
 10
3.49956597943891
 20
-1.264235477689794
 30
0.0
 10
3.538743051338769
 20
-1.28481188078063
 30
0.0
 10
3.576283774198221
 20
-1.308506391484077
 30
0.0
 10
3.587151617561175
 20
-1.315365744045518
 30
0.0
 10
3.598246019468029
 20
-1.321961476317382
 30
0.0
 10
3.60968652926115
 20
-1.327796008486416
 30
0.0
 10
3.627076639192712
 20
-1.336664751668245
 30
0.0
 10
3.642358333449919
 20
-1.348621697861921
 30
0.0
 10
3.656353966599908
 20
-1.361685323285289
 30
0.0
 10
3.691855105224552
 20
-1.394822442453447
 30
0.0
 10
3.729928087393823
 20
-1.425159292715685
 30
0.0
 10
3.763056631377771
 20
-1.460900498248659
 30
0.0
 10
3.811061126396351
 20
-1.512691330587687
 30
0.0
 10
3.853342579820441
 20
-1.568722520364872
 30
0.0
 10
3.890888597406021
 20
-1.62847414204609
 30
0.0
 10
3.906633998203283
 20
-1.653531584973481
 30
0.0
 10
3.918452662909203
 20
-1.680484878572251
 30
0.0
 10
3.931681675451196
 20
-1.706798349565423
 30
0.0
 10
3.94071782224695
 20
-1.724771624213985
 30
0.0
 10
3.948826555962543
 20
-1.743208881718967
 30
0.0
 10
3.956656062542833
 20
-1.761558219349341
 30
0.0
 10
3.968961006042263
 20
-1.790394544873922
 30
0.0
 10
3.979489986933609
 20
-1.820083665315223
 30
0.0
 10
3.988254709348337
 20
-1.850369623764145
 30
0.0
 10
3.997948238192141
 20
-1.883864100298966
 30
0.0
 10
4.007408799086761
 20
-1.917453881420492
 30
0.0
 10
4.012340418461437
 20
-1.951906628854695
 30
0.0
 10
4.016832575568312
 20
-1.983290819397982
 30
0.0
 10
4.022162971420685
 20
-2.014525643688393
 30
0.0
 10
4.024346627939873
 20
-2.046396598228334
 30
0.0
 10
4.026701387713627
 20
-2.080773756863866
 30
0.0
 10
4.032214033612389
 20
-2.115181847689819
 30
0.0
 10
4.029675630443256
 20
-2.149531696823866
 30
0.0
 10
4.025640491801368
 20
-2.204135233645363
 30
0.0
 10
4.026164948356886
 20
-2.259362012303704
 30
0.0
 10
4.011931609871149
 20
-2.312870243048855
 30
0.0
 10
4.009404910833432
 20
-2.32236893352548
 30
0.0
 10
4.006404473142993
 20
-2.331823037060947
 30
0.0
 10
4.00266472448455
 20
-2.340903028293281
 30
0.0
 10
3.98818086185247
 20
-2.376067494775687
 30
0.0
 10
3.987537970633765
 20
-2.414929472687693
 30
0.0
 10
3.971820436816061
 20
-2.45001981338041
 30
0.0
 10
3.956415849178938
 20
-2.484411950441476
 30
0.0
 10
3.938412387027028
 20
-2.517362535961284
 30
0.0
 10
3.921431085685753
 20
-2.550882858988542
 30
0.0
 10
3.910652416657436
 20
-2.572159886642604
 30
0.0
 10
3.898794180840518
 20
-2.5928171558146
 30
0.0
 10
3.886643899077752
 20
-2.613392635816428
 30
0.0
 10
3.86689401331609
 20
-2.64683730037791
 30
0.0
 10
3.844610183102026
 20
-2.678346195022249
 30
0.0
 10
3.820556799685239
 20
-2.708602196620088
 30
0.0
 10
3.798145060034963
 20
-2.736793683508191
 30
0.0
 10
3.775030793829677
 20
-2.764420727588104
 30
0.0
 10
3.749331865269191
 20
-2.789874994291759
 30
0.0
 10
3.705523858704206
 20
-2.833266448088491
 30
0.0
 10
3.658207678080998
 20
-2.872145146103434
 30
0.0
 10
3.607338457562491
 20
-2.906996946660973
 30
0.0
 10
3.549777539239534
 20
-2.94643381744552
 30
0.0
 10
3.488182875623679
 20
-2.977949121462655
 30
0.0
 10
3.424602689713411
 20
-3.006374829126015
 30
0.0
 10
3.392664065757141
 20
-3.020654075699768
 30
0.0
 10
3.361165600743207
 20
-3.035473799600847
 30
0.0
 10
3.326882109790934
 20
-3.042889025917752
 30
0.0
 10
3.267398787882307
 20
-3.055754727122651
 30
0.0
 10
3.208109977491075
 20
-3.069818841705303
 30
0.0
 10
3.14736901879438
 20
-3.075857585548192
 30
0.0
 10
3.094826943492206
 20
-3.081081363707248
 30
0.0
 10
3.042291556265126
 20
-3.079573767759383
 30
0.0
 10
2.989660027958532
 20
-3.076679378607397
 30
0.0
 10
2.965812442185842
 20
-3.075367825866426
 30
0.0
 10
2.941933088056455
 20
-3.074690661697609
 30
0.0
 10
2.918270121023434
 20
-3.071487089975511
 30
0.0
 10
2.873348967959461
 20
-3.065405291867591
 30
0.0
 10
2.828075436938838
 20
-3.061410998610931
 30
0.0
 10
2.784715531405355
 20
-3.046492765436722
 30
0.0
 10
2.740635403784848
 20
-3.031326935404927
 30
0.0
 10
2.695371068867479
 20
-3.019440892897743
 30
0.0
 10
2.65262326154027
 20
-3.000617261680809
 30
0.0
 10
2.616214774060797
 20
-2.98458505164865
 30
0.0
 10
2.577701075609638
 20
-2.97271963060176
 30
0.0
 10
2.54470225241558
 20
-2.949652576594442
 30
0.0
 10
2.51365342111703
 20
-2.927948628978798
 30
0.0
 10
2.481729148655252
 20
-2.907598731032408
 30
0.0
 10
2.45117593158837
 20
-2.885050557552795
 30
0.0
 10
2.414428581637316
 20
-2.857931107931133
 30
0.0
 10
2.38043003055116
 20
-2.827879648925835
 30
0.0
 10
2.346881531185065
 20
-2.797231142911628
 30
0.0
 10
2.331828485495242
 20
-2.783479415585436
 30
0.0
 10
2.319157091214454
 20
-2.76711391816813
 30
0.0
 10
2.305469109518917
 20
-2.751876888364664
 30
0.0
 10
2.271972024730138
 20
-2.714588829475486
 30
0.0
 10
2.241328100644762
 20
-2.675065432158274
 30
0.0
 10
2.2139111727937
 20
-2.633119152591764
 30
0.0
 10
2.173256802639318
 20
-2.570920230344275
 30
0.0
 10
2.140156125634954
 20
-2.505001781864987
 30
0.0
 10
2.11492466565677
 20
-2.434958344657755
 30
0.0
 10
2.093630600889633
 20
-2.375844978072475
 30
0.0
 10
2.080789496703257
 20
-2.314969033969608
 30
0.0
 10
2.070933642703443
 20
-2.253147150043256
 30
0.0
 10
2.063818436476998
 20
-2.208516736619142
 30
0.0
 10
2.061829500477566
 20
-2.16360807281535
 30
0.0
 10
2.059359789413065
 20
-2.116678227235272
 30
0.0
  0
HATCH
  5
87
330
70
100
AcDbEntity
  8
Layer 1
 62
   254
420
 13421772
440
 33554687
100
AcDbHatch
 10
0.0
 20
0.0
 30
0.0
210
0.0
220
0.0
230
1.0
  2
SOLID
 70
     1
 71
     1
 91
        1
 92
        1
 93
        1
 72
     4
 94
        3
 73
     0
 74
     0
 95
      155
 96
      151
 40
0.0
 40
0.0
 40
0.0
 40
0.0
 40
1.0
 40
1.0
 40
1.0
 40
2.0
 40
2.0
 40
2.0
 40
3.0
 40
3.0
 40
3.0
 40
4.0
 40
4.0
 40
4.0
 40
5.0
 40
5.0
 40
5.0
 40
6.0
 40
6.0
 40
6.0
 40
7.0
 40
7.0
 40
7.0
 40
8.0
 40
8.0
 40
8.0
 40
9.0
 40
9.0
 40
9.0
 40
10.0
 40
10.0
 40
10.0
 40
11.0
 40
11.0
 40
11.0
 40
12.0
 40
12.0
 40
12.0
 40
13.0
 40
13.0
 40
13.0
 40
14.0
 40
14.0
 40
14.0
 40
15.0
 40
15.0
 40
15.0
 40
16.0
 40
16.0
 40
16.0
 40
17.0
 40
17.0
 40
17.0
 40
18.0
 40
18.0
 40
18.0
 40
19.0
 40
19.0
 40
19.0
 40
20.0
 40
20.0
 40
20.0
 40
21.0
 40
21.0
 40
21.0
 40
22.0
 40
22.0
 40
22.0
 40
23.0
 40
23.0
 40
23.0
 40
24.0
 40
24.0
 40
24.0
 40
25.0
 40
25.0
 40
25.0
 40
26.0
 40
26.0
 40
26.0
 40
27.0
 40
27.0
 40
27.0
 40
28.0
 40
28.0
 40
28.0
 40
29.0
 40
29.0
 40
29.0
 40
30.0
 40
30.0
 40
30.0
 40
31.0
 40
31.0
 40
31.0
 40
32.0
 40
32.0
 40
32.0
 40
33.0
 40
33.0
 40
33.0
 40
34.0
 40
34.0
 40
34.0
 40
35.0
 40
35.0
 40
35.0
 40
36.0
 40
36.0
 40
36.0
 40
37.0
 40
37.0
 40
37.0
 40
38.0
 40
38.0
 40
38.0
 40
39.0
 40
39.0
 40
39.0
 40
40.0
 40
40.0
 40
40.0
 40
41.0
 40
41.0
 40
41.0
 40
42.0
 40
42.0
 40
42.0
 40
43.0
 40
43.0
 40
43.0
 40
44.0
 40
44.0
 40
44.0
 40
45.0
 40
45.0
 40
45.0
 40
46.0
 40
46.0
 40
46.0
 40
47.0
 40
47.0
 40
47.0
 40
48.0
 40
48.0
 40
48.0
 40
49.0
 40
49.0
 40
49.0
 40
50.0
 40
50.0
 40
50.0
 40
50.0
 10
2.059359789413065
 20
-2.116678227235272
 10
2.063246745391097
 20
-2.063134048268819
 10
2.066149718320464
 20
-2.007806112987736
 10
2.077187410923897
 20
-1.952889492238808
 10
2.085182726032649
 20
-1.91310916267317
 10
2.093222628308707
 20
-1.873542502089612
 10
2.105101067685798
 20
-1.834754719634373
 10
2.115327482846471
 20
-1.801361121053938
 10
2.127861074913274
 20
-1.768838500502144
 10
2.141858101412266
 20
-1.736881089096603
 10
2.166771877823331
 20
-1.679999368583316
 10
2.198017937669811
 20
-1.626680075001306
 10
2.233720972561425
 20
-1.575965459954456
 10
2.258994929683454
 20
-1.540064786439756
 10
2.282853244243281
 20
-1.50312569003222
 10
2.311836714350925
 20
-1.469920958947833
 10
2.326147244370089
 20
-1.453526131683297
 10
2.344107094698971
 20
-1.440905937323148
 10
2.358411354647728
 20
-1.424740628304928
 10
2.386816027589677
 20
-1.392640538687689
 10
2.42326478285463
 20
-1.371340764726925
 10
2.457981466004336
 20
-1.347604662767429
 10
2.47299382590399
 20
-1.337340679246103
 10
2.487092984883095
 20
-1.325610534282014
 10
2.502666167746636
 20
-1.316322116516554
 10
2.54920708899816
 20
-1.288563697711197
 10
2.596054268355171
 20
-1.261610160277604
 10
2.646201316098098
 20
-1.240221386602254
 10
2.695912524280541
 20
-1.219018415070763
 10
2.74607949691387
 20
-1.199787997682872
 10
2.798689428311301
 20
-1.187727082057462
 10
2.831485101224264
 20
-1.1802086352301
 10
2.863758546940074
 20
-1.16949095345736
 10
2.897324323833484
 20
-1.16632045618889
 10
2.922919865899769
 20
-1.163902772846603
 10
2.948055045463547
 20
-1.158017627532659
 10
2.97403403716871
 20
-1.158184950479405
 10
3.010481817089372
 20
-1.158419676341104
 10
3.046944505844117
 20
-1.157015596988862
 10
3.083394515123144
 20
-1.156069648457004
 10
3.121050467943101
 20
-1.155092410690864
 10
3.158101149966796
 20
-1.161247986252988
 10
3.195387168632957
 20
-1.164845690859806
 10
3.222931727250447
 20
-1.167503455721758
 10
3.250643209075582
 20
-1.169822142121258
 10
3.27677937054553
 20
-1.178984279567619
 10
3.337897648145624
 20
-1.200409689426856
 10
3.400487720271737
 20
-1.217801888248156
 10
3.459387368293265
 20
-1.245405541600727
 10
3.49956597943891
 20
-1.264235477689794
 10
3.538743051338769
 20
-1.28481188078063
 10
3.576283774198221
 20
-1.308506391484077
 10
3.587151617561175
 20
-1.315365744045518
 10
3.598246019468029
 20
-1.321961476317382
 10
3.60968652926115
 20
-1.327796008486416
 10
3.627076639192712
 20
-1.336664751668245
 10
3.642358333449919
 20
-1.348621697861921
 10
3.656353966599908
 20
-1.361685323285289
 10
3.691855105224552
 20
-1.394822442453447
 10
3.729928087393823
 20
-1.425159292715685
 10
3.763056631377771
 20
-1.460900498248659
 10
3.811061126396351
 20
-1.512691330587687
 10
3.853342579820441
 20
-1.568722520364872
 10
3.890888597406021
 20
-1.62847414204609
 10
3.906633998203283
 20
-1.653531584973481
 10
3.918452662909203
 20
-1.680484878572251
 10
3.931681675451196
 20
-1.706798349565423
 10
3.94071782224695
 20
-1.724771624213985
 10
3.948826555962543
 20
-1.743208881718967
 10
3.956656062542833
 20
-1.761558219349341
 10
3.968961006042263
 20
-1.790394544873922
 10
3.979489986933609
 20
-1.820083665315223
 10
3.988254709348337
 20
-1.850369623764145
 10
3.997948238192141
 20
-1.883864100298966
 10
4.007408799086761
 20
-1.917453881420492
 10
4.012340418461437
 20
-1.951906628854695
 10
4.016832575568312
 20
-1.983290819397982
 10
4.022162971420685
 20
-2.014525643688393
 10
4.024346627939873
 20
-2.046396598228334
 10
4.026701387713627
 20
-2.080773756863866
 10
4.032214033612389
 20
-2.115181847689819
 10
4.029675630443256
 20
-2.149531696823866
 10
4.025640491801368
 20
-2.204135233645363
 10
4.026164948356886
 20
-2.259362012303704
 10
4.011931609871149
 20
-2.312870243048855
 10
4.009404910833432
 20
-2.32236893352548
 10
4.006404473142993
 20
-2.331823037060947
 10
4.00266472448455
 20
-2.340903028293281
 10
3.98818086185247
 20
-2.376067494775687
 10
3.987537970633765
 20
-2.414929472687693
 10
3.971820436816061
 20
-2.45001981338041
 10
3.956415849178938
 20
-2.484411950441476
 10
3.938412387027028
 20
-2.517362535961284
 10
3.921431085685753
 20
-2.550882858988542
 10
3.910652416657436
 20
-2.572159886642604
 10
3.898794180840518
 20
-2.5928171558146
 10
3.886643899077752
 20
-2.613392635816428
 10
3.86689401331609
 20
-2.64683730037791
 10
3.844610183102026
 20
-2.678346195022249
 10
3.820556799685239
 20
-2.708602196620088
 10
3.798145060034963
 20
-2.736793683508191
 10
3.775030793829677
 20
-2.764420727588104
 10
3.749331865269191
 20
-2.789874994291759
 10
3.705523858704206
 20
-2.833266448088491
 10
3.658207678080998
 20
-2.872145146103434
 10
3.607338457562491
 20
-2.906996946660973
 10
3.549777539239534
 20
-2.94643381744552
 10
3.488182875623679
 20
-2.977949121462655
 10
3.424602689713411
 20
-3.006374829126015
 10
3.392664065757141
 20
-3.020654075699768
 10
3.361165600743207
 20
-3.035473799600847
 10
3.326882109790934
 20
-3.042889025917752
 10
3.267398787882307
 20
-3.055754727122651
 10
3.208109977491075
 20
-3.069818841705303
 10
3.14736901879438
 20
-3.075857585548192
 10
3.094826943492206
 20
-3.081081363707248
 10
3.042291556265126
 20
-3.079573767759383
 10
2.989660027958532
 20
-3.076679378607397
 10
2.965812442185842
 20
-3.075367825866426
 10
2.941933088056455
 20
-3.074690661697609
 10
2.918270121023434
 20
-3.071487089975511
 10
2.873348967959461
 20
-3.065405291867591
 10
2.828075436938838
 20
-3.061410998610931
 10
2.784715531405355
 20
-3.046492765436722
 10
2.740635403784848
 20
-3.031326935404927
 10
2.695371068867479
 20
-3.019440892897743
 10
2.65262326154027
 20
-3.000617261680809
 10
2.616214774060797
 20
-2.98458505164865
 10
2.577701075609638
 20
-2.97271963060176
 10
2.54470225241558
 20
-2.949652576594442
 10
2.51365342111703
 20
-2.927948628978798
 10
2.481729148655252
 20
-2.907598731032408
 10
2.45117593158837
 20
-2.885050557552795
 10
2.414428581637316
 20
-2.857931107931133
 10
2.38043003055116
 20
-2.827879648925835
 10
2.346881531185065
 20
-2.797231142911628
 10
2.331828485495242
 20
-2.783479415585436
 10
2.319157091214454
 20
-2.76711391816813
 10
2.305469109518917
 20
-2.751876888364664
 10
2.271972024730138
 20
-2.714588829475486
 10
2.241328100644762
 20
-2.675065432158274
 10
2.2139111727937
 20
-2.633119152591764
 10
2.173256802639318
 20
-2.570920230344275
 10
2.140156125634954
 20
-2.505001781864987
 10
2.11492466565677
 20
-2.434958344657755
 10
2.093630600889633
 20
-2.375844978072475
 10
2.080789496703257
 20
-2.314969033969608
 10
2.070933642703443
 20
-2.253147150043256
 10
2.063818436476998
 20
-2.208516736619142
 10
2.061829500477566
 20
-2.16360807281535
 10
2.059359789413065
 20
-2.116678227235272
 97
        0
 97
        1
330
86
 75
     2
 76
     1
 98
        1
 10
0.0
 20
0.0
450
        0
451
        0
460
0.0
461
0.0
452
        0
462
0.0
453
        0
470

  0
SPLINE
  5
88
330
70
100
AcDbEntity
  8
Layer 1
100
AcDbSpline
210
0.0
220
0.0
230
1.0
 70
     9
 71
     3
 72
    50
 73
    46
 74
     0
 42
0.0000000001
 43
0.0000000001
 40
0.0
 40
0.0
 40
0.0
 40
0.0
 40
1.0
 40
1.0
 40
1.0
 40
2.0
 40
2.0
 40
2.0
 40
3.0
 40
3.0
 40
3.0
 40
4.0
 40
4.0
 40
4.0
 40
5.0
 40
5.0
 40
5.0
 40
6.0
 40
6.0
 40
6.0
 40
7.0
 40
7.0
 40
7.0
 40
8.0
 40
8.0
 40
8.0
 40
9.0
 40
9.0
 40
9.0
 40
10.0
 40
10.0
 40
10.0
 40
11.0
 40
11.0
 40
11.0
 40
12.0
 40
12.0
 40
12.0
 40
13.0
 40
13.0
 40
13.0
 40
14.0
 40
14.0
 40
14.0
 40
15.0
 40
15.0
 40
15.0
 40
15.0
 10
2.512203362835053
 20
-4.134504975547795
 30
0.0
 10
2.510836069482391
 20
-4.101581420861091
 30
0.0
 10
2.512878719084963
 20
-4.064825061245175
 30
0.0
 10
2.514876781520203
 20
-4.028226706602026
 30
0.0
 10
2.517202977639903
 20
-3.985621654979947
 30
0.0
 10
2.518351375868026
 20
-3.942627303627887
 30
0.0
 10
2.528119588217097
 20
-3.900767689928266
 30
0.0
 10
2.533534142347762
 20
-3.877564088413666
 30
0.0
 10
2.53871029446821
 20
-3.85426211696012
 30
0.0
 10
2.550198874801101
 20
-3.832808274217515
 30
0.0
 10
2.563609580049892
 20
-3.80776490404345
 30
0.0
 10
2.583624759457064
 20
-3.791378924500071
 30
0.0
 10
2.611033884553825
 20
-3.785699941538647
 30
0.0
 10
2.637263400405357
 20
-3.780265350748423
 30
0.0
 10
2.658923149611925
 20
-3.790118228738846
 30
0.0
 10
2.676998229901338
 20
-3.809739548199912
 30
0.0
 10
2.701364141494043
 20
-3.836189915035877
 30
0.0
 10
2.7070850930651
 20
-3.868712465920553
 30
0.0
 10
2.711243821761399
 20
-3.902723105966338
 30
0.0
 10
2.714561525014232
 20
-3.929857325012284
 30
0.0
 10
2.717008245820579
 20
-3.957029164289805
 30
0.0
 10
2.717112746993974
 20
-3.984194594194554
 30
0.0
 10
2.717350452329709
 20
-4.04598039056542
 30
0.0
 10
2.717228952298771
 20
-4.107827215311949
 30
0.0
 10
2.714653625381717
 20
-4.169540836571816
 30
0.0
 10
2.713135989674267
 20
-4.205905388442285
 30
0.0
 10
2.714704761289226
 20
-4.242390046385505
 30
0.0
 10
2.710604553250037
 20
-4.278660965679541
 30
0.0
 10
2.706059727551784
 20
-4.318865010520362
 30
0.0
 10
2.70338324349887
 20
-4.35946337112202
 30
0.0
 10
2.692026055974654
 20
-4.398456044505286
 30
0.0
 10
2.685368495220207
 20
-4.421313539889171
 30
0.0
 10
2.676512787117202
 20
-4.443708445758551
 30
0.0
 10
2.654481849742763
 20
-4.45761121134789
 30
0.0
 10
2.626105879789772
 20
-4.475517884253122
 30
0.0
 10
2.585507591931786
 20
-4.467660550547811
 30
0.0
 10
2.566134328399054
 20
-4.440162669263068
 30
0.0
 10
2.542500343024774
 20
-4.406617126747227
 30
0.0
 10
2.528059674211021
 20
-4.369691336754941
 30
0.0
 10
2.523480293458103
 20
-4.328826847848227
 30
0.0
 10
2.520488773201135
 20
-4.302131252835932
 30
0.0
 10
2.517384670346713
 20
-4.275513127633908
 30
0.0
 10
2.516106969333375
 20
-4.24860881000331
 30
0.0
 10
2.514361660402831
 20
-4.211857466418298
 30
0.0
 10
2.511509614378622
 20
-4.175167151208976
 30
0.0
 10
2.512203362835053
 20
-4.134504975547795
 30
0.0
  0
HATCH
  5
89
330
70
100
AcDbEntity
  8
Layer 1
 62
    18
420
        0
440
 33554687
100
AcDbHatch
 10
0.0
 20
0.0
 30
0.0
210
0.0
220
0.0
230
1.0
  2
SOLID
 70
     1
 71
     1
 91
        1
 92
        1
 93
        1
 72
     4
 94
        3
 73
     0
 74
     0
 95
       50
 96
       46
 40
0.0
 40
0.0
 40
0.0
 40
0.0
 40
1.0
 40
1.0
 40
1.0
 40
2.0
 40
2.0
 40
2.0
 40
3.0
 40
3.0
 40
3.0
 40
4.0
 40
4.0
 40
4.0
 40
5.0
 40
5.0
 40
5.0
 40
6.0
 40
6.0
 40
6.0
 40
7.0
 40
7.0
 40
7.0
 40
8.0
 40
8.0
 40
8.0
 40
9.0
 40
9.0
 40
9.0
 40
10.0
 40
10.0
 40
10.0
 40
11.0
 40
11.0
 40
11.0
 40
12.0
 40
12.0
 40
12.0
 40
13.0
 40
13.0
 40
13.0
 40
14.0
 40
14.0
 40
14.0
 40
15.0
 40
15.0
 40
15.0
 40
15.0
 10
2.512203362835053
 20
-4.134504975547795
 10
2.510836069482391
 20
-4.101581420861091
 10
2.512878719084963
 20
-4.064825061245175
 10
2.514876781520203
 20
-4.028226706602026
 10
2.517202977639903
 20
-3.985621654979947
 10
2.518351375868026
 20
-3.942627303627887
 10
2.528119588217097
 20
-3.900767689928266
 10
2.533534142347762
 20
-3.877564088413666
 10
2.53871029446821
 20
-3.85426211696012
 10
2.550198874801101
 20
-3.832808274217515
 10
2.563609580049892
 20
-3.80776490404345
 10
2.583624759457064
 20
-3.791378924500071
 10
2.611033884553825
 20
-3.785699941538647
 10
2.637263400405357
 20
-3.780265350748423
 10
2.658923149611925
 20
-3.790118228738846
 10
2.676998229901338
 20
-3.809739548199912
 10
2.701364141494043
 20
-3.836189915035877
 10
2.7070850930651
 20
-3.868712465920553
 10
2.711243821761399
 20
-3.902723105966338
 10
2.714561525014232
 20
-3.929857325012284
 10
2.717008245820579
 20
-3.957029164289805
 10
2.717112746993974
 20
-3.984194594194554
 10
2.717350452329709
 20
-4.04598039056542
 10
2.717228952298771
 20
-4.107827215311949
 10
2.714653625381717
 20
-4.169540836571816
 10
2.713135989674267
 20
-4.205905388442285
 10
2.714704761289226
 20
-4.242390046385505
 10
2.710604553250037
 20
-4.278660965679541
 10
2.706059727551784
 20
-4.318865010520362
 10
2.70338324349887
 20
-4.35946337112202
 10
2.692026055974654
 20
-4.398456044505286
 10
2.685368495220207
 20
-4.421313539889171
 10
2.676512787117202
 20
-4.443708445758551
 10
2.654481849742763
 20
-4.45761121134789
 10
2.626105879789772
 20
-4.475517884253122
 10
2.585507591931786
 20
-4.467660550547811
 10
2.566134328399054
 20
-4.440162669263068
 10
2.542500343024774
 20
-4.406617126747227
 10
2.528059674211021
 20
-4.369691336754941
 10
2.523480293458103
 20
-4.328826847848227
 10
2.520488773201135
 20
-4.302131252835932
 10
2.517384670346713
 20
-4.275513127633908
 10
2.516106969333375
 20
-4.24860881000331
 10
2.514361660402831
 20
-4.211857466418298
 10
2.511509614378622
 20
-4.175167151208976
 10
2.512203362835053
 20
-4.134504975547795
 97
        0
 97
        1
330
88
 75
     2
 76
     1
 98
        1
 10
0.0
 20
0.0
450
        0
451
        0
460
0.0
461
0.0
452
        0
462
0.0
453
        0
470

  0
SPLINE
  5
8A
330
70
100
AcDbEntity
  8
Layer 1
100
AcDbSpline
210
0.0
220
0.0
230
1.0
 70
     9
 71
     3
 72
    41
 73
    37
 74
     0
 42
0.0000000001
 43
0.0000000001
 40
0.0
 40
0.0
 40
0.0
 40
0.0
 40
1.0
 40
1.0
 40
1.0
 40
2.0
 40
2.0
 40
2.0
 40
3.0
 40
3.0
 40
3.0
 40
4.0
 40
4.0
 40
4.0
 40
5.0
 40
5.0
 40
5.0
 40
6.0
 40
6.0
 40
6.0
 40
7.0
 40
7.0
 40
7.0
 40
8.0
 40
8.0
 40
8.0
 40
9.0
 40
9.0
 40
9.0
 40
10.0
 40
10.0
 40
10.0
 40
11.0
 40
11.0
 40
11.0
 40
12.0
 40
12.0
 40
12.0
 40
12.0
 10
3.569161810229236
 20
-4.040504278186264
 30
0.0
 10
3.571041995340894
 20
-4.073337822985497
 30
0.0
 10
3.572501389061041
 20
-4.118168041639667
 30
0.0
 10
3.571060666217211
 20
-4.162973458807856
 30
0.0
 10
3.568797310136435
 20
-4.233364256153511
 30
0.0
 10
3.567783788089425
 20
-4.304001117680702
 30
0.0
 10
3.550499572680235
 20
-4.372871779001317
 30
0.0
 10
3.543523353014405
 20
-4.400669228796939
 30
0.0
 10
3.533170770103727
 20
-4.42732218754678
 30
0.0
 10
3.51016295576043
 20
-4.446553092604315
 30
0.0
 10
3.489750114554782
 20
-4.463615121643012
 30
0.0
 10
3.466421551276602
 20
-4.472245481440621
 30
0.0
 10
3.440463181136313
 20
-4.463002887207241
 30
0.0
 10
3.420595696720864
 20
-4.455929168992775
 30
0.0
 10
3.408205201594177
 20
-4.439202099349535
 30
0.0
 10
3.399832010242435
 20
-4.420446045215284
 30
0.0
 10
3.385452091444145
 20
-4.388235602918686
 30
0.0
 10
3.380556420473087
 20
-4.353835663142945
 30
0.0
 10
3.377055073824875
 20
-4.318940250983536
 30
0.0
 10
3.36557764028382
 20
-4.204546880078901
 30
0.0
 10
3.367372552437978
 20
-4.089838056565617
 30
0.0
 10
3.368642729366835
 20
-3.975194162785353
 30
0.0
 10
3.369098075813023
 20
-3.934103673820673
 30
0.0
 10
3.371185451917805
 20
-3.892680454807633
 30
0.0
 10
3.384067938568831
 20
-3.852848710925475
 30
0.0
 10
3.391203000018246
 20
-3.830787371109611
 30
0.0
 10
3.404138851935133
 20
-3.812507839908978
 30
0.0
 10
3.421902100723173
 20
-3.798438151958659
 30
0.0
 10
3.451652888113307
 20
-3.774873674889072
 30
0.0
 10
3.511155856242541
 20
-3.783715822657161
 30
0.0
 10
3.534314430945338
 20
-3.827718117547748
 30
0.0
 10
3.549449266220183
 20
-3.856475301251798
 30
0.0
 10
3.556981989468062
 20
-3.887232487935054
 30
0.0
 10
3.561727457419237
 20
-3.918627825213636
 30
0.0
 10
3.567218088404135
 20
-3.954953363510614
 30
0.0
 10
3.569388926112752
 20
-3.991721705866918
 30
0.0
 10
3.569161810229236
 20
-4.040504278186264
 30
0.0
  0
HATCH
  5
8B
330
70
100
AcDbEntity
  8
Layer 1
 62
    18
420
        0
440
 33554687
100
AcDbHatch
 10
0.0
 20
0.0
 30
0.0
210
0.0
220
0.0
230
1.0
  2
SOLID
 70
     1
 71
     1
 91
        1
 92
        1
 93
        1
 72
     4
 94
        3
 73
     0
 74
     0
 95
       41
 96
       37
 40
0.0
 40
0.0
 40
0.0
 40
0.0
 40
1.0
 40
1.0
 40
1.0
 40
2.0
 40
2.0
 40
2.0
 40
3.0
 40
3.0
 40
3.0
 40
4.0
 40
4.0
 40
4.0
 40
5.0
 40
5.0
 40
5.0
 40
6.0
 40
6.0
 40
6.0
 40
7.0
 40
7.0
 40
7.0
 40
8.0
 40
8.0
 40
8.0
 40
9.0
 40
9.0
 40
9.0
 40
10.0
 40
10.0
 40
10.0
 40
11.0
 40
11.0
 40
11.0
 40
12.0
 40
12.0
 40
12.0
 40
12.0
 10
3.569161810229236
 20
-4.040504278186264
 10
3.571041995340894
 20
-4.073337822985497
 10
3.572501389061041
 20
-4.118168041639667
 10
3.571060666217211
 20
-4.162973458807856
 10
3.568797310136435
 20
-4.233364256153511
 10
3.567783788089425
 20
-4.304001117680702
 10
3.550499572680235
 20
-4.372871779001317
 10
3.543523353014405
 20
-4.400669228796939
 10
3.533170770103727
 20
-4.42732218754678
 10
3.51016295576043
 20
-4.446553092604315
 10
3.489750114554782
 20
-4.463615121643012
 10
3.466421551276602
 20
-4.472245481440621
 10
3.440463181136313
 20
-4.463002887207241
 10
3.420595696720864
 20
-4.455929168992775
 10
3.408205201594177
 20
-4.439202099349535
 10
3.399832010242435
 20
-4.420446045215284
 10
3.385452091444145
 20
-4.388235602918686
 10
3.380556420473087
 20
-4.353835663142945
 10
3.377055073824875
 20
-4.318940250983536
 10
3.36557764028382
 20
-4.204546880078901
 10
3.367372552437978
 20
-4.089838056565617
 10
3.368642729366835
 20
-3.975194162785353
 10
3.369098075813023
 20
-3.934103673820673
 10
3.371185451917805
 20
-3.892680454807633
 10
3.384067938568831
 20
-3.852848710925475
 10
3.391203000018246
 20
-3.830787371109611
 10
3.404138851935133
 20
-3.812507839908978
 10
3.421902100723173
 20
-3.798438151958659
 10
3.451652888113307
 20
-3.774873674889072
 10
3.511155856242541
 20
-3.783715822657161
 10
3.534314430945338
 20
-3.827718117547748
 10
3.549449266220183
 20
-3.856475301251798
 10
3.556981989468062
 20
-3.887232487935054
 10
3.561727457419237
 20
-3.918627825213636
 10
3.567218088404135
 20
-3.954953363510614
 10
3.569388926112752
 20
-3.991721705866918
 10
3.569161810229236
 20
-4.040504278186264
 97
        0
 97
        1
330
8A
 75
     2
 76
     1
 98
        1
 10
0.0
 20
0.0
450
        0
451
        0
460
0.0
461
0.0
452
        0
462
0.0
453
        0
470

  0
ENDSEC
  0
SECTION
  2
OBJECTS
  0
DICTIONARY
  5
C
330
0
100
AcDbDictionary
281
     1
  3
ACAD_COLOR
350
63
  3
ACAD_DETAILVIEWSTYLE
350
6A
  3
ACAD_GROUP
350
D
  3
ACAD_LAYOUT
350
62
  3
ACAD_MATERIAL
350
10
  3
ACAD_MLEADERSTYLE
350
66
  3
ACAD_MLINESTYLE
350
5F
  3
ACAD_PLOTSETTINGS
350
61
  3
ACAD_PLOTSTYLENAME
350
E
  3
ACAD_SCALELIST
350
42
  3
ACAD_SECTIONVIEWSTYLE
350
68
  3
ACAD_TABLESTYLE
350
64
  3
ACAD_VISUALSTYLE
350
29
  3
ACDB_RECOMPOSE_DATA
350
94
  3
AcDbVariableDictionary
350
8C
  0
DICTIONARY
  5
63
102
{ACAD_REACTORS
330
C
102
}
330
C
100
AcDbDictionary
281
     1
  0
DICTIONARY
  5
6A
102
{ACAD_REACTORS
330
C
102
}
330
C
100
AcDbDictionary
281
     1
  3
Imperial24
350
6B
  0
DICTIONARY
  5
D
102
{ACAD_REACTORS
330
C
102
}
330
C
100
AcDbDictionary
281
     1
  0
DICTIONARY
  5
62
102
{ACAD_REACTORS
330
C
102
}
330
C
100
AcDbDictionary
281
     1
  3
Layout1
350
6F
  3
Layout2
350
77
  3
Model
350
73
  0
DICTIONARY
  5
10
102
{ACAD_REACTORS
330
C
102
}
330
C
100
AcDbDictionary
281
     1
  3
ByBlock
350
19
  3
ByLayer
350
11
  3
Global
350
21
  0
DICTIONARY
  5
66
102
{ACAD_REACTORS
330
C
102
}
330
C
100
AcDbDictionary
281
     1
  3
Standard
350
67
  0
DICTIONARY
  5
5F
102
{ACAD_REACTORS
330
C
102
}
330
C
100
AcDbDictionary
281
     1
  3
Standard
350
60
  0
DICTIONARY
  5
61
102
{ACAD_REACTORS
330
C
102
}
330
C
100
AcDbDictionary
281
     1
  0
ACDBDICTIONARYWDFLT
  5
E
102
{ACAD_REACTORS
330
C
102
}
330
C
100
AcDbDictionary
281
     1
  3
Normal
350
F
100
AcDbDictionaryWithDefault
340
F
  0
DICTIONARY
  5
42
102
{ACAD_REACTORS
330
C
102
}
330
C
100
AcDbDictionary
281
     1
  3
A0
350
43
  3
A1
350
44
  3
A2
350
45
  3
A3
350
46
  3
A4
350
47
  3
A5
350
48
  3
A6
350
49
  3
A7
350
4A
  3
A8
350
4B
  3
A9
350
4C
  3
B0
350
4D
  3
B1
350
4E
  3
B2
350
4F
  3
B3
350
50
  3
B4
350
51
  3
B5
350
52
  3
B6
350
53
  0
DICTIONARY
  5
68
102
{ACAD_REACTORS
330
C
102
}
330
C
100
AcDbDictionary
281
     1
  3
Imperial24
350
69
  0
DICTIONARY
  5
64
102
{ACAD_REACTORS
330
C
102
}
330
C
100
AcDbDictionary
281
     1
  3
Standard
350
65
  0
DICTIONARY
  5
29
102
{ACAD_REACTORS
330
C
102
}
330
C
100
AcDbDictionary
281
     1
  3
2dWireframe
350
2F
  3
Basic
350
2E
  3
Brighten
350
35
  3
ColorChange
350
39
  3
Conceptual
350
32
  3
Dim
350
34
  3
EdgeColorOff
350
41
  3
Facepattern
350
38
  3
Flat
350
2A
  3
FlatWithEdges
350
2B
  3
Gouraud
350
2C
  3
GouraudWithEdges
350
2D
  3
Hidden
350
31
  3
JitterOff
350
3F
  3
Linepattern
350
37
  3
OverhangOff
350
40
  3
Realistic
350
33
  3
Shaded
350
3E
  3
Shaded with edges
350
3D
  3
Shades of Gray
350
3A
  3
Sketchy
350
3B
  3
Thicken
350
36
  3
Wireframe
350
30
  3
X-Ray
350
3C
  0
XRECORD
  5
94
102
{ACAD_REACTORS
330
C
102
}
330
C
100
AcDbXrecord
280
     1
 90
        1
330
65
  0
DICTIONARY
  5
8C
102
{ACAD_REACTORS
330
C
102
}
330
C
100
AcDbDictionary
281
     1
  3
CANNOSCALE
350
91
  3
CMLEADERSTYLE
350
8E
  3
CTABLESTYLE
350
8D
  3
CVIEWDETAILSTYLE
350
8F
  3
CVIEWSECTIONSTYLE
350
90
  0
ACDBDETAILVIEWSTYLE
  5
6B
102
{ACAD_REACTORS
330
6A
102
}
330
6A
100
AcDbModelDocViewStyle
 70
     0
  3
Imperial24
290
     1
300
Imperial24
 90
        0
100
AcDbDetailViewStyle
 70
     0
 71
     0
 90
        3
 71
     1
340
55
 62
   256
 40
0.24
340
0
 62
   256
 40
0.24
300

 40
0.36
280
     3
 71
     2
340
5D
 90
       25
 62
   256
 71
     3
340
55
 62
   256
 40
0.24
 90
        1
 40
0.75
 90
        1
300
%<\AcVar ViewType \f "%tc1">% %<\AcVar ViewDetailId>%\PSCALE %<\AcVar ViewScale \f "%sn">%
 71
     4
340
5D
 90
       25
 62
   256
340
5D
 90
       25
 62
   256
280
     0
  0
LAYOUT
  5
6F
102
{ACAD_REACTORS
330
62
102
}
330
62
100
AcDbPlotSettings
  1

  2

  4

  6

 40
0.0
 41
0.0
 42
0.0
 43
0.0
 44
0.0
 45
0.0
 46
0.0
 47
0.0
 48
0.0
 49
0.0
140
0.0
141
0.0
142
1.0
143
1.0
 70
   688
 72
     0
 73
     0
 74
     5
  7

 75
    16
147
1.0
 76
     0
 77
     2
 78
   300
148
0.0
149
0.0
100
AcDbLayout
  1
Layout1
 70
     1
 71
     1
 10
0.0
 20
0.0
 11
12.0
 21
9.0
 12
0.0
 22
0.0
 32
0.0
 14
0.0
 24
0.0
 34
0.0
 15
0.0
 25
0.0
 35
0.0
146
0.0
 13
0.0
 23
0.0
 33
0.0
 16
1.0
 26
0.0
 36
0.0
 17
0.0
 27
1.0
 37
0.0
 76
     0
330
6C
  0
LAYOUT
  5
77
102
{ACAD_REACTORS
330
62
102
}
330
62
100
AcDbPlotSettings
  1

  2

  4

  6

 40
0.0
 41
0.0
 42
0.0
 43
0.0
 44
0.0
 45
0.0
 46
0.0
 47
0.0
 48
0.0
 49
0.0
140
0.0
141
0.0
142
1.0
143
1.0
 70
   688
 72
     0
 73
     0
 74
     5
  7

 75
    16
147
1.0
 76
     0
 77
     2
 78
   300
148
0.0
149
0.0
100
AcDbLayout
  1
Layout2
 70
     1
 71
     2
 10
0.0
 20
0.0
 11
12.0
 21
9.0
 12
0.0
 22
0.0
 32
0.0
 14
0.0
 24
0.0
 34
0.0
 15
0.0
 25
0.0
 35
0.0
146
0.0
 13
0.0
 23
0.0
 33
0.0
 16
1.0
 26
0.0
 36
0.0
 17
0.0
 27
1.0
 37
0.0
 76
     0
330
74
  0
LAYOUT
  5
73
102
{ACAD_REACTORS
330
62
102
}
330
62
100
AcDbPlotSettings
  1

  2

  4

  6

 40
0.0
 41
0.0
 42
0.0
 43
0.0
 44
0.0
 45
0.0
 46
0.0
 47
0.0
 48
0.0
 49
0.0
140
0.0
141
0.0
142
1.0
143
1.0
 70
  1712
 72
     0
 73
     0
 74
     0
  7

 75
     0
147
1.0
 76
     0
 77
     2
 78
   300
148
0.0
149
0.0
100
AcDbLayout
  1
Model
 70
     1
 71
     0
 10
0.0
 20
0.0
 11
12.0
 21
9.0
 12
0.0
 22
0.0
 32
0.0
 14
0.0
 24
0.0
 34
0.0
 15
0.0
 25
0.0
 35
0.0
146
0.0
 13
0.0
 23
0.0
 33
0.0
 16
1.0
 26
0.0
 36
0.0
 17
0.0
 27
1.0
 37
0.0
 76
     0
330
70
  0
MATERIAL
  5
19
102
{ACAD_XDICTIONARY
360
1A
102
}
102
{ACAD_REACTORS
330
10
102
}
330
10
100
AcDbMaterial
  1
ByBlock
 72
     0
 43
0.0208333333333333
 43
0.0
 43
0.0
 43
0.0
 43
0.0
 43
0.0208333333333333
 43
0.0
 43
0.0
 43
0.0
 43
0.0
 43
1.0
 43
0.0
 43
0.0
 43
0.0
 43
0.0
 43
1.0
 77
     0
 47
0.0208333333333333
 47
0.0
 47
0.0
 47
0.0
 47
0.0
 47
0.0208333333333333
 47
0.0
 47
0.0
 47
0.0
 47
0.0
 47
1.0
 47
0.0
 47
0.0
 47
0.0
 47
0.0
 47
1.0
171
     0
 49
0.0208333333333333
 49
0.0
 49
0.0
 49
0.0
 49
0.0
 49
0.0208333333333333
 49
0.0
 49
0.0
 49
0.0
 49
0.0
 49
1.0
 49
0.0
 49
0.0
 49
0.0
 49
0.0
 49
1.0
175
     0
142
0.0208333333333333
142
0.0
142
0.0
142
0.0
142
0.0
142
0.0208333333333333
142
0.0
142
0.0
142
0.0
142
0.0
142
1.0
142
0.0
142
0.0
142
0.0
142
0.0
142
1.0
179
     0
144
0.0208333333333333
144
0.0
144
0.0
144
0.0
144
0.0
144
0.0208333333333333
144
0.0
144
0.0
144
0.0
144
0.0
144
1.0
144
0.0
144
0.0
144
0.0
144
0.0
144
1.0
147
0.0208333333333333
147
0.0
147
0.0
147
0.0
147
0.0
147
0.0208333333333333
147
0.0
147
0.0
147
0.0
147
0.0
147
1.0
147
0.0
147
0.0
147
0.0
147
0.0
147
1.0
  0
MATERIAL
  5
11
102
{ACAD_XDICTIONARY
360
12
102
}
102
{ACAD_REACTORS
330
10
102
}
330
10
100
AcDbMaterial
  1
ByLayer
 72
     0
 43
0.0208333333333333
 43
0.0
 43
0.0
 43
0.0
 43
0.0
 43
0.0208333333333333
 43
0.0
 43
0.0
 43
0.0
 43
0.0
 43
1.0
 43
0.0
 43
0.0
 43
0.0
 43
0.0
 43
1.0
 77
     0
 47
0.0208333333333333
 47
0.0
 47
0.0
 47
0.0
 47
0.0
 47
0.0208333333333333
 47
0.0
 47
0.0
 47
0.0
 47
0.0
 47
1.0
 47
0.0
 47
0.0
 47
0.0
 47
0.0
 47
1.0
171
     0
 49
0.0208333333333333
 49
0.0
 49
0.0
 49
0.0
 49
0.0
 49
0.0208333333333333
 49
0.0
 49
0.0
 49
0.0
 49
0.0
 49
1.0
 49
0.0
 49
0.0
 49
0.0
 49
0.0
 49
1.0
175
     0
142
0.0208333333333333
142
0.0
142
0.0
142
0.0
142
0.0
142
0.0208333333333333
142
0.0
142
0.0
142
0.0
142
0.0
142
1.0
142
0.0
142
0.0
142
0.0
142
0.0
142
1.0
179
     0
144
0.0208333333333333
144
0.0
144
0.0
144
0.0
144
0.0
144
0.0208333333333333
144
0.0
144
0.0
144
0.0
144
0.0
144
1.0
144
0.0
144
0.0
144
0.0
144
0.0
144
1.0
147
0.0208333333333333
147
0.0
147
0.0
147
0.0
147
0.0
147
0.0208333333333333
147
0.0
147
0.0
147
0.0
147
0.0
147
1.0
147
0.0
147
0.0
147
0.0
147
0.0
147
1.0
  0
MATERIAL
  5
21
102
{ACAD_XDICTIONARY
360
22
102
}
102
{ACAD_REACTORS
330
10
102
}
330
10
100
AcDbMaterial
  1
Global
 72
     0
 43
0.0208333333333333
 43
0.0
 43
0.0
 43
0.0
 43
0.0
 43
0.0208333333333333
 43
0.0
 43
0.0
 43
0.0
 43
0.0
 43
1.0
 43
0.0
 43
0.0
 43
0.0
 43
0.0
 43
1.0
 77
     0
 47
0.0208333333333333
 47
0.0
 47
0.0
 47
0.0
 47
0.0
 47
0.0208333333333333
 47
0.0
 47
0.0
 47
0.0
 47
0.0
 47
1.0
 47
0.0
 47
0.0
 47
0.0
 47
0.0
 47
1.0
171
     0
 49
0.0208333333333333
 49
0.0
 49
0.0
 49
0.0
 49
0.0
 49
0.0208333333333333
 49
0.0
 49
0.0
 49
0.0
 49
0.0
 49
1.0
 49
0.0
 49
0.0
 49
0.0
 49
0.0
 49
1.0
175
     0
142
0.0208333333333333
142
0.0
142
0.0
142
0.0
142
0.0
142
0.0208333333333333
142
0.0
142
0.0
142
0.0
142
0.0
142
1.0
142
0.0
142
0.0
142
0.0
142
0.0
142
1.0
179
     0
144
0.0208333333333333
144
0.0
144
0.0
144
0.0
144
0.0
144
0.0208333333333333
144
0.0
144
0.0
144
0.0
144
0.0
144
1.0
144
0.0
144
0.0
144
0.0
144
0.0
144
1.0
147
0.0208333333333333
147
0.0
147
0.0
147
0.0
147
0.0
147
0.0208333333333333
147
0.0
147
0.0
147
0.0
147
0.0
147
1.0
147
0.0
147
0.0
147
0.0
147
0.0
147
1.0
  0
MLEADERSTYLE
  5
67
102
{ACAD_REACTORS
330
66
102
}
330
66
100
AcDbMLeaderStyle
179
     2
170
     2
171
     1
172
     0
 90
        2
 40
0.0
 41
0.0
173
     1
 91
-1056964608
340
5B
 92
       -2
290
     1
 42
0.09
291
     1
 43
0.36
  3
Standard
 44
0.18
300

342
55
174
     1
178
     6
175
     1
176
     0
 93
-1056964608
 45
0.18
292
     0
297
     0
 46
0.18
 94
-1056964608
 47
1.0
 49
1.0
140
1.0
293
     1
141
0.0
294
     1
177
     0
142
1.0
295
     1
296
     0
143
0.125
271
     0
272
     9
273
     9
298
     1
  0
MLINESTYLE
  5
60
102
{ACAD_REACTORS
330
5F
102
}
330
5F
100
AcDbMlineStyle
  2
STANDARD
 70
     0
  3

 62
   256
 51
90.0
 52
90.0
 71
     2
 49
0.5
 62
   256
  6
BYLAYER
 49
-0.5
 62
   256
  6
BYLAYER
  0
ACDBPLACEHOLDER
  5
F
102
{ACAD_REACTORS
330
E
102
}
330
E
  0
SCALE
  5
43
102
{ACAD_REACTORS
330
42
102
}
330
42
100
AcDbScale
 70
     0
300
1:1
140
1.0
141
1.0
290
     1
  0
SCALE
  5
44
102
{ACAD_REACTORS
330
42
102
}
330
42
100
AcDbScale
 70
     0
300
1/128" = 1'-0"
140
0.0078125
141
12.0
290
     0
  0
SCALE
  5
45
102
{ACAD_REACTORS
330
42
102
}
330
42
100
AcDbScale
 70
     0
300
1/64" = 1'-0"
140
0.015625
141
12.0
290
     0
  0
SCALE
  5
46
102
{ACAD_REACTORS
330
42
102
}
330
42
100
AcDbScale
 70
     0
300
1/32" = 1'-0"
140
0.03125
141
12.0
290
     0
  0
SCALE
  5
47
102
{ACAD_REACTORS
330
42
102
}
330
42
100
AcDbScale
 70
     0
300
1/16" = 1'-0"
140
0.0625
141
12.0
290
     0
  0
SCALE
  5
48
102
{ACAD_REACTORS
330
42
102
}
330
42
100
AcDbScale
 70
     0
300
3/32" = 1'-0"
140
0.09375
141
12.0
290
     0
  0
SCALE
  5
49
102
{ACAD_REACTORS
330
42
102
}
330
42
100
AcDbScale
 70
     0
300
1/8" = 1'-0"
140
0.125
141
12.0
290
     0
  0
SCALE
  5
4A
102
{ACAD_REACTORS
330
42
102
}
330
42
100
AcDbScale
 70
     0
300
3/16" = 1'-0"
140
0.1875
141
12.0
290
     0
  0
SCALE
  5
4B
102
{ACAD_REACTORS
330
42
102
}
330
42
100
AcDbScale
 70
     0
300
1/4" = 1'-0"
140
0.25
141
12.0
290
     0
  0
SCALE
  5
4C
102
{ACAD_REACTORS
330
42
102
}
330
42
100
AcDbScale
 70
     0
300
3/8" = 1'-0"
140
0.375
141
12.0
290
     0
  0
SCALE
  5
4D
102
{ACAD_REACTORS
330
42
102
}
330
42
100
AcDbScale
 70
     0
300
1/2" = 1'-0"
140
0.5
141
12.0
290
     0
  0
SCALE
  5
4E
102
{ACAD_REACTORS
330
42
102
}
330
42
100
AcDbScale
 70
     0
300
3/4" = 1'-0"
140
0.75
141
12.0
290
     0
  0
SCALE
  5
4F
102
{ACAD_REACTORS
330
42
102
}
330
42
100
AcDbScale
 70
     0
300
1" = 1'-0"
140
1.0
141
12.0
290
     0
  0
SCALE
  5
50
102
{ACAD_REACTORS
330
42
102
}
330
42
100
AcDbScale
 70
     0
300
1-1/2" = 1'-0"
140
1.5
141
12.0
290
     0
  0
SCALE
  5
51
102
{ACAD_REACTORS
330
42
102
}
330
42
100
AcDbScale
 70
     0
300
3" = 1'-0"
140
3.0
141
12.0
290
     0
  0
SCALE
  5
52
102
{ACAD_REACTORS
330
42
102
}
330
42
100
AcDbScale
 70
     0
300
6" = 1'-0"
140
6.0
141
12.0
290
     0
  0
SCALE
  5
53
102
{ACAD_REACTORS
330
42
102
}
330
42
100
AcDbScale
 70
     0
300
1'-0" = 1'-0"
140
12.0
141
12.0
290
     0
  0
ACDBSECTIONVIEWSTYLE
  5
69
102
{ACAD_REACTORS
330
68
102
}
330
68
100
AcDbModelDocViewStyle
 70
     0
  3
Imperial24
290
     1
300
Imperial24
 90
        0
100
AcDbSectionViewStyle
 70
     0
 71
     0
 90
       78
 71
     1
340
55
 62
   256
 40
0.24
340
0
340
0
 62
   256
 40
0.24
300
I, O, Q, S, X, Z
 40
0.48
 90
        3
 40
0.18
 90
        1
 71
     2
340
5D
 90
       25
 62
   256
340
5D
 90
       50
 62
   256
 40
0.24
 40
0.0
 40
0.24
 71
     3
340
55
 62
   256
 40
0.24
 90
        1
 40
0.75
 90
        1
300
%<\AcVar ViewType \f "%tc1">% %<\AcVar ViewSectionStartId>%-%<\AcVar ViewSectionEndId>%\PSCALE %<\AcVar ViewScale \f "%sn">%
 71
     4
 62
   256
 62
   257
300
ANSI31
 40
1.0
 90
        0
290
     0
290
     0
 90
        6
 40
0.0
 40
1.570796326794896
 40
0.2617993877991494
 40
1.308996938995747
 40
-0.2617993877991494
 40
1.832595714594046
  0
TABLESTYLE
  5
65
102
{ACAD_XDICTIONARY
360
92
102
}
102
{ACAD_REACTORS
330
64
102
}
330
64
100
AcDbTableStyle
280
     0
  3
Standard
 70
     0
 71
     0
 40
0.06
 41
0.06
280
     0
281
     0
  7
Standard
140
0.18
170
     2
 62
     0
 63
     7
283
     0
 90
      512
 91
        0
  1

274
    -2
284
     1
 64
     0
275
    -2
285
     1
 65
     0
276
    -2
286
     1
 66
     0
277
    -2
287
     1
 67
     0
278
    -2
288
     1
 68
     0
279
    -2
289
     1
 69
     0
  7
Standard
140
0.25
170
     5
 62
     0
 63
     7
283
     0
 90
      512
 91
        0
  1

274
    -2
284
     1
 64
     0
275
    -2
285
     1
 65
     0
276
    -2
286
     1
 66
     0
277
    -2
287
     1
 67
     0
278
    -2
288
     1
 68
     0
279
    -2
289
     1
 69
     0
  7
Standard
140
0.18
170
     5
 62
     0
 63
     7
283
     0
 90
      512
 91
        0
  1

274
    -2
284
     1
 64
     0
275
    -2
285
     1
 65
     0
276
    -2
286
     1
 66
     0
277
    -2
287
     1
 67
     0
278
    -2
288
     1
 68
     0
279
    -2
289
     1
 69
     0
  0
VISUALSTYLE
  5
2F
102
{ACAD_REACTORS
330
29
102
}
330
29
100
AcDbVisualStyle
  2
2dWireframe
 70
     4
177
     3
291
     0
 70
    58
 90
        0
176
     1
 90
        2
176
     1
 90
        0
176
     1
 90
        0
176
     1
 40
0.6
176
     1
 40
30.0
176
     1
 62
     7
420
 16777215
176
     1
 90
        1
176
     1
 90
        4
176
     1
 62
     7
176
     1
 62
   257
176
     1
 90
        1
176
     1
 90
        1
176
     1
 40
1.0
176
     1
 90
        0
176
     1
 62
   257
176
     1
 40
1.0
176
     1
 90
        1
176
     1
 90
        6
176
     1
 90
        2
176
     1
 62
     7
176
     1
 90
        5
176
     1
 90
        0
176
     1
 90
        0
176
     1
290
     0
176
     1
 90
        1
176
     1
 40
0.0
176
     1
 90
        0
176
     1
290
     1
176
     1
290
     1
176
     1
290
     0
176
     1
290
     0
176
     1
290
     0
176
     1
290
     0
176
     1
290
     0
176
     1
290
     0
176
     1
290
     0
176
     1
 90
       50
176
     1
 40
0.0
176
     1
 40
1.0
176
     1
 90
        0
176
     1
 62
    18
420
        0
176
     1
 90
       50
176
     1
 90
        3
176
     1
 62
     5
420
      255
176
     1
290
     0
176
     1
 90
       50
176
     1
 90
       50
176
     1
 90
       50
176
     1
290
     0
176
     1
 90
       50
176
     1
 62
   256
176
     0
 40
1.0
176
     0
 90
        2
176
     1
  1
strokes_ogs.tif
176
     1
290
     0
176
     1
 40
1.0
176
     1
 40
1.0
176
     1
  0
VISUALSTYLE
  5
2E
102
{ACAD_REACTORS
330
29
102
}
330
29
100
AcDbVisualStyle
  2
Basic
 70
     7
177
     3
291
     1
 70
    58
 90
        1
176
     1
 90
        0
176
     1
 90
        1
176
     1
 90
        0
176
     1
 40
0.6
176
     1
 40
30.0
176
     1
 62
     7
420
 16777215
176
     1
 90
        0
176
     1
 90
        4
176
     1
 62
     7
176
     1
 62
   257
176
     1
 90
        1
176
     1
 90
        1
176
     1
 40
1.0
176
     1
 90
        8
176
     1
 62
     7
176
     1
 40
1.0
176
     1
 90
        1
176
     1
 90
        6
176
     1
 90
        2
176
     1
 62
     7
176
     1
 90
        5
176
     1
 90
        0
176
     1
 90
        0
176
     1
290
     0
176
     1
 90
        1
176
     1
 40
0.0
176
     1
 90
        0
176
     1
290
     0
176
     1
290
     1
176
     1
290
     1
176
     1
290
     0
176
     1
290
     0
176
     1
290
     0
176
     1
290
     0
176
     1
290
     0
176
     1
290
     0
176
     1
 90
       50
176
     1
 40
0.0
176
     1
 40
1.0
176
     1
 90
        0
176
     1
 62
    18
420
        0
176
     1
 90
       50
176
     1
 90
        3
176
     1
 62
     5
420
      255
176
     1
290
     0
176
     1
 90
       50
176
     1
 90
       50
176
     1
 90
       50
176
     1
290
     0
176
     1
 90
       50
176
     1
 62
   256
176
     0
 40
1.0
176
     0
 90
        2
176
     1
  1
strokes_ogs.tif
176
     1
290
     0
176
     1
 40
1.0
176
     1
 40
1.0
176
     1
  0
VISUALSTYLE
  5
35
102
{ACAD_REACTORS
330
29
102
}
330
29
100
AcDbVisualStyle
  2
Brighten
 70
    12
177
     3
291
     1
 70
    58
 90
        2
176
     1
 90
        2
176
     1
 90
        0
176
     1
 90
        0
176
     1
 40
0.6
176
     1
 40
30.0
176
     1
 62
     7
420
 16777215
176
     1
 90
        1
176
     1
 90
        4
176
     1
 62
     7
176
     1
 62
   257
176
     1
 90
        1
176
     1
 90
        1
176
     1
 40
1.0
176
     1
 90
        8
176
     1
 62
     7
176
     1
 40
1.0
176
     1
 90
        1
176
     1
 90
        6
176
     1
 90
        2
176
     1
 62
     7
176
     1
 90
        5
176
     1
 90
        0
176
     1
 90
        0
176
     1
290
     0
176
     1
 90
        1
176
     1
 40
50.0
176
     1
 90
        0
176
     1
290
     0
176
     1
290
     1
176
     1
290
     1
176
     1
290
     0
176
     1
290
     0
176
     1
290
     0
176
     1
290
     0
176
     1
290
     0
176
     1
290
     0
176
     1
 90
       50
176
     1
 40
0.0
176
     1
 40
1.0
176
     1
 90
        0
176
     1
 62
    18
420
        0
176
     1
 90
       50
176
     1
 90
        3
176
     1
 62
     5
420
      255
176
     1
290
     0
176
     1
 90
       50
176
     1
 90
       50
176
     1
 90
       50
176
     1
290
     0
176
     1
 90
       50
176
     1
 62
   256
176
     0
 40
1.0
176
     0
 90
        2
176
     1
  1
strokes_ogs.tif
176
     1
290
     0
176
     1
 40
1.0
176
     1
 40
1.0
176
     1
  0
VISUALSTYLE
  5
39
102
{ACAD_REACTORS
330
29
102
}
330
29
100
AcDbVisualStyle
  2
ColorChange
 70
    16
177
     3
291
     1
 70
    58
 90
        2
176
     1
 90
        2
176
     1
 90
        3
176
     1
 90
        0
176
     1
 40
0.6
176
     1
 40
30.0
176
     1
 62
     8
420
  8421504
176
     1
 90
        1
176
     1
 90
        4
176
     1
 62
     7
176
     1
 62
   257
176
     1
 90
        1
176
     1
 90
        1
176
     1
 40
1.0
176
     1
 90
        8
176
     1
 62
     8
420
  8421504
176
     1
 40
1.0
176
     1
 90
        1
176
     1
 90
        6
176
     1
 90
        2
176
     1
 62
     7
176
     1
 90
        5
176
     1
 90
        0
176
     1
 90
        0
176
     1
290
     0
176
     1
 90
        1
176
     1
 40
0.0
176
     1
 90
        0
176
     1
290
     0
176
     1
290
     1
176
     1
290
     1
176
     1
290
     0
176
     1
290
     0
176
     1
290
     0
176
     1
290
     0
176
     1
290
     0
176
     1
290
     0
176
     1
 90
       50
176
     1
 40
0.0
176
     1
 40
1.0
176
     1
 90
        0
176
     1
 62
    18
420
        0
176
     1
 90
       50
176
     1
 90
        3
176
     1
 62
     5
420
      255
176
     1
290
     0
176
     1
 90
       50
176
     1
 90
       50
176
     1
 90
       50
176
     1
290
     0
176
     1
 90
       50
176
     1
 62
   256
176
     0
 40
1.0
176
     0
 90
        2
176
     1
  1
strokes_ogs.tif
176
     1
290
     0
176
     1
 40
1.0
176
     1
 40
1.0
176
     1
  0
VISUALSTYLE
  5
32
102
{ACAD_REACTORS
330
29
102
}
330
29
100
AcDbVisualStyle
  2
Conceptual
 70
     9
177
     3
291
     0
 70
    58
 90
        3
176
     1
 90
        2
176
     1
 90
        0
176
     1
 90
        0
176
     1
 40
0.6
176
     1
 40
30.0
176
     1
 62
     7
420
 16777215
176
     1
 90
        2
176
     1
 90
        2
176
     1
 62
     7
176
     1
 62
   257
176
     1
 90
        1
176
     1
 90
        1
176
     1
 40
179.0
176
     1
 90
        8
176
     1
 62
     7
176
     1
 40
1.0
176
     1
 90
        1
176
     1
 90
        6
176
     1
 90
        2
176
     1
 62
     7
176
     1
 90
        3
176
     1
 90
        0
176
     1
 90
        0
176
     1
290
     0
176
     1
 90
        1
176
     1
 40
0.0
176
     1
 90
        0
176
     1
290
     0
176
     1
290
     1
176
     1
290
     1
176
     1
290
     0
176
     1
290
     0
176
     1
290
     0
176
     1
290
     0
176
     1
290
     0
176
     1
290
     0
176
     1
 90
       50
176
     1
 40
0.0
176
     1
 40
1.0
176
     1
 90
        0
176
     1
 62
    18
420
        0
176
     1
 90
       50
176
     1
 90
        3
176
     1
 62
     5
420
      255
176
     1
290
     0
176
     1
 90
       50
176
     1
 90
       50
176
     1
 90
       50
176
     1
290
     0
176
     1
 90
       50
176
     1
 62
   256
176
     0
 40
1.0
176
     0
 90
        2
176
     1
  1
strokes_ogs.tif
176
     1
290
     0
176
     1
 40
1.0
176
     1
 40
1.0
176
     1
  0
VISUALSTYLE
  5
34
102
{ACAD_REACTORS
330
29
102
}
330
29
100
AcDbVisualStyle
  2
Dim
 70
    11
177
     3
291
     1
 70
    58
 90
        2
176
     1
 90
        2
176
     1
 90
        0
176
     1
 90
        0
176
     1
 40
0.6
176
     1
 40
30.0
176
     1
 62
     7
420
 16777215
176
     1
 90
        1
176
     1
 90
        4
176
     1
 62
     7
176
     1
 62
   257
176
     1
 90
        1
176
     1
 90
        1
176
     1
 40
1.0
176
     1
 90
        8
176
     1
 62
     7
176
     1
 40
1.0
176
     1
 90
        1
176
     1
 90
        6
176
     1
 90
        2
176
     1
 62
     7
176
     1
 90
        5
176
     1
 90
        0
176
     1
 90
        0
176
     1
290
     0
176
     1
 90
        1
176
     1
 40
-50.0
176
     1
 90
        0
176
     1
290
     0
176
     1
290
     1
176
     1
290
     1
176
     1
290
     0
176
     1
290
     0
176
     1
290
     0
176
     1
290
     0
176
     1
290
     0
176
     1
290
     0
176
     1
 90
       50
176
     1
 40
0.0
176
     1
 40
1.0
176
     1
 90
        0
176
     1
 62
    18
420
        0
176
     1
 90
       50
176
     1
 90
        3
176
     1
 62
     5
420
      255
176
     1
290
     0
176
     1
 90
       50
176
     1
 90
       50
176
     1
 90
       50
176
     1
290
     0
176
     1
 90
       50
176
     1
 62
   256
176
     0
 40
1.0
176
     0
 90
        2
176
     1
  1
strokes_ogs.tif
176
     1
290
     0
176
     1
 40
1.0
176
     1
 40
1.0
176
     1
  0
VISUALSTYLE
  5
41
102
{ACAD_REACTORS
330
29
102
}
330
29
100
AcDbVisualStyle
  2
EdgeColorOff
 70
    22
177
     3
291
     1
 70
    58
 90
        2
176
     0
 90
        2
176
     0
 90
        0
176
     0
 90
        0
176
     0
 40
0.6
176
     0
 40
30.0
176
     0
 62
     7
420
 16777215
176
     0
 90
        1
176
     0
 90
        4
176
     0
 62
     7
176
     0
 62
   257
176
     0
 90
        1
176
     0
 90
        1
176
     0
 40
1.0
176
     0
 90
        8
176
     2
 62
     7
176
     0
 40
1.0
176
     0
 90
        1
176
     0
 90
        6
176
     0
 90
        2
176
     0
 62
     7
176
     0
 90
        5
176
     0
 90
        0
176
     0
 90
        0
176
     0
290
     0
176
     0
 90
        1
176
     0
 40
0.0
176
     0
 90
        0
176
     0
290
     0
176
     0
290
     1
176
     0
290
     1
176
     0
290
     0
176
     0
290
     0
176
     0
290
     0
176
     0
290
     0
176
     0
290
     0
176
     0
290
     0
176
     0
 90
       50
176
     0
 40
0.0
176
     0
 40
1.0
176
     0
 90
        0
176
     0
 62
    18
420
        0
176
     0
 90
       50
176
     0
 90
        3
176
     0
 62
     5
420
      255
176
     0
290
     0
176
     0
 90
       50
176
     0
 90
       50
176
     0
 90
       50
176
     0
290
     0
176
     0
 90
       50
176
     0
 62
   256
176
     0
 40
1.0
176
     0
 90
        2
176
     0
  1
strokes_ogs.tif
176
     0
290
     0
176
     0
 40
1.0
176
     0
 40
1.0
176
     0
  0
VISUALSTYLE
  5
38
102
{ACAD_REACTORS
330
29
102
}
330
29
100
AcDbVisualStyle
  2
Facepattern
 70
    15
177
     3
291
     1
 70
    58
 90
        2
176
     1
 90
        2
176
     1
 90
        0
176
     1
 90
        0
176
     1
 40
0.6
176
     1
 40
30.0
176
     1
 62
     7
420
 16777215
176
     1
 90
        1
176
     1
 90
        4
176
     1
 62
     7
176
     1
 62
   257
176
     1
 90
        1
176
     1
 90
        1
176
     1
 40
1.0
176
     1
 90
        8
176
     1
 62
     7
176
     1
 40
1.0
176
     1
 90
        1
176
     1
 90
        6
176
     1
 90
        2
176
     1
 62
     7
176
     1
 90
        5
176
     1
 90
        0
176
     1
 90
        0
176
     1
290
     0
176
     1
 90
        1
176
     1
 40
0.0
176
     1
 90
        0
176
     1
290
     0
176
     1
290
     1
176
     1
290
     1
176
     1
290
     0
176
     1
290
     0
176
     1
290
     0
176
     1
290
     0
176
     1
290
     0
176
     1
290
     0
176
     1
 90
       50
176
     1
 40
0.0
176
     1
 40
1.0
176
     1
 90
        0
176
     1
 62
    18
420
        0
176
     1
 90
       50
176
     1
 90
        3
176
     1
 62
     5
420
      255
176
     1
290
     0
176
     1
 90
       50
176
     1
 90
       50
176
     1
 90
       50
176
     1
290
     0
176
     1
 90
       50
176
     1
 62
   256
176
     0
 40
1.0
176
     0
 90
        2
176
     1
  1
strokes_ogs.tif
176
     1
290
     0
176
     1
 40
1.0
176
     1
 40
1.0
176
     1
  0
VISUALSTYLE
  5
2A
102
{ACAD_REACTORS
330
29
102
}
330
29
100
AcDbVisualStyle
  2
Flat
 70
     0
177
     3
291
     1
 70
    58
 90
        2
176
     1
 90
        1
176
     1
 90
        1
176
     1
 90
        2
176
     1
 40
0.6
176
     1
 40
30.0
176
     1
 62
     7
420
 16777215
176
     1
 90
        0
176
     1
 90
        0
176
     1
 62
     7
176
     1
 62
   257
176
     1
 90
        1
176
     1
 90
        1
176
     1
 40
1.0
176
     1
 90
        8
176
     1
 62
     7
176
     1
 40
1.0
176
     1
 90
        1
176
     1
 90
        6
176
     1
 90
        2
176
     1
 62
     7
176
     1
 90
        5
176
     1
 90
        0
176
     1
 90
        0
176
     1
290
     0
176
     1
 90
       13
176
     1
 40
0.0
176
     1
 90
        0
176
     1
290
     0
176
     1
290
     1
176
     1
290
     1
176
     1
290
     0
176
     1
290
     0
176
     1
290
     0
176
     1
290
     0
176
     1
290
     0
176
     1
290
     0
176
     1
 90
       50
176
     1
 40
0.0
176
     1
 40
1.0
176
     1
 90
        0
176
     1
 62
    18
420
        0
176
     1
 90
       50
176
     1
 90
        3
176
     1
 62
     5
420
      255
176
     1
290
     0
176
     1
 90
       50
176
     1
 90
       50
176
     1
 90
       50
176
     1
290
     0
176
     1
 90
       50
176
     1
 62
   256
176
     0
 40
1.0
176
     0
 90
        2
176
     1
  1
strokes_ogs.tif
176
     1
290
     0
176
     1
 40
1.0
176
     1
 40
1.0
176
     1
  0
VISUALSTYLE
  5
2B
102
{ACAD_REACTORS
330
29
102
}
330
29
100
AcDbVisualStyle
  2
FlatWithEdges
 70
     1
177
     3
291
     1
 70
    58
 90
        2
176
     1
 90
        1
176
     1
 90
        1
176
     1
 90
        2
176
     1
 40
0.6
176
     1
 40
30.0
176
     1
 62
     7
420
 16777215
176
     1
 90
        1
176
     1
 90
        0
176
     1
 62
     7
176
     1
 62
   257
176
     1
 90
        1
176
     1
 90
        1
176
     1
 40
1.0
176
     1
 90
        0
176
     1
 62
   257
176
     1
 40
1.0
176
     1
 90
        1
176
     1
 90
        6
176
     1
 90
        2
176
     1
 62
     7
176
     1
 90
        5
176
     1
 90
        0
176
     1
 90
        0
176
     1
290
     0
176
     1
 90
       13
176
     1
 40
0.0
176
     1
 90
        0
176
     1
290
     0
176
     1
290
     1
176
     1
290
     1
176
     1
290
     0
176
     1
290
     0
176
     1
290
     0
176
     1
290
     0
176
     1
290
     0
176
     1
290
     0
176
     1
 90
       50
176
     1
 40
0.0
176
     1
 40
1.0
176
     1
 90
        0
176
     1
 62
    18
420
        0
176
     1
 90
       50
176
     1
 90
        3
176
     1
 62
     5
420
      255
176
     1
290
     0
176
     1
 90
       50
176
     1
 90
       50
176
     1
 90
       50
176
     1
290
     0
176
     1
 90
       50
176
     1
 62
   256
176
     0
 40
1.0
176
     0
 90
        2
176
     1
  1
strokes_ogs.tif
176
     1
290
     0
176
     1
 40
1.0
176
     1
 40
1.0
176
     1
  0
VISUALSTYLE
  5
2C
102
{ACAD_REACTORS
330
29
102
}
330
29
100
AcDbVisualStyle
  2
Gouraud
 70
     2
177
     3
291
     1
 70
    58
 90
        2
176
     1
 90
        2
176
     1
 90
        1
176
     1
 90
        2
176
     1
 40
0.6
176
     1
 40
30.0
176
     1
 62
     7
420
 16777215
176
     1
 90
        0
176
     1
 90
        0
176
     1
 62
     7
176
     1
 62
   257
176
     1
 90
        1
176
     1
 90
        1
176
     1
 40
1.0
176
     1
 90
        0
176
     1
 62
     7
176
     1
 40
1.0
176
     1
 90
        1
176
     1
 90
        6
176
     1
 90
        2
176
     1
 62
     7
176
     1
 90
        5
176
     1
 90
        0
176
     1
 90
        0
176
     1
290
     0
176
     1
 90
       13
176
     1
 40
0.0
176
     1
 90
        0
176
     1
290
     0
176
     1
290
     1
176
     1
290
     1
176
     1
290
     0
176
     1
290
     0
176
     1
290
     0
176
     1
290
     0
176
     1
290
     0
176
     1
290
     0
176
     1
 90
       50
176
     1
 40
0.0
176
     1
 40
1.0
176
     1
 90
        0
176
     1
 62
    18
420
        0
176
     1
 90
       50
176
     1
 90
        3
176
     1
 62
     5
420
      255
176
     1
290
     0
176
     1
 90
       50
176
     1
 90
       50
176
     1
 90
       50
176
     1
290
     0
176
     1
 90
       50
176
     1
 62
   256
176
     0
 40
1.0
176
     0
 90
        2
176
     1
  1
strokes_ogs.tif
176
     1
290
     0
176
     1
 40
1.0
176
     1
 40
1.0
176
     1
  0
VISUALSTYLE
  5
2D
102
{ACAD_REACTORS
330
29
102
}
330
29
100
AcDbVisualStyle
  2
GouraudWithEdges
 70
     3
177
     3
291
     1
 70
    58
 90
        2
176
     1
 90
        2
176
     1
 90
        1
176
     1
 90
        2
176
     1
 40
0.6
176
     1
 40
30.0
176
     1
 62
     7
420
 16777215
176
     1
 90
        1
176
     1
 90
        0
176
     1
 62
     7
176
     1
 62
   257
176
     1
 90
        1
176
     1
 90
        1
176
     1
 40
1.0
176
     1
 90
        0
176
     1
 62
   257
176
     1
 40
1.0
176
     1
 90
        1
176
     1
 90
        6
176
     1
 90
        2
176
     1
 62
     7
176
     1
 90
        5
176
     1
 90
        0
176
     1
 90
        0
176
     1
290
     0
176
     1
 90
       13
176
     1
 40
0.0
176
     1
 90
        0
176
     1
290
     0
176
     1
290
     1
176
     1
290
     1
176
     1
290
     0
176
     1
290
     0
176
     1
290
     0
176
     1
290
     0
176
     1
290
     0
176
     1
290
     0
176
     1
 90
       50
176
     1
 40
0.0
176
     1
 40
1.0
176
     1
 90
        0
176
     1
 62
    18
420
        0
176
     1
 90
       50
176
     1
 90
        3
176
     1
 62
     5
420
      255
176
     1
290
     0
176
     1
 90
       50
176
     1
 90
       50
176
     1
 90
       50
176
     1
290
     0
176
     1
 90
       50
176
     1
 62
   256
176
     0
 40
1.0
176
     0
 90
        2
176
     1
  1
strokes_ogs.tif
176
     1
290
     0
176
     1
 40
1.0
176
     1
 40
1.0
176
     1
  0
VISUALSTYLE
  5
31
102
{ACAD_REACTORS
330
29
102
}
330
29
100
AcDbVisualStyle
  2
Hidden
 70
     6
177
     3
291
     0
 70
    58
 90
        1
176
     1
 90
        2
176
     1
 90
        2
176
     1
 90
        0
176
     1
 40
0.6
176
     1
 40
30.0
176
     1
 62
     7
420
 16777215
176
     1
 90
        2
176
     1
 90
        2
176
     1
 62
     7
176
     1
 62
   257
176
     1
 90
        2
176
     1
 90
        1
176
     1
 40
40.0
176
     1
 90
        0
176
     1
 62
   257
176
     1
 40
1.0
176
     1
 90
        1
176
     1
 90
        6
176
     1
 90
        2
176
     1
 62
     7
176
     1
 90
        3
176
     1
 90
        0
176
     1
 90
        0
176
     1
290
     0
176
     1
 90
        1
176
     1
 40
0.0
176
     1
 90
        0
176
     1
290
     0
176
     1
290
     1
176
     1
290
     1
176
     1
290
     0
176
     1
290
     0
176
     1
290
     0
176
     1
290
     0
176
     1
290
     0
176
     1
290
     0
176
     1
 90
       50
176
     1
 40
0.0
176
     1
 40
1.0
176
     1
 90
        0
176
     1
 62
    18
420
        0
176
     1
 90
       50
176
     1
 90
        3
176
     1
 62
     5
420
      255
176
     1
290
     0
176
     1
 90
       50
176
     1
 90
       50
176
     1
 90
       50
176
     1
290
     0
176
     1
 90
       50
176
     1
 62
   256
176
     0
 40
1.0
176
     0
 90
        2
176
     1
  1
strokes_ogs.tif
176
     1
290
     0
176
     1
 40
1.0
176
     1
 40
1.0
176
     1
  0
VISUALSTYLE
  5
3F
102
{ACAD_REACTORS
330
29
102
}
330
29
100
AcDbVisualStyle
  2
JitterOff
 70
    20
177
     3
291
     1
 70
    58
 90
        2
176
     0
 90
        2
176
     0
 90
        0
176
     0
 90
        0
176
     0
 40
0.6
176
     0
 40
30.0
176
     0
 62
     7
420
 16777215
176
     0
 90
        1
176
     0
 90
        4
176
     0
 62
     7
176
     0
 62
   257
176
     0
 90
        1
176
     0
 90
        1
176
     0
 40
1.0
176
     0
 90
       10
176
     2
 62
     7
176
     0
 40
1.0
176
     0
 90
        1
176
     0
 90
        6
176
     0
 90
        2
176
     0
 62
     7
176
     0
 90
        5
176
     0
 90
        0
176
     0
 90
        0
176
     0
290
     0
176
     0
 90
        1
176
     0
 40
0.0
176
     0
 90
        0
176
     0
290
     0
176
     0
290
     1
176
     0
290
     1
176
     0
290
     0
176
     0
290
     0
176
     0
290
     0
176
     0
290
     0
176
     0
290
     0
176
     0
290
     0
176
     0
 90
       50
176
     0
 40
0.0
176
     0
 40
1.0
176
     0
 90
        0
176
     0
 62
    18
420
        0
176
     0
 90
       50
176
     0
 90
        3
176
     0
 62
     5
420
      255
176
     0
290
     0
176
     0
 90
       50
176
     0
 90
       50
176
     0
 90
       50
176
     0
290
     0
176
     0
 90
       50
176
     0
 62
   256
176
     0
 40
1.0
176
     0
 90
        2
176
     0
  1
strokes_ogs.tif
176
     0
290
     0
176
     0
 40
1.0
176
     0
 40
1.0
176
     0
  0
VISUALSTYLE
  5
37
102
{ACAD_REACTORS
330
29
102
}
330
29
100
AcDbVisualStyle
  2
Linepattern
 70
    14
177
     3
291
     1
 70
    58
 90
        2
176
     1
 90
        2
176
     1
 90
        0
176
     1
 90
        0
176
     1
 40
0.6
176
     1
 40
30.0
176
     1
 62
     7
420
 16777215
176
     1
 90
        1
176
     1
 90
        4
176
     1
 62
     7
176
     1
 62
   257
176
     1
 90
        7
176
     1
 90
        7
176
     1
 40
1.0
176
     1
 90
        8
176
     1
 62
     7
176
     1
 40
1.0
176
     1
 90
        1
176
     1
 90
        6
176
     1
 90
        2
176
     1
 62
     7
176
     1
 90
        5
176
     1
 90
        0
176
     1
 90
        0
176
     1
290
     0
176
     1
 90
        1
176
     1
 40
0.0
176
     1
 90
        0
176
     1
290
     0
176
     1
290
     1
176
     1
290
     1
176
     1
290
     0
176
     1
290
     0
176
     1
290
     0
176
     1
290
     0
176
     1
290
     0
176
     1
290
     0
176
     1
 90
       50
176
     1
 40
0.0
176
     1
 40
1.0
176
     1
 90
        0
176
     1
 62
    18
420
        0
176
     1
 90
       50
176
     1
 90
        3
176
     1
 62
     5
420
      255
176
     1
290
     0
176
     1
 90
       50
176
     1
 90
       50
176
     1
 90
       50
176
     1
290
     0
176
     1
 90
       50
176
     1
 62
   256
176
     0
 40
1.0
176
     0
 90
        2
176
     1
  1
strokes_ogs.tif
176
     1
290
     0
176
     1
 40
1.0
176
     1
 40
1.0
176
     1
  0
VISUALSTYLE
  5
40
102
{ACAD_REACTORS
330
29
102
}
330
29
100
AcDbVisualStyle
  2
OverhangOff
 70
    21
177
     3
291
     1
 70
    58
 90
        2
176
     0
 90
        2
176
     0
 90
        0
176
     0
 90
        0
176
     0
 40
0.6
176
     0
 40
30.0
176
     0
 62
     7
420
 16777215
176
     0
 90
        1
176
     0
 90
        4
176
     0
 62
     7
176
     0
 62
   257
176
     0
 90
        1
176
     0
 90
        1
176
     0
 40
1.0
176
     0
 90
        9
176
     2
 62
     7
176
     0
 40
1.0
176
     0
 90
        1
176
     0
 90
        6
176
     0
 90
        2
176
     0
 62
     7
176
     0
 90
        5
176
     0
 90
        0
176
     0
 90
        0
176
     0
290
     0
176
     0
 90
        1
176
     0
 40
0.0
176
     0
 90
        0
176
     0
290
     0
176
     0
290
     1
176
     0
290
     1
176
     0
290
     0
176
     0
290
     0
176
     0
290
     0
176
     0
290
     0
176
     0
290
     0
176
     0
290
     0
176
     0
 90
       50
176
     0
 40
0.0
176
     0
 40
1.0
176
     0
 90
        0
176
     0
 62
    18
420
        0
176
     0
 90
       50
176
     0
 90
        3
176
     0
 62
     5
420
      255
176
     0
290
     0
176
     0
 90
       50
176
     0
 90
       50
176
     0
 90
       50
176
     0
290
     0
176
     0
 90
       50
176
     0
 62
   256
176
     0
 40
1.0
176
     0
 90
        2
176
     0
  1
strokes_ogs.tif
176
     0
290
     0
176
     0
 40
1.0
176
     0
 40
1.0
176
     0
  0
VISUALSTYLE
  5
33
102
{ACAD_REACTORS
330
29
102
}
330
29
100
AcDbVisualStyle
  2
Realistic
 70
     8
177
     3
291
     0
 70
    58
 90
        2
176
     1
 90
        3
176
     1
 90
        0
176
     1
 90
        2
176
     1
 40
0.6
176
     1
 40
30.0
176
     1
 62
     7
420
 16777215
176
     1
 90
        0
176
     1
 90
        0
176
     1
 62
     7
176
     1
 62
   257
176
     1
 90
        1
176
     1
 90
        1
176
     1
 40
1.0
176
     1
 90
        8
176
     1
 62
   257
176
     1
 40
1.0
176
     1
 90
        1
176
     1
 90
        6
176
     1
 90
        2
176
     1
 62
     7
176
     1
 90
        3
176
     1
 90
        0
176
     1
 90
        0
176
     1
290
     0
176
     1
 90
       13
176
     1
 40
0.0
176
     1
 90
        0
176
     1
290
     0
176
     1
290
     1
176
     1
290
     1
176
     1
290
     0
176
     1
290
     0
176
     1
290
     0
176
     1
290
     0
176
     1
290
     0
176
     1
290
     0
176
     1
 90
       50
176
     1
 40
0.0
176
     1
 40
1.0
176
     1
 90
        0
176
     1
 62
    18
420
        0
176
     1
 90
       50
176
     1
 90
        3
176
     1
 62
     5
420
      255
176
     1
290
     0
176
     1
 90
       50
176
     1
 90
       50
176
     1
 90
       50
176
     1
290
     0
176
     1
 90
       50
176
     1
 62
   256
176
     0
 40
1.0
176
     0
 90
        2
176
     1
  1
strokes_ogs.tif
176
     1
290
     0
176
     1
 40
1.0
176
     1
 40
1.0
176
     1
  0
VISUALSTYLE
  5
3E
102
{ACAD_REACTORS
330
29
102
}
330
29
100
AcDbVisualStyle
  2
Shaded
 70
    27
177
     3
291
     0
 70
    58
 90
        2
176
     1
 90
        2
176
     1
 90
        1
176
     1
 90
        2
176
     1
 40
0.6
176
     1
 40
30.0
176
     1
 62
     7
420
 16777215
176
     1
 90
        0
176
     1
 90
        4
176
     1
 62
     7
176
     1
 62
   257
176
     1
 90
        1
176
     1
 90
        1
176
     1
 40
1.0
176
     1
 90
        8
176
     1
 62
   257
176
     1
 40
1.0
176
     1
 90
        1
176
     1
 90
        6
176
     1
 90
        2
176
     1
 62
     8
420
  7895160
176
     1
 90
        3
176
     1
 90
        0
176
     1
 90
        0
176
     1
290
     0
176
     1
 90
        5
176
     1
 40
0.0
176
     1
 90
        0
176
     1
290
     0
176
     1
290
     1
176
     1
290
     1
176
     1
290
     0
176
     1
290
     0
176
     1
290
     0
176
     1
290
     0
176
     1
290
     0
176
     1
290
     0
176
     1
 90
       50
176
     1
 40
0.0
176
     1
 40
1.0
176
     1
 90
        0
176
     1
 62
    18
420
        0
176
     1
 90
       50
176
     1
 90
        3
176
     1
 62
     5
420
      255
176
     1
290
     0
176
     1
 90
       50
176
     1
 90
       50
176
     1
 90
       50
176
     1
290
     0
176
     1
 90
       50
176
     1
 62
   256
176
     0
 40
1.0
176
     0
 90
        2
176
     1
  1
strokes_ogs.tif
176
     1
290
     0
176
     1
 40
1.0
176
     1
 40
1.0
176
     1
  0
VISUALSTYLE
  5
3D
102
{ACAD_REACTORS
330
29
102
}
330
29
100
AcDbVisualStyle
  2
Shaded with edges
 70
    26
177
     3
291
     0
 70
    58
 90
        2
176
     1
 90
        2
176
     1
 90
        1
176
     1
 90
        2
176
     1
 40
0.6
176
     1
 40
30.0
176
     1
 62
     7
420
 16777215
176
     1
 90
        1
176
     1
 90
        2
176
     1
 62
     7
176
     1
 62
   257
176
     1
 90
        2
176
     1
 90
        1
176
     1
 40
1.0
176
     1
 90
        8
176
     1
 62
   257
176
     1
 40
1.0
176
     1
 90
        1
176
     1
 90
        6
176
     1
 90
        2
176
     1
 62
     7
176
     1
 90
        3
176
     1
 90
        0
176
     1
 90
        0
176
     1
290
     0
176
     1
 90
        5
176
     1
 40
0.0
176
     1
 90
        0
176
     1
290
     0
176
     1
290
     1
176
     1
290
     1
176
     1
290
     0
176
     1
290
     0
176
     1
290
     0
176
     1
290
     0
176
     1
290
     0
176
     1
290
     0
176
     1
 90
       50
176
     1
 40
0.0
176
     1
 40
1.0
176
     1
 90
        0
176
     1
 62
    18
420
        0
176
     1
 90
       50
176
     1
 90
        3
176
     1
 62
     5
420
      255
176
     1
290
     0
176
     1
 90
       50
176
     1
 90
       50
176
     1
 90
       50
176
     1
290
     0
176
     1
 90
       50
176
     1
 62
   256
176
     0
 40
1.0
176
     0
 90
        2
176
     1
  1
strokes_ogs.tif
176
     1
290
     0
176
     1
 40
1.0
176
     1
 40
1.0
176
     1
  0
VISUALSTYLE
  5
3A
102
{ACAD_REACTORS
330
29
102
}
330
29
100
AcDbVisualStyle
  2
Shades of Gray
 70
    23
177
     3
291
     0
 70
    58
 90
        2
176
     1
 90
        2
176
     1
 90
        3
176
     1
 90
        0
176
     1
 40
0.6
176
     1
 40
30.0
176
     1
 62
     7
420
 16777215
176
     1
 90
        2
176
     1
 90
        2
176
     1
 62
     7
176
     1
 62
     7
176
     1
 90
        1
176
     1
 90
        1
176
     1
 40
40.0
176
     1
 90
        8
176
     1
 62
     7
176
     1
 40
1.0
176
     1
 90
        1
176
     1
 90
        6
176
     1
 90
        2
176
     1
 62
     7
176
     1
 90
        3
176
     1
 90
        0
176
     1
 90
        0
176
     1
290
     0
176
     1
 90
        1
176
     1
 40
0.0
176
     1
 90
        0
176
     1
290
     0
176
     1
290
     1
176
     1
290
     1
176
     1
290
     0
176
     1
290
     0
176
     1
290
     0
176
     1
290
     0
176
     1
290
     0
176
     1
290
     0
176
     1
 90
       50
176
     1
 40
0.0
176
     1
 40
1.0
176
     1
 90
        0
176
     1
 62
    18
420
        0
176
     1
 90
       50
176
     1
 90
        3
176
     1
 62
     5
420
      255
176
     1
290
     0
176
     1
 90
       50
176
     1
 90
       50
176
     1
 90
       50
176
     1
290
     0
176
     1
 90
       50
176
     1
 62
   256
176
     0
 40
1.0
176
     0
 90
        2
176
     1
  1
strokes_ogs.tif
176
     1
290
     0
176
     1
 40
1.0
176
     1
 40
1.0
176
     1
  0
VISUALSTYLE
  5
3B
102
{ACAD_REACTORS
330
29
102
}
330
29
100
AcDbVisualStyle
  2
Sketchy
 70
    24
177
     3
291
     0
 70
    58
 90
        1
176
     1
 90
        2
176
     1
 90
        2
176
     1
 90
        0
176
     1
 40
0.6
176
     1
 40
30.0
176
     1
 62
     7
420
 16777215
176
     1
 90
        2
176
     1
 90
        2
176
     1
 62
     7
176
     1
 62
     7
176
     1
 90
        1
176
     1
 90
        1
176
     1
 40
40.0
176
     1
 90
       11
176
     1
 62
     7
176
     1
 40
1.0
176
     1
 90
        1
176
     1
 90
        6
176
     1
 90
        2
176
     1
 62
     7
176
     1
 90
        6
176
     1
 90
        0
176
     1
 90
        0
176
     1
290
     0
176
     1
 90
        1
176
     1
 40
0.0
176
     1
 90
        0
176
     1
290
     0
176
     1
290
     1
176
     1
290
     1
176
     1
290
     0
176
     1
290
     0
176
     1
290
     0
176
     1
290
     0
176
     1
290
     0
176
     1
290
     0
176
     1
 90
       50
176
     1
 40
0.0
176
     1
 40
1.0
176
     1
 90
        0
176
     1
 62
    18
420
        0
176
     1
 90
       50
176
     1
 90
        3
176
     1
 62
     5
420
      255
176
     1
290
     0
176
     1
 90
       50
176
     1
 90
       50
176
     1
 90
       50
176
     1
290
     0
176
     1
 90
       50
176
     1
 62
   256
176
     0
 40
1.0
176
     0
 90
        2
176
     1
  1
strokes_ogs.tif
176
     1
290
     0
176
     1
 40
1.0
176
     1
 40
1.0
176
     1
  0
VISUALSTYLE
  5
36
102
{ACAD_REACTORS
330
29
102
}
330
29
100
AcDbVisualStyle
  2
Thicken
 70
    13
177
     3
291
     1
 70
    58
 90
        2
176
     1
 90
        2
176
     1
 90
        0
176
     1
 90
        0
176
     1
 40
0.6
176
     1
 40
30.0
176
     1
 62
     7
420
 16777215
176
     1
 90
        1
176
     1
 90
        4
176
     1
 62
     7
176
     1
 62
   257
176
     1
 90
        1
176
     1
 90
        1
176
     1
 40
1.0
176
     1
 90
       12
176
     1
 62
     7
176
     1
 40
1.0
176
     1
 90
        1
176
     1
 90
        6
176
     1
 90
        2
176
     1
 62
     7
176
     1
 90
        5
176
     1
 90
        0
176
     1
 90
        0
176
     1
290
     0
176
     1
 90
        1
176
     1
 40
0.0
176
     1
 90
        0
176
     1
290
     0
176
     1
290
     1
176
     1
290
     1
176
     1
290
     0
176
     1
290
     0
176
     1
290
     0
176
     1
290
     0
176
     1
290
     0
176
     1
290
     0
176
     1
 90
       50
176
     1
 40
0.0
176
     1
 40
1.0
176
     1
 90
        0
176
     1
 62
    18
420
        0
176
     1
 90
       50
176
     1
 90
        3
176
     1
 62
     5
420
      255
176
     1
290
     0
176
     1
 90
       50
176
     1
 90
       50
176
     1
 90
       50
176
     1
290
     0
176
     1
 90
       50
176
     1
 62
   256
176
     0
 40
1.0
176
     0
 90
        2
176
     1
  1
strokes_ogs.tif
176
     1
290
     0
176
     1
 40
1.0
176
     1
 40
1.0
176
     1
  0
VISUALSTYLE
  5
30
102
{ACAD_REACTORS
330
29
102
}
330
29
100
AcDbVisualStyle
  2
Wireframe
 70
     5
177
     3
291
     0
 70
    58
 90
        0
176
     1
 90
        2
176
     1
 90
        0
176
     1
 90
        0
176
     1
 40
0.6
176
     1
 40
30.0
176
     1
 62
     7
420
 16777215
176
     1
 90
        1
176
     1
 90
        4
176
     1
 62
     7
176
     1
 62
   257
176
     1
 90
        1
176
     1
 90
        1
176
     1
 40
1.0
176
     1
 90
        0
176
     1
 62
   257
176
     1
 40
1.0
176
     1
 90
        1
176
     1
 90
        6
176
     1
 90
        2
176
     1
 62
     7
176
     1
 90
        3
176
     1
 90
        0
176
     1
 90
        0
176
     1
290
     0
176
     1
 90
        1
176
     1
 40
0.0
176
     1
 90
        0
176
     1
290
     0
176
     1
290
     1
176
     1
290
     1
176
     1
290
     0
176
     1
290
     0
176
     1
290
     0
176
     1
290
     0
176
     1
290
     0
176
     1
290
     0
176
     1
 90
       50
176
     1
 40
0.0
176
     1
 40
1.0
176
     1
 90
        0
176
     1
 62
    18
420
        0
176
     1
 90
       50
176
     1
 90
        3
176
     1
 62
     5
420
      255
176
     1
290
     0
176
     1
 90
       50
176
     1
 90
       50
176
     1
 90
       50
176
     1
290
     0
176
     1
 90
       50
176
     1
 62
   256
176
     0
 40
1.0
176
     0
 90
        2
176
     1
  1
strokes_ogs.tif
176
     1
290
     0
176
     1
 40
1.0
176
     1
 40
1.0
176
     1
  0
VISUALSTYLE
  5
3C
102
{ACAD_REACTORS
330
29
102
}
330
29
100
AcDbVisualStyle
  2
X-Ray
 70
    25
177
     3
291
     0
 70
    58
 90
        2
176
     1
 90
        2
176
     1
 90
        1
176
     1
 90
        1
176
     1
 40
0.5
176
     1
 40
30.0
176
     1
 62
     7
420
 16777215
176
     1
 90
        1
176
     1
 90
        0
176
     1
 62
     7
176
     1
 62
   257
176
     1
 90
        1
176
     1
 90
        1
176
     1
 40
1.0
176
     1
 90
        8
176
     1
 62
     7
176
     1
 40
1.0
176
     1
 90
        1
176
     1
 90
        6
176
     1
 90
        2
176
     1
 62
     7
176
     1
 90
        3
176
     1
 90
        0
176
     1
 90
        0
176
     1
290
     0
176
     1
 90
       13
176
     1
 40
0.0
176
     1
 90
        0
176
     1
290
     0
176
     1
290
     1
176
     1
290
     1
176
     1
290
     0
176
     1
290
     0
176
     1
290
     0
176
     1
290
     0
176
     1
290
     0
176
     1
290
     0
176
     1
 90
       50
176
     1
 40
0.0
176
     1
 40
1.0
176
     1
 90
        0
176
     1
 62
    18
420
        0
176
     1
 90
       50
176
     1
 90
        3
176
     1
 62
     5
420
      255
176
     1
290
     0
176
     1
 90
       50
176
     1
 90
       50
176
     1
 90
       50
176
     1
290
     0
176
     1
 90
       50
176
     1
 62
   256
176
     0
 40
1.0
176
     0
 90
        2
176
     1
  1
strokes_ogs.tif
176
     1
290
     0
176
     1
 40
1.0
176
     1
 40
1.0
176
     1
  0
DICTIONARYVAR
  5
91
102
{ACAD_REACTORS
330
8C
102
}
330
8C
100
DictionaryVariables
280
     0
  1
1:1
  0
DICTIONARYVAR
  5
8E
102
{ACAD_REACTORS
330
8C
102
}
330
8C
100
DictionaryVariables
280
     0
  1
STANDARD
  0
DICTIONARYVAR
  5
8D
102
{ACAD_REACTORS
330
8C
102
}
330
8C
100
DictionaryVariables
280
     0
  1
STANDARD
  0
DICTIONARYVAR
  5
8F
102
{ACAD_REACTORS
330
8C
102
}
330
8C
100
DictionaryVariables
280
     0
  1
Imperial24
  0
DICTIONARYVAR
  5
90
102
{ACAD_REACTORS
330
8C
102
}
330
8C
100
DictionaryVariables
280
     0
  1
Imperial24
  0
DICTIONARY
  5
1A
330
19
100
AcDbDictionary
280
     1
281
     1
  3
BUMPTILE
360
1C
  3
DIFFUSETILE
360
1B
  3
OPACITYTILE
360
1F
  3
REFLECTIONTILE
360
1E
  3
REFRACTIONTILE
360
20
  3
SPECULARTILE
360
1D
  0
DICTIONARY
  5
12
330
11
100
AcDbDictionary
280
     1
281
     1
  3
BUMPTILE
360
14
  3
DIFFUSETILE
360
13
  3
OPACITYTILE
360
17
  3
REFLECTIONTILE
360
16
  3
REFRACTIONTILE
360
18
  3
SPECULARTILE
360
15
  0
DICTIONARY
  5
22
330
21
100
AcDbDictionary
280
     1
281
     1
  3
BUMPTILE
360
24
  3
DIFFUSETILE
360
23
  3
OPACITYTILE
360
27
  3
REFLECTIONTILE
360
26
  3
REFRACTIONTILE
360
28
  3
SPECULARTILE
360
25
  0
DICTIONARY
  5
92
330
65
100
AcDbDictionary
280
     1
281
     1
  3
ACAD_ROUNDTRIP_2008_TABLESTYLE_CELLSTYLEMAP
360
93
  0
XRECORD
  5
1C
102
{ACAD_REACTORS
330
1A
102
}
330
1A
100
AcDbXrecord
280
     1
270
     1
271
     1
  0
XRECORD
  5
1B
102
{ACAD_REACTORS
330
1A
102
}
330
1A
100
AcDbXrecord
280
     1
270
     1
271
     1
  0
XRECORD
  5
1F
102
{ACAD_REACTORS
330
1A
102
}
330
1A
100
AcDbXrecord
280
     1
270
     1
271
     1
  0
XRECORD
  5
1E
102
{ACAD_REACTORS
330
1A
102
}
330
1A
100
AcDbXrecord
280
     1
270
     1
271
     1
  0
XRECORD
  5
20
102
{ACAD_REACTORS
330
1A
102
}
330
1A
100
AcDbXrecord
280
     1
270
     1
271
     1
  0
XRECORD
  5
1D
102
{ACAD_REACTORS
330
1A
102
}
330
1A
100
AcDbXrecord
280
     1
270
     1
271
     1
  0
XRECORD
  5
14
102
{ACAD_REACTORS
330
12
102
}
330
12
100
AcDbXrecord
280
     1
270
     1
271
     1
  0
XRECORD
  5
13
102
{ACAD_REACTORS
330
12
102
}
330
12
100
AcDbXrecord
280
     1
270
     1
271
     1
  0
XRECORD
  5
17
102
{ACAD_REACTORS
330
12
102
}
330
12
100
AcDbXrecord
280
     1
270
     1
271
     1
  0
XRECORD
  5
16
102
{ACAD_REACTORS
330
12
102
}
330
12
100
AcDbXrecord
280
     1
270
     1
271
     1
  0
XRECORD
  5
18
102
{ACAD_REACTORS
330
12
102
}
330
12
100
AcDbXrecord
280
     1
270
     1
271
     1
  0
XRECORD
  5
15
102
{ACAD_REACTORS
330
12
102
}
330
12
100
AcDbXrecord
280
     1
270
     1
271
     1
  0
XRECORD
  5
24
102
{ACAD_REACTORS
330
22
102
}
330
22
100
AcDbXrecord
280
     1
270
     1
271
     1
  0
XRECORD
  5
23
102
{ACAD_REACTORS
330
22
102
}
330
22
100
AcDbXrecord
280
     1
270
     1
271
     1
  0
XRECORD
  5
27
102
{ACAD_REACTORS
330
22
102
}
330
22
100
AcDbXrecord
280
     1
270
     1
271
     1
  0
XRECORD
  5
26
102
{ACAD_REACTORS
330
22
102
}
330
22
100
AcDbXrecord
280
     1
270
     1
271
     1
  0
XRECORD
  5
28
102
{ACAD_REACTORS
330
22
102
}
330
22
100
AcDbXrecord
280
     1
270
     1
271
     1
  0
XRECORD
  5
25
102
{ACAD_REACTORS
330
22
102
}
330
22
100
AcDbXrecord
280
     1
270
     1
271
     1
  0
CELLSTYLEMAP
  5
93
102
{ACAD_REACTORS
330
92
102
}
330
92
100
AcDbCellStyleMap
 90
        3
300
CELLSTYLE
  1
TABLEFORMAT_BEGIN
 90
        5
170
     1
 91
        0
 92
    32768
 62
   257
 93
        1
300
CONTENTFORMAT
  1
CONTENTFORMAT_BEGIN
 90
        0
 91
        0
 92
      512
 93
        0
300

 40
0.0
140
1.0
 94
        5
 62
     0
340
55
144
0.25
309
CONTENTFORMAT_END
171
     0
 94
        0
309
TABLEFORMAT_END
  1
CELLSTYLE_BEGIN
 90
        1
 91
        1
300
_TITLE
309
CELLSTYLE_END
300
CELLSTYLE
  1
TABLEFORMAT_BEGIN
 90
        5
170
     1
 91
        0
 92
        0
 62
   257
 93
        1
300
CONTENTFORMAT
  1
CONTENTFORMAT_BEGIN
 90
        0
 91
        0
 92
      512
 93
        0
300

 40
0.0
140
1.0
 94
        5
 62
     0
340
55
144
0.18
309
CONTENTFORMAT_END
171
     0
 94
        0
309
TABLEFORMAT_END
  1
CELLSTYLE_BEGIN
 90
        2
 91
        1
300
_HEADER
309
CELLSTYLE_END
300
CELLSTYLE
  1
TABLEFORMAT_BEGIN
 90
        5
170
     1
 91
        0
 92
        0
 62
   257
 93
        1
300
CONTENTFORMAT
  1
CONTENTFORMAT_BEGIN
 90
        0
 91
        0
 92
      512
 93
        0
300

 40
0.0
140
1.0
 94
        2
 62
     0
340
55
144
0.18
309
CONTENTFORMAT_END
171
     0
 94
        0
309
TABLEFORMAT_END
  1
CELLSTYLE_BEGIN
 90
        3
 91
        2
300
_DATA
309
CELLSTYLE_END
  0
ENDSEC
  0
EOF
