  0
SECTION
  2
HEADER
  9
$ACADVER
  1
AC1032
  9
$ACADMAINTVER
 90
      155
  9
$DWGCODEPAGE
  3
ANSI_1252
  9
$REQUIREDVERSIONS
160
                 0
  9
$INSBASE
 10
0.0
 20
0.0
 30
0.0
  9
$EXTMIN
 10
1.000000000000000E+20
 20
1.000000000000000E+20
 30
1.000000000000000E+20
  9
$EXTMAX
 10
-1.000000000000000E+20
 20
-1.000000000000000E+20
 30
-1.000000000000000E+20
  9
$LIMMIN
 10
0.0
 20
0.0
  9
$LIMMAX
 10
12.0
 20
9.0
  9
$ORTHOMODE
 70
     0
  9
$REGENMODE
 70
     1
  9
$FILLMODE
 70
     1
  9
$QTEXTMODE
 70
     0
  9
$MIRRTEXT
 70
     0
  9
$LTSCALE
 40
1.0
  9
$ATTMODE
 70
     1
  9
$TEXTSIZE
 40
0.2
  9
$TRACEWID
 40
0.05
  9
$TEXTSTYLE
  7
Standard
  9
$CLAYER
  8
0
  9
$CELTYPE
  6
ByLayer
  9
$CECOLOR
 62
   256
  9
$CELTSCALE
 40
1.0
  9
$DISPSILH
 70
     0
  9
$DIMSCALE
 40
1.0
  9
$DIMASZ
 40
0.18
  9
$DIMEXO
 40
0.0625
  9
$DIMDLI
 40
0.38
  9
$DIMRND
 40
0.0
  9
$DIMDLE
 40
0.0
  9
$DIMEXE
 40
0.18
  9
$DIMTP
 40
0.0
  9
$DIMTM
 40
0.0
  9
$DIMTXT
 40
0.18
  9
$DIMCEN
 40
0.09
  9
$DIMTSZ
 40
0.0
  9
$DIMTOL
 70
     0
  9
$DIMLIM
 70
     0
  9
$DIMTIH
 70
     1
  9
$DIMTOH
 70
     1
  9
$DIMSE1
 70
     0
  9
$DIMSE2
 70
     0
  9
$DIMTAD
 70
     0
  9
$DIMZIN
 70
     0
  9
$DIMBLK
  1

  9
$DIMASO
 70
     1
  9
$DIMSHO
 70
     1
  9
$DIMPOST
  1

  9
$DIMAPOST
  1

  9
$DIMALT
 70
     0
  9
$DIMALTD
 70
     2
  9
$DIMALTF
 40
25.4
  9
$DIMLFAC
 40
1.0
  9
$DIMTOFL
 70
     0
  9
$DIMTVP
 40
0.0
  9
$DIMTIX
 70
     0
  9
$DIMSOXD
 70
     0
  9
$DIMSAH
 70
     0
  9
$DIMBLK1
  1

  9
$DIMBLK2
  1

  9
$DIMSTYLE
  2
Standard
  9
$DIMCLRD
 70
     0
  9
$DIMCLRE
 70
     0
  9
$DIMCLRT
 70
     0
  9
$DIMTFAC
 40
1.0
  9
$DIMGAP
 40
0.09
  9
$DIMJUST
 70
     0
  9
$DIMSD1
 70
     0
  9
$DIMSD2
 70
     0
  9
$DIMTOLJ
 70
     1
  9
$DIMTZIN
 70
     0
  9
$DIMALTZ
 70
     0
  9
$DIMALTTZ
 70
     0
  9
$DIMUPT
 70
     0
  9
$DIMDEC
 70
     4
  9
$DIMTDEC
 70
     4
  9
$DIMALTU
 70
     2
  9
$DIMALTTD
 70
     2
  9
$DIMTXSTY
  7
Standard
  9
$DIMAUNIT
 70
     0
  9
$DIMADEC
 70
     0
  9
$DIMALTRND
 40
0.0
  9
$DIMAZIN
 70
     0
  9
$DIMDSEP
 70
    46
  9
$DIMATFIT
 70
     3
  9
$DIMFRAC
 70
     0
  9
$DIMLDRBLK
  1

  9
$DIMLUNIT
 70
     2
  9
$DIMLWD
 70
    -2
  9
$DIMLWE
 70
    -2
  9
$DIMTMOVE
 70
     0
  9
$DIMFXL
 40
1.0
  9
$DIMFXLON
 70
     0
  9
$DIMJOGANG
 40
0.7853981633974483
  9
$DIMTFILL
 70
     0
  9
$DIMTFILLCLR
 70
     0
  9
$DIMARCSYM
 70
     0
  9
$DIMLTYPE
  6

  9
$DIMLTEX1
  6

  9
$DIMLTEX2
  6

  9
$DIMTXTDIRECTION
 70
     0
  9
$LUNITS
 70
     2
  9
$LUPREC
 70
     4
  9
$SKETCHINC
 40
0.1
  9
$FILLETRAD
 40
0.0
  9
$AUNITS
 70
     0
  9
$AUPREC
 70
     0
  9
$MENU
  1
.
  9
$ELEVATION
 40
0.0
  9
$PELEVATION
 40
0.0
  9
$THICKNESS
 40
0.0
  9
$LIMCHECK
 70
     0
  9
$CHAMFERA
 40
0.0
  9
$CHAMFERB
 40
0.0
  9
$CHAMFERC
 40
0.0
  9
$CHAMFERD
 40
0.0
  9
$SKPOLY
 70
     0
  9
$TDCREATE
 40
2459315.034942130
  9
$TDUCREATE
 40
2459315.326608797
  9
$TDUPDATE
 40
2459315.034942130
  9
$TDUUPDATE
 40
2459315.326608797
  9
$TDINDWG
 40
0.0000000000
  9
$TDUSRTIMER
 40
0.0000000000
  9
$USRTIMER
 70
     1
  9
$ANGBASE
 50
0.0
  9
$ANGDIR
 70
     0
  9
$PDMODE
 70
     0
  9
$PDSIZE
 40
0.0
  9
$PLINEWID
 40
0.0
  9
$SPLFRAME
 70
     0
  9
$SPLINETYPE
 70
     6
  9
$SPLINESEGS
 70
     8
  9
$HANDSEED
  5
86
  9
$SURFTAB1
 70
     6
  9
$SURFTAB2
 70
     6
  9
$SURFTYPE
 70
     6
  9
$SURFU
 70
     6
  9
$SURFV
 70
     6
  9
$UCSBASE
  2

  9
$UCSNAME
  2

  9
$UCSORG
 10
0.0
 20
0.0
 30
0.0
  9
$UCSXDIR
 10
1.0
 20
0.0
 30
0.0
  9
$UCSYDIR
 10
0.0
 20
1.0
 30
0.0
  9
$UCSORTHOREF
  2

  9
$UCSORTHOVIEW
 70
     0
  9
$UCSORGTOP
 10
0.0
 20
0.0
 30
0.0
  9
$UCSORGBOTTOM
 10
0.0
 20
0.0
 30
0.0
  9
$UCSORGLEFT
 10
0.0
 20
0.0
 30
0.0
  9
$UCSORGRIGHT
 10
0.0
 20
0.0
 30
0.0
  9
$UCSORGFRONT
 10
0.0
 20
0.0
 30
0.0
  9
$UCSORGBACK
 10
0.0
 20
0.0
 30
0.0
  9
$PUCSBASE
  2

  9
$PUCSNAME
  2

  9
$PUCSORG
 10
0.0
 20
0.0
 30
0.0
  9
$PUCSXDIR
 10
1.0
 20
0.0
 30
0.0
  9
$PUCSYDIR
 10
0.0
 20
1.0
 30
0.0
  9
$PUCSORTHOREF
  2

  9
$PUCSORTHOVIEW
 70
     0
  9
$PUCSORGTOP
 10
0.0
 20
0.0
 30
0.0
  9
$PUCSORGBOTTOM
 10
0.0
 20
0.0
 30
0.0
  9
$PUCSORGLEFT
 10
0.0
 20
0.0
 30
0.0
  9
$PUCSORGRIGHT
 10
0.0
 20
0.0
 30
0.0
  9
$PUCSORGFRONT
 10
0.0
 20
0.0
 30
0.0
  9
$PUCSORGBACK
 10
0.0
 20
0.0
 30
0.0
  9
$USERI1
 70
     0
  9
$USERI2
 70
     0
  9
$USERI3
 70
     0
  9
$USERI4
 70
     0
  9
$USERI5
 70
     0
  9
$USERR1
 40
0.0
  9
$USERR2
 40
0.0
  9
$USERR3
 40
0.0
  9
$USERR4
 40
0.0
  9
$USERR5
 40
0.0
  9
$WORLDVIEW
 70
     1
  9
$SHADEDGE
 70
     3
  9
$SHADEDIF
 70
    70
  9
$TILEMODE
 70
     1
  9
$MAXACTVP
 70
    64
  9
$PINSBASE
 10
0.0
 20
0.0
 30
0.0
  9
$PLIMCHECK
 70
     0
  9
$PEXTMIN
 10
1.000000000000000E+20
 20
1.000000000000000E+20
 30
1.000000000000000E+20
  9
$PEXTMAX
 10
-1.000000000000000E+20
 20
-1.000000000000000E+20
 30
-1.000000000000000E+20
  9
$PLIMMIN
 10
0.0
 20
0.0
  9
$PLIMMAX
 10
12.0
 20
9.0
  9
$UNITMODE
 70
     0
  9
$VISRETAIN
 70
     1
  9
$PLINEGEN
 70
     0
  9
$PSLTSCALE
 70
     1
  9
$TREEDEPTH
 70
  3020
  9
$CMLSTYLE
  2
Standard
  9
$CMLJUST
 70
     0
  9
$CMLSCALE
 40
1.0
  9
$PROXYGRAPHICS
 70
     1
  9
$MEASUREMENT
 70
     0
  9
$CELWEIGHT
370
    -1
  9
$ENDCAPS
280
     0
  9
$JOINSTYLE
280
     0
  9
$LWDISPLAY
290
     1
  9
$INSUNITS
 70
     1
  9
$HYPERLINKBASE
  1

  9
$STYLESHEET
  1

  9
$XEDIT
290
     1
  9
$CEPSNTYPE
380
     0
  9
$PSTYLEMODE
290
     1
  9
$FINGERPRINTGUID
  2
{E32377CF-6F99-3847-9B34-7D0A4BFBD647}
  9
$VERSIONGUID
  2
{F51E6423-64FC-5B40-96E2-86BF8C9D2B47}
  9
$EXTNAMES
290
     1
  9
$PSVPSCALE
 40
0.0
  9
$OLESTARTUP
290
     0
  9
$SORTENTS
280
   127
  9
$INDEXCTL
280
     0
  9
$HIDETEXT
280
     1
  9
$XCLIPFRAME
280
     2
  9
$HALOGAP
280
     0
  9
$OBSCOLOR
 70
   257
  9
$OBSLTYPE
280
     0
  9
$INTERSECTIONDISPLAY
280
     0
  9
$INTERSECTIONCOLOR
 70
   257
  9
$DIMASSOC
280
     2
  9
$PROJECTNAME
  1

  9
$CAMERADISPLAY
290
     0
  9
$LENSLENGTH
 40
50.0
  9
$CAMERAHEIGHT
 40
0.0
  9
$STEPSPERSEC
 40
2.0
  9
$STEPSIZE
 40
6.0
  9
$3DDWFPREC
 40
2.0
  9
$PSOLWIDTH
 40
0.25
  9
$PSOLHEIGHT
 40
4.0
  9
$LOFTANG1
 40
1.570796326794896
  9
$LOFTANG2
 40
1.570796326794896
  9
$LOFTMAG1
 40
0.0
  9
$LOFTMAG2
 40
0.0
  9
$LOFTPARAM
 70
     7
  9
$LOFTNORMALS
280
     1
  9
$LATITUDE
 40
37.795
  9
$LONGITUDE
 40
-122.394
  9
$NORTHDIRECTION
 40
0.0
  9
$TIMEZONE
 70
 -8000
  9
$LIGHTGLYPHDISPLAY
280
     1
  9
$TILEMODELIGHTSYNCH
280
     1
  9
$CMATERIAL
347
11
  9
$SOLIDHIST
280
     0
  9
$SHOWHIST
280
     1
  9
$DWFFRAME
280
     2
  9
$DGNFRAME
280
     0
  9
$REALWORLDSCALE
290
     1
  9
$INTERFERECOLOR
 62
     1
  9
$INTERFEREOBJVS
345
33
  9
$INTERFEREVPVS
346
30
  9
$CSHADOW
280
     0
  9
$SHADOWPLANELOCATION
 40
0.0
  0
ENDSEC
  0
SECTION
  2
CLASSES
  0
CLASS
  1
ACDBDICTIONARYWDFLT
  2
AcDbDictionaryWithDefault
  3
ObjectDBX Classes
 90
        0
 91
        1
280
     0
281
     0
  0
CLASS
  1
MATERIAL
  2
AcDbMaterial
  3
ObjectDBX Classes
 90
     1153
 91
        3
280
     0
281
     0
  0
CLASS
  1
VISUALSTYLE
  2
AcDbVisualStyle
  3
ObjectDBX Classes
 90
     4095
 91
       24
280
     0
281
     0
  0
CLASS
  1
SCALE
  2
AcDbScale
  3
ObjectDBX Classes
 90
     1153
 91
       17
280
     0
281
     0
  0
CLASS
  1
TABLESTYLE
  2
AcDbTableStyle
  3
ObjectDBX Classes
 90
     4095
 91
        1
280
     0
281
     0
  0
CLASS
  1
MLEADERSTYLE
  2
AcDbMLeaderStyle
  3
ACDB_MLEADERSTYLE_CLASS
 90
     4095
 91
        1
280
     0
281
     0
  0
CLASS
  1
ACDBSECTIONVIEWSTYLE
  2
AcDbSectionViewStyle
  3
ObjectDBX Classes
 90
     1025
 91
        1
280
     0
281
     0
  0
CLASS
  1
ACDBDETAILVIEWSTYLE
  2
AcDbDetailViewStyle
  3
ObjectDBX Classes
 90
     1025
 91
        1
280
     0
281
     0
  0
CLASS
  1
DICTIONARYVAR
  2
AcDbDictionaryVar
  3
ObjectDBX Classes
 90
        0
 91
        5
280
     0
281
     0
  0
CLASS
  1
CELLSTYLEMAP
  2
AcDbCellStyleMap
  3
ObjectDBX Classes
 90
     1152
 91
        1
280
     0
281
     0
  0
ENDSEC
  0
SECTION
  2
TABLES
  0
TABLE
  2
VPORT
  5
8
330
0
100
AcDbSymbolTable
 70
     1
  0
VPORT
  5
57
330
8
100
AcDbSymbolTableRecord
100
AcDbViewportTableRecord
  2
*Active
 70
     0
 10
0.0
 20
0.0
 11
1.0
 21
1.0
 12
0.0
 22
0.0
 13
0.0
 23
0.0
 14
1.0
 24
1.0
 15
0.0
 25
0.0
 16
0.0
 26
0.0
 36
1.0
 17
4.0
 27
-4.0
 37
0.0
 40
6.12
 41
1.0
 42
50.0
 43
0.0
 44
0.0
 50
0.0
 51
0.0
 71
     0
 72
   100
 73
     1
 74
     0
 75
     1
 76
     0
 77
     0
 78
     0
281
     0
 65
     1
110
0.0
120
0.0
130
0.0
111
1.0
121
0.0
131
0.0
112
0.0
122
1.0
132
0.0
 79
     0
146
0.0
 60
     3
 61
     5
292
     1
282
     1
141
0.0
142
0.0
 63
   250
421
  3355443
  0
ENDTAB
  0
TABLE
  2
LTYPE
  5
5
330
0
100
AcDbSymbolTable
 70
     1
  0
LTYPE
  5
5B
330
5
100
AcDbSymbolTableRecord
100
AcDbLinetypeTableRecord
  2
ByBlock
 70
     0
  3

 72
    65
 73
     0
 40
0.0
  0
LTYPE
  5
5C
330
5
100
AcDbSymbolTableRecord
100
AcDbLinetypeTableRecord
  2
ByLayer
 70
     0
  3

 72
    65
 73
     0
 40
0.0
  0
LTYPE
  5
5D
330
5
100
AcDbSymbolTableRecord
100
AcDbLinetypeTableRecord
  2
Continuous
 70
     0
  3
Solid line
 72
    65
 73
     0
 40
0.0
  0
ENDTAB
  0
TABLE
  2
LAYER
  5
2
330
0
100
AcDbSymbolTable
 70
     2
  0
LAYER
  5
54
330
2
100
AcDbSymbolTableRecord
100
AcDbLayerTableRecord
  2
0
 70
     0
 62
     7
  6
Continuous
370
    -3
390
F
347
21
348
0
  0
LAYER
  5
78
330
2
100
AcDbSymbolTableRecord
100
AcDbLayerTableRecord
  2
Layer 1
 70
     0
 62
     7
  6
Continuous
370
     0
390
F
347
21
348
0
  0
ENDTAB
  0
TABLE
  2
STYLE
  5
3
330
0
100
AcDbSymbolTable
 70
     2
  0
STYLE
  5
55
330
3
100
AcDbSymbolTableRecord
100
AcDbTextStyleTableRecord
  2
Standard
 70
     0
 40
0.0
 41
1.0
 50
0.0
 71
     0
 42
0.2
  3
txt
  4

  0
STYLE
  5
5A
330
3
100
AcDbSymbolTableRecord
100
AcDbTextStyleTableRecord
  2
Annotative
 70
     0
 40
0.0
 41
1.0
 50
0.0
 71
     0
 42
0.2
  3
txt
  4

1001
AcadAnnotative
1000
AnnotativeData
1002
{
1070
     1
1070
     1
1002
}
  0
ENDTAB
  0
TABLE
  2
VIEW
  5
6
330
0
100
AcDbSymbolTable
 70
     0
  0
ENDTAB
  0
TABLE
  2
UCS
  5
7
330
0
100
AcDbSymbolTable
 70
     0
  0
ENDTAB
  0
TABLE
  2
APPID
  5
9
330
0
100
AcDbSymbolTable
 70
     2
  0
APPID
  5
56
330
9
100
AcDbSymbolTableRecord
100
AcDbRegAppTableRecord
  2
ACAD
 70
     0
  0
APPID
  5
5E
330
9
100
AcDbSymbolTableRecord
100
AcDbRegAppTableRecord
  2
AcadAnnotative
 70
     0
  0
ENDTAB
  0
TABLE
  2
DIMSTYLE
  5
A
330
0
100
AcDbSymbolTable
 70
     2
100
AcDbDimStyleTable
 71
     0
  0
DIMSTYLE
105
58
330
A
100
AcDbSymbolTableRecord
100
AcDbDimStyleTableRecord
  2
Standard
 70
     0
340
55
  0
DIMSTYLE
105
59
330
A
100
AcDbSymbolTableRecord
100
AcDbDimStyleTableRecord
  2
Annotative
 70
     0
340
55
1001
AcadAnnotative
1000
AnnotativeData
1002
{
1070
     1
1070
     1
1002
}
  0
ENDTAB
  0
TABLE
  2
BLOCK_RECORD
  5
1
330
0
100
AcDbSymbolTable
 70
     1
  0
BLOCK_RECORD
  5
70
330
1
100
AcDbSymbolTableRecord
100
AcDbBlockTableRecord
  2
*Model_Space
340
73
 70
     0
280
     1
281
     0
  0
BLOCK_RECORD
  5
6C
330
1
100
AcDbSymbolTableRecord
100
AcDbBlockTableRecord
  2
*Paper_Space
340
6F
 70
     0
280
     1
281
     0
  0
BLOCK_RECORD
  5
74
330
1
100
AcDbSymbolTableRecord
100
AcDbBlockTableRecord
  2
*Paper_Space0
340
77
 70
     0
280
     1
281
     0
  0
ENDTAB
  0
ENDSEC
  0
SECTION
  2
BLOCKS
  0
BLOCK
  5
71
330
70
100
AcDbEntity
  8
0
100
AcDbBlockBegin
  2
*Model_Space
 70
     0
 10
0.0
 20
0.0
 30
0.0
  3
*Model_Space
  1

  0
ENDBLK
  5
72
330
70
100
AcDbEntity
  8
0
100
AcDbBlockEnd
  0
BLOCK
  5
6D
330
6C
100
AcDbEntity
 67
     1
  8
0
100
AcDbBlockBegin
  2
*Paper_Space
 70
     0
 10
0.0
 20
0.0
 30
0.0
  3
*Paper_Space
  1

  0
ENDBLK
  5
6E
330
6C
100
AcDbEntity
 67
     1
  8
0
100
AcDbBlockEnd
  0
BLOCK
  5
75
330
74
100
AcDbEntity
 67
     1
  8
0
100
AcDbBlockBegin
  2
*Paper_Space0
 70
     0
 10
0.0
 20
0.0
 30
0.0
  3
*Paper_Space0
  1

  0
ENDBLK
  5
76
330
74
100
AcDbEntity
 67
     1
  8
0
100
AcDbBlockEnd
  0
ENDSEC
  0
SECTION
  2
ENTITIES
  0
SPLINE
  5
79
330
70
100
AcDbEntity
  8
Layer 1
100
AcDbSpline
210
0.0
220
0.0
230
1.0
 70
     9
 71
     3
 72
   116
 73
   112
 74
     0
 42
0.0000000001
 43
0.0000000001
 40
0.0
 40
0.0
 40
0.0
 40
0.0
 40
1.0
 40
1.0
 40
1.0
 40
2.0
 40
2.0
 40
2.0
 40
3.0
 40
3.0
 40
3.0
 40
4.0
 40
4.0
 40
4.0
 40
5.0
 40
5.0
 40
5.0
 40
6.0
 40
6.0
 40
6.0
 40
7.0
 40
7.0
 40
7.0
 40
8.0
 40
8.0
 40
8.0
 40
9.0
 40
9.0
 40
9.0
 40
10.0
 40
10.0
 40
10.0
 40
11.0
 40
11.0
 40
11.0
 40
12.0
 40
12.0
 40
12.0
 40
13.0
 40
13.0
 40
13.0
 40
14.0
 40
14.0
 40
14.0
 40
15.0
 40
15.0
 40
15.0
 40
16.0
 40
16.0
 40
16.0
 40
17.0
 40
17.0
 40
17.0
 40
18.0
 40
18.0
 40
18.0
 40
19.0
 40
19.0
 40
19.0
 40
20.0
 40
20.0
 40
20.0
 40
21.0
 40
21.0
 40
21.0
 40
22.0
 40
22.0
 40
22.0
 40
23.0
 40
23.0
 40
23.0
 40
24.0
 40
24.0
 40
24.0
 40
25.0
 40
25.0
 40
25.0
 40
26.0
 40
26.0
 40
26.0
 40
27.0
 40
27.0
 40
27.0
 40
28.0
 40
28.0
 40
28.0
 40
29.0
 40
29.0
 40
29.0
 40
30.0
 40
30.0
 40
30.0
 40
31.0
 40
31.0
 40
31.0
 40
32.0
 40
32.0
 40
32.0
 40
33.0
 40
33.0
 40
33.0
 40
34.0
 40
34.0
 40
34.0
 40
35.0
 40
35.0
 40
35.0
 40
36.0
 40
36.0
 40
36.0
 40
37.0
 40
37.0
 40
37.0
 40
37.0
 10
3.798805232668251
 20
-3.952895731533178
 30
0.0
 10
3.798805232668251
 20
-3.881072121785475
 30
0.0
 10
3.79881795966705
 20
-3.809248512037798
 30
0.0
 10
3.798788344919848
 20
-3.737424902290108
 30
0.0
 10
3.798784918420185
 20
-3.729095321013422
 30
0.0
 10
3.799284330747683
 20
-3.720648630239149
 30
0.0
 10
3.793181857202928
 20
-3.713655957281325
 30
0.0
 10
3.791098423026028
 20
-3.711268489885368
 30
0.0
 10
3.790633030945286
 20
-3.70774443626831
 30
0.0
 10
3.791591104729187
 20
-3.705041617592011
 30
0.0
 10
3.796213085664716
 20
-3.692000857059711
 30
0.0
 10
3.782960731049784
 20
-3.681611152071556
 30
0.0
 10
3.786418681096001
 20
-3.668736082510766
 30
0.0
 10
3.786711157318184
 20
-3.667647221163292
 30
0.0
 10
3.784147278936971
 20
-3.665675327282277
 30
0.0
 10
3.782746574820154
 20
-3.664277845085368
 30
0.0
 10
3.781123270599487
 20
-3.662658381040349
 30
0.0
 10
3.778721539077865
 20
-3.66157881992467
 30
0.0
 10
3.778784317446883
 20
-3.658837576606527
 30
0.0
 10
3.779073979044356
 20
-3.646201743271224
 30
0.0
 10
3.769600441695122
 20
-3.637540290565639
 30
0.0
 10
3.763758749250566
 20
-3.628512335304902
 30
0.0
 10
3.749795395953229
 20
-3.606932738280799
 30
0.0
 10
3.725698781744414
 20
-3.597897073617407
 30
0.0
 10
3.702146246733857
 20
-3.591153304231245
 30
0.0
 10
3.684268729433685
 20
-3.58603438323482
 30
0.0
 10
3.666945081330873
 20
-3.593650049350672
 30
0.0
 10
3.650283849040066
 20
-3.600984383455068
 30
0.0
 10
3.633593002002081
 20
-3.608331933678313
 30
0.0
 10
3.622905015268315
 20
-3.621071293277951
 30
0.0
 10
3.613143651946453
 20
-3.63599021114458
 30
0.0
 10
3.604533103015164
 20
-3.649150283860939
 30
0.0
 10
3.600075104564047
 20
-3.663712244147164
 30
0.0
 10
3.593717234418565
 20
-3.677642278158006
 30
0.0
 10
3.589950532276727
 20
-3.685895010151006
 30
0.0
 10
3.590164810881333
 20
-3.69511765842185
 30
0.0
 10
3.586300820623743
 20
-3.702584153714736
 30
0.0
 10
3.582655636845338
 20
-3.709628100318847
 30
0.0
 10
3.581477777582335
 20
-3.716108893414179
 30
0.0
 10
3.581947208037705
 20
-3.723539411494647
 30
0.0
 10
3.582134564144881
 20
-3.726503738004124
 30
0.0
 10
3.582777767083724
 20
-3.730460252399097
 30
0.0
 10
3.581234006605503
 20
-3.73233767550462
 30
0.0
 10
3.574219717022451
 20
-3.740867578879058
 30
0.0
 10
3.577023572755857
 20
-3.750689602614026
 30
0.0
 10
3.576439966436345
 20
-3.760102049036125
 30
0.0
 10
3.575993175353826
 20
-3.767307158867323
 30
0.0
 10
3.578488278991585
 20
-3.775128531425631
 30
0.0
 10
3.573487302717087
 20
-3.781475817246296
 30
0.0
 10
3.570078792166175
 20
-3.785802015854654
 30
0.0
 10
3.569746054572811
 20
-3.790452498860746
 30
0.0
 10
3.569472546473825
 20
-3.795524673955305
 30
0.0
 10
3.567957666492866
 20
-3.823615289828037
 30
0.0
 10
3.57005150254377
 20
-3.851583901344358
 30
0.0
 10
3.565908130187734
 20
-3.879936147421744
 30
0.0
 10
3.561458453235824
 20
-3.910384249680078
 30
0.0
 10
3.56352524441431
 20
-3.94192928980298
 30
0.0
 10
3.564255578344866
 20
-3.972960247376893
 30
0.0
 10
3.565915350312049
 20
-4.043474604758127
 30
0.0
 10
3.560813781797125
 20
-4.114010744261173
 30
0.0
 10
3.56841412519946
 20
-4.18461798158877
 30
0.0
 10
3.570807535221888
 20
-4.206851654124496
 30
0.0
 10
3.57791103617146
 20
-4.228705730357685
 30
0.0
 10
3.576301560324496
 20
-4.251414448943174
 30
0.0
 10
3.576195828334562
 20
-4.25290591242967
 30
0.0
 10
3.576898750267711
 20
-4.25496077416791
 30
0.0
 10
3.577969531415912
 20
-4.255941703878104
 30
0.0
 10
3.582587229226848
 20
-4.260172330367772
 30
0.0
 10
3.582043884278505
 20
-4.265430877212414
 30
0.0
 10
3.581698664436329
 20
-4.270832598677947
 30
0.0
 10
3.581531500202231
 20
-4.273448166495528
 30
0.0
 10
3.580954991632046
 20
-4.277331747493917
 30
0.0
 10
3.582365240997937
 20
-4.278540777625721
 30
0.0
 10
3.590704729330013
 20
-4.285691921638317
 30
0.0
 10
3.589278448840635
 20
-4.296753078886922
 30
0.0
 10
3.592871011374022
 20
-4.305582425250475
 30
0.0
 10
3.601431019435128
 20
-4.3266195495444
 30
0.0
 10
3.616504313876917
 20
-4.341681030174564
 30
0.0
 10
3.632597970971687
 20
-4.35564141231018
 30
0.0
 10
3.644888825303041
 20
-4.366302904335043
 30
0.0
 10
3.660859617909497
 20
-4.370488987609304
 30
0.0
 10
3.677796438674097
 20
-4.369346038071727
 30
0.0
 10
3.687430287258077
 20
-4.368695756075718
 30
0.0
 10
3.698288987100605
 20
-4.372080306216022
 30
0.0
 10
3.706585521811752
 20
-4.368705545793393
 30
0.0
 10
3.723186667983263
 20
-4.361952598546925
 30
0.0
 10
3.739479306809117
 20
-4.353632562244986
 30
0.0
 10
3.751950419498332
 20
-4.339604386314527
 30
0.0
 10
3.766685714222262
 20
-4.323029170590138
 30
0.0
 10
3.778718234953177
 20
-4.305433621541952
 30
0.0
 10
3.779449180758673
 20
-4.282238353988431
 30
0.0
 10
3.779498497878976
 20
-4.280673957105313
 30
0.0
 10
3.780063747950243
 20
-4.278639898517111
 30
0.0
 10
3.781146766597266
 20
-4.277675611326937
 30
0.0
 10
3.786978301917782
 20
-4.272484368791234
 30
0.0
 10
3.786369241600696
 20
-4.265841555868519
 30
0.0
 10
3.785964180389201
 20
-4.259103293198551
 30
0.0
 10
3.785744762035076
 20
-4.255450504794199
 30
0.0
 10
3.785055668475592
 20
-4.25124410785578
 30
0.0
 10
3.787471840245858
 20
-4.248394810528881
 30
0.0
 10
3.792376629779495
 20
-4.242611779560244
 30
0.0
 10
3.791200728516299
 20
-4.235981938013436
 30
0.0
 10
3.791556839732442
 20
-4.22939517122437
 30
0.0
 10
3.792200899296201
 20
-4.217478392651679
 30
0.0
 10
3.789026369723046
 20
-4.205211876415331
 30
0.0
 10
3.793730586650768
 20
-4.193693784094622
 30
0.0
 10
3.797480401044215
 20
-4.18451249738094
 30
0.0
 10
3.798856140663398
 20
-4.175191462447552
 30
0.0
 10
3.798839497664983
 20
-4.165361117452574
 30
0.0
 10
3.798720304426321
 20
-4.094539485308081
 30
0.0
 10
3.798775617921061
 20
-4.023717486049159
 30
0.0
 10
3.798805232668251
 20
-3.952895731533178
 30
0.0
  0
SPLINE
  5
7A
330
70
100
AcDbEntity
  8
Layer 1
100
AcDbSpline
210
0.0
220
0.0
230
1.0
 70
     9
 71
     3
 72
    95
 73
    91
 74
     0
 42
0.0000000001
 43
0.0000000001
 40
0.0
 40
0.0
 40
0.0
 40
0.0
 40
1.0
 40
1.0
 40
1.0
 40
2.0
 40
2.0
 40
2.0
 40
3.0
 40
3.0
 40
3.0
 40
4.0
 40
4.0
 40
4.0
 40
5.0
 40
5.0
 40
5.0
 40
6.0
 40
6.0
 40
6.0
 40
7.0
 40
7.0
 40
7.0
 40
8.0
 40
8.0
 40
8.0
 40
9.0
 40
9.0
 40
9.0
 40
10.0
 40
10.0
 40
10.0
 40
11.0
 40
11.0
 40
11.0
 40
12.0
 40
12.0
 40
12.0
 40
13.0
 40
13.0
 40
13.0
 40
14.0
 40
14.0
 40
14.0
 40
15.0
 40
15.0
 40
15.0
 40
16.0
 40
16.0
 40
16.0
 40
17.0
 40
17.0
 40
17.0
 40
18.0
 40
18.0
 40
18.0
 40
19.0
 40
19.0
 40
19.0
 40
20.0
 40
20.0
 40
20.0
 40
21.0
 40
21.0
 40
21.0
 40
22.0
 40
22.0
 40
22.0
 40
23.0
 40
23.0
 40
23.0
 40
24.0
 40
24.0
 40
24.0
 40
25.0
 40
25.0
 40
25.0
 40
26.0
 40
26.0
 40
26.0
 40
27.0
 40
27.0
 40
27.0
 40
28.0
 40
28.0
 40
28.0
 40
29.0
 40
29.0
 40
29.0
 40
30.0
 40
30.0
 40
30.0
 40
30.0
 10
4.470753199652613
 20
-3.793964682445119
 30
0.0
 10
4.475714526430869
 20
-3.772372481159524
 30
0.0
 10
4.464255822020403
 20
-3.749635617135759
 30
0.0
 10
4.465532437899001
 20
-3.725888454248774
 30
0.0
 10
4.465599988892563
 20
-3.724630720271546
 30
0.0
 10
4.465192969681285
 20
-3.723078193421088
 30
0.0
 10
4.46444476900241
 20
-3.722087229250278
 30
0.0
 10
4.456087536297066
 20
-3.711019463942218
 30
0.0
 10
4.459317746489937
 20
-3.696639225290179
 30
0.0
 10
4.453406055552022
 20
-3.684642905261448
 30
0.0
 10
4.44821368479572
 20
-3.674106354508277
 30
0.0
 10
4.447337235129048
 20
-3.661073792864537
 30
0.0
 10
4.440921603989055
 20
-3.651604688451457
 30
0.0
 10
4.433217608971593
 20
-3.640233931381607
 30
0.0
 10
4.428665748904373
 20
-3.627379175484975
 30
0.0
 10
4.418221288397489
 20
-3.616804811947329
 30
0.0
 10
4.401759160212728
 20
-3.600138307105718
 30
0.0
 10
4.383137602983323
 20
-3.593299822201136
 30
0.0
 10
4.361357057804298
 20
-3.590570938401558
 30
0.0
 10
4.346366855979618
 20
-3.588692658695726
 30
0.0
 10
4.332624879036226
 20
-3.592668874897526
 30
0.0
 10
4.3190547165765
 20
-3.598273855376103
 30
0.0
 10
4.30310068934346
 20
-3.604863191966046
 30
0.0
 10
4.289893491099215
 20
-3.616256954872407
 30
0.0
 10
4.282042401345734
 20
-3.630367364431258
 30
0.0
 10
4.273351819172047
 20
-3.6459857576252
 30
0.0
 10
4.264959831970019
 20
-3.662132183715773
 30
0.0
 10
4.259862424204685
 20
-3.680218319990533
 30
0.0
 10
4.256226418550391
 20
-3.693119087560186
 30
0.0
 10
4.259692322970851
 20
-3.708457494828861
 30
0.0
 10
4.249151675723092
 20
-3.719391752862229
 30
0.0
 10
4.251325300266393
 20
-3.738158152143341
 30
0.0
 10
4.244353107679343
 20
-3.756210758635107
 30
0.0
 10
4.244251536438974
 20
-3.774598907699871
 30
0.0
 10
4.24367784249355
 20
-3.878517739703308
 30
0.0
 10
4.243898117472629
 20
-3.98244109945118
 30
0.0
 10
4.243971297715638
 20
-4.086362990741386
 30
0.0
 10
4.24398084296475
 20
-4.100005329424321
 30
0.0
 10
4.24316288854253
 20
-4.113924350002763
 30
0.0
 10
4.245559235564668
 20
-4.127204469132013
 30
0.0
 10
4.247596044870988
 20
-4.138493237316398
 30
0.0
 10
4.248748572511405
 20
-4.149572750285642
 30
0.0
 10
4.248732908512894
 20
-4.160927109578374
 30
0.0
 10
4.248710636265008
 20
-4.176965604031693
 30
0.0
 10
4.247455803134319
 20
-4.193153146936461
 30
0.0
 10
4.249199157218551
 20
-4.209005147268221
 30
0.0
 10
4.251361768012935
 20
-4.228670732117026
 30
0.0
 10
4.256420505281917
 20
-4.248020598571075
 30
0.0
 10
4.260149026427446
 20
-4.267450006481163
 30
0.0
 10
4.263135465643446
 20
-4.283012475912932
 30
0.0
 10
4.26732607474499
 20
-4.297695583955272
 30
0.0
 10
4.273404929917028
 20
-4.312007416955111
 30
0.0
 10
4.281520104895384
 20
-4.331114498411048
 30
0.0
 10
4.295496062816533
 20
-4.345732994316803
 30
0.0
 10
4.313396831364444
 20
-4.355296080019469
 30
0.0
 10
4.331548713388555
 20
-4.364993529597161
 30
0.0
 10
4.350986756540325
 20
-4.371078818098718
 30
0.0
 10
4.372584718236743
 20
-4.369598123301658
 30
0.0
 10
4.389021637173881
 20
-4.36847083731234
 30
0.0
 10
4.402851234608911
 20
-4.36289020875645
 30
0.0
 10
4.416538387557491
 20
-4.354457101215428
 30
0.0
 10
4.426075070400707
 20
-4.348581557414844
 30
0.0
 10
4.431156814167504
 20
-4.339192483943684
 30
0.0
 10
4.438076630259577
 20
-4.331373191700397
 30
0.0
 10
4.447557754858103
 20
-4.320658835200093
 30
0.0
 10
4.454941372156023
 20
-4.307733715707728
 30
0.0
 10
4.458469443070574
 20
-4.294056745898564
 30
0.0
 10
4.461553292777377
 20
-4.282102521655789
 30
0.0
 10
4.470218910453417
 20
-4.27065516004523
 30
0.0
 10
4.465085034941542
 20
-4.257047697231503
 30
0.0
 10
4.464779342220632
 20
-4.256237598094584
 30
0.0
 10
4.465973722107062
 20
-4.254438982216293
 30
0.0
 10
4.466925554766551
 20
-4.253649441486459
 30
0.0
 10
4.471697689812824
 20
-4.249691458633833
 30
0.0
 10
4.471532238828532
 20
-4.244459344026886
 30
0.0
 10
4.471355529345347
 20
-4.238995457854167
 30
0.0
 10
4.471216021858607
 20
-4.234683821450845
 30
0.0
 10
4.470544427922454
 20
-4.229819065999334
 30
0.0
 10
4.472185721266416
 20
-4.226121734379577
 30
0.0
 10
4.478227374441934
 20
-4.212510355678761
 30
0.0
 10
4.477971855466244
 20
-4.198206843938956
 30
0.0
 10
4.477984582465018
 20
-4.183940533126259
 30
0.0
 10
4.478081013955867
 20
-4.074338035788488
 30
0.0
 10
4.478058007458053
 20
-3.964735416079242
 30
0.0
 10
4.478011994462424
 20
-3.855132918741471
 30
0.0
 10
4.478010281212568
 20
-3.850814184792827
 30
0.0
 10
4.478839983633684
 20
-3.845616334197706
 30
0.0
 10
4.476829117824889
 20
-3.842328457519341
 30
0.0
 10
4.467876653176113
 20
-3.827692095378854
 30
0.0
 10
4.472303935505124
 20
-3.811742687356323
 30
0.0
 10
4.470753199652613
 20
-3.793964682445119
 30
0.0
  0
SPLINE
  5
7B
330
70
100
AcDbEntity
  8
Layer 1
100
AcDbSpline
210
0.0
220
0.0
230
1.0
 70
     9
 71
     3
 72
   461
 73
   457
 74
     0
 42
0.0000000001
 43
0.0000000001
 40
0.0
 40
0.0
 40
0.0
 40
0.0
 40
1.0
 40
1.0
 40
1.0
 40
2.0
 40
2.0
 40
2.0
 40
3.0
 40
3.0
 40
3.0
 40
4.0
 40
4.0
 40
4.0
 40
5.0
 40
5.0
 40
5.0
 40
6.0
 40
6.0
 40
6.0
 40
7.0
 40
7.0
 40
7.0
 40
8.0
 40
8.0
 40
8.0
 40
9.0
 40
9.0
 40
9.0
 40
10.0
 40
10.0
 40
10.0
 40
11.0
 40
11.0
 40
11.0
 40
12.0
 40
12.0
 40
12.0
 40
13.0
 40
13.0
 40
13.0
 40
14.0
 40
14.0
 40
14.0
 40
15.0
 40
15.0
 40
15.0
 40
16.0
 40
16.0
 40
16.0
 40
17.0
 40
17.0
 40
17.0
 40
18.0
 40
18.0
 40
18.0
 40
19.0
 40
19.0
 40
19.0
 40
20.0
 40
20.0
 40
20.0
 40
21.0
 40
21.0
 40
21.0
 40
22.0
 40
22.0
 40
22.0
 40
23.0
 40
23.0
 40
23.0
 40
24.0
 40
24.0
 40
24.0
 40
25.0
 40
25.0
 40
25.0
 40
26.0
 40
26.0
 40
26.0
 40
27.0
 40
27.0
 40
27.0
 40
28.0
 40
28.0
 40
28.0
 40
29.0
 40
29.0
 40
29.0
 40
30.0
 40
30.0
 40
30.0
 40
31.0
 40
31.0
 40
31.0
 40
32.0
 40
32.0
 40
32.0
 40
33.0
 40
33.0
 40
33.0
 40
34.0
 40
34.0
 40
34.0
 40
35.0
 40
35.0
 40
35.0
 40
36.0
 40
36.0
 40
36.0
 40
37.0
 40
37.0
 40
37.0
 40
38.0
 40
38.0
 40
38.0
 40
39.0
 40
39.0
 40
39.0
 40
40.0
 40
40.0
 40
40.0
 40
41.0
 40
41.0
 40
41.0
 40
42.0
 40
42.0
 40
42.0
 40
43.0
 40
43.0
 40
43.0
 40
44.0
 40
44.0
 40
44.0
 40
45.0
 40
45.0
 40
45.0
 40
46.0
 40
46.0
 40
46.0
 40
47.0
 40
47.0
 40
47.0
 40
48.0
 40
48.0
 40
48.0
 40
49.0
 40
49.0
 40
49.0
 40
50.0
 40
50.0
 40
50.0
 40
51.0
 40
51.0
 40
51.0
 40
52.0
 40
52.0
 40
52.0
 40
53.0
 40
53.0
 40
53.0
 40
54.0
 40
54.0
 40
54.0
 40
55.0
 40
55.0
 40
55.0
 40
56.0
 40
56.0
 40
56.0
 40
57.0
 40
57.0
 40
57.0
 40
58.0
 40
58.0
 40
58.0
 40
59.0
 40
59.0
 40
59.0
 40
60.0
 40
60.0
 40
60.0
 40
61.0
 40
61.0
 40
61.0
 40
62.0
 40
62.0
 40
62.0
 40
63.0
 40
63.0
 40
63.0
 40
64.0
 40
64.0
 40
64.0
 40
65.0
 40
65.0
 40
65.0
 40
66.0
 40
66.0
 40
66.0
 40
67.0
 40
67.0
 40
67.0
 40
68.0
 40
68.0
 40
68.0
 40
69.0
 40
69.0
 40
69.0
 40
70.0
 40
70.0
 40
70.0
 40
71.0
 40
71.0
 40
71.0
 40
72.0
 40
72.0
 40
72.0
 40
73.0
 40
73.0
 40
73.0
 40
74.0
 40
74.0
 40
74.0
 40
75.0
 40
75.0
 40
75.0
 40
76.0
 40
76.0
 40
76.0
 40
77.0
 40
77.0
 40
77.0
 40
78.0
 40
78.0
 40
78.0
 40
79.0
 40
79.0
 40
79.0
 40
80.0
 40
80.0
 40
80.0
 40
81.0
 40
81.0
 40
81.0
 40
82.0
 40
82.0
 40
82.0
 40
83.0
 40
83.0
 40
83.0
 40
84.0
 40
84.0
 40
84.0
 40
85.0
 40
85.0
 40
85.0
 40
86.0
 40
86.0
 40
86.0
 40
87.0
 40
87.0
 40
87.0
 40
88.0
 40
88.0
 40
88.0
 40
89.0
 40
89.0
 40
89.0
 40
90.0
 40
90.0
 40
90.0
 40
91.0
 40
91.0
 40
91.0
 40
92.0
 40
92.0
 40
92.0
 40
93.0
 40
93.0
 40
93.0
 40
94.0
 40
94.0
 40
94.0
 40
95.0
 40
95.0
 40
95.0
 40
96.0
 40
96.0
 40
96.0
 40
97.0
 40
97.0
 40
97.0
 40
98.0
 40
98.0
 40
98.0
 40
99.0
 40
99.0
 40
99.0
 40
100.0
 40
100.0
 40
100.0
 40
101.0
 40
101.0
 40
101.0
 40
102.0
 40
102.0
 40
102.0
 40
103.0
 40
103.0
 40
103.0
 40
104.0
 40
104.0
 40
104.0
 40
105.0
 40
105.0
 40
105.0
 40
106.0
 40
106.0
 40
106.0
 40
107.0
 40
107.0
 40
107.0
 40
108.0
 40
108.0
 40
108.0
 40
109.0
 40
109.0
 40
109.0
 40
110.0
 40
110.0
 40
110.0
 40
111.0
 40
111.0
 40
111.0
 40
112.0
 40
112.0
 40
112.0
 40
113.0
 40
113.0
 40
113.0
 40
114.0
 40
114.0
 40
114.0
 40
115.0
 40
115.0
 40
115.0
 40
116.0
 40
116.0
 40
116.0
 40
117.0
 40
117.0
 40
117.0
 40
118.0
 40
118.0
 40
118.0
 40
119.0
 40
119.0
 40
119.0
 40
120.0
 40
120.0
 40
120.0
 40
121.0
 40
121.0
 40
121.0
 40
122.0
 40
122.0
 40
122.0
 40
123.0
 40
123.0
 40
123.0
 40
124.0
 40
124.0
 40
124.0
 40
125.0
 40
125.0
 40
125.0
 40
126.0
 40
126.0
 40
126.0
 40
127.0
 40
127.0
 40
127.0
 40
128.0
 40
128.0
 40
128.0
 40
129.0
 40
129.0
 40
129.0
 40
130.0
 40
130.0
 40
130.0
 40
131.0
 40
131.0
 40
131.0
 40
132.0
 40
132.0
 40
132.0
 40
133.0
 40
133.0
 40
133.0
 40
134.0
 40
134.0
 40
134.0
 40
135.0
 40
135.0
 40
135.0
 40
136.0
 40
136.0
 40
136.0
 40
137.0
 40
137.0
 40
137.0
 40
138.0
 40
138.0
 40
138.0
 40
139.0
 40
139.0
 40
139.0
 40
140.0
 40
140.0
 40
140.0
 40
141.0
 40
141.0
 40
141.0
 40
142.0
 40
142.0
 40
142.0
 40
143.0
 40
143.0
 40
143.0
 40
144.0
 40
144.0
 40
144.0
 40
145.0
 40
145.0
 40
145.0
 40
146.0
 40
146.0
 40
146.0
 40
147.0
 40
147.0
 40
147.0
 40
148.0
 40
148.0
 40
148.0
 40
149.0
 40
149.0
 40
149.0
 40
150.0
 40
150.0
 40
150.0
 40
151.0
 40
151.0
 40
151.0
 40
152.0
 40
152.0
 40
152.0
 40
152.0
 10
2.754381454224888
 20
-5.832469270915301
 30
0.0
 10
2.754365729038896
 20
-5.806709097333142
 30
0.0
 10
2.761015830656586
 20
-5.784100723353731
 30
0.0
 10
2.763298124189582
 20
-5.760956607075033
 30
0.0
 10
2.765615845281697
 20
-5.737452963414979
 30
0.0
 10
2.770144882413559
 20
-5.714267730322085
 30
0.0
 10
2.773129914317248
 20
-5.690855375779316
 30
0.0
 10
2.775934504300569
 20
-5.668858124925236
 30
0.0
 10
2.780445185184185
 20
-5.646952163188441
 30
0.0
 10
2.783191402298067
 20
-5.624880265737147
 30
0.0
 10
2.786062686650059
 20
-5.601803453767413
 30
0.0
 10
2.791167865227154
 20
-5.579106482843118
 30
0.0
 10
2.793025272800529
 20
-5.55581087068352
 30
0.0
 10
2.794466115913539
 20
-5.537739786099664
 30
0.0
 10
2.800566019583546
 20
-5.520081093372533
 30
0.0
 10
2.802714496066755
 20
-5.50201563787636
 30
0.0
 10
2.806406243528246
 20
-5.470973666870071
 30
0.0
 10
2.813632976091096
 20
-5.44053743464441
 30
0.0
 10
2.81718998869039
 20
-5.409468786657448
 30
0.0
 10
2.819333080674128
 20
-5.390749133278202
 30
0.0
 10
2.824274460329282
 20
-5.372366735672559
 30
0.0
 10
2.827402365031869
 20
-5.353739350382308
 30
0.0
 10
2.832738404024502
 20
-5.321961682093337
 30
0.0
 10
2.836565804160588
 20
-5.289891301246168
 30
0.0
 10
2.843024756046449
 20
-5.258352746811245
 30
0.0
 10
2.849305835886727
 20
-5.227683519305097
 30
0.0
 10
2.852706881563348
 20
-5.196615605547018
 30
0.0
 10
2.857524846042742
 20
-5.165781176555229
 30
0.0
 10
2.861823818196474
 20
-5.138267175053063
 30
0.0
 10
2.865277668680593
 20
-5.110519444041604
 30
0.0
 10
2.868946409644245
 20
-5.082857128316795
 30
0.0
 10
2.873661579133429
 20
-5.047306013353211
 30
0.0
 10
2.879397906713001
 20
-5.011891464951101
 30
0.0
 10
2.88441809586066
 20
-4.976379019372339
 30
0.0
 10
2.889475976504741
 20
-4.940600293473026
 30
0.0
 10
2.893960652703324
 20
-4.904739333945295
 30
0.0
 10
2.899153268209602
 20
-4.868980676967212
 30
0.0
 10
2.902160082861213
 20
-4.848274689873378
 30
0.0
 10
2.906223238412369
 20
-4.827724359290464
 30
0.0
 10
2.909514330161944
 20
-4.807056552095546
 30
0.0
 10
2.91160333240081
 20
-4.793937840936323
 30
0.0
 10
2.91202399642331
 20
-4.780454707536945
 30
0.0
 10
2.915193569809439
 20
-4.767629198421824
 30
0.0
 10
2.920200726020854
 20
-4.747369132967756
 30
0.0
 10
2.919853609366353
 20
-4.726341553648555
 30
0.0
 10
2.925822143486344
 20
-4.706160050678741
 30
0.0
 10
2.929054005741565
 20
-4.695232523076255
 30
0.0
 10
2.927204980854867
 20
-4.682907758019811
 30
0.0
 10
2.929236589224185
 20
-4.671495884135765
 30
0.0
 10
2.93256641265758
 20
-4.652791649561828
 30
0.0
 10
2.93263524858854
 20
-4.633708063428305
 30
0.0
 10
2.935913001464389
 20
-4.615148227189946
 30
0.0
 10
2.939725410664398
 20
-4.593560920763189
 30
0.0
 10
2.941089647034674
 20
-4.571696075840564
 30
0.0
 10
2.945042236783857
 20
-4.550186108183348
 30
0.0
 10
2.947797264896898
 20
-4.535193400319813
 30
0.0
 10
2.941523221618454
 20
-4.524624910612752
 30
0.0
 10
2.931074355611965
 20
-4.514421332631753
 30
0.0
 10
2.913223087746801
 20
-4.496989516611519
 30
0.0
 10
2.896150797870089
 20
-4.478717008586676
 30
0.0
 10
2.879399681150339
 20
-4.460211015795493
 30
0.0
 10
2.853673215658975
 20
-4.431789507465635
 30
0.0
 10
2.827095264998572
 20
-4.404216033428635
 30
0.0
 10
2.799923367332148
 20
-4.377184420264509
 30
0.0
 10
2.76534154174529
 20
-4.342781149697353
 30
0.0
 10
2.73034223388562
 20
-4.308762125548633
 30
0.0
 10
2.696732494018811
 20
-4.27342687385961
 30
0.0
 10
2.665451060680639
 20
-4.240539296330224
 30
0.0
 10
2.634120004284694
 20
-4.207715596708592
 30
0.0
 10
2.602390739676593
 20
-4.175258277270637
 30
0.0
 10
2.574401377087901
 20
-4.146627024239756
 30
0.0
 10
2.547154035241141
 20
-4.117271943958889
 30
0.0
 10
2.519339944229538
 20
-4.088467290553858
 30
0.0
 10
2.497866162552567
 20
-4.066228845530758
 30
0.0
 10
2.477021357722049
 20
-4.043369732407654
 30
0.0
 10
2.455361382500288
 20
-4.021358653577357
 30
0.0
 10
2.44278603691474
 20
-4.008579278506772
 30
0.0
 10
2.429290951510387
 20
-3.996533887518239
 30
0.0
 10
2.416629668089247
 20
-3.983738604156415
 30
0.0
 10
2.379838423274956
 20
-3.946557990687235
 30
0.0
 10
2.340639022252149
 20
-3.911790909737305
 30
0.0
 10
2.304357866983119
 20
-3.874198149154368
 30
0.0
 10
2.282360412137197
 20
-3.851405361368405
 30
0.0
 10
2.258836421092673
 20
-3.830228611226289
 30
0.0
 10
2.236994489560086
 20
-3.807264748124124
 30
0.0
 10
2.214307344576619
 20
-3.783412345772224
 30
0.0
 10
2.190434003534051
 20
-3.760541729730814
 30
0.0
 10
2.168005008588541
 20
-3.736431490689899
 30
0.0
 10
2.148703260580064
 20
-3.715683163067157
 30
0.0
 10
2.127971622020027
 20
-3.69635605770668
 30
0.0
 10
2.109067087926897
 20
-3.675190076253986
 30
0.0
 10
2.099641712784015
 20
-3.664637127723734
 30
0.0
 10
2.08785686373268
 20
-3.65585024426054
 30
0.0
 10
2.078348204761785
 20
-3.645179941489749
 30
0.0
 10
2.062494318511413
 20
-3.62738872045971
 30
0.0
 10
2.044705515429376
 20
-3.611480062136958
 30
0.0
 10
2.030391483218131
 20
-3.59211649007817
 30
0.0
 10
2.012237132900104
 20
-3.567558004339566
 30
0.0
 10
2.010693084231193
 20
-3.520957479788585
 30
0.0
 10
2.048094162989994
 20
-3.499456445248761
 30
0.0
 10
2.068641007669157
 20
-3.487644294283616
 30
0.0
 10
2.090746756731328
 20
-3.485553088218555
 30
0.0
 10
2.112570117859427
 20
-3.481011638192979
 30
0.0
 10
2.137567809701345
 20
-3.475809749339342
 30
0.0
 10
2.162981331753712
 20
-3.47262441995354
 30
0.0
 10
2.188185561982209
 20
-3.468392447377722
 30
0.0
 10
2.235057920666084
 20
-3.460522248602539
 30
0.0
 10
2.28185439156031
 20
-3.452183489465533
 30
0.0
 10
2.328785046629251
 20
-3.444681384074631
 30
0.0
 10
2.377337843356472
 20
-3.436919973537025
 30
0.0
 10
2.426040977756896
 20
-3.43010363786867
 30
0.0
 10
2.474623817543765
 20
-3.422523948965249
 30
0.0
 10
2.507142829139272
 20
-3.417450550155965
 30
0.0
 10
2.539970562236665
 20
-3.41393457305599
 30
0.0
 10
2.572222000920115
 20
-3.407804618967525
 30
0.0
 10
2.610361206231232
 20
-3.400555822521242
 30
0.0
 10
2.649050915427513
 20
-3.397350913700127
 30
0.0
 10
2.687138600868542
 20
-3.389527827941214
 30
0.0
 10
2.706447171282611
 20
-3.385562013314445
 30
0.0
 10
2.726534291372685
 20
-3.383007264117862
 30
0.0
 10
2.746051939454395
 20
-3.379487738245213
 30
0.0
 10
2.763186212262717
 20
-3.376397858606689
 30
0.0
 10
2.780689017348499
 20
-3.374492901920221
 30
0.0
 10
2.797767670724624
 20
-3.369852942860625
 30
0.0
 10
2.810613923940662
 20
-3.366362663769526
 30
0.0
 10
2.824465548873604
 20
-3.365029548966263
 30
0.0
 10
2.837865304162025
 20
-3.362692988102177
 30
0.0
 10
2.858794364172038
 20
-3.359043626098973
 30
0.0
 10
2.879752243491806
 20
-3.355558241866699
 30
0.0
 10
2.900705717311994
 20
-3.352049729426438
 30
0.0
 10
2.932149725822202
 20
-3.346784696893829
 30
0.0
 10
2.96382349337307
 20
-3.342614032424888
 30
0.0
 10
2.994985978222567
 20
-3.33602298263434
 30
0.0
 10
3.026524460223804
 20
-3.329352391387752
 30
0.0
 10
3.058470940436248
 20
-3.325492672826182
 30
0.0
 10
3.090165083422675
 20
-3.320006270302845
 30
0.0
 10
3.124167341064649
 20
-3.314120324927229
 30
0.0
 10
3.158481165426994
 20
-3.309610079626736
 30
0.0
 10
3.192452706946887
 20
-3.303689503124865
 30
0.0
 10
3.227420380872065
 20
-3.297595281505891
 30
0.0
 10
3.262270207683463
 20
-3.290351869404326
 30
0.0
 10
3.297184281363734
 20
-3.283728268802532
 30
0.0
 10
3.311819228597212
 20
-3.280952027243743
 30
0.0
 10
3.325995391999286
 20
-3.275596195079767
 30
0.0
 10
3.341286636295358
 20
-3.275835920791134
 30
0.0
 10
3.352747053955668
 20
-3.276015562110311
 30
0.0
 10
3.360077193383694
 20
-3.269177811434562
 30
0.0
 10
3.365462916621607
 20
-3.259366434017566
 30
0.0
 10
3.385300269360426
 20
-3.223227935993993
 30
0.0
 10
3.405835771407851
 20
-3.187467443443842
 30
0.0
 10
3.425320194680226
 20
-3.151141961812843
 30
0.0
 10
3.442152017704807
 20
-3.119762000804118
 30
0.0
 10
3.45781381346564
 20
-3.087756232093536
 30
0.0
 10
3.474181590534347
 20
-3.056124736526498
 30
0.0
 10
3.485164868115033
 20
-3.034899527281923
 30
0.0
 10
3.497006239114107
 20
-3.014102006327915
 30
0.0
 10
3.507457430245393
 20
-2.992623610510185
 30
0.0
 10
3.514463765454213
 20
-2.978224771394568
 30
0.0
 10
3.52166957189407
 20
-2.963958154653217
 30
0.0
 10
3.529239443924287
 20
-2.949859615127037
 30
0.0
 10
3.54542096626071
 20
-2.919722703519015
 30
0.0
 10
3.561974508561749
 20
-2.88977718089139
 30
0.0
 10
3.577644870571778
 20
-2.859376436392267
 30
0.0
 10
3.598072193129483
 20
-2.819746925048775
 30
0.0
 10
3.619673336575601
 20
-2.780763963371416
 30
0.0
 10
3.640885817058649
 20
-2.741562690990109
 30
0.0
 10
3.658269796030746
 20
-2.709436569937957
 30
0.0
 10
3.675014855188565
 20
-2.676958630907178
 30
0.0
 10
3.691664461855477
 20
-2.644442879091899
 30
0.0
 10
3.708299261148795
 20
-2.611956435243882
 30
0.0
 10
3.724482863860013
 20
-2.579238709315998
 30
0.0
 10
3.740829102930774
 20
-2.546604777252771
 30
0.0
 10
3.757448238225581
 20
-2.513425863844177
 30
0.0
 10
3.773927254158719
 20
-2.480176403282648
 30
0.0
 10
3.790647226443929
 20
-2.447048488184527
 30
0.0
 10
3.807248739740417
 20
-2.414155648681887
 30
0.0
 10
3.823957820651672
 20
-2.381315918397565
 30
0.0
 10
3.840830516922374
 20
-2.34856148102843
 30
0.0
 10
3.86137862359361
 20
-2.308672022088015
 30
0.0
 10
3.881549692925672
 20
-2.268570967578094
 30
0.0
 10
3.903003496885793
 20
-2.229171055706766
 30
0.0
 10
3.920920174182217
 20
-2.196267294550339
 30
0.0
 10
3.935960182627177
 20
-2.161767182260468
 30
0.0
 10
3.956376980935904
 20
-2.130294761957303
 30
0.0
 10
3.965541399064527
 20
-2.116167759591816
 30
0.0
 10
3.974834310930923
 20
-2.100246690125055
 30
0.0
 10
3.990055679108637
 20
-2.092940417328552
 30
0.0
 10
4.001300839164425
 20
-2.087542888997973
 30
0.0
 10
4.013464301132886
 20
-2.082024032222117
 30
0.0
 10
4.029183980263193
 20
-2.085954162180756
 30
0.0
 10
4.051569057884762
 20
-2.091550768817822
 30
0.0
 10
4.067322023011936
 20
-2.103750181510905
 30
0.0
 10
4.078442727704567
 20
-2.12173430778033
 30
0.0
 10
4.092949303575222
 20
-2.145194283945809
 30
0.0
 10
4.105024288427102
 20
-2.170168855629893
 30
0.0
 10
4.117931178449881
 20
-2.194604878119068
 30
0.0
 10
4.140323843320731
 20
-2.236999005731629
 30
0.0
 10
4.162723116440929
 20
-2.279391420143598
 30
0.0
 10
4.184789284842837
 20
-2.321955720582801
 30
0.0
 10
4.199743753170928
 20
-2.350802010880784
 30
0.0
 10
4.214126730303329
 20
-2.37994434835961
 30
0.0
 10
4.228777219160343
 20
-2.408948406076382
 30
0.0
 10
4.247508669129325
 20
-2.446031764819116
 30
0.0
 10
4.266653501808958
 20
-2.482913180042108
 30
0.0
 10
4.284869753076892
 20
-2.520247736821589
 30
0.0
 10
4.301030349290309
 20
-2.553368799117341
 30
0.0
 10
4.318582593871395
 20
-2.585817797295286
 30
0.0
 10
4.334253445381364
 20
-2.619122936876035
 30
0.0
 10
4.350544738082336
 20
-2.653746353719207
 30
0.0
 10
4.369327585546443
 20
-2.686990032228739
 30
0.0
 10
4.386949339120898
 20
-2.72085688745349
 30
0.0
 10
4.413510096095452
 20
-2.771903595839994
 30
0.0
 10
4.441621833672494
 20
-2.822137574102965
 30
0.0
 10
4.468045775410018
 20
-2.873275510420979
 30
0.0
 10
4.487555530304992
 20
-2.911032860632215
 30
0.0
 10
4.5083639285765
 20
-2.948117596053988
 30
0.0
 10
4.52802640745689
 20
-2.985797974610047
 30
0.0
 10
4.548216812037152
 20
-3.024489936929739
 30
0.0
 10
4.567476921955858
 20
-3.06366661264542
 30
0.0
 10
4.587605404792005
 20
-3.102391492890786
 30
0.0
 10
4.601230880746419
 20
-3.128605175143889
 30
0.0
 10
4.616237725569564
 20
-3.154093316946399
 30
0.0
 10
4.630568326206963
 20
-3.179904397060466
 30
0.0
 10
4.64458417837429
 20
-3.205148407778665
 30
0.0
 10
4.659107152493384
 20
-3.23021216532033
 30
0.0
 10
4.672032398764435
 20
-3.256070603193607
 30
0.0
 10
4.678340339914686
 20
-3.268690650609174
 30
0.0
 10
4.687003999590893
 20
-3.274354124650812
 30
0.0
 10
4.701552427707585
 20
-3.276777202144797
 30
0.0
 10
4.72934011631547
 20
-3.281405168800233
 30
0.0
 10
4.757092316176693
 20
-3.286791471460433
 30
0.0
 10
4.784652142556246
 20
-3.293104370897784
 30
0.0
 10
4.813437187319272
 20
-3.299697623374817
 30
0.0
 10
4.843025991005888
 20
-3.302700252154648
 30
0.0
 10
4.872053582995881
 20
-3.308350387705975
 30
0.0
 10
4.889970994542232
 20
-3.311838096996186
 30
0.0
 10
4.908032563824917
 20
-3.314187996350597
 30
0.0
 10
4.926001617616318
 20
-3.317203963620765
 30
0.0
 10
4.957773591095397
 20
-3.322536789948205
 30
0.0
 10
4.989916850289116
 20
-3.326005531660459
 30
0.0
 10
5.02138313104721
 20
-3.332705369688583
 30
0.0
 10
5.050645927764839
 20
-3.338936280240482
 30
0.0
 10
5.0802332629516
 20
-3.342924611217868
 30
0.0
 10
5.109626266656833
 20
-3.348073390853187
 30
0.0
 10
5.149519289113691
 20
-3.355061903181005
 30
0.0
 10
5.189342313077203
 20
-3.362535251276262
 30
0.0
 10
5.229335438274548
 20
-3.369047983325483
 30
0.0
 10
5.255849448003547
 20
-3.373365738302368
 30
0.0
 10
5.28231548673706
 20
-3.37871630849309
 30
0.0
 10
5.308847607964328
 20
-3.383143096450478
 30
0.0
 10
5.345176336510095
 20
-3.389204277772326
 30
0.0
 10
5.381379997817753
 20
-3.395990632430336
 30
0.0
 10
5.417903792094951
 20
-3.401129744719456
 30
0.0
 10
5.448075100726151
 20
-3.405374933414135
 30
0.0
 10
5.478324239850027
 20
-3.409750202982309
 30
0.0
 10
5.508404990989876
 20
-3.415014011800205
 30
0.0
 10
5.543428712659684
 20
-3.421142742173957
 30
0.0
 10
5.578833265293345
 20
-3.425065359671508
 30
0.0
 10
5.613922335206981
 20
-3.430856467157228
 30
0.0
 10
5.649323216590952
 20
-3.4366989706607
 30
0.0
 10
5.684962484452297
 20
-3.440901451712066
 30
0.0
 10
5.720263997345707
 20
-3.447480509098467
 30
0.0
 10
5.751597868366413
 20
-3.453320075686633
 30
0.0
 10
5.783270718104859
 20
-3.457315014723462
 30
0.0
 10
5.814703223366197
 20
-3.46265885448329
 30
0.0
 10
5.833696800560219
 20
-3.465887992855628
 30
0.0
 10
5.852369265784798
 20
-3.471477799271838
 30
0.0
 10
5.871453155720246
 20
-3.473584668885159
 30
0.0
 10
5.894983173732927
 20
-3.476182248096556
 30
0.0
 10
5.917780655065294
 20
-3.482866667319348
 30
0.0
 10
5.941357665073509
 20
-3.484685352118869
 30
0.0
 10
5.970448402557495
 20
-3.486928910665129
 30
0.0
 10
5.994137997555045
 20
-3.498622973160915
 30
0.0
 10
6.011805764125129
 20
-3.522512821182886
 30
0.0
 10
6.019180080923988
 20
-3.532484138112256
 30
0.0
 10
6.017123446869491
 20
-3.543746229315994
 30
0.0
 10
6.017830529552282
 20
-3.55423248539465
 30
0.0
 10
6.019337944658976
 20
-3.576601133662683
 30
0.0
 10
6.007474423786965
 20
-3.594007618788433
 30
0.0
 10
5.99277939043423
 20
-3.609720972243735
 30
0.0
 10
5.957910840249622
 20
-3.647004622491345
 30
0.0
 10
5.921025060756821
 20
-3.682327269918864
 30
0.0
 10
5.885866971349766
 20
-3.719301932202622
 30
0.0
 10
5.853406516186169
 20
-3.753439534306595
 30
0.0
 10
5.819959229116445
 20
-3.78656439011796
 30
0.0
 10
5.786735398775413
 20
-3.819924199153294
 30
0.0
 10
5.745047624739223
 20
-3.86178307395245
 30
0.0
 10
5.703172127470881
 20
-3.903455944115901
 30
0.0
 10
5.661225407959313
 20
-3.945055758511291
 30
0.0
 10
5.630673513114238
 20
-3.975354934689625
 30
0.0
 10
5.599533973575034
 20
-4.005068318637086
 30
0.0
 10
5.569284834451233
 20
-4.035664123260706
 30
0.0
 10
5.539963297739202
 20
-4.065321093960114
 30
0.0
 10
5.511565692189328
 20
-4.095888997888424
 30
0.0
 10
5.482528799700225
 20
-4.125830604628946
 30
0.0
 10
5.464217340691346
 20
-4.144712644950029
 30
0.0
 10
5.444915133776652
 20
-4.162657686918893
 30
0.0
 10
5.427040308726216
 20
-4.181934375233392
 30
0.0
 10
5.383013214412433
 20
-4.22941377168791
 30
0.0
 10
5.337919499700066
 20
-4.275855947555657
 30
0.0
 10
5.292479953270609
 20
-4.321966496737433
 30
0.0
 10
5.262696328602487
 20
-4.352190536832671
 30
0.0
 10
5.232036988517696
 20
-4.381566053149147
 30
0.0
 10
5.20269758505732
 20
-4.412209827389359
 30
0.0
 10
5.172735537656181
 20
-4.443503638882626
 30
0.0
 10
5.143934094644716
 20
-4.475908093845165
 30
0.0
 10
5.114556999687995
 20
-4.507763590389559
 30
0.0
 10
5.109350433433038
 20
-4.513409075825014
 30
0.0
 10
5.103939500947515
 20
-4.518881283257718
 30
0.0
 10
5.098391753225036
 20
-4.524192449834824
 30
0.0
 10
5.09272995201339
 20
-4.529612771763923
 30
0.0
 10
5.091817034600176
 20
-4.536039476669151
 30
0.0
 10
5.092764706510075
 20
-4.543453719344015
 30
0.0
 10
5.096767347629464
 20
-4.574766620786729
 30
0.0
 10
5.100068290565634
 20
-4.606175461462599
 30
0.0
 10
5.104486027645584
 20
-4.637427421912812
 30
0.0
 10
5.109276518940052
 20
-4.671317711274241
 30
0.0
 10
5.112942139341535
 20
-4.705346769883564
 30
0.0
 10
5.118764007037977
 20
-4.739130351322399
 30
0.0
 10
5.121908554738991
 20
-4.757378385053066
 30
0.0
 10
5.125074885187914
 20
-4.775762740602254
 30
0.0
 10
5.126954565009175
 20
-4.794329429642983
 30
0.0
 10
5.129092700805888
 20
-4.815447808593514
 30
0.0
 10
5.133984518590775
 20
-4.836273719728776
 30
0.0
 10
5.13720787578427
 20
-4.857299341104408
 30
0.0
 10
5.140580530463617
 20
-4.879300018359647
 30
0.0
 10
5.143348652700397
 20
-4.90139320844686
 30
0.0
 10
5.146462851404319
 20
-4.923434268287463
 30
0.0
 10
5.149066501656736
 20
-4.941864146023791
 30
0.0
 10
5.15188210538905
 20
-4.960264165121239
 30
0.0
 10
5.15443509239627
 20
-4.978700650916985
 30
0.0
 10
5.158538325756126
 20
-5.008330210406913
 30
0.0
 10
5.162467297132555
 20
-5.037983754705136
 30
0.0
 10
5.166536510245653
 20
-5.067617964310961
 30
0.0
 10
5.170104475406383
 20
-5.093602567170642
 30
0.0
 10
5.173584575325472
 20
-5.119696570125293
 30
0.0
 10
5.177789379925696
 20
-5.14546677816808
 30
0.0
 10
5.181074658863305
 20
-5.165603982665465
 30
0.0
 10
5.182823152697058
 20
-5.186130328440109
 30
0.0
 10
5.187184107782386
 20
-5.206267532937494
 30
0.0
 10
5.190721968696025
 20
-5.222603634807859
 30
0.0
 10
5.19189334208464
 20
-5.239762807191078
 30
0.0
 10
5.194687897318923
 20
-5.256474834219842
 30
0.0
 10
5.198355475720214
 20
-5.278407472937285
 30
0.0
 10
5.20221763035301
 20
-5.300307316100568
 30
0.0
 10
5.205890348503771
 20
-5.322239220589204
 30
0.0
 10
5.210823773784694
 20
-5.351699662706449
 30
0.0
 10
5.215617936328852
 20
-5.381182865917253
 30
0.0
 10
5.220542795360592
 20
-5.410644776492163
 30
0.0
 10
5.22547499689161
 20
-5.440150985539477
 30
0.0
 10
5.230797574635516
 20
-5.469596253594368
 30
0.0
 10
5.235373175450452
 20
-5.499157040317691
 30
0.0
 10
5.23857426039611
 20
-5.519837329402636
 30
0.0
 10
5.241686011600222
 20
-5.540582964853026
 30
0.0
 10
5.24528310200819
 20
-5.561146756297729
 30
0.0
 10
5.248718657431557
 20
-5.580786887880599
 30
0.0
 10
5.249826640576176
 20
-5.600700152586366
 30
0.0
 10
5.25411661816828
 20
-5.62025511362554
 30
0.0
 10
5.258377960013123
 20
-5.639677423990329
 30
0.0
 10
5.259903976118013
 20
-5.659692746502766
 30
0.0
 10
5.262823109090478
 20
-5.679419272344047
 30
0.0
 10
5.266073144031426
 20
-5.701382748672155
 30
0.0
 10
5.270386617621296
 20
-5.72322556673003
 30
0.0
 10
5.272707092150666
 20
-5.745281555890086
 30
0.0
 10
5.275832794103457
 20
-5.774994083237262
 30
0.0
 10
5.28395017183162
 20
-5.804142478103863
 30
0.0
 10
5.282759218444854
 20
-5.834334212130821
 30
0.0
 10
5.281777526288199
 20
-5.859225303527156
 30
0.0
 10
5.272526466667841
 20
-5.880226695351565
 30
0.0
 10
5.250588302503754
 20
-5.892815538042087
 30
0.0
 10
5.237782494221366
 20
-5.900163944865602
 30
0.0
 10
5.222454782178752
 20
-5.899481356801288
 30
0.0
 10
5.207719365079861
 20
-5.897975208738292
 30
0.0
 10
5.181938136781202
 20
-5.895339816742433
 30
0.0
 10
5.161375956986325
 20
-5.880100407993672
 30
0.0
 10
5.138968607116844
 20
-5.869459229632941
 30
0.0
 10
5.106924716413686
 20
-5.85424086877717
 30
0.0
 10
5.075266062173896
 20
-5.83820849289739
 30
0.0
 10
5.043490417445178
 20
-5.822428446990518
 30
0.0
 10
5.012547412137337
 20
-5.807062995626766
 30
0.0
 10
4.981634755826588
 20
-5.791636358527638
 30
0.0
 10
4.950765420261758
 20
-5.7761233271701
 30
0.0
 10
4.932652453483973
 20
-5.767020602940672
 30
0.0
 10
4.914411971968345
 20
-5.758131294556404
 30
0.0
 10
4.896652668906906
 20
-5.748374372443903
 30
0.0
 10
4.866657335508963
 20
-5.731895340695624
 30
0.0
 10
4.836070930917204
 20
-5.716518386413654
 30
0.0
 10
4.805744206050753
 20
-5.700714845184342
 30
0.0
 10
4.772456495965848
 20
-5.683368444450807
 30
0.0
 10
4.739324936366074
 20
-5.665653950332953
 30
0.0
 10
4.705649542318042
 20
-5.649017059387284
 30
0.0
 10
4.674585141021704
 20
-5.633669719001241
 30
0.0
 10
4.643999960179826
 20
-5.617353441309155
 30
0.0
 10
4.612947796382361
 20
-5.601981137143082
 30
0.0
 10
4.582812955497653
 20
-5.587063565362591
 30
0.0
 10
4.552270116401763
 20
-5.572972001010232
 30
0.0
 10
4.522059892524238
 20
-5.558203722424195
 30
0.0
 10
4.495206414577548
 20
-5.54507693474789
 30
0.0
 10
4.46862020360542
 20
-5.531404615054624
 30
0.0
 10
4.441812249154407
 20
-5.518183111859924
 30
0.0
 10
4.410425756888722
 20
-5.502703365542452
 30
0.0
 10
4.379135206613884
 20
-5.487004819035115
 30
0.0
 10
4.347421973129282
 20
-5.472218674214293
 30
0.0
 10
4.310904787101435
 20
-5.455192886734317
 30
0.0
 10
4.275467193220947
 20
-5.436065981100151
 30
0.0
 10
4.23953079888785
 20
-5.417919270947322
 30
0.0
 10
4.18604509697343
 20
-5.390910418876779
 30
0.0
 10
4.132131327349699
 20
-5.364848966733385
 30
0.0
 10
4.077693303275812
 20
-5.339811274314999
 30
0.0
 10
4.063527664122728
 20
-5.333296217207841
 30
0.0
 10
4.049143218490422
 20
-5.327127716106057
 30
0.0
 10
4.035271279309401
 20
-5.319934476307531
 30
0.0
 10
4.02449763008379
 20
-5.31434797392103
 30
0.0
 10
4.014335243925062
 20
-5.314076309255773
 30
0.0
 10
4.002956939881944
 20
-5.319961153288153
 30
0.0
 10
3.984406604895765
 20
-5.329555321344438
 30
0.0
 10
3.9648863257518
 20
-5.337252486859849
 30
0.0
 10
3.945999092422653
 20
-5.346221581443134
 30
0.0
 10
3.91151993945103
 20
-5.36259537372651
 30
0.0
 10
3.877090470724674
 20
-5.379082237248945
 30
0.0
 10
3.842855700604824
 20
-5.395958976277445
 30
0.0
 10
3.813157371303607
 20
-5.410599743790903
 30
0.0
 10
3.783797286470239
 20
-5.425924812569241
 30
0.0
 10
3.754215213407986
 20
-5.440803225479056
 30
0.0
 10
3.718936217512413
 20
-5.458546599264005
 30
0.0
 10
3.683650001492512
 20
-5.47627871487364
 30
0.0
 10
3.648233211360055
 20
-5.493744550162747
 30
0.0
 10
3.622100644469797
 20
-5.506632223985004
 30
0.0
 10
3.595664465233426
 20
-5.518904124566081
 30
0.0
 10
3.569521741219141
 20
-5.531771729467132
 30
0.0
 10
3.520874256844674
 20
-5.55571566567922
 30
0.0
 10
3.472697671425445
 20
-5.58064836337563
 30
0.0
 10
3.423660055588066
 20
-5.603758460385455
 30
0.0
 10
3.376309868465252
 20
-5.626073387577788
 30
0.0
 10
3.330320124088087
 20
-5.651009266932431
 30
0.0
 10
3.283831334508363
 20
-5.674932399994481
 30
0.0
 10
3.246936621641414
 20
-5.6939180889513
 30
0.0
 10
3.210243093255333
 20
-5.713418961800394
 30
0.0
 10
3.17341091400744
 20
-5.732557125609901
 30
0.0
 10
3.134560648826423
 20
-5.752744012924444
 30
0.0
 10
3.096039327614145
 20
-5.773614956760941
 30
0.0
 10
3.056268068270683
 20
-5.792082769653234
 30
0.0
 10
3.02494570049891
 20
-5.806627108447679
 30
0.0
 10
2.994600252259235
 20
-5.823263020421563
 30
0.0
 10
2.963666425075517
 20
-5.838659554138883
 30
0.0
 10
2.92859620091009
 20
-5.856114865481509
 30
0.0
 10
2.892964153173074
 20
-5.872489147250765
 30
0.0
 10
2.858372415212152
 20
-5.890834343929276
 30
0.0
 10
2.84394146708429
 20
-5.898487700458139
 30
0.0
 10
2.828533171111846
 20
-5.899777740503673
 30
0.0
 10
2.813512436727553
 20
-5.901619920625585
 30
0.0
 10
2.804792484556678
 20
-5.902689202537733
 30
0.0
 10
2.794617004274186
 20
-5.896931869577959
 30
0.0
 10
2.785966561096693
 20
-5.892534817887963
 30
0.0
 10
2.764147284233836
 20
-5.881443802000476
 30
0.0
 10
2.752636142140848
 20
-5.853089842722511
 30
0.0
 10
2.754381454224888
 20
-5.832469270915301
 30
0.0
  0
HATCH
  5
7C
330
70
100
AcDbEntity
  8
Layer 1
 62
   253
420
 10526880
440
 33554687
100
AcDbHatch
 10
0.0
 20
0.0
 30
0.0
210
0.0
220
0.0
230
1.0
  2
SOLID
 70
     1
 71
     1
 91
        3
 92
        1
 93
        1
 72
     4
 94
        3
 73
     0
 74
     0
 95
      116
 96
      112
 40
0.0
 40
0.0
 40
0.0
 40
0.0
 40
1.0
 40
1.0
 40
1.0
 40
2.0
 40
2.0
 40
2.0
 40
3.0
 40
3.0
 40
3.0
 40
4.0
 40
4.0
 40
4.0
 40
5.0
 40
5.0
 40
5.0
 40
6.0
 40
6.0
 40
6.0
 40
7.0
 40
7.0
 40
7.0
 40
8.0
 40
8.0
 40
8.0
 40
9.0
 40
9.0
 40
9.0
 40
10.0
 40
10.0
 40
10.0
 40
11.0
 40
11.0
 40
11.0
 40
12.0
 40
12.0
 40
12.0
 40
13.0
 40
13.0
 40
13.0
 40
14.0
 40
14.0
 40
14.0
 40
15.0
 40
15.0
 40
15.0
 40
16.0
 40
16.0
 40
16.0
 40
17.0
 40
17.0
 40
17.0
 40
18.0
 40
18.0
 40
18.0
 40
19.0
 40
19.0
 40
19.0
 40
20.0
 40
20.0
 40
20.0
 40
21.0
 40
21.0
 40
21.0
 40
22.0
 40
22.0
 40
22.0
 40
23.0
 40
23.0
 40
23.0
 40
24.0
 40
24.0
 40
24.0
 40
25.0
 40
25.0
 40
25.0
 40
26.0
 40
26.0
 40
26.0
 40
27.0
 40
27.0
 40
27.0
 40
28.0
 40
28.0
 40
28.0
 40
29.0
 40
29.0
 40
29.0
 40
30.0
 40
30.0
 40
30.0
 40
31.0
 40
31.0
 40
31.0
 40
32.0
 40
32.0
 40
32.0
 40
33.0
 40
33.0
 40
33.0
 40
34.0
 40
34.0
 40
34.0
 40
35.0
 40
35.0
 40
35.0
 40
36.0
 40
36.0
 40
36.0
 40
37.0
 40
37.0
 40
37.0
 40
37.0
 10
3.798805232668251
 20
-3.952895731533178
 10
3.798805232668251
 20
-3.881072121785475
 10
3.79881795966705
 20
-3.809248512037798
 10
3.798788344919848
 20
-3.737424902290108
 10
3.798784918420185
 20
-3.729095321013422
 10
3.799284330747683
 20
-3.720648630239149
 10
3.793181857202928
 20
-3.713655957281325
 10
3.791098423026028
 20
-3.711268489885368
 10
3.790633030945286
 20
-3.70774443626831
 10
3.791591104729187
 20
-3.705041617592011
 10
3.796213085664716
 20
-3.692000857059711
 10
3.782960731049784
 20
-3.681611152071556
 10
3.786418681096001
 20
-3.668736082510766
 10
3.786711157318184
 20
-3.667647221163292
 10
3.784147278936971
 20
-3.665675327282277
 10
3.782746574820154
 20
-3.664277845085368
 10
3.781123270599487
 20
-3.662658381040349
 10
3.778721539077865
 20
-3.66157881992467
 10
3.778784317446883
 20
-3.658837576606527
 10
3.779073979044356
 20
-3.646201743271224
 10
3.769600441695122
 20
-3.637540290565639
 10
3.763758749250566
 20
-3.628512335304902
 10
3.749795395953229
 20
-3.606932738280799
 10
3.725698781744414
 20
-3.597897073617407
 10
3.702146246733857
 20
-3.591153304231245
 10
3.684268729433685
 20
-3.58603438323482
 10
3.666945081330873
 20
-3.593650049350672
 10
3.650283849040066
 20
-3.600984383455068
 10
3.633593002002081
 20
-3.608331933678313
 10
3.622905015268315
 20
-3.621071293277951
 10
3.613143651946453
 20
-3.63599021114458
 10
3.604533103015164
 20
-3.649150283860939
 10
3.600075104564047
 20
-3.663712244147164
 10
3.593717234418565
 20
-3.677642278158006
 10
3.589950532276727
 20
-3.685895010151006
 10
3.590164810881333
 20
-3.69511765842185
 10
3.586300820623743
 20
-3.702584153714736
 10
3.582655636845338
 20
-3.709628100318847
 10
3.581477777582335
 20
-3.716108893414179
 10
3.581947208037705
 20
-3.723539411494647
 10
3.582134564144881
 20
-3.726503738004124
 10
3.582777767083724
 20
-3.730460252399097
 10
3.581234006605503
 20
-3.73233767550462
 10
3.574219717022451
 20
-3.740867578879058
 10
3.577023572755857
 20
-3.750689602614026
 10
3.576439966436345
 20
-3.760102049036125
 10
3.575993175353826
 20
-3.767307158867323
 10
3.578488278991585
 20
-3.775128531425631
 10
3.573487302717087
 20
-3.781475817246296
 10
3.570078792166175
 20
-3.785802015854654
 10
3.569746054572811
 20
-3.790452498860746
 10
3.569472546473825
 20
-3.795524673955305
 10
3.567957666492866
 20
-3.823615289828037
 10
3.57005150254377
 20
-3.851583901344358
 10
3.565908130187734
 20
-3.879936147421744
 10
3.561458453235824
 20
-3.910384249680078
 10
3.56352524441431
 20
-3.94192928980298
 10
3.564255578344866
 20
-3.972960247376893
 10
3.565915350312049
 20
-4.043474604758127
 10
3.560813781797125
 20
-4.114010744261173
 10
3.56841412519946
 20
-4.18461798158877
 10
3.570807535221888
 20
-4.206851654124496
 10
3.57791103617146
 20
-4.228705730357685
 10
3.576301560324496
 20
-4.251414448943174
 10
3.576195828334562
 20
-4.25290591242967
 10
3.576898750267711
 20
-4.25496077416791
 10
3.577969531415912
 20
-4.255941703878104
 10
3.582587229226848
 20
-4.260172330367772
 10
3.582043884278505
 20
-4.265430877212414
 10
3.581698664436329
 20
-4.270832598677947
 10
3.581531500202231
 20
-4.273448166495528
 10
3.580954991632046
 20
-4.277331747493917
 10
3.582365240997937
 20
-4.278540777625721
 10
3.590704729330013
 20
-4.285691921638317
 10
3.589278448840635
 20
-4.296753078886922
 10
3.592871011374022
 20
-4.305582425250475
 10
3.601431019435128
 20
-4.3266195495444
 10
3.616504313876917
 20
-4.341681030174564
 10
3.632597970971687
 20
-4.35564141231018
 10
3.644888825303041
 20
-4.366302904335043
 10
3.660859617909497
 20
-4.370488987609304
 10
3.677796438674097
 20
-4.369346038071727
 10
3.687430287258077
 20
-4.368695756075718
 10
3.698288987100605
 20
-4.372080306216022
 10
3.706585521811752
 20
-4.368705545793393
 10
3.723186667983263
 20
-4.361952598546925
 10
3.739479306809117
 20
-4.353632562244986
 10
3.751950419498332
 20
-4.339604386314527
 10
3.766685714222262
 20
-4.323029170590138
 10
3.778718234953177
 20
-4.305433621541952
 10
3.779449180758673
 20
-4.282238353988431
 10
3.779498497878976
 20
-4.280673957105313
 10
3.780063747950243
 20
-4.278639898517111
 10
3.781146766597266
 20
-4.277675611326937
 10
3.786978301917782
 20
-4.272484368791234
 10
3.786369241600696
 20
-4.265841555868519
 10
3.785964180389201
 20
-4.259103293198551
 10
3.785744762035076
 20
-4.255450504794199
 10
3.785055668475592
 20
-4.25124410785578
 10
3.787471840245858
 20
-4.248394810528881
 10
3.792376629779495
 20
-4.242611779560244
 10
3.791200728516299
 20
-4.235981938013436
 10
3.791556839732442
 20
-4.22939517122437
 10
3.792200899296201
 20
-4.217478392651679
 10
3.789026369723046
 20
-4.205211876415331
 10
3.793730586650768
 20
-4.193693784094622
 10
3.797480401044215
 20
-4.18451249738094
 10
3.798856140663398
 20
-4.175191462447552
 10
3.798839497664983
 20
-4.165361117452574
 10
3.798720304426321
 20
-4.094539485308081
 10
3.798775617921061
 20
-4.023717486049159
 10
3.798805232668251
 20
-3.952895731533178
 97
        0
 97
        1
330
79
 92
        1
 93
        1
 72
     4
 94
        3
 73
     0
 74
     0
 95
       95
 96
       91
 40
0.0
 40
0.0
 40
0.0
 40
0.0
 40
1.0
 40
1.0
 40
1.0
 40
2.0
 40
2.0
 40
2.0
 40
3.0
 40
3.0
 40
3.0
 40
4.0
 40
4.0
 40
4.0
 40
5.0
 40
5.0
 40
5.0
 40
6.0
 40
6.0
 40
6.0
 40
7.0
 40
7.0
 40
7.0
 40
8.0
 40
8.0
 40
8.0
 40
9.0
 40
9.0
 40
9.0
 40
10.0
 40
10.0
 40
10.0
 40
11.0
 40
11.0
 40
11.0
 40
12.0
 40
12.0
 40
12.0
 40
13.0
 40
13.0
 40
13.0
 40
14.0
 40
14.0
 40
14.0
 40
15.0
 40
15.0
 40
15.0
 40
16.0
 40
16.0
 40
16.0
 40
17.0
 40
17.0
 40
17.0
 40
18.0
 40
18.0
 40
18.0
 40
19.0
 40
19.0
 40
19.0
 40
20.0
 40
20.0
 40
20.0
 40
21.0
 40
21.0
 40
21.0
 40
22.0
 40
22.0
 40
22.0
 40
23.0
 40
23.0
 40
23.0
 40
24.0
 40
24.0
 40
24.0
 40
25.0
 40
25.0
 40
25.0
 40
26.0
 40
26.0
 40
26.0
 40
27.0
 40
27.0
 40
27.0
 40
28.0
 40
28.0
 40
28.0
 40
29.0
 40
29.0
 40
29.0
 40
30.0
 40
30.0
 40
30.0
 40
30.0
 10
4.470753199652613
 20
-3.793964682445119
 10
4.475714526430869
 20
-3.772372481159524
 10
4.464255822020403
 20
-3.749635617135759
 10
4.465532437899001
 20
-3.725888454248774
 10
4.465599988892563
 20
-3.724630720271546
 10
4.465192969681285
 20
-3.723078193421088
 10
4.46444476900241
 20
-3.722087229250278
 10
4.456087536297066
 20
-3.711019463942218
 10
4.459317746489937
 20
-3.696639225290179
 10
4.453406055552022
 20
-3.684642905261448
 10
4.44821368479572
 20
-3.674106354508277
 10
4.447337235129048
 20
-3.661073792864537
 10
4.440921603989055
 20
-3.651604688451457
 10
4.433217608971593
 20
-3.640233931381607
 10
4.428665748904373
 20
-3.627379175484975
 10
4.418221288397489
 20
-3.616804811947329
 10
4.401759160212728
 20
-3.600138307105718
 10
4.383137602983323
 20
-3.593299822201136
 10
4.361357057804298
 20
-3.590570938401558
 10
4.346366855979618
 20
-3.588692658695726
 10
4.332624879036226
 20
-3.592668874897526
 10
4.3190547165765
 20
-3.598273855376103
 10
4.30310068934346
 20
-3.604863191966046
 10
4.289893491099215
 20
-3.616256954872407
 10
4.282042401345734
 20
-3.630367364431258
 10
4.273351819172047
 20
-3.6459857576252
 10
4.264959831970019
 20
-3.662132183715773
 10
4.259862424204685
 20
-3.680218319990533
 10
4.256226418550391
 20
-3.693119087560186
 10
4.259692322970851
 20
-3.708457494828861
 10
4.249151675723092
 20
-3.719391752862229
 10
4.251325300266393
 20
-3.738158152143341
 10
4.244353107679343
 20
-3.756210758635107
 10
4.244251536438974
 20
-3.774598907699871
 10
4.24367784249355
 20
-3.878517739703308
 10
4.243898117472629
 20
-3.98244109945118
 10
4.243971297715638
 20
-4.086362990741386
 10
4.24398084296475
 20
-4.100005329424321
 10
4.24316288854253
 20
-4.113924350002763
 10
4.245559235564668
 20
-4.127204469132013
 10
4.247596044870988
 20
-4.138493237316398
 10
4.248748572511405
 20
-4.149572750285642
 10
4.248732908512894
 20
-4.160927109578374
 10
4.248710636265008
 20
-4.176965604031693
 10
4.247455803134319
 20
-4.193153146936461
 10
4.249199157218551
 20
-4.209005147268221
 10
4.251361768012935
 20
-4.228670732117026
 10
4.256420505281917
 20
-4.248020598571075
 10
4.260149026427446
 20
-4.267450006481163
 10
4.263135465643446
 20
-4.283012475912932
 10
4.26732607474499
 20
-4.297695583955272
 10
4.273404929917028
 20
-4.312007416955111
 10
4.281520104895384
 20
-4.331114498411048
 10
4.295496062816533
 20
-4.345732994316803
 10
4.313396831364444
 20
-4.355296080019469
 10
4.331548713388555
 20
-4.364993529597161
 10
4.350986756540325
 20
-4.371078818098718
 10
4.372584718236743
 20
-4.369598123301658
 10
4.389021637173881
 20
-4.36847083731234
 10
4.402851234608911
 20
-4.36289020875645
 10
4.416538387557491
 20
-4.354457101215428
 10
4.426075070400707
 20
-4.348581557414844
 10
4.431156814167504
 20
-4.339192483943684
 10
4.438076630259577
 20
-4.331373191700397
 10
4.447557754858103
 20
-4.320658835200093
 10
4.454941372156023
 20
-4.307733715707728
 10
4.458469443070574
 20
-4.294056745898564
 10
4.461553292777377
 20
-4.282102521655789
 10
4.470218910453417
 20
-4.27065516004523
 10
4.465085034941542
 20
-4.257047697231503
 10
4.464779342220632
 20
-4.256237598094584
 10
4.465973722107062
 20
-4.254438982216293
 10
4.466925554766551
 20
-4.253649441486459
 10
4.471697689812824
 20
-4.249691458633833
 10
4.471532238828532
 20
-4.244459344026886
 10
4.471355529345347
 20
-4.238995457854167
 10
4.471216021858607
 20
-4.234683821450845
 10
4.470544427922454
 20
-4.229819065999334
 10
4.472185721266416
 20
-4.226121734379577
 10
4.478227374441934
 20
-4.212510355678761
 10
4.477971855466244
 20
-4.198206843938956
 10
4.477984582465018
 20
-4.183940533126259
 10
4.478081013955867
 20
-4.074338035788488
 10
4.478058007458053
 20
-3.964735416079242
 10
4.478011994462424
 20
-3.855132918741471
 10
4.478010281212568
 20
-3.850814184792827
 10
4.478839983633684
 20
-3.845616334197706
 10
4.476829117824889
 20
-3.842328457519341
 10
4.467876653176113
 20
-3.827692095378854
 10
4.472303935505124
 20
-3.811742687356323
 10
4.470753199652613
 20
-3.793964682445119
 97
        0
 97
        1
330
7A
 92
        1
 93
        1
 72
     4
 94
        3
 73
     0
 74
     0
 95
      461
 96
      457
 40
0.0
 40
0.0
 40
0.0
 40
0.0
 40
1.0
 40
1.0
 40
1.0
 40
2.0
 40
2.0
 40
2.0
 40
3.0
 40
3.0
 40
3.0
 40
4.0
 40
4.0
 40
4.0
 40
5.0
 40
5.0
 40
5.0
 40
6.0
 40
6.0
 40
6.0
 40
7.0
 40
7.0
 40
7.0
 40
8.0
 40
8.0
 40
8.0
 40
9.0
 40
9.0
 40
9.0
 40
10.0
 40
10.0
 40
10.0
 40
11.0
 40
11.0
 40
11.0
 40
12.0
 40
12.0
 40
12.0
 40
13.0
 40
13.0
 40
13.0
 40
14.0
 40
14.0
 40
14.0
 40
15.0
 40
15.0
 40
15.0
 40
16.0
 40
16.0
 40
16.0
 40
17.0
 40
17.0
 40
17.0
 40
18.0
 40
18.0
 40
18.0
 40
19.0
 40
19.0
 40
19.0
 40
20.0
 40
20.0
 40
20.0
 40
21.0
 40
21.0
 40
21.0
 40
22.0
 40
22.0
 40
22.0
 40
23.0
 40
23.0
 40
23.0
 40
24.0
 40
24.0
 40
24.0
 40
25.0
 40
25.0
 40
25.0
 40
26.0
 40
26.0
 40
26.0
 40
27.0
 40
27.0
 40
27.0
 40
28.0
 40
28.0
 40
28.0
 40
29.0
 40
29.0
 40
29.0
 40
30.0
 40
30.0
 40
30.0
 40
31.0
 40
31.0
 40
31.0
 40
32.0
 40
32.0
 40
32.0
 40
33.0
 40
33.0
 40
33.0
 40
34.0
 40
34.0
 40
34.0
 40
35.0
 40
35.0
 40
35.0
 40
36.0
 40
36.0
 40
36.0
 40
37.0
 40
37.0
 40
37.0
 40
38.0
 40
38.0
 40
38.0
 40
39.0
 40
39.0
 40
39.0
 40
40.0
 40
40.0
 40
40.0
 40
41.0
 40
41.0
 40
41.0
 40
42.0
 40
42.0
 40
42.0
 40
43.0
 40
43.0
 40
43.0
 40
44.0
 40
44.0
 40
44.0
 40
45.0
 40
45.0
 40
45.0
 40
46.0
 40
46.0
 40
46.0
 40
47.0
 40
47.0
 40
47.0
 40
48.0
 40
48.0
 40
48.0
 40
49.0
 40
49.0
 40
49.0
 40
50.0
 40
50.0
 40
50.0
 40
51.0
 40
51.0
 40
51.0
 40
52.0
 40
52.0
 40
52.0
 40
53.0
 40
53.0
 40
53.0
 40
54.0
 40
54.0
 40
54.0
 40
55.0
 40
55.0
 40
55.0
 40
56.0
 40
56.0
 40
56.0
 40
57.0
 40
57.0
 40
57.0
 40
58.0
 40
58.0
 40
58.0
 40
59.0
 40
59.0
 40
59.0
 40
60.0
 40
60.0
 40
60.0
 40
61.0
 40
61.0
 40
61.0
 40
62.0
 40
62.0
 40
62.0
 40
63.0
 40
63.0
 40
63.0
 40
64.0
 40
64.0
 40
64.0
 40
65.0
 40
65.0
 40
65.0
 40
66.0
 40
66.0
 40
66.0
 40
67.0
 40
67.0
 40
67.0
 40
68.0
 40
68.0
 40
68.0
 40
69.0
 40
69.0
 40
69.0
 40
70.0
 40
70.0
 40
70.0
 40
71.0
 40
71.0
 40
71.0
 40
72.0
 40
72.0
 40
72.0
 40
73.0
 40
73.0
 40
73.0
 40
74.0
 40
74.0
 40
74.0
 40
75.0
 40
75.0
 40
75.0
 40
76.0
 40
76.0
 40
76.0
 40
77.0
 40
77.0
 40
77.0
 40
78.0
 40
78.0
 40
78.0
 40
79.0
 40
79.0
 40
79.0
 40
80.0
 40
80.0
 40
80.0
 40
81.0
 40
81.0
 40
81.0
 40
82.0
 40
82.0
 40
82.0
 40
83.0
 40
83.0
 40
83.0
 40
84.0
 40
84.0
 40
84.0
 40
85.0
 40
85.0
 40
85.0
 40
86.0
 40
86.0
 40
86.0
 40
87.0
 40
87.0
 40
87.0
 40
88.0
 40
88.0
 40
88.0
 40
89.0
 40
89.0
 40
89.0
 40
90.0
 40
90.0
 40
90.0
 40
91.0
 40
91.0
 40
91.0
 40
92.0
 40
92.0
 40
92.0
 40
93.0
 40
93.0
 40
93.0
 40
94.0
 40
94.0
 40
94.0
 40
95.0
 40
95.0
 40
95.0
 40
96.0
 40
96.0
 40
96.0
 40
97.0
 40
97.0
 40
97.0
 40
98.0
 40
98.0
 40
98.0
 40
99.0
 40
99.0
 40
99.0
 40
100.0
 40
100.0
 40
100.0
 40
101.0
 40
101.0
 40
101.0
 40
102.0
 40
102.0
 40
102.0
 40
103.0
 40
103.0
 40
103.0
 40
104.0
 40
104.0
 40
104.0
 40
105.0
 40
105.0
 40
105.0
 40
106.0
 40
106.0
 40
106.0
 40
107.0
 40
107.0
 40
107.0
 40
108.0
 40
108.0
 40
108.0
 40
109.0
 40
109.0
 40
109.0
 40
110.0
 40
110.0
 40
110.0
 40
111.0
 40
111.0
 40
111.0
 40
112.0
 40
112.0
 40
112.0
 40
113.0
 40
113.0
 40
113.0
 40
114.0
 40
114.0
 40
114.0
 40
115.0
 40
115.0
 40
115.0
 40
116.0
 40
116.0
 40
116.0
 40
117.0
 40
117.0
 40
117.0
 40
118.0
 40
118.0
 40
118.0
 40
119.0
 40
119.0
 40
119.0
 40
120.0
 40
120.0
 40
120.0
 40
121.0
 40
121.0
 40
121.0
 40
122.0
 40
122.0
 40
122.0
 40
123.0
 40
123.0
 40
123.0
 40
124.0
 40
124.0
 40
124.0
 40
125.0
 40
125.0
 40
125.0
 40
126.0
 40
126.0
 40
126.0
 40
127.0
 40
127.0
 40
127.0
 40
128.0
 40
128.0
 40
128.0
 40
129.0
 40
129.0
 40
129.0
 40
130.0
 40
130.0
 40
130.0
 40
131.0
 40
131.0
 40
131.0
 40
132.0
 40
132.0
 40
132.0
 40
133.0
 40
133.0
 40
133.0
 40
134.0
 40
134.0
 40
134.0
 40
135.0
 40
135.0
 40
135.0
 40
136.0
 40
136.0
 40
136.0
 40
137.0
 40
137.0
 40
137.0
 40
138.0
 40
138.0
 40
138.0
 40
139.0
 40
139.0
 40
139.0
 40
140.0
 40
140.0
 40
140.0
 40
141.0
 40
141.0
 40
141.0
 40
142.0
 40
142.0
 40
142.0
 40
143.0
 40
143.0
 40
143.0
 40
144.0
 40
144.0
 40
144.0
 40
145.0
 40
145.0
 40
145.0
 40
146.0
 40
146.0
 40
146.0
 40
147.0
 40
147.0
 40
147.0
 40
148.0
 40
148.0
 40
148.0
 40
149.0
 40
149.0
 40
149.0
 40
150.0
 40
150.0
 40
150.0
 40
151.0
 40
151.0
 40
151.0
 40
152.0
 40
152.0
 40
152.0
 40
152.0
 10
2.754381454224888
 20
-5.832469270915301
 10
2.754365729038896
 20
-5.806709097333142
 10
2.761015830656586
 20
-5.784100723353731
 10
2.763298124189582
 20
-5.760956607075033
 10
2.765615845281697
 20
-5.737452963414979
 10
2.770144882413559
 20
-5.714267730322085
 10
2.773129914317248
 20
-5.690855375779316
 10
2.775934504300569
 20
-5.668858124925236
 10
2.780445185184185
 20
-5.646952163188441
 10
2.783191402298067
 20
-5.624880265737147
 10
2.786062686650059
 20
-5.601803453767413
 10
2.791167865227154
 20
-5.579106482843118
 10
2.793025272800529
 20
-5.55581087068352
 10
2.794466115913539
 20
-5.537739786099664
 10
2.800566019583546
 20
-5.520081093372533
 10
2.802714496066755
 20
-5.50201563787636
 10
2.806406243528246
 20
-5.470973666870071
 10
2.813632976091096
 20
-5.44053743464441
 10
2.81718998869039
 20
-5.409468786657448
 10
2.819333080674128
 20
-5.390749133278202
 10
2.824274460329282
 20
-5.372366735672559
 10
2.827402365031869
 20
-5.353739350382308
 10
2.832738404024502
 20
-5.321961682093337
 10
2.836565804160588
 20
-5.289891301246168
 10
2.843024756046449
 20
-5.258352746811245
 10
2.849305835886727
 20
-5.227683519305097
 10
2.852706881563348
 20
-5.196615605547018
 10
2.857524846042742
 20
-5.165781176555229
 10
2.861823818196474
 20
-5.138267175053063
 10
2.865277668680593
 20
-5.110519444041604
 10
2.868946409644245
 20
-5.082857128316795
 10
2.873661579133429
 20
-5.047306013353211
 10
2.879397906713001
 20
-5.011891464951101
 10
2.88441809586066
 20
-4.976379019372339
 10
2.889475976504741
 20
-4.940600293473026
 10
2.893960652703324
 20
-4.904739333945295
 10
2.899153268209602
 20
-4.868980676967212
 10
2.902160082861213
 20
-4.848274689873378
 10
2.906223238412369
 20
-4.827724359290464
 10
2.909514330161944
 20
-4.807056552095546
 10
2.91160333240081
 20
-4.793937840936323
 10
2.91202399642331
 20
-4.780454707536945
 10
2.915193569809439
 20
-4.767629198421824
 10
2.920200726020854
 20
-4.747369132967756
 10
2.919853609366353
 20
-4.726341553648555
 10
2.925822143486344
 20
-4.706160050678741
 10
2.929054005741565
 20
-4.695232523076255
 10
2.927204980854867
 20
-4.682907758019811
 10
2.929236589224185
 20
-4.671495884135765
 10
2.93256641265758
 20
-4.652791649561828
 10
2.93263524858854
 20
-4.633708063428305
 10
2.935913001464389
 20
-4.615148227189946
 10
2.939725410664398
 20
-4.593560920763189
 10
2.941089647034674
 20
-4.571696075840564
 10
2.945042236783857
 20
-4.550186108183348
 10
2.947797264896898
 20
-4.535193400319813
 10
2.941523221618454
 20
-4.524624910612752
 10
2.931074355611965
 20
-4.514421332631753
 10
2.913223087746801
 20
-4.496989516611519
 10
2.896150797870089
 20
-4.478717008586676
 10
2.879399681150339
 20
-4.460211015795493
 10
2.853673215658975
 20
-4.431789507465635
 10
2.827095264998572
 20
-4.404216033428635
 10
2.799923367332148
 20
-4.377184420264509
 10
2.76534154174529
 20
-4.342781149697353
 10
2.73034223388562
 20
-4.308762125548633
 10
2.696732494018811
 20
-4.27342687385961
 10
2.665451060680639
 20
-4.240539296330224
 10
2.634120004284694
 20
-4.207715596708592
 10
2.602390739676593
 20
-4.175258277270637
 10
2.574401377087901
 20
-4.146627024239756
 10
2.547154035241141
 20
-4.117271943958889
 10
2.519339944229538
 20
-4.088467290553858
 10
2.497866162552567
 20
-4.066228845530758
 10
2.477021357722049
 20
-4.043369732407654
 10
2.455361382500288
 20
-4.021358653577357
 10
2.44278603691474
 20
-4.008579278506772
 10
2.429290951510387
 20
-3.996533887518239
 10
2.416629668089247
 20
-3.983738604156415
 10
2.379838423274956
 20
-3.946557990687235
 10
2.340639022252149
 20
-3.911790909737305
 10
2.304357866983119
 20
-3.874198149154368
 10
2.282360412137197
 20
-3.851405361368405
 10
2.258836421092673
 20
-3.830228611226289
 10
2.236994489560086
 20
-3.807264748124124
 10
2.214307344576619
 20
-3.783412345772224
 10
2.190434003534051
 20
-3.760541729730814
 10
2.168005008588541
 20
-3.736431490689899
 10
2.148703260580064
 20
-3.715683163067157
 10
2.127971622020027
 20
-3.69635605770668
 10
2.109067087926897
 20
-3.675190076253986
 10
2.099641712784015
 20
-3.664637127723734
 10
2.08785686373268
 20
-3.65585024426054
 10
2.078348204761785
 20
-3.645179941489749
 10
2.062494318511413
 20
-3.62738872045971
 10
2.044705515429376
 20
-3.611480062136958
 10
2.030391483218131
 20
-3.59211649007817
 10
2.012237132900104
 20
-3.567558004339566
 10
2.010693084231193
 20
-3.520957479788585
 10
2.048094162989994
 20
-3.499456445248761
 10
2.068641007669157
 20
-3.487644294283616
 10
2.090746756731328
 20
-3.485553088218555
 10
2.112570117859427
 20
-3.481011638192979
 10
2.137567809701345
 20
-3.475809749339342
 10
2.162981331753712
 20
-3.47262441995354
 10
2.188185561982209
 20
-3.468392447377722
 10
2.235057920666084
 20
-3.460522248602539
 10
2.28185439156031
 20
-3.452183489465533
 10
2.328785046629251
 20
-3.444681384074631
 10
2.377337843356472
 20
-3.436919973537025
 10
2.426040977756896
 20
-3.43010363786867
 10
2.474623817543765
 20
-3.422523948965249
 10
2.507142829139272
 20
-3.417450550155965
 10
2.539970562236665
 20
-3.41393457305599
 10
2.572222000920115
 20
-3.407804618967525
 10
2.610361206231232
 20
-3.400555822521242
 10
2.649050915427513
 20
-3.397350913700127
 10
2.687138600868542
 20
-3.389527827941214
 10
2.706447171282611
 20
-3.385562013314445
 10
2.726534291372685
 20
-3.383007264117862
 10
2.746051939454395
 20
-3.379487738245213
 10
2.763186212262717
 20
-3.376397858606689
 10
2.780689017348499
 20
-3.374492901920221
 10
2.797767670724624
 20
-3.369852942860625
 10
2.810613923940662
 20
-3.366362663769526
 10
2.824465548873604
 20
-3.365029548966263
 10
2.837865304162025
 20
-3.362692988102177
 10
2.858794364172038
 20
-3.359043626098973
 10
2.879752243491806
 20
-3.355558241866699
 10
2.900705717311994
 20
-3.352049729426438
 10
2.932149725822202
 20
-3.346784696893829
 10
2.96382349337307
 20
-3.342614032424888
 10
2.994985978222567
 20
-3.33602298263434
 10
3.026524460223804
 20
-3.329352391387752
 10
3.058470940436248
 20
-3.325492672826182
 10
3.090165083422675
 20
-3.320006270302845
 10
3.124167341064649
 20
-3.314120324927229
 10
3.158481165426994
 20
-3.309610079626736
 10
3.192452706946887
 20
-3.303689503124865
 10
3.227420380872065
 20
-3.297595281505891
 10
3.262270207683463
 20
-3.290351869404326
 10
3.297184281363734
 20
-3.283728268802532
 10
3.311819228597212
 20
-3.280952027243743
 10
3.325995391999286
 20
-3.275596195079767
 10
3.341286636295358
 20
-3.275835920791134
 10
3.352747053955668
 20
-3.276015562110311
 10
3.360077193383694
 20
-3.269177811434562
 10
3.365462916621607
 20
-3.259366434017566
 10
3.385300269360426
 20
-3.223227935993993
 10
3.405835771407851
 20
-3.187467443443842
 10
3.425320194680226
 20
-3.151141961812843
 10
3.442152017704807
 20
-3.119762000804118
 10
3.45781381346564
 20
-3.087756232093536
 10
3.474181590534347
 20
-3.056124736526498
 10
3.485164868115033
 20
-3.034899527281923
 10
3.497006239114107
 20
-3.014102006327915
 10
3.507457430245393
 20
-2.992623610510185
 10
3.514463765454213
 20
-2.978224771394568
 10
3.52166957189407
 20
-2.963958154653217
 10
3.529239443924287
 20
-2.949859615127037
 10
3.54542096626071
 20
-2.919722703519015
 10
3.561974508561749
 20
-2.88977718089139
 10
3.577644870571778
 20
-2.859376436392267
 10
3.598072193129483
 20
-2.819746925048775
 10
3.619673336575601
 20
-2.780763963371416
 10
3.640885817058649
 20
-2.741562690990109
 10
3.658269796030746
 20
-2.709436569937957
 10
3.675014855188565
 20
-2.676958630907178
 10
3.691664461855477
 20
-2.644442879091899
 10
3.708299261148795
 20
-2.611956435243882
 10
3.724482863860013
 20
-2.579238709315998
 10
3.740829102930774
 20
-2.546604777252771
 10
3.757448238225581
 20
-2.513425863844177
 10
3.773927254158719
 20
-2.480176403282648
 10
3.790647226443929
 20
-2.447048488184527
 10
3.807248739740417
 20
-2.414155648681887
 10
3.823957820651672
 20
-2.381315918397565
 10
3.840830516922374
 20
-2.34856148102843
 10
3.86137862359361
 20
-2.308672022088015
 10
3.881549692925672
 20
-2.268570967578094
 10
3.903003496885793
 20
-2.229171055706766
 10
3.920920174182217
 20
-2.196267294550339
 10
3.935960182627177
 20
-2.161767182260468
 10
3.956376980935904
 20
-2.130294761957303
 10
3.965541399064527
 20
-2.116167759591816
 10
3.974834310930923
 20
-2.100246690125055
 10
3.990055679108637
 20
-2.092940417328552
 10
4.001300839164425
 20
-2.087542888997973
 10
4.013464301132886
 20
-2.082024032222117
 10
4.029183980263193
 20
-2.085954162180756
 10
4.051569057884762
 20
-2.091550768817822
 10
4.067322023011936
 20
-2.103750181510905
 10
4.078442727704567
 20
-2.12173430778033
 10
4.092949303575222
 20
-2.145194283945809
 10
4.105024288427102
 20
-2.170168855629893
 10
4.117931178449881
 20
-2.194604878119068
 10
4.140323843320731
 20
-2.236999005731629
 10
4.162723116440929
 20
-2.279391420143598
 10
4.184789284842837
 20
-2.321955720582801
 10
4.199743753170928
 20
-2.350802010880784
 10
4.214126730303329
 20
-2.37994434835961
 10
4.228777219160343
 20
-2.408948406076382
 10
4.247508669129325
 20
-2.446031764819116
 10
4.266653501808958
 20
-2.482913180042108
 10
4.284869753076892
 20
-2.520247736821589
 10
4.301030349290309
 20
-2.553368799117341
 10
4.318582593871395
 20
-2.585817797295286
 10
4.334253445381364
 20
-2.619122936876035
 10
4.350544738082336
 20
-2.653746353719207
 10
4.369327585546443
 20
-2.686990032228739
 10
4.386949339120898
 20
-2.72085688745349
 10
4.413510096095452
 20
-2.771903595839994
 10
4.441621833672494
 20
-2.822137574102965
 10
4.468045775410018
 20
-2.873275510420979
 10
4.487555530304992
 20
-2.911032860632215
 10
4.5083639285765
 20
-2.948117596053988
 10
4.52802640745689
 20
-2.985797974610047
 10
4.548216812037152
 20
-3.024489936929739
 10
4.567476921955858
 20
-3.06366661264542
 10
4.587605404792005
 20
-3.102391492890786
 10
4.601230880746419
 20
-3.128605175143889
 10
4.616237725569564
 20
-3.154093316946399
 10
4.630568326206963
 20
-3.179904397060466
 10
4.64458417837429
 20
-3.205148407778665
 10
4.659107152493384
 20
-3.23021216532033
 10
4.672032398764435
 20
-3.256070603193607
 10
4.678340339914686
 20
-3.268690650609174
 10
4.687003999590893
 20
-3.274354124650812
 10
4.701552427707585
 20
-3.276777202144797
 10
4.72934011631547
 20
-3.281405168800233
 10
4.757092316176693
 20
-3.286791471460433
 10
4.784652142556246
 20
-3.293104370897784
 10
4.813437187319272
 20
-3.299697623374817
 10
4.843025991005888
 20
-3.302700252154648
 10
4.872053582995881
 20
-3.308350387705975
 10
4.889970994542232
 20
-3.311838096996186
 10
4.908032563824917
 20
-3.314187996350597
 10
4.926001617616318
 20
-3.317203963620765
 10
4.957773591095397
 20
-3.322536789948205
 10
4.989916850289116
 20
-3.326005531660459
 10
5.02138313104721
 20
-3.332705369688583
 10
5.050645927764839
 20
-3.338936280240482
 10
5.0802332629516
 20
-3.342924611217868
 10
5.109626266656833
 20
-3.348073390853187
 10
5.149519289113691
 20
-3.355061903181005
 10
5.189342313077203
 20
-3.362535251276262
 10
5.229335438274548
 20
-3.369047983325483
 10
5.255849448003547
 20
-3.373365738302368
 10
5.28231548673706
 20
-3.37871630849309
 10
5.308847607964328
 20
-3.383143096450478
 10
5.345176336510095
 20
-3.389204277772326
 10
5.381379997817753
 20
-3.395990632430336
 10
5.417903792094951
 20
-3.401129744719456
 10
5.448075100726151
 20
-3.405374933414135
 10
5.478324239850027
 20
-3.409750202982309
 10
5.508404990989876
 20
-3.415014011800205
 10
5.543428712659684
 20
-3.421142742173957
 10
5.578833265293345
 20
-3.425065359671508
 10
5.613922335206981
 20
-3.430856467157228
 10
5.649323216590952
 20
-3.4366989706607
 10
5.684962484452297
 20
-3.440901451712066
 10
5.720263997345707
 20
-3.447480509098467
 10
5.751597868366413
 20
-3.453320075686633
 10
5.783270718104859
 20
-3.457315014723462
 10
5.814703223366197
 20
-3.46265885448329
 10
5.833696800560219
 20
-3.465887992855628
 10
5.852369265784798
 20
-3.471477799271838
 10
5.871453155720246
 20
-3.473584668885159
 10
5.894983173732927
 20
-3.476182248096556
 10
5.917780655065294
 20
-3.482866667319348
 10
5.941357665073509
 20
-3.484685352118869
 10
5.970448402557495
 20
-3.486928910665129
 10
5.994137997555045
 20
-3.498622973160915
 10
6.011805764125129
 20
-3.522512821182886
 10
6.019180080923988
 20
-3.532484138112256
 10
6.017123446869491
 20
-3.543746229315994
 10
6.017830529552282
 20
-3.55423248539465
 10
6.019337944658976
 20
-3.576601133662683
 10
6.007474423786965
 20
-3.594007618788433
 10
5.99277939043423
 20
-3.609720972243735
 10
5.957910840249622
 20
-3.647004622491345
 10
5.921025060756821
 20
-3.682327269918864
 10
5.885866971349766
 20
-3.719301932202622
 10
5.853406516186169
 20
-3.753439534306595
 10
5.819959229116445
 20
-3.78656439011796
 10
5.786735398775413
 20
-3.819924199153294
 10
5.745047624739223
 20
-3.86178307395245
 10
5.703172127470881
 20
-3.903455944115901
 10
5.661225407959313
 20
-3.945055758511291
 10
5.630673513114238
 20
-3.975354934689625
 10
5.599533973575034
 20
-4.005068318637086
 10
5.569284834451233
 20
-4.035664123260706
 10
5.539963297739202
 20
-4.065321093960114
 10
5.511565692189328
 20
-4.095888997888424
 10
5.482528799700225
 20
-4.125830604628946
 10
5.464217340691346
 20
-4.144712644950029
 10
5.444915133776652
 20
-4.162657686918893
 10
5.427040308726216
 20
-4.181934375233392
 10
5.383013214412433
 20
-4.22941377168791
 10
5.337919499700066
 20
-4.275855947555657
 10
5.292479953270609
 20
-4.321966496737433
 10
5.262696328602487
 20
-4.352190536832671
 10
5.232036988517696
 20
-4.381566053149147
 10
5.20269758505732
 20
-4.412209827389359
 10
5.172735537656181
 20
-4.443503638882626
 10
5.143934094644716
 20
-4.475908093845165
 10
5.114556999687995
 20
-4.507763590389559
 10
5.109350433433038
 20
-4.513409075825014
 10
5.103939500947515
 20
-4.518881283257718
 10
5.098391753225036
 20
-4.524192449834824
 10
5.09272995201339
 20
-4.529612771763923
 10
5.091817034600176
 20
-4.536039476669151
 10
5.092764706510075
 20
-4.543453719344015
 10
5.096767347629464
 20
-4.574766620786729
 10
5.100068290565634
 20
-4.606175461462599
 10
5.104486027645584
 20
-4.637427421912812
 10
5.109276518940052
 20
-4.671317711274241
 10
5.112942139341535
 20
-4.705346769883564
 10
5.118764007037977
 20
-4.739130351322399
 10
5.121908554738991
 20
-4.757378385053066
 10
5.125074885187914
 20
-4.775762740602254
 10
5.126954565009175
 20
-4.794329429642983
 10
5.129092700805888
 20
-4.815447808593514
 10
5.133984518590775
 20
-4.836273719728776
 10
5.13720787578427
 20
-4.857299341104408
 10
5.140580530463617
 20
-4.879300018359647
 10
5.143348652700397
 20
-4.90139320844686
 10
5.146462851404319
 20
-4.923434268287463
 10
5.149066501656736
 20
-4.941864146023791
 10
5.15188210538905
 20
-4.960264165121239
 10
5.15443509239627
 20
-4.978700650916985
 10
5.158538325756126
 20
-5.008330210406913
 10
5.162467297132555
 20
-5.037983754705136
 10
5.166536510245653
 20
-5.067617964310961
 10
5.170104475406383
 20
-5.093602567170642
 10
5.173584575325472
 20
-5.119696570125293
 10
5.177789379925696
 20
-5.14546677816808
 10
5.181074658863305
 20
-5.165603982665465
 10
5.182823152697058
 20
-5.186130328440109
 10
5.187184107782386
 20
-5.206267532937494
 10
5.190721968696025
 20
-5.222603634807859
 10
5.19189334208464
 20
-5.239762807191078
 10
5.194687897318923
 20
-5.256474834219842
 10
5.198355475720214
 20
-5.278407472937285
 10
5.20221763035301
 20
-5.300307316100568
 10
5.205890348503771
 20
-5.322239220589204
 10
5.210823773784694
 20
-5.351699662706449
 10
5.215617936328852
 20
-5.381182865917253
 10
5.220542795360592
 20
-5.410644776492163
 10
5.22547499689161
 20
-5.440150985539477
 10
5.230797574635516
 20
-5.469596253594368
 10
5.235373175450452
 20
-5.499157040317691
 10
5.23857426039611
 20
-5.519837329402636
 10
5.241686011600222
 20
-5.540582964853026
 10
5.24528310200819
 20
-5.561146756297729
 10
5.248718657431557
 20
-5.580786887880599
 10
5.249826640576176
 20
-5.600700152586366
 10
5.25411661816828
 20
-5.62025511362554
 10
5.258377960013123
 20
-5.639677423990329
 10
5.259903976118013
 20
-5.659692746502766
 10
5.262823109090478
 20
-5.679419272344047
 10
5.266073144031426
 20
-5.701382748672155
 10
5.270386617621296
 20
-5.72322556673003
 10
5.272707092150666
 20
-5.745281555890086
 10
5.275832794103457
 20
-5.774994083237262
 10
5.28395017183162
 20
-5.804142478103863
 10
5.282759218444854
 20
-5.834334212130821
 10
5.281777526288199
 20
-5.859225303527156
 10
5.272526466667841
 20
-5.880226695351565
 10
5.250588302503754
 20
-5.892815538042087
 10
5.237782494221366
 20
-5.900163944865602
 10
5.222454782178752
 20
-5.899481356801288
 10
5.207719365079861
 20
-5.897975208738292
 10
5.181938136781202
 20
-5.895339816742433
 10
5.161375956986325
 20
-5.880100407993672
 10
5.138968607116844
 20
-5.869459229632941
 10
5.106924716413686
 20
-5.85424086877717
 10
5.075266062173896
 20
-5.83820849289739
 10
5.043490417445178
 20
-5.822428446990518
 10
5.012547412137337
 20
-5.807062995626766
 10
4.981634755826588
 20
-5.791636358527638
 10
4.950765420261758
 20
-5.7761233271701
 10
4.932652453483973
 20
-5.767020602940672
 10
4.914411971968345
 20
-5.758131294556404
 10
4.896652668906906
 20
-5.748374372443903
 10
4.866657335508963
 20
-5.731895340695624
 10
4.836070930917204
 20
-5.716518386413654
 10
4.805744206050753
 20
-5.700714845184342
 10
4.772456495965848
 20
-5.683368444450807
 10
4.739324936366074
 20
-5.665653950332953
 10
4.705649542318042
 20
-5.649017059387284
 10
4.674585141021704
 20
-5.633669719001241
 10
4.643999960179826
 20
-5.617353441309155
 10
4.612947796382361
 20
-5.601981137143082
 10
4.582812955497653
 20
-5.587063565362591
 10
4.552270116401763
 20
-5.572972001010232
 10
4.522059892524238
 20
-5.558203722424195
 10
4.495206414577548
 20
-5.54507693474789
 10
4.46862020360542
 20
-5.531404615054624
 10
4.441812249154407
 20
-5.518183111859924
 10
4.410425756888722
 20
-5.502703365542452
 10
4.379135206613884
 20
-5.487004819035115
 10
4.347421973129282
 20
-5.472218674214293
 10
4.310904787101435
 20
-5.455192886734317
 10
4.275467193220947
 20
-5.436065981100151
 10
4.23953079888785
 20
-5.417919270947322
 10
4.18604509697343
 20
-5.390910418876779
 10
4.132131327349699
 20
-5.364848966733385
 10
4.077693303275812
 20
-5.339811274314999
 10
4.063527664122728
 20
-5.333296217207841
 10
4.049143218490422
 20
-5.327127716106057
 10
4.035271279309401
 20
-5.319934476307531
 10
4.02449763008379
 20
-5.31434797392103
 10
4.014335243925062
 20
-5.314076309255773
 10
4.002956939881944
 20
-5.319961153288153
 10
3.984406604895765
 20
-5.329555321344438
 10
3.9648863257518
 20
-5.337252486859849
 10
3.945999092422653
 20
-5.346221581443134
 10
3.91151993945103
 20
-5.36259537372651
 10
3.877090470724674
 20
-5.379082237248945
 10
3.842855700604824
 20
-5.395958976277445
 10
3.813157371303607
 20
-5.410599743790903
 10
3.783797286470239
 20
-5.425924812569241
 10
3.754215213407986
 20
-5.440803225479056
 10
3.718936217512413
 20
-5.458546599264005
 10
3.683650001492512
 20
-5.47627871487364
 10
3.648233211360055
 20
-5.493744550162747
 10
3.622100644469797
 20
-5.506632223985004
 10
3.595664465233426
 20
-5.518904124566081
 10
3.569521741219141
 20
-5.531771729467132
 10
3.520874256844674
 20
-5.55571566567922
 10
3.472697671425445
 20
-5.58064836337563
 10
3.423660055588066
 20
-5.603758460385455
 10
3.376309868465252
 20
-5.626073387577788
 10
3.330320124088087
 20
-5.651009266932431
 10
3.283831334508363
 20
-5.674932399994481
 10
3.246936621641414
 20
-5.6939180889513
 10
3.210243093255333
 20
-5.713418961800394
 10
3.17341091400744
 20
-5.732557125609901
 10
3.134560648826423
 20
-5.752744012924444
 10
3.096039327614145
 20
-5.773614956760941
 10
3.056268068270683
 20
-5.792082769653234
 10
3.02494570049891
 20
-5.806627108447679
 10
2.994600252259235
 20
-5.823263020421563
 10
2.963666425075517
 20
-5.838659554138883
 10
2.92859620091009
 20
-5.856114865481509
 10
2.892964153173074
 20
-5.872489147250765
 10
2.858372415212152
 20
-5.890834343929276
 10
2.84394146708429
 20
-5.898487700458139
 10
2.828533171111846
 20
-5.899777740503673
 10
2.813512436727553
 20
-5.901619920625585
 10
2.804792484556678
 20
-5.902689202537733
 10
2.794617004274186
 20
-5.896931869577959
 10
2.785966561096693
 20
-5.892534817887963
 10
2.764147284233836
 20
-5.881443802000476
 10
2.752636142140848
 20
-5.853089842722511
 10
2.754381454224888
 20
-5.832469270915301
 97
        0
 97
        1
330
7B
 75
     2
 76
     1
 98
        1
 10
0.0
 20
0.0
450
        0
451
        0
460
0.0
461
0.0
452
        0
462
0.0
453
        0
470

  0
ENDSEC
  0
SECTION
  2
OBJECTS
  0
DICTIONARY
  5
C
330
0
100
AcDbDictionary
281
     1
  3
ACAD_COLOR
350
63
  3
ACAD_DETAILVIEWSTYLE
350
6A
  3
ACAD_GROUP
350
D
  3
ACAD_LAYOUT
350
62
  3
ACAD_MATERIAL
350
10
  3
ACAD_MLEADERSTYLE
350
66
  3
ACAD_MLINESTYLE
350
5F
  3
ACAD_PLOTSETTINGS
350
61
  3
ACAD_PLOTSTYLENAME
350
E
  3
ACAD_SCALELIST
350
42
  3
ACAD_SECTIONVIEWSTYLE
350
68
  3
ACAD_TABLESTYLE
350
64
  3
ACAD_VISUALSTYLE
350
29
  3
ACDB_RECOMPOSE_DATA
350
85
  3
AcDbVariableDictionary
350
7D
  0
DICTIONARY
  5
63
102
{ACAD_REACTORS
330
C
102
}
330
C
100
AcDbDictionary
281
     1
  0
DICTIONARY
  5
6A
102
{ACAD_REACTORS
330
C
102
}
330
C
100
AcDbDictionary
281
     1
  3
Imperial24
350
6B
  0
DICTIONARY
  5
D
102
{ACAD_REACTORS
330
C
102
}
330
C
100
AcDbDictionary
281
     1
  0
DICTIONARY
  5
62
102
{ACAD_REACTORS
330
C
102
}
330
C
100
AcDbDictionary
281
     1
  3
Layout1
350
6F
  3
Layout2
350
77
  3
Model
350
73
  0
DICTIONARY
  5
10
102
{ACAD_REACTORS
330
C
102
}
330
C
100
AcDbDictionary
281
     1
  3
ByBlock
350
19
  3
ByLayer
350
11
  3
Global
350
21
  0
DICTIONARY
  5
66
102
{ACAD_REACTORS
330
C
102
}
330
C
100
AcDbDictionary
281
     1
  3
Standard
350
67
  0
DICTIONARY
  5
5F
102
{ACAD_REACTORS
330
C
102
}
330
C
100
AcDbDictionary
281
     1
  3
Standard
350
60
  0
DICTIONARY
  5
61
102
{ACAD_REACTORS
330
C
102
}
330
C
100
AcDbDictionary
281
     1
  0
ACDBDICTIONARYWDFLT
  5
E
102
{ACAD_REACTORS
330
C
102
}
330
C
100
AcDbDictionary
281
     1
  3
Normal
350
F
100
AcDbDictionaryWithDefault
340
F
  0
DICTIONARY
  5
42
102
{ACAD_REACTORS
330
C
102
}
330
C
100
AcDbDictionary
281
     1
  3
A0
350
43
  3
A1
350
44
  3
A2
350
45
  3
A3
350
46
  3
A4
350
47
  3
A5
350
48
  3
A6
350
49
  3
A7
350
4A
  3
A8
350
4B
  3
A9
350
4C
  3
B0
350
4D
  3
B1
350
4E
  3
B2
350
4F
  3
B3
350
50
  3
B4
350
51
  3
B5
350
52
  3
B6
350
53
  0
DICTIONARY
  5
68
102
{ACAD_REACTORS
330
C
102
}
330
C
100
AcDbDictionary
281
     1
  3
Imperial24
350
69
  0
DICTIONARY
  5
64
102
{ACAD_REACTORS
330
C
102
}
330
C
100
AcDbDictionary
281
     1
  3
Standard
350
65
  0
DICTIONARY
  5
29
102
{ACAD_REACTORS
330
C
102
}
330
C
100
AcDbDictionary
281
     1
  3
2dWireframe
350
2F
  3
Basic
350
2E
  3
Brighten
350
35
  3
ColorChange
350
39
  3
Conceptual
350
32
  3
Dim
350
34
  3
EdgeColorOff
350
41
  3
Facepattern
350
38
  3
Flat
350
2A
  3
FlatWithEdges
350
2B
  3
Gouraud
350
2C
  3
GouraudWithEdges
350
2D
  3
Hidden
350
31
  3
JitterOff
350
3F
  3
Linepattern
350
37
  3
OverhangOff
350
40
  3
Realistic
350
33
  3
Shaded
350
3E
  3
Shaded with edges
350
3D
  3
Shades of Gray
350
3A
  3
Sketchy
350
3B
  3
Thicken
350
36
  3
Wireframe
350
30
  3
X-Ray
350
3C
  0
XRECORD
  5
85
102
{ACAD_REACTORS
330
C
102
}
330
C
100
AcDbXrecord
280
     1
 90
        1
330
65
  0
DICTIONARY
  5
7D
102
{ACAD_REACTORS
330
C
102
}
330
C
100
AcDbDictionary
281
     1
  3
CANNOSCALE
350
82
  3
CMLEADERSTYLE
350
7F
  3
CTABLESTYLE
350
7E
  3
CVIEWDETAILSTYLE
350
80
  3
CVIEWSECTIONSTYLE
350
81
  0
ACDBDETAILVIEWSTYLE
  5
6B
102
{ACAD_REACTORS
330
6A
102
}
330
6A
100
AcDbModelDocViewStyle
 70
     0
  3
Imperial24
290
     1
300
Imperial24
 90
        0
100
AcDbDetailViewStyle
 70
     0
 71
     0
 90
        3
 71
     1
340
55
 62
   256
 40
0.24
340
0
 62
   256
 40
0.24
300

 40
0.36
280
     3
 71
     2
340
5D
 90
       25
 62
   256
 71
     3
340
55
 62
   256
 40
0.24
 90
        1
 40
0.75
 90
        1
300
%<\AcVar ViewType \f "%tc1">% %<\AcVar ViewDetailId>%\PSCALE %<\AcVar ViewScale \f "%sn">%
 71
     4
340
5D
 90
       25
 62
   256
340
5D
 90
       25
 62
   256
280
     0
  0
LAYOUT
  5
6F
102
{ACAD_REACTORS
330
62
102
}
330
62
100
AcDbPlotSettings
  1

  2

  4

  6

 40
0.0
 41
0.0
 42
0.0
 43
0.0
 44
0.0
 45
0.0
 46
0.0
 47
0.0
 48
0.0
 49
0.0
140
0.0
141
0.0
142
1.0
143
1.0
 70
   688
 72
     0
 73
     0
 74
     5
  7

 75
    16
147
1.0
 76
     0
 77
     2
 78
   300
148
0.0
149
0.0
100
AcDbLayout
  1
Layout1
 70
     1
 71
     1
 10
0.0
 20
0.0
 11
12.0
 21
9.0
 12
0.0
 22
0.0
 32
0.0
 14
0.0
 24
0.0
 34
0.0
 15
0.0
 25
0.0
 35
0.0
146
0.0
 13
0.0
 23
0.0
 33
0.0
 16
1.0
 26
0.0
 36
0.0
 17
0.0
 27
1.0
 37
0.0
 76
     0
330
6C
  0
LAYOUT
  5
77
102
{ACAD_REACTORS
330
62
102
}
330
62
100
AcDbPlotSettings
  1

  2

  4

  6

 40
0.0
 41
0.0
 42
0.0
 43
0.0
 44
0.0
 45
0.0
 46
0.0
 47
0.0
 48
0.0
 49
0.0
140
0.0
141
0.0
142
1.0
143
1.0
 70
   688
 72
     0
 73
     0
 74
     5
  7

 75
    16
147
1.0
 76
     0
 77
     2
 78
   300
148
0.0
149
0.0
100
AcDbLayout
  1
Layout2
 70
     1
 71
     2
 10
0.0
 20
0.0
 11
12.0
 21
9.0
 12
0.0
 22
0.0
 32
0.0
 14
0.0
 24
0.0
 34
0.0
 15
0.0
 25
0.0
 35
0.0
146
0.0
 13
0.0
 23
0.0
 33
0.0
 16
1.0
 26
0.0
 36
0.0
 17
0.0
 27
1.0
 37
0.0
 76
     0
330
74
  0
LAYOUT
  5
73
102
{ACAD_REACTORS
330
62
102
}
330
62
100
AcDbPlotSettings
  1

  2

  4

  6

 40
0.0
 41
0.0
 42
0.0
 43
0.0
 44
0.0
 45
0.0
 46
0.0
 47
0.0
 48
0.0
 49
0.0
140
0.0
141
0.0
142
1.0
143
1.0
 70
  1712
 72
     0
 73
     0
 74
     0
  7

 75
     0
147
1.0
 76
     0
 77
     2
 78
   300
148
0.0
149
0.0
100
AcDbLayout
  1
Model
 70
     1
 71
     0
 10
0.0
 20
0.0
 11
12.0
 21
9.0
 12
0.0
 22
0.0
 32
0.0
 14
0.0
 24
0.0
 34
0.0
 15
0.0
 25
0.0
 35
0.0
146
0.0
 13
0.0
 23
0.0
 33
0.0
 16
1.0
 26
0.0
 36
0.0
 17
0.0
 27
1.0
 37
0.0
 76
     0
330
70
  0
MATERIAL
  5
19
102
{ACAD_XDICTIONARY
360
1A
102
}
102
{ACAD_REACTORS
330
10
102
}
330
10
100
AcDbMaterial
  1
ByBlock
 72
     0
 43
0.0208333333333333
 43
0.0
 43
0.0
 43
0.0
 43
0.0
 43
0.0208333333333333
 43
0.0
 43
0.0
 43
0.0
 43
0.0
 43
1.0
 43
0.0
 43
0.0
 43
0.0
 43
0.0
 43
1.0
 77
     0
 47
0.0208333333333333
 47
0.0
 47
0.0
 47
0.0
 47
0.0
 47
0.0208333333333333
 47
0.0
 47
0.0
 47
0.0
 47
0.0
 47
1.0
 47
0.0
 47
0.0
 47
0.0
 47
0.0
 47
1.0
171
     0
 49
0.0208333333333333
 49
0.0
 49
0.0
 49
0.0
 49
0.0
 49
0.0208333333333333
 49
0.0
 49
0.0
 49
0.0
 49
0.0
 49
1.0
 49
0.0
 49
0.0
 49
0.0
 49
0.0
 49
1.0
175
     0
142
0.0208333333333333
142
0.0
142
0.0
142
0.0
142
0.0
142
0.0208333333333333
142
0.0
142
0.0
142
0.0
142
0.0
142
1.0
142
0.0
142
0.0
142
0.0
142
0.0
142
1.0
179
     0
144
0.0208333333333333
144
0.0
144
0.0
144
0.0
144
0.0
144
0.0208333333333333
144
0.0
144
0.0
144
0.0
144
0.0
144
1.0
144
0.0
144
0.0
144
0.0
144
0.0
144
1.0
147
0.0208333333333333
147
0.0
147
0.0
147
0.0
147
0.0
147
0.0208333333333333
147
0.0
147
0.0
147
0.0
147
0.0
147
1.0
147
0.0
147
0.0
147
0.0
147
0.0
147
1.0
  0
MATERIAL
  5
11
102
{ACAD_XDICTIONARY
360
12
102
}
102
{ACAD_REACTORS
330
10
102
}
330
10
100
AcDbMaterial
  1
ByLayer
 72
     0
 43
0.0208333333333333
 43
0.0
 43
0.0
 43
0.0
 43
0.0
 43
0.0208333333333333
 43
0.0
 43
0.0
 43
0.0
 43
0.0
 43
1.0
 43
0.0
 43
0.0
 43
0.0
 43
0.0
 43
1.0
 77
     0
 47
0.0208333333333333
 47
0.0
 47
0.0
 47
0.0
 47
0.0
 47
0.0208333333333333
 47
0.0
 47
0.0
 47
0.0
 47
0.0
 47
1.0
 47
0.0
 47
0.0
 47
0.0
 47
0.0
 47
1.0
171
     0
 49
0.0208333333333333
 49
0.0
 49
0.0
 49
0.0
 49
0.0
 49
0.0208333333333333
 49
0.0
 49
0.0
 49
0.0
 49
0.0
 49
1.0
 49
0.0
 49
0.0
 49
0.0
 49
0.0
 49
1.0
175
     0
142
0.0208333333333333
142
0.0
142
0.0
142
0.0
142
0.0
142
0.0208333333333333
142
0.0
142
0.0
142
0.0
142
0.0
142
1.0
142
0.0
142
0.0
142
0.0
142
0.0
142
1.0
179
     0
144
0.0208333333333333
144
0.0
144
0.0
144
0.0
144
0.0
144
0.0208333333333333
144
0.0
144
0.0
144
0.0
144
0.0
144
1.0
144
0.0
144
0.0
144
0.0
144
0.0
144
1.0
147
0.0208333333333333
147
0.0
147
0.0
147
0.0
147
0.0
147
0.0208333333333333
147
0.0
147
0.0
147
0.0
147
0.0
147
1.0
147
0.0
147
0.0
147
0.0
147
0.0
147
1.0
  0
MATERIAL
  5
21
102
{ACAD_XDICTIONARY
360
22
102
}
102
{ACAD_REACTORS
330
10
102
}
330
10
100
AcDbMaterial
  1
Global
 72
     0
 43
0.0208333333333333
 43
0.0
 43
0.0
 43
0.0
 43
0.0
 43
0.0208333333333333
 43
0.0
 43
0.0
 43
0.0
 43
0.0
 43
1.0
 43
0.0
 43
0.0
 43
0.0
 43
0.0
 43
1.0
 77
     0
 47
0.0208333333333333
 47
0.0
 47
0.0
 47
0.0
 47
0.0
 47
0.0208333333333333
 47
0.0
 47
0.0
 47
0.0
 47
0.0
 47
1.0
 47
0.0
 47
0.0
 47
0.0
 47
0.0
 47
1.0
171
     0
 49
0.0208333333333333
 49
0.0
 49
0.0
 49
0.0
 49
0.0
 49
0.0208333333333333
 49
0.0
 49
0.0
 49
0.0
 49
0.0
 49
1.0
 49
0.0
 49
0.0
 49
0.0
 49
0.0
 49
1.0
175
     0
142
0.0208333333333333
142
0.0
142
0.0
142
0.0
142
0.0
142
0.0208333333333333
142
0.0
142
0.0
142
0.0
142
0.0
142
1.0
142
0.0
142
0.0
142
0.0
142
0.0
142
1.0
179
     0
144
0.0208333333333333
144
0.0
144
0.0
144
0.0
144
0.0
144
0.0208333333333333
144
0.0
144
0.0
144
0.0
144
0.0
144
1.0
144
0.0
144
0.0
144
0.0
144
0.0
144
1.0
147
0.0208333333333333
147
0.0
147
0.0
147
0.0
147
0.0
147
0.0208333333333333
147
0.0
147
0.0
147
0.0
147
0.0
147
1.0
147
0.0
147
0.0
147
0.0
147
0.0
147
1.0
  0
MLEADERSTYLE
  5
67
102
{ACAD_REACTORS
330
66
102
}
330
66
100
AcDbMLeaderStyle
179
     2
170
     2
171
     1
172
     0
 90
        2
 40
0.0
 41
0.0
173
     1
 91
-1056964608
340
5B
 92
       -2
290
     1
 42
0.09
291
     1
 43
0.36
  3
Standard
 44
0.18
300

342
55
174
     1
178
     6
175
     1
176
     0
 93
-1056964608
 45
0.18
292
     0
297
     0
 46
0.18
 94
-1056964608
 47
1.0
 49
1.0
140
1.0
293
     1
141
0.0
294
     1
177
     0
142
1.0
295
     1
296
     0
143
0.125
271
     0
272
     9
273
     9
298
     1
  0
MLINESTYLE
  5
60
102
{ACAD_REACTORS
330
5F
102
}
330
5F
100
AcDbMlineStyle
  2
STANDARD
 70
     0
  3

 62
   256
 51
90.0
 52
90.0
 71
     2
 49
0.5
 62
   256
  6
BYLAYER
 49
-0.5
 62
   256
  6
BYLAYER
  0
ACDBPLACEHOLDER
  5
F
102
{ACAD_REACTORS
330
E
102
}
330
E
  0
SCALE
  5
43
102
{ACAD_REACTORS
330
42
102
}
330
42
100
AcDbScale
 70
     0
300
1:1
140
1.0
141
1.0
290
     1
  0
SCALE
  5
44
102
{ACAD_REACTORS
330
42
102
}
330
42
100
AcDbScale
 70
     0
300
1/128" = 1'-0"
140
0.0078125
141
12.0
290
     0
  0
SCALE
  5
45
102
{ACAD_REACTORS
330
42
102
}
330
42
100
AcDbScale
 70
     0
300
1/64" = 1'-0"
140
0.015625
141
12.0
290
     0
  0
SCALE
  5
46
102
{ACAD_REACTORS
330
42
102
}
330
42
100
AcDbScale
 70
     0
300
1/32" = 1'-0"
140
0.03125
141
12.0
290
     0
  0
SCALE
  5
47
102
{ACAD_REACTORS
330
42
102
}
330
42
100
AcDbScale
 70
     0
300
1/16" = 1'-0"
140
0.0625
141
12.0
290
     0
  0
SCALE
  5
48
102
{ACAD_REACTORS
330
42
102
}
330
42
100
AcDbScale
 70
     0
300
3/32" = 1'-0"
140
0.09375
141
12.0
290
     0
  0
SCALE
  5
49
102
{ACAD_REACTORS
330
42
102
}
330
42
100
AcDbScale
 70
     0
300
1/8" = 1'-0"
140
0.125
141
12.0
290
     0
  0
SCALE
  5
4A
102
{ACAD_REACTORS
330
42
102
}
330
42
100
AcDbScale
 70
     0
300
3/16" = 1'-0"
140
0.1875
141
12.0
290
     0
  0
SCALE
  5
4B
102
{ACAD_REACTORS
330
42
102
}
330
42
100
AcDbScale
 70
     0
300
1/4" = 1'-0"
140
0.25
141
12.0
290
     0
  0
SCALE
  5
4C
102
{ACAD_REACTORS
330
42
102
}
330
42
100
AcDbScale
 70
     0
300
3/8" = 1'-0"
140
0.375
141
12.0
290
     0
  0
SCALE
  5
4D
102
{ACAD_REACTORS
330
42
102
}
330
42
100
AcDbScale
 70
     0
300
1/2" = 1'-0"
140
0.5
141
12.0
290
     0
  0
SCALE
  5
4E
102
{ACAD_REACTORS
330
42
102
}
330
42
100
AcDbScale
 70
     0
300
3/4" = 1'-0"
140
0.75
141
12.0
290
     0
  0
SCALE
  5
4F
102
{ACAD_REACTORS
330
42
102
}
330
42
100
AcDbScale
 70
     0
300
1" = 1'-0"
140
1.0
141
12.0
290
     0
  0
SCALE
  5
50
102
{ACAD_REACTORS
330
42
102
}
330
42
100
AcDbScale
 70
     0
300
1-1/2" = 1'-0"
140
1.5
141
12.0
290
     0
  0
SCALE
  5
51
102
{ACAD_REACTORS
330
42
102
}
330
42
100
AcDbScale
 70
     0
300
3" = 1'-0"
140
3.0
141
12.0
290
     0
  0
SCALE
  5
52
102
{ACAD_REACTORS
330
42
102
}
330
42
100
AcDbScale
 70
     0
300
6" = 1'-0"
140
6.0
141
12.0
290
     0
  0
SCALE
  5
53
102
{ACAD_REACTORS
330
42
102
}
330
42
100
AcDbScale
 70
     0
300
1'-0" = 1'-0"
140
12.0
141
12.0
290
     0
  0
ACDBSECTIONVIEWSTYLE
  5
69
102
{ACAD_REACTORS
330
68
102
}
330
68
100
AcDbModelDocViewStyle
 70
     0
  3
Imperial24
290
     1
300
Imperial24
 90
        0
100
AcDbSectionViewStyle
 70
     0
 71
     0
 90
       78
 71
     1
340
55
 62
   256
 40
0.24
340
0
340
0
 62
   256
 40
0.24
300
I, O, Q, S, X, Z
 40
0.48
 90
        3
 40
0.18
 90
        1
 71
     2
340
5D
 90
       25
 62
   256
340
5D
 90
       50
 62
   256
 40
0.24
 40
0.0
 40
0.24
 71
     3
340
55
 62
   256
 40
0.24
 90
        1
 40
0.75
 90
        1
300
%<\AcVar ViewType \f "%tc1">% %<\AcVar ViewSectionStartId>%-%<\AcVar ViewSectionEndId>%\PSCALE %<\AcVar ViewScale \f "%sn">%
 71
     4
 62
   256
 62
   257
300
ANSI31
 40
1.0
 90
        0
290
     0
290
     0
 90
        6
 40
0.0
 40
1.570796326794896
 40
0.2617993877991494
 40
1.308996938995747
 40
-0.2617993877991494
 40
1.832595714594046
  0
TABLESTYLE
  5
65
102
{ACAD_XDICTIONARY
360
83
102
}
102
{ACAD_REACTORS
330
64
102
}
330
64
100
AcDbTableStyle
280
     0
  3
Standard
 70
     0
 71
     0
 40
0.06
 41
0.06
280
     0
281
     0
  7
Standard
140
0.18
170
     2
 62
     0
 63
     7
283
     0
 90
      512
 91
        0
  1

274
    -2
284
     1
 64
     0
275
    -2
285
     1
 65
     0
276
    -2
286
     1
 66
     0
277
    -2
287
     1
 67
     0
278
    -2
288
     1
 68
     0
279
    -2
289
     1
 69
     0
  7
Standard
140
0.25
170
     5
 62
     0
 63
     7
283
     0
 90
      512
 91
        0
  1

274
    -2
284
     1
 64
     0
275
    -2
285
     1
 65
     0
276
    -2
286
     1
 66
     0
277
    -2
287
     1
 67
     0
278
    -2
288
     1
 68
     0
279
    -2
289
     1
 69
     0
  7
Standard
140
0.18
170
     5
 62
     0
 63
     7
283
     0
 90
      512
 91
        0
  1

274
    -2
284
     1
 64
     0
275
    -2
285
     1
 65
     0
276
    -2
286
     1
 66
     0
277
    -2
287
     1
 67
     0
278
    -2
288
     1
 68
     0
279
    -2
289
     1
 69
     0
  0
VISUALSTYLE
  5
2F
102
{ACAD_REACTORS
330
29
102
}
330
29
100
AcDbVisualStyle
  2
2dWireframe
 70
     4
177
     3
291
     0
 70
    58
 90
        0
176
     1
 90
        2
176
     1
 90
        0
176
     1
 90
        0
176
     1
 40
0.6
176
     1
 40
30.0
176
     1
 62
     7
420
 16777215
176
     1
 90
        1
176
     1
 90
        4
176
     1
 62
     7
176
     1
 62
   257
176
     1
 90
        1
176
     1
 90
        1
176
     1
 40
1.0
176
     1
 90
        0
176
     1
 62
   257
176
     1
 40
1.0
176
     1
 90
        1
176
     1
 90
        6
176
     1
 90
        2
176
     1
 62
     7
176
     1
 90
        5
176
     1
 90
        0
176
     1
 90
        0
176
     1
290
     0
176
     1
 90
        1
176
     1
 40
0.0
176
     1
 90
        0
176
     1
290
     1
176
     1
290
     1
176
     1
290
     0
176
     1
290
     0
176
     1
290
     0
176
     1
290
     0
176
     1
290
     0
176
     1
290
     0
176
     1
290
     0
176
     1
 90
       50
176
     1
 40
0.0
176
     1
 40
1.0
176
     1
 90
        0
176
     1
 62
    18
420
        0
176
     1
 90
       50
176
     1
 90
        3
176
     1
 62
     5
420
      255
176
     1
290
     0
176
     1
 90
       50
176
     1
 90
       50
176
     1
 90
       50
176
     1
290
     0
176
     1
 90
       50
176
     1
 62
   256
176
     0
 40
1.0
176
     0
 90
        2
176
     1
  1
strokes_ogs.tif
176
     1
290
     0
176
     1
 40
1.0
176
     1
 40
1.0
176
     1
  0
VISUALSTYLE
  5
2E
102
{ACAD_REACTORS
330
29
102
}
330
29
100
AcDbVisualStyle
  2
Basic
 70
     7
177
     3
291
     1
 70
    58
 90
        1
176
     1
 90
        0
176
     1
 90
        1
176
     1
 90
        0
176
     1
 40
0.6
176
     1
 40
30.0
176
     1
 62
     7
420
 16777215
176
     1
 90
        0
176
     1
 90
        4
176
     1
 62
     7
176
     1
 62
   257
176
     1
 90
        1
176
     1
 90
        1
176
     1
 40
1.0
176
     1
 90
        8
176
     1
 62
     7
176
     1
 40
1.0
176
     1
 90
        1
176
     1
 90
        6
176
     1
 90
        2
176
     1
 62
     7
176
     1
 90
        5
176
     1
 90
        0
176
     1
 90
        0
176
     1
290
     0
176
     1
 90
        1
176
     1
 40
0.0
176
     1
 90
        0
176
     1
290
     0
176
     1
290
     1
176
     1
290
     1
176
     1
290
     0
176
     1
290
     0
176
     1
290
     0
176
     1
290
     0
176
     1
290
     0
176
     1
290
     0
176
     1
 90
       50
176
     1
 40
0.0
176
     1
 40
1.0
176
     1
 90
        0
176
     1
 62
    18
420
        0
176
     1
 90
       50
176
     1
 90
        3
176
     1
 62
     5
420
      255
176
     1
290
     0
176
     1
 90
       50
176
     1
 90
       50
176
     1
 90
       50
176
     1
290
     0
176
     1
 90
       50
176
     1
 62
   256
176
     0
 40
1.0
176
     0
 90
        2
176
     1
  1
strokes_ogs.tif
176
     1
290
     0
176
     1
 40
1.0
176
     1
 40
1.0
176
     1
  0
VISUALSTYLE
  5
35
102
{ACAD_REACTORS
330
29
102
}
330
29
100
AcDbVisualStyle
  2
Brighten
 70
    12
177
     3
291
     1
 70
    58
 90
        2
176
     1
 90
        2
176
     1
 90
        0
176
     1
 90
        0
176
     1
 40
0.6
176
     1
 40
30.0
176
     1
 62
     7
420
 16777215
176
     1
 90
        1
176
     1
 90
        4
176
     1
 62
     7
176
     1
 62
   257
176
     1
 90
        1
176
     1
 90
        1
176
     1
 40
1.0
176
     1
 90
        8
176
     1
 62
     7
176
     1
 40
1.0
176
     1
 90
        1
176
     1
 90
        6
176
     1
 90
        2
176
     1
 62
     7
176
     1
 90
        5
176
     1
 90
        0
176
     1
 90
        0
176
     1
290
     0
176
     1
 90
        1
176
     1
 40
50.0
176
     1
 90
        0
176
     1
290
     0
176
     1
290
     1
176
     1
290
     1
176
     1
290
     0
176
     1
290
     0
176
     1
290
     0
176
     1
290
     0
176
     1
290
     0
176
     1
290
     0
176
     1
 90
       50
176
     1
 40
0.0
176
     1
 40
1.0
176
     1
 90
        0
176
     1
 62
    18
420
        0
176
     1
 90
       50
176
     1
 90
        3
176
     1
 62
     5
420
      255
176
     1
290
     0
176
     1
 90
       50
176
     1
 90
       50
176
     1
 90
       50
176
     1
290
     0
176
     1
 90
       50
176
     1
 62
   256
176
     0
 40
1.0
176
     0
 90
        2
176
     1
  1
strokes_ogs.tif
176
     1
290
     0
176
     1
 40
1.0
176
     1
 40
1.0
176
     1
  0
VISUALSTYLE
  5
39
102
{ACAD_REACTORS
330
29
102
}
330
29
100
AcDbVisualStyle
  2
ColorChange
 70
    16
177
     3
291
     1
 70
    58
 90
        2
176
     1
 90
        2
176
     1
 90
        3
176
     1
 90
        0
176
     1
 40
0.6
176
     1
 40
30.0
176
     1
 62
     8
420
  8421504
176
     1
 90
        1
176
     1
 90
        4
176
     1
 62
     7
176
     1
 62
   257
176
     1
 90
        1
176
     1
 90
        1
176
     1
 40
1.0
176
     1
 90
        8
176
     1
 62
     8
420
  8421504
176
     1
 40
1.0
176
     1
 90
        1
176
     1
 90
        6
176
     1
 90
        2
176
     1
 62
     7
176
     1
 90
        5
176
     1
 90
        0
176
     1
 90
        0
176
     1
290
     0
176
     1
 90
        1
176
     1
 40
0.0
176
     1
 90
        0
176
     1
290
     0
176
     1
290
     1
176
     1
290
     1
176
     1
290
     0
176
     1
290
     0
176
     1
290
     0
176
     1
290
     0
176
     1
290
     0
176
     1
290
     0
176
     1
 90
       50
176
     1
 40
0.0
176
     1
 40
1.0
176
     1
 90
        0
176
     1
 62
    18
420
        0
176
     1
 90
       50
176
     1
 90
        3
176
     1
 62
     5
420
      255
176
     1
290
     0
176
     1
 90
       50
176
     1
 90
       50
176
     1
 90
       50
176
     1
290
     0
176
     1
 90
       50
176
     1
 62
   256
176
     0
 40
1.0
176
     0
 90
        2
176
     1
  1
strokes_ogs.tif
176
     1
290
     0
176
     1
 40
1.0
176
     1
 40
1.0
176
     1
  0
VISUALSTYLE
  5
32
102
{ACAD_REACTORS
330
29
102
}
330
29
100
AcDbVisualStyle
  2
Conceptual
 70
     9
177
     3
291
     0
 70
    58
 90
        3
176
     1
 90
        2
176
     1
 90
        0
176
     1
 90
        0
176
     1
 40
0.6
176
     1
 40
30.0
176
     1
 62
     7
420
 16777215
176
     1
 90
        2
176
     1
 90
        2
176
     1
 62
     7
176
     1
 62
   257
176
     1
 90
        1
176
     1
 90
        1
176
     1
 40
179.0
176
     1
 90
        8
176
     1
 62
     7
176
     1
 40
1.0
176
     1
 90
        1
176
     1
 90
        6
176
     1
 90
        2
176
     1
 62
     7
176
     1
 90
        3
176
     1
 90
        0
176
     1
 90
        0
176
     1
290
     0
176
     1
 90
        1
176
     1
 40
0.0
176
     1
 90
        0
176
     1
290
     0
176
     1
290
     1
176
     1
290
     1
176
     1
290
     0
176
     1
290
     0
176
     1
290
     0
176
     1
290
     0
176
     1
290
     0
176
     1
290
     0
176
     1
 90
       50
176
     1
 40
0.0
176
     1
 40
1.0
176
     1
 90
        0
176
     1
 62
    18
420
        0
176
     1
 90
       50
176
     1
 90
        3
176
     1
 62
     5
420
      255
176
     1
290
     0
176
     1
 90
       50
176
     1
 90
       50
176
     1
 90
       50
176
     1
290
     0
176
     1
 90
       50
176
     1
 62
   256
176
     0
 40
1.0
176
     0
 90
        2
176
     1
  1
strokes_ogs.tif
176
     1
290
     0
176
     1
 40
1.0
176
     1
 40
1.0
176
     1
  0
VISUALSTYLE
  5
34
102
{ACAD_REACTORS
330
29
102
}
330
29
100
AcDbVisualStyle
  2
Dim
 70
    11
177
     3
291
     1
 70
    58
 90
        2
176
     1
 90
        2
176
     1
 90
        0
176
     1
 90
        0
176
     1
 40
0.6
176
     1
 40
30.0
176
     1
 62
     7
420
 16777215
176
     1
 90
        1
176
     1
 90
        4
176
     1
 62
     7
176
     1
 62
   257
176
     1
 90
        1
176
     1
 90
        1
176
     1
 40
1.0
176
     1
 90
        8
176
     1
 62
     7
176
     1
 40
1.0
176
     1
 90
        1
176
     1
 90
        6
176
     1
 90
        2
176
     1
 62
     7
176
     1
 90
        5
176
     1
 90
        0
176
     1
 90
        0
176
     1
290
     0
176
     1
 90
        1
176
     1
 40
-50.0
176
     1
 90
        0
176
     1
290
     0
176
     1
290
     1
176
     1
290
     1
176
     1
290
     0
176
     1
290
     0
176
     1
290
     0
176
     1
290
     0
176
     1
290
     0
176
     1
290
     0
176
     1
 90
       50
176
     1
 40
0.0
176
     1
 40
1.0
176
     1
 90
        0
176
     1
 62
    18
420
        0
176
     1
 90
       50
176
     1
 90
        3
176
     1
 62
     5
420
      255
176
     1
290
     0
176
     1
 90
       50
176
     1
 90
       50
176
     1
 90
       50
176
     1
290
     0
176
     1
 90
       50
176
     1
 62
   256
176
     0
 40
1.0
176
     0
 90
        2
176
     1
  1
strokes_ogs.tif
176
     1
290
     0
176
     1
 40
1.0
176
     1
 40
1.0
176
     1
  0
VISUALSTYLE
  5
41
102
{ACAD_REACTORS
330
29
102
}
330
29
100
AcDbVisualStyle
  2
EdgeColorOff
 70
    22
177
     3
291
     1
 70
    58
 90
        2
176
     0
 90
        2
176
     0
 90
        0
176
     0
 90
        0
176
     0
 40
0.6
176
     0
 40
30.0
176
     0
 62
     7
420
 16777215
176
     0
 90
        1
176
     0
 90
        4
176
     0
 62
     7
176
     0
 62
   257
176
     0
 90
        1
176
     0
 90
        1
176
     0
 40
1.0
176
     0
 90
        8
176
     2
 62
     7
176
     0
 40
1.0
176
     0
 90
        1
176
     0
 90
        6
176
     0
 90
        2
176
     0
 62
     7
176
     0
 90
        5
176
     0
 90
        0
176
     0
 90
        0
176
     0
290
     0
176
     0
 90
        1
176
     0
 40
0.0
176
     0
 90
        0
176
     0
290
     0
176
     0
290
     1
176
     0
290
     1
176
     0
290
     0
176
     0
290
     0
176
     0
290
     0
176
     0
290
     0
176
     0
290
     0
176
     0
290
     0
176
     0
 90
       50
176
     0
 40
0.0
176
     0
 40
1.0
176
     0
 90
        0
176
     0
 62
    18
420
        0
176
     0
 90
       50
176
     0
 90
        3
176
     0
 62
     5
420
      255
176
     0
290
     0
176
     0
 90
       50
176
     0
 90
       50
176
     0
 90
       50
176
     0
290
     0
176
     0
 90
       50
176
     0
 62
   256
176
     0
 40
1.0
176
     0
 90
        2
176
     0
  1
strokes_ogs.tif
176
     0
290
     0
176
     0
 40
1.0
176
     0
 40
1.0
176
     0
  0
VISUALSTYLE
  5
38
102
{ACAD_REACTORS
330
29
102
}
330
29
100
AcDbVisualStyle
  2
Facepattern
 70
    15
177
     3
291
     1
 70
    58
 90
        2
176
     1
 90
        2
176
     1
 90
        0
176
     1
 90
        0
176
     1
 40
0.6
176
     1
 40
30.0
176
     1
 62
     7
420
 16777215
176
     1
 90
        1
176
     1
 90
        4
176
     1
 62
     7
176
     1
 62
   257
176
     1
 90
        1
176
     1
 90
        1
176
     1
 40
1.0
176
     1
 90
        8
176
     1
 62
     7
176
     1
 40
1.0
176
     1
 90
        1
176
     1
 90
        6
176
     1
 90
        2
176
     1
 62
     7
176
     1
 90
        5
176
     1
 90
        0
176
     1
 90
        0
176
     1
290
     0
176
     1
 90
        1
176
     1
 40
0.0
176
     1
 90
        0
176
     1
290
     0
176
     1
290
     1
176
     1
290
     1
176
     1
290
     0
176
     1
290
     0
176
     1
290
     0
176
     1
290
     0
176
     1
290
     0
176
     1
290
     0
176
     1
 90
       50
176
     1
 40
0.0
176
     1
 40
1.0
176
     1
 90
        0
176
     1
 62
    18
420
        0
176
     1
 90
       50
176
     1
 90
        3
176
     1
 62
     5
420
      255
176
     1
290
     0
176
     1
 90
       50
176
     1
 90
       50
176
     1
 90
       50
176
     1
290
     0
176
     1
 90
       50
176
     1
 62
   256
176
     0
 40
1.0
176
     0
 90
        2
176
     1
  1
strokes_ogs.tif
176
     1
290
     0
176
     1
 40
1.0
176
     1
 40
1.0
176
     1
  0
VISUALSTYLE
  5
2A
102
{ACAD_REACTORS
330
29
102
}
330
29
100
AcDbVisualStyle
  2
Flat
 70
     0
177
     3
291
     1
 70
    58
 90
        2
176
     1
 90
        1
176
     1
 90
        1
176
     1
 90
        2
176
     1
 40
0.6
176
     1
 40
30.0
176
     1
 62
     7
420
 16777215
176
     1
 90
        0
176
     1
 90
        0
176
     1
 62
     7
176
     1
 62
   257
176
     1
 90
        1
176
     1
 90
        1
176
     1
 40
1.0
176
     1
 90
        8
176
     1
 62
     7
176
     1
 40
1.0
176
     1
 90
        1
176
     1
 90
        6
176
     1
 90
        2
176
     1
 62
     7
176
     1
 90
        5
176
     1
 90
        0
176
     1
 90
        0
176
     1
290
     0
176
     1
 90
       13
176
     1
 40
0.0
176
     1
 90
        0
176
     1
290
     0
176
     1
290
     1
176
     1
290
     1
176
     1
290
     0
176
     1
290
     0
176
     1
290
     0
176
     1
290
     0
176
     1
290
     0
176
     1
290
     0
176
     1
 90
       50
176
     1
 40
0.0
176
     1
 40
1.0
176
     1
 90
        0
176
     1
 62
    18
420
        0
176
     1
 90
       50
176
     1
 90
        3
176
     1
 62
     5
420
      255
176
     1
290
     0
176
     1
 90
       50
176
     1
 90
       50
176
     1
 90
       50
176
     1
290
     0
176
     1
 90
       50
176
     1
 62
   256
176
     0
 40
1.0
176
     0
 90
        2
176
     1
  1
strokes_ogs.tif
176
     1
290
     0
176
     1
 40
1.0
176
     1
 40
1.0
176
     1
  0
VISUALSTYLE
  5
2B
102
{ACAD_REACTORS
330
29
102
}
330
29
100
AcDbVisualStyle
  2
FlatWithEdges
 70
     1
177
     3
291
     1
 70
    58
 90
        2
176
     1
 90
        1
176
     1
 90
        1
176
     1
 90
        2
176
     1
 40
0.6
176
     1
 40
30.0
176
     1
 62
     7
420
 16777215
176
     1
 90
        1
176
     1
 90
        0
176
     1
 62
     7
176
     1
 62
   257
176
     1
 90
        1
176
     1
 90
        1
176
     1
 40
1.0
176
     1
 90
        0
176
     1
 62
   257
176
     1
 40
1.0
176
     1
 90
        1
176
     1
 90
        6
176
     1
 90
        2
176
     1
 62
     7
176
     1
 90
        5
176
     1
 90
        0
176
     1
 90
        0
176
     1
290
     0
176
     1
 90
       13
176
     1
 40
0.0
176
     1
 90
        0
176
     1
290
     0
176
     1
290
     1
176
     1
290
     1
176
     1
290
     0
176
     1
290
     0
176
     1
290
     0
176
     1
290
     0
176
     1
290
     0
176
     1
290
     0
176
     1
 90
       50
176
     1
 40
0.0
176
     1
 40
1.0
176
     1
 90
        0
176
     1
 62
    18
420
        0
176
     1
 90
       50
176
     1
 90
        3
176
     1
 62
     5
420
      255
176
     1
290
     0
176
     1
 90
       50
176
     1
 90
       50
176
     1
 90
       50
176
     1
290
     0
176
     1
 90
       50
176
     1
 62
   256
176
     0
 40
1.0
176
     0
 90
        2
176
     1
  1
strokes_ogs.tif
176
     1
290
     0
176
     1
 40
1.0
176
     1
 40
1.0
176
     1
  0
VISUALSTYLE
  5
2C
102
{ACAD_REACTORS
330
29
102
}
330
29
100
AcDbVisualStyle
  2
Gouraud
 70
     2
177
     3
291
     1
 70
    58
 90
        2
176
     1
 90
        2
176
     1
 90
        1
176
     1
 90
        2
176
     1
 40
0.6
176
     1
 40
30.0
176
     1
 62
     7
420
 16777215
176
     1
 90
        0
176
     1
 90
        0
176
     1
 62
     7
176
     1
 62
   257
176
     1
 90
        1
176
     1
 90
        1
176
     1
 40
1.0
176
     1
 90
        0
176
     1
 62
     7
176
     1
 40
1.0
176
     1
 90
        1
176
     1
 90
        6
176
     1
 90
        2
176
     1
 62
     7
176
     1
 90
        5
176
     1
 90
        0
176
     1
 90
        0
176
     1
290
     0
176
     1
 90
       13
176
     1
 40
0.0
176
     1
 90
        0
176
     1
290
     0
176
     1
290
     1
176
     1
290
     1
176
     1
290
     0
176
     1
290
     0
176
     1
290
     0
176
     1
290
     0
176
     1
290
     0
176
     1
290
     0
176
     1
 90
       50
176
     1
 40
0.0
176
     1
 40
1.0
176
     1
 90
        0
176
     1
 62
    18
420
        0
176
     1
 90
       50
176
     1
 90
        3
176
     1
 62
     5
420
      255
176
     1
290
     0
176
     1
 90
       50
176
     1
 90
       50
176
     1
 90
       50
176
     1
290
     0
176
     1
 90
       50
176
     1
 62
   256
176
     0
 40
1.0
176
     0
 90
        2
176
     1
  1
strokes_ogs.tif
176
     1
290
     0
176
     1
 40
1.0
176
     1
 40
1.0
176
     1
  0
VISUALSTYLE
  5
2D
102
{ACAD_REACTORS
330
29
102
}
330
29
100
AcDbVisualStyle
  2
GouraudWithEdges
 70
     3
177
     3
291
     1
 70
    58
 90
        2
176
     1
 90
        2
176
     1
 90
        1
176
     1
 90
        2
176
     1
 40
0.6
176
     1
 40
30.0
176
     1
 62
     7
420
 16777215
176
     1
 90
        1
176
     1
 90
        0
176
     1
 62
     7
176
     1
 62
   257
176
     1
 90
        1
176
     1
 90
        1
176
     1
 40
1.0
176
     1
 90
        0
176
     1
 62
   257
176
     1
 40
1.0
176
     1
 90
        1
176
     1
 90
        6
176
     1
 90
        2
176
     1
 62
     7
176
     1
 90
        5
176
     1
 90
        0
176
     1
 90
        0
176
     1
290
     0
176
     1
 90
       13
176
     1
 40
0.0
176
     1
 90
        0
176
     1
290
     0
176
     1
290
     1
176
     1
290
     1
176
     1
290
     0
176
     1
290
     0
176
     1
290
     0
176
     1
290
     0
176
     1
290
     0
176
     1
290
     0
176
     1
 90
       50
176
     1
 40
0.0
176
     1
 40
1.0
176
     1
 90
        0
176
     1
 62
    18
420
        0
176
     1
 90
       50
176
     1
 90
        3
176
     1
 62
     5
420
      255
176
     1
290
     0
176
     1
 90
       50
176
     1
 90
       50
176
     1
 90
       50
176
     1
290
     0
176
     1
 90
       50
176
     1
 62
   256
176
     0
 40
1.0
176
     0
 90
        2
176
     1
  1
strokes_ogs.tif
176
     1
290
     0
176
     1
 40
1.0
176
     1
 40
1.0
176
     1
  0
VISUALSTYLE
  5
31
102
{ACAD_REACTORS
330
29
102
}
330
29
100
AcDbVisualStyle
  2
Hidden
 70
     6
177
     3
291
     0
 70
    58
 90
        1
176
     1
 90
        2
176
     1
 90
        2
176
     1
 90
        0
176
     1
 40
0.6
176
     1
 40
30.0
176
     1
 62
     7
420
 16777215
176
     1
 90
        2
176
     1
 90
        2
176
     1
 62
     7
176
     1
 62
   257
176
     1
 90
        2
176
     1
 90
        1
176
     1
 40
40.0
176
     1
 90
        0
176
     1
 62
   257
176
     1
 40
1.0
176
     1
 90
        1
176
     1
 90
        6
176
     1
 90
        2
176
     1
 62
     7
176
     1
 90
        3
176
     1
 90
        0
176
     1
 90
        0
176
     1
290
     0
176
     1
 90
        1
176
     1
 40
0.0
176
     1
 90
        0
176
     1
290
     0
176
     1
290
     1
176
     1
290
     1
176
     1
290
     0
176
     1
290
     0
176
     1
290
     0
176
     1
290
     0
176
     1
290
     0
176
     1
290
     0
176
     1
 90
       50
176
     1
 40
0.0
176
     1
 40
1.0
176
     1
 90
        0
176
     1
 62
    18
420
        0
176
     1
 90
       50
176
     1
 90
        3
176
     1
 62
     5
420
      255
176
     1
290
     0
176
     1
 90
       50
176
     1
 90
       50
176
     1
 90
       50
176
     1
290
     0
176
     1
 90
       50
176
     1
 62
   256
176
     0
 40
1.0
176
     0
 90
        2
176
     1
  1
strokes_ogs.tif
176
     1
290
     0
176
     1
 40
1.0
176
     1
 40
1.0
176
     1
  0
VISUALSTYLE
  5
3F
102
{ACAD_REACTORS
330
29
102
}
330
29
100
AcDbVisualStyle
  2
JitterOff
 70
    20
177
     3
291
     1
 70
    58
 90
        2
176
     0
 90
        2
176
     0
 90
        0
176
     0
 90
        0
176
     0
 40
0.6
176
     0
 40
30.0
176
     0
 62
     7
420
 16777215
176
     0
 90
        1
176
     0
 90
        4
176
     0
 62
     7
176
     0
 62
   257
176
     0
 90
        1
176
     0
 90
        1
176
     0
 40
1.0
176
     0
 90
       10
176
     2
 62
     7
176
     0
 40
1.0
176
     0
 90
        1
176
     0
 90
        6
176
     0
 90
        2
176
     0
 62
     7
176
     0
 90
        5
176
     0
 90
        0
176
     0
 90
        0
176
     0
290
     0
176
     0
 90
        1
176
     0
 40
0.0
176
     0
 90
        0
176
     0
290
     0
176
     0
290
     1
176
     0
290
     1
176
     0
290
     0
176
     0
290
     0
176
     0
290
     0
176
     0
290
     0
176
     0
290
     0
176
     0
290
     0
176
     0
 90
       50
176
     0
 40
0.0
176
     0
 40
1.0
176
     0
 90
        0
176
     0
 62
    18
420
        0
176
     0
 90
       50
176
     0
 90
        3
176
     0
 62
     5
420
      255
176
     0
290
     0
176
     0
 90
       50
176
     0
 90
       50
176
     0
 90
       50
176
     0
290
     0
176
     0
 90
       50
176
     0
 62
   256
176
     0
 40
1.0
176
     0
 90
        2
176
     0
  1
strokes_ogs.tif
176
     0
290
     0
176
     0
 40
1.0
176
     0
 40
1.0
176
     0
  0
VISUALSTYLE
  5
37
102
{ACAD_REACTORS
330
29
102
}
330
29
100
AcDbVisualStyle
  2
Linepattern
 70
    14
177
     3
291
     1
 70
    58
 90
        2
176
     1
 90
        2
176
     1
 90
        0
176
     1
 90
        0
176
     1
 40
0.6
176
     1
 40
30.0
176
     1
 62
     7
420
 16777215
176
     1
 90
        1
176
     1
 90
        4
176
     1
 62
     7
176
     1
 62
   257
176
     1
 90
        7
176
     1
 90
        7
176
     1
 40
1.0
176
     1
 90
        8
176
     1
 62
     7
176
     1
 40
1.0
176
     1
 90
        1
176
     1
 90
        6
176
     1
 90
        2
176
     1
 62
     7
176
     1
 90
        5
176
     1
 90
        0
176
     1
 90
        0
176
     1
290
     0
176
     1
 90
        1
176
     1
 40
0.0
176
     1
 90
        0
176
     1
290
     0
176
     1
290
     1
176
     1
290
     1
176
     1
290
     0
176
     1
290
     0
176
     1
290
     0
176
     1
290
     0
176
     1
290
     0
176
     1
290
     0
176
     1
 90
       50
176
     1
 40
0.0
176
     1
 40
1.0
176
     1
 90
        0
176
     1
 62
    18
420
        0
176
     1
 90
       50
176
     1
 90
        3
176
     1
 62
     5
420
      255
176
     1
290
     0
176
     1
 90
       50
176
     1
 90
       50
176
     1
 90
       50
176
     1
290
     0
176
     1
 90
       50
176
     1
 62
   256
176
     0
 40
1.0
176
     0
 90
        2
176
     1
  1
strokes_ogs.tif
176
     1
290
     0
176
     1
 40
1.0
176
     1
 40
1.0
176
     1
  0
VISUALSTYLE
  5
40
102
{ACAD_REACTORS
330
29
102
}
330
29
100
AcDbVisualStyle
  2
OverhangOff
 70
    21
177
     3
291
     1
 70
    58
 90
        2
176
     0
 90
        2
176
     0
 90
        0
176
     0
 90
        0
176
     0
 40
0.6
176
     0
 40
30.0
176
     0
 62
     7
420
 16777215
176
     0
 90
        1
176
     0
 90
        4
176
     0
 62
     7
176
     0
 62
   257
176
     0
 90
        1
176
     0
 90
        1
176
     0
 40
1.0
176
     0
 90
        9
176
     2
 62
     7
176
     0
 40
1.0
176
     0
 90
        1
176
     0
 90
        6
176
     0
 90
        2
176
     0
 62
     7
176
     0
 90
        5
176
     0
 90
        0
176
     0
 90
        0
176
     0
290
     0
176
     0
 90
        1
176
     0
 40
0.0
176
     0
 90
        0
176
     0
290
     0
176
     0
290
     1
176
     0
290
     1
176
     0
290
     0
176
     0
290
     0
176
     0
290
     0
176
     0
290
     0
176
     0
290
     0
176
     0
290
     0
176
     0
 90
       50
176
     0
 40
0.0
176
     0
 40
1.0
176
     0
 90
        0
176
     0
 62
    18
420
        0
176
     0
 90
       50
176
     0
 90
        3
176
     0
 62
     5
420
      255
176
     0
290
     0
176
     0
 90
       50
176
     0
 90
       50
176
     0
 90
       50
176
     0
290
     0
176
     0
 90
       50
176
     0
 62
   256
176
     0
 40
1.0
176
     0
 90
        2
176
     0
  1
strokes_ogs.tif
176
     0
290
     0
176
     0
 40
1.0
176
     0
 40
1.0
176
     0
  0
VISUALSTYLE
  5
33
102
{ACAD_REACTORS
330
29
102
}
330
29
100
AcDbVisualStyle
  2
Realistic
 70
     8
177
     3
291
     0
 70
    58
 90
        2
176
     1
 90
        3
176
     1
 90
        0
176
     1
 90
        2
176
     1
 40
0.6
176
     1
 40
30.0
176
     1
 62
     7
420
 16777215
176
     1
 90
        0
176
     1
 90
        0
176
     1
 62
     7
176
     1
 62
   257
176
     1
 90
        1
176
     1
 90
        1
176
     1
 40
1.0
176
     1
 90
        8
176
     1
 62
   257
176
     1
 40
1.0
176
     1
 90
        1
176
     1
 90
        6
176
     1
 90
        2
176
     1
 62
     7
176
     1
 90
        3
176
     1
 90
        0
176
     1
 90
        0
176
     1
290
     0
176
     1
 90
       13
176
     1
 40
0.0
176
     1
 90
        0
176
     1
290
     0
176
     1
290
     1
176
     1
290
     1
176
     1
290
     0
176
     1
290
     0
176
     1
290
     0
176
     1
290
     0
176
     1
290
     0
176
     1
290
     0
176
     1
 90
       50
176
     1
 40
0.0
176
     1
 40
1.0
176
     1
 90
        0
176
     1
 62
    18
420
        0
176
     1
 90
       50
176
     1
 90
        3
176
     1
 62
     5
420
      255
176
     1
290
     0
176
     1
 90
       50
176
     1
 90
       50
176
     1
 90
       50
176
     1
290
     0
176
     1
 90
       50
176
     1
 62
   256
176
     0
 40
1.0
176
     0
 90
        2
176
     1
  1
strokes_ogs.tif
176
     1
290
     0
176
     1
 40
1.0
176
     1
 40
1.0
176
     1
  0
VISUALSTYLE
  5
3E
102
{ACAD_REACTORS
330
29
102
}
330
29
100
AcDbVisualStyle
  2
Shaded
 70
    27
177
     3
291
     0
 70
    58
 90
        2
176
     1
 90
        2
176
     1
 90
        1
176
     1
 90
        2
176
     1
 40
0.6
176
     1
 40
30.0
176
     1
 62
     7
420
 16777215
176
     1
 90
        0
176
     1
 90
        4
176
     1
 62
     7
176
     1
 62
   257
176
     1
 90
        1
176
     1
 90
        1
176
     1
 40
1.0
176
     1
 90
        8
176
     1
 62
   257
176
     1
 40
1.0
176
     1
 90
        1
176
     1
 90
        6
176
     1
 90
        2
176
     1
 62
     8
420
  7895160
176
     1
 90
        3
176
     1
 90
        0
176
     1
 90
        0
176
     1
290
     0
176
     1
 90
        5
176
     1
 40
0.0
176
     1
 90
        0
176
     1
290
     0
176
     1
290
     1
176
     1
290
     1
176
     1
290
     0
176
     1
290
     0
176
     1
290
     0
176
     1
290
     0
176
     1
290
     0
176
     1
290
     0
176
     1
 90
       50
176
     1
 40
0.0
176
     1
 40
1.0
176
     1
 90
        0
176
     1
 62
    18
420
        0
176
     1
 90
       50
176
     1
 90
        3
176
     1
 62
     5
420
      255
176
     1
290
     0
176
     1
 90
       50
176
     1
 90
       50
176
     1
 90
       50
176
     1
290
     0
176
     1
 90
       50
176
     1
 62
   256
176
     0
 40
1.0
176
     0
 90
        2
176
     1
  1
strokes_ogs.tif
176
     1
290
     0
176
     1
 40
1.0
176
     1
 40
1.0
176
     1
  0
VISUALSTYLE
  5
3D
102
{ACAD_REACTORS
330
29
102
}
330
29
100
AcDbVisualStyle
  2
Shaded with edges
 70
    26
177
     3
291
     0
 70
    58
 90
        2
176
     1
 90
        2
176
     1
 90
        1
176
     1
 90
        2
176
     1
 40
0.6
176
     1
 40
30.0
176
     1
 62
     7
420
 16777215
176
     1
 90
        1
176
     1
 90
        2
176
     1
 62
     7
176
     1
 62
   257
176
     1
 90
        2
176
     1
 90
        1
176
     1
 40
1.0
176
     1
 90
        8
176
     1
 62
   257
176
     1
 40
1.0
176
     1
 90
        1
176
     1
 90
        6
176
     1
 90
        2
176
     1
 62
     7
176
     1
 90
        3
176
     1
 90
        0
176
     1
 90
        0
176
     1
290
     0
176
     1
 90
        5
176
     1
 40
0.0
176
     1
 90
        0
176
     1
290
     0
176
     1
290
     1
176
     1
290
     1
176
     1
290
     0
176
     1
290
     0
176
     1
290
     0
176
     1
290
     0
176
     1
290
     0
176
     1
290
     0
176
     1
 90
       50
176
     1
 40
0.0
176
     1
 40
1.0
176
     1
 90
        0
176
     1
 62
    18
420
        0
176
     1
 90
       50
176
     1
 90
        3
176
     1
 62
     5
420
      255
176
     1
290
     0
176
     1
 90
       50
176
     1
 90
       50
176
     1
 90
       50
176
     1
290
     0
176
     1
 90
       50
176
     1
 62
   256
176
     0
 40
1.0
176
     0
 90
        2
176
     1
  1
strokes_ogs.tif
176
     1
290
     0
176
     1
 40
1.0
176
     1
 40
1.0
176
     1
  0
VISUALSTYLE
  5
3A
102
{ACAD_REACTORS
330
29
102
}
330
29
100
AcDbVisualStyle
  2
Shades of Gray
 70
    23
177
     3
291
     0
 70
    58
 90
        2
176
     1
 90
        2
176
     1
 90
        3
176
     1
 90
        0
176
     1
 40
0.6
176
     1
 40
30.0
176
     1
 62
     7
420
 16777215
176
     1
 90
        2
176
     1
 90
        2
176
     1
 62
     7
176
     1
 62
     7
176
     1
 90
        1
176
     1
 90
        1
176
     1
 40
40.0
176
     1
 90
        8
176
     1
 62
     7
176
     1
 40
1.0
176
     1
 90
        1
176
     1
 90
        6
176
     1
 90
        2
176
     1
 62
     7
176
     1
 90
        3
176
     1
 90
        0
176
     1
 90
        0
176
     1
290
     0
176
     1
 90
        1
176
     1
 40
0.0
176
     1
 90
        0
176
     1
290
     0
176
     1
290
     1
176
     1
290
     1
176
     1
290
     0
176
     1
290
     0
176
     1
290
     0
176
     1
290
     0
176
     1
290
     0
176
     1
290
     0
176
     1
 90
       50
176
     1
 40
0.0
176
     1
 40
1.0
176
     1
 90
        0
176
     1
 62
    18
420
        0
176
     1
 90
       50
176
     1
 90
        3
176
     1
 62
     5
420
      255
176
     1
290
     0
176
     1
 90
       50
176
     1
 90
       50
176
     1
 90
       50
176
     1
290
     0
176
     1
 90
       50
176
     1
 62
   256
176
     0
 40
1.0
176
     0
 90
        2
176
     1
  1
strokes_ogs.tif
176
     1
290
     0
176
     1
 40
1.0
176
     1
 40
1.0
176
     1
  0
VISUALSTYLE
  5
3B
102
{ACAD_REACTORS
330
29
102
}
330
29
100
AcDbVisualStyle
  2
Sketchy
 70
    24
177
     3
291
     0
 70
    58
 90
        1
176
     1
 90
        2
176
     1
 90
        2
176
     1
 90
        0
176
     1
 40
0.6
176
     1
 40
30.0
176
     1
 62
     7
420
 16777215
176
     1
 90
        2
176
     1
 90
        2
176
     1
 62
     7
176
     1
 62
     7
176
     1
 90
        1
176
     1
 90
        1
176
     1
 40
40.0
176
     1
 90
       11
176
     1
 62
     7
176
     1
 40
1.0
176
     1
 90
        1
176
     1
 90
        6
176
     1
 90
        2
176
     1
 62
     7
176
     1
 90
        6
176
     1
 90
        0
176
     1
 90
        0
176
     1
290
     0
176
     1
 90
        1
176
     1
 40
0.0
176
     1
 90
        0
176
     1
290
     0
176
     1
290
     1
176
     1
290
     1
176
     1
290
     0
176
     1
290
     0
176
     1
290
     0
176
     1
290
     0
176
     1
290
     0
176
     1
290
     0
176
     1
 90
       50
176
     1
 40
0.0
176
     1
 40
1.0
176
     1
 90
        0
176
     1
 62
    18
420
        0
176
     1
 90
       50
176
     1
 90
        3
176
     1
 62
     5
420
      255
176
     1
290
     0
176
     1
 90
       50
176
     1
 90
       50
176
     1
 90
       50
176
     1
290
     0
176
     1
 90
       50
176
     1
 62
   256
176
     0
 40
1.0
176
     0
 90
        2
176
     1
  1
strokes_ogs.tif
176
     1
290
     0
176
     1
 40
1.0
176
     1
 40
1.0
176
     1
  0
VISUALSTYLE
  5
36
102
{ACAD_REACTORS
330
29
102
}
330
29
100
AcDbVisualStyle
  2
Thicken
 70
    13
177
     3
291
     1
 70
    58
 90
        2
176
     1
 90
        2
176
     1
 90
        0
176
     1
 90
        0
176
     1
 40
0.6
176
     1
 40
30.0
176
     1
 62
     7
420
 16777215
176
     1
 90
        1
176
     1
 90
        4
176
     1
 62
     7
176
     1
 62
   257
176
     1
 90
        1
176
     1
 90
        1
176
     1
 40
1.0
176
     1
 90
       12
176
     1
 62
     7
176
     1
 40
1.0
176
     1
 90
        1
176
     1
 90
        6
176
     1
 90
        2
176
     1
 62
     7
176
     1
 90
        5
176
     1
 90
        0
176
     1
 90
        0
176
     1
290
     0
176
     1
 90
        1
176
     1
 40
0.0
176
     1
 90
        0
176
     1
290
     0
176
     1
290
     1
176
     1
290
     1
176
     1
290
     0
176
     1
290
     0
176
     1
290
     0
176
     1
290
     0
176
     1
290
     0
176
     1
290
     0
176
     1
 90
       50
176
     1
 40
0.0
176
     1
 40
1.0
176
     1
 90
        0
176
     1
 62
    18
420
        0
176
     1
 90
       50
176
     1
 90
        3
176
     1
 62
     5
420
      255
176
     1
290
     0
176
     1
 90
       50
176
     1
 90
       50
176
     1
 90
       50
176
     1
290
     0
176
     1
 90
       50
176
     1
 62
   256
176
     0
 40
1.0
176
     0
 90
        2
176
     1
  1
strokes_ogs.tif
176
     1
290
     0
176
     1
 40
1.0
176
     1
 40
1.0
176
     1
  0
VISUALSTYLE
  5
30
102
{ACAD_REACTORS
330
29
102
}
330
29
100
AcDbVisualStyle
  2
Wireframe
 70
     5
177
     3
291
     0
 70
    58
 90
        0
176
     1
 90
        2
176
     1
 90
        0
176
     1
 90
        0
176
     1
 40
0.6
176
     1
 40
30.0
176
     1
 62
     7
420
 16777215
176
     1
 90
        1
176
     1
 90
        4
176
     1
 62
     7
176
     1
 62
   257
176
     1
 90
        1
176
     1
 90
        1
176
     1
 40
1.0
176
     1
 90
        0
176
     1
 62
   257
176
     1
 40
1.0
176
     1
 90
        1
176
     1
 90
        6
176
     1
 90
        2
176
     1
 62
     7
176
     1
 90
        3
176
     1
 90
        0
176
     1
 90
        0
176
     1
290
     0
176
     1
 90
        1
176
     1
 40
0.0
176
     1
 90
        0
176
     1
290
     0
176
     1
290
     1
176
     1
290
     1
176
     1
290
     0
176
     1
290
     0
176
     1
290
     0
176
     1
290
     0
176
     1
290
     0
176
     1
290
     0
176
     1
 90
       50
176
     1
 40
0.0
176
     1
 40
1.0
176
     1
 90
        0
176
     1
 62
    18
420
        0
176
     1
 90
       50
176
     1
 90
        3
176
     1
 62
     5
420
      255
176
     1
290
     0
176
     1
 90
       50
176
     1
 90
       50
176
     1
 90
       50
176
     1
290
     0
176
     1
 90
       50
176
     1
 62
   256
176
     0
 40
1.0
176
     0
 90
        2
176
     1
  1
strokes_ogs.tif
176
     1
290
     0
176
     1
 40
1.0
176
     1
 40
1.0
176
     1
  0
VISUALSTYLE
  5
3C
102
{ACAD_REACTORS
330
29
102
}
330
29
100
AcDbVisualStyle
  2
X-Ray
 70
    25
177
     3
291
     0
 70
    58
 90
        2
176
     1
 90
        2
176
     1
 90
        1
176
     1
 90
        1
176
     1
 40
0.5
176
     1
 40
30.0
176
     1
 62
     7
420
 16777215
176
     1
 90
        1
176
     1
 90
        0
176
     1
 62
     7
176
     1
 62
   257
176
     1
 90
        1
176
     1
 90
        1
176
     1
 40
1.0
176
     1
 90
        8
176
     1
 62
     7
176
     1
 40
1.0
176
     1
 90
        1
176
     1
 90
        6
176
     1
 90
        2
176
     1
 62
     7
176
     1
 90
        3
176
     1
 90
        0
176
     1
 90
        0
176
     1
290
     0
176
     1
 90
       13
176
     1
 40
0.0
176
     1
 90
        0
176
     1
290
     0
176
     1
290
     1
176
     1
290
     1
176
     1
290
     0
176
     1
290
     0
176
     1
290
     0
176
     1
290
     0
176
     1
290
     0
176
     1
290
     0
176
     1
 90
       50
176
     1
 40
0.0
176
     1
 40
1.0
176
     1
 90
        0
176
     1
 62
    18
420
        0
176
     1
 90
       50
176
     1
 90
        3
176
     1
 62
     5
420
      255
176
     1
290
     0
176
     1
 90
       50
176
     1
 90
       50
176
     1
 90
       50
176
     1
290
     0
176
     1
 90
       50
176
     1
 62
   256
176
     0
 40
1.0
176
     0
 90
        2
176
     1
  1
strokes_ogs.tif
176
     1
290
     0
176
     1
 40
1.0
176
     1
 40
1.0
176
     1
  0
DICTIONARYVAR
  5
82
102
{ACAD_REACTORS
330
7D
102
}
330
7D
100
DictionaryVariables
280
     0
  1
1:1
  0
DICTIONARYVAR
  5
7F
102
{ACAD_REACTORS
330
7D
102
}
330
7D
100
DictionaryVariables
280
     0
  1
STANDARD
  0
DICTIONARYVAR
  5
7E
102
{ACAD_REACTORS
330
7D
102
}
330
7D
100
DictionaryVariables
280
     0
  1
STANDARD
  0
DICTIONARYVAR
  5
80
102
{ACAD_REACTORS
330
7D
102
}
330
7D
100
DictionaryVariables
280
     0
  1
Imperial24
  0
DICTIONARYVAR
  5
81
102
{ACAD_REACTORS
330
7D
102
}
330
7D
100
DictionaryVariables
280
     0
  1
Imperial24
  0
DICTIONARY
  5
1A
330
19
100
AcDbDictionary
280
     1
281
     1
  3
BUMPTILE
360
1C
  3
DIFFUSETILE
360
1B
  3
OPACITYTILE
360
1F
  3
REFLECTIONTILE
360
1E
  3
REFRACTIONTILE
360
20
  3
SPECULARTILE
360
1D
  0
DICTIONARY
  5
12
330
11
100
AcDbDictionary
280
     1
281
     1
  3
BUMPTILE
360
14
  3
DIFFUSETILE
360
13
  3
OPACITYTILE
360
17
  3
REFLECTIONTILE
360
16
  3
REFRACTIONTILE
360
18
  3
SPECULARTILE
360
15
  0
DICTIONARY
  5
22
330
21
100
AcDbDictionary
280
     1
281
     1
  3
BUMPTILE
360
24
  3
DIFFUSETILE
360
23
  3
OPACITYTILE
360
27
  3
REFLECTIONTILE
360
26
  3
REFRACTIONTILE
360
28
  3
SPECULARTILE
360
25
  0
DICTIONARY
  5
83
330
65
100
AcDbDictionary
280
     1
281
     1
  3
ACAD_ROUNDTRIP_2008_TABLESTYLE_CELLSTYLEMAP
360
84
  0
XRECORD
  5
1C
102
{ACAD_REACTORS
330
1A
102
}
330
1A
100
AcDbXrecord
280
     1
270
     1
271
     1
  0
XRECORD
  5
1B
102
{ACAD_REACTORS
330
1A
102
}
330
1A
100
AcDbXrecord
280
     1
270
     1
271
     1
  0
XRECORD
  5
1F
102
{ACAD_REACTORS
330
1A
102
}
330
1A
100
AcDbXrecord
280
     1
270
     1
271
     1
  0
XRECORD
  5
1E
102
{ACAD_REACTORS
330
1A
102
}
330
1A
100
AcDbXrecord
280
     1
270
     1
271
     1
  0
XRECORD
  5
20
102
{ACAD_REACTORS
330
1A
102
}
330
1A
100
AcDbXrecord
280
     1
270
     1
271
     1
  0
XRECORD
  5
1D
102
{ACAD_REACTORS
330
1A
102
}
330
1A
100
AcDbXrecord
280
     1
270
     1
271
     1
  0
XRECORD
  5
14
102
{ACAD_REACTORS
330
12
102
}
330
12
100
AcDbXrecord
280
     1
270
     1
271
     1
  0
XRECORD
  5
13
102
{ACAD_REACTORS
330
12
102
}
330
12
100
AcDbXrecord
280
     1
270
     1
271
     1
  0
XRECORD
  5
17
102
{ACAD_REACTORS
330
12
102
}
330
12
100
AcDbXrecord
280
     1
270
     1
271
     1
  0
XRECORD
  5
16
102
{ACAD_REACTORS
330
12
102
}
330
12
100
AcDbXrecord
280
     1
270
     1
271
     1
  0
XRECORD
  5
18
102
{ACAD_REACTORS
330
12
102
}
330
12
100
AcDbXrecord
280
     1
270
     1
271
     1
  0
XRECORD
  5
15
102
{ACAD_REACTORS
330
12
102
}
330
12
100
AcDbXrecord
280
     1
270
     1
271
     1
  0
XRECORD
  5
24
102
{ACAD_REACTORS
330
22
102
}
330
22
100
AcDbXrecord
280
     1
270
     1
271
     1
  0
XRECORD
  5
23
102
{ACAD_REACTORS
330
22
102
}
330
22
100
AcDbXrecord
280
     1
270
     1
271
     1
  0
XRECORD
  5
27
102
{ACAD_REACTORS
330
22
102
}
330
22
100
AcDbXrecord
280
     1
270
     1
271
     1
  0
XRECORD
  5
26
102
{ACAD_REACTORS
330
22
102
}
330
22
100
AcDbXrecord
280
     1
270
     1
271
     1
  0
XRECORD
  5
28
102
{ACAD_REACTORS
330
22
102
}
330
22
100
AcDbXrecord
280
     1
270
     1
271
     1
  0
XRECORD
  5
25
102
{ACAD_REACTORS
330
22
102
}
330
22
100
AcDbXrecord
280
     1
270
     1
271
     1
  0
CELLSTYLEMAP
  5
84
102
{ACAD_REACTORS
330
83
102
}
330
83
100
AcDbCellStyleMap
 90
        3
300
CELLSTYLE
  1
TABLEFORMAT_BEGIN
 90
        5
170
     1
 91
        0
 92
    32768
 62
   257
 93
        1
300
CONTENTFORMAT
  1
CONTENTFORMAT_BEGIN
 90
        0
 91
        0
 92
      512
 93
        0
300

 40
0.0
140
1.0
 94
        5
 62
     0
340
55
144
0.25
309
CONTENTFORMAT_END
171
     0
 94
        0
309
TABLEFORMAT_END
  1
CELLSTYLE_BEGIN
 90
        1
 91
        1
300
_TITLE
309
CELLSTYLE_END
300
CELLSTYLE
  1
TABLEFORMAT_BEGIN
 90
        5
170
     1
 91
        0
 92
        0
 62
   257
 93
        1
300
CONTENTFORMAT
  1
CONTENTFORMAT_BEGIN
 90
        0
 91
        0
 92
      512
 93
        0
300

 40
0.0
140
1.0
 94
        5
 62
     0
340
55
144
0.18
309
CONTENTFORMAT_END
171
     0
 94
        0
309
TABLEFORMAT_END
  1
CELLSTYLE_BEGIN
 90
        2
 91
        1
300
_HEADER
309
CELLSTYLE_END
300
CELLSTYLE
  1
TABLEFORMAT_BEGIN
 90
        5
170
     1
 91
        0
 92
        0
 62
   257
 93
        1
300
CONTENTFORMAT
  1
CONTENTFORMAT_BEGIN
 90
        0
 91
        0
 92
      512
 93
        0
300

 40
0.0
140
1.0
 94
        2
 62
     0
340
55
144
0.18
309
CONTENTFORMAT_END
171
     0
 94
        0
309
TABLEFORMAT_END
  1
CELLSTYLE_BEGIN
 90
        3
 91
        2
300
_DATA
309
CELLSTYLE_END
  0
ENDSEC
  0
EOF
